%TF.GenerationSoftware,KiCad,Pcbnew,7.0.5-7.0.5~ubuntu22.04.1*%
%TF.CreationDate,2023-06-06T13:21:44+02:00*%
%TF.ProjectId,MR-SLDR-01,4d522d53-4c44-4522-9d30-312e6b696361,rev?*%
%TF.SameCoordinates,Original*%
%TF.FileFunction,Soldermask,Top*%
%TF.FilePolarity,Negative*%
%FSLAX46Y46*%
G04 Gerber Fmt 4.6, Leading zero omitted, Abs format (unit mm)*
G04 Created by KiCad (PCBNEW 7.0.5-7.0.5~ubuntu22.04.1) date 2023-06-06 13:21:44*
%MOMM*%
%LPD*%
G01*
G04 APERTURE LIST*
G04 Aperture macros list*
%AMRoundRect*
0 Rectangle with rounded corners*
0 $1 Rounding radius*
0 $2 $3 $4 $5 $6 $7 $8 $9 X,Y pos of 4 corners*
0 Add a 4 corners polygon primitive as box body*
4,1,4,$2,$3,$4,$5,$6,$7,$8,$9,$2,$3,0*
0 Add four circle primitives for the rounded corners*
1,1,$1+$1,$2,$3*
1,1,$1+$1,$4,$5*
1,1,$1+$1,$6,$7*
1,1,$1+$1,$8,$9*
0 Add four rect primitives between the rounded corners*
20,1,$1+$1,$2,$3,$4,$5,0*
20,1,$1+$1,$4,$5,$6,$7,0*
20,1,$1+$1,$6,$7,$8,$9,0*
20,1,$1+$1,$8,$9,$2,$3,0*%
%AMFreePoly0*
4,1,19,0.500000,-0.750000,0.000000,-0.750000,0.000000,-0.744911,-0.071157,-0.744911,-0.207708,-0.704816,-0.327430,-0.627875,-0.420627,-0.520320,-0.479746,-0.390866,-0.500000,-0.250000,-0.500000,0.250000,-0.479746,0.390866,-0.420627,0.520320,-0.327430,0.627875,-0.207708,0.704816,-0.071157,0.744911,0.000000,0.744911,0.000000,0.750000,0.500000,0.750000,0.500000,-0.750000,0.500000,-0.750000,
$1*%
%AMFreePoly1*
4,1,19,0.000000,0.744911,0.071157,0.744911,0.207708,0.704816,0.327430,0.627875,0.420627,0.520320,0.479746,0.390866,0.500000,0.250000,0.500000,-0.250000,0.479746,-0.390866,0.420627,-0.520320,0.327430,-0.627875,0.207708,-0.704816,0.071157,-0.744911,0.000000,-0.744911,0.000000,-0.750000,-0.500000,-0.750000,-0.500000,0.750000,0.000000,0.750000,0.000000,0.744911,0.000000,0.744911,
$1*%
G04 Aperture macros list end*
%ADD10C,0.200000*%
%ADD11C,1.440000*%
%ADD12RoundRect,0.250000X0.350000X0.450000X-0.350000X0.450000X-0.350000X-0.450000X0.350000X-0.450000X0*%
%ADD13RoundRect,0.250000X0.450000X-0.350000X0.450000X0.350000X-0.450000X0.350000X-0.450000X-0.350000X0*%
%ADD14RoundRect,0.250000X-0.350000X0.850000X-0.350000X-0.850000X0.350000X-0.850000X0.350000X0.850000X0*%
%ADD15RoundRect,0.249997X-2.650003X2.950003X-2.650003X-2.950003X2.650003X-2.950003X2.650003X2.950003X0*%
%ADD16C,3.200000*%
%ADD17RoundRect,0.250000X-0.400000X-0.600000X0.400000X-0.600000X0.400000X0.600000X-0.400000X0.600000X0*%
%ADD18RoundRect,0.249999X0.450001X1.425001X-0.450001X1.425001X-0.450001X-1.425001X0.450001X-1.425001X0*%
%ADD19R,0.900000X1.500000*%
%ADD20R,1.500000X0.900000*%
%ADD21R,0.900000X0.900000*%
%ADD22RoundRect,0.250000X-0.350000X-0.450000X0.350000X-0.450000X0.350000X0.450000X-0.350000X0.450000X0*%
%ADD23RoundRect,0.250000X-0.400000X-0.625000X0.400000X-0.625000X0.400000X0.625000X-0.400000X0.625000X0*%
%ADD24FreePoly0,180.000000*%
%ADD25FreePoly1,180.000000*%
%ADD26RoundRect,0.150000X-0.587500X-0.150000X0.587500X-0.150000X0.587500X0.150000X-0.587500X0.150000X0*%
%ADD27RoundRect,0.250000X-0.337500X-0.475000X0.337500X-0.475000X0.337500X0.475000X-0.337500X0.475000X0*%
%ADD28RoundRect,0.250000X0.475000X-0.337500X0.475000X0.337500X-0.475000X0.337500X-0.475000X-0.337500X0*%
%ADD29RoundRect,0.250000X0.412500X0.650000X-0.412500X0.650000X-0.412500X-0.650000X0.412500X-0.650000X0*%
%ADD30R,2.000000X2.000000*%
%ADD31C,2.000000*%
%ADD32RoundRect,0.250000X0.620000X-0.620000X0.620000X0.620000X-0.620000X0.620000X-0.620000X-0.620000X0*%
%ADD33C,1.740000*%
%ADD34FreePoly0,270.000000*%
%ADD35FreePoly1,270.000000*%
%ADD36R,1.000000X1.000000*%
%ADD37RoundRect,0.250000X-0.620000X-0.620000X0.620000X-0.620000X0.620000X0.620000X-0.620000X0.620000X0*%
%ADD38RoundRect,0.100000X0.100000X-0.637500X0.100000X0.637500X-0.100000X0.637500X-0.100000X-0.637500X0*%
%ADD39RoundRect,0.250000X-0.450000X0.350000X-0.450000X-0.350000X0.450000X-0.350000X0.450000X0.350000X0*%
%ADD40RoundRect,0.150000X0.725000X0.150000X-0.725000X0.150000X-0.725000X-0.150000X0.725000X-0.150000X0*%
%ADD41RoundRect,0.250000X-0.475000X0.337500X-0.475000X-0.337500X0.475000X-0.337500X0.475000X0.337500X0*%
%ADD42R,0.400000X1.100000*%
%ADD43R,9.500000X3.400000*%
%ADD44R,3.600000X1.700000*%
%ADD45R,2.900000X5.400000*%
%ADD46RoundRect,0.150000X0.150000X-0.587500X0.150000X0.587500X-0.150000X0.587500X-0.150000X-0.587500X0*%
%ADD47RoundRect,0.250000X0.337500X0.475000X-0.337500X0.475000X-0.337500X-0.475000X0.337500X-0.475000X0*%
%ADD48RoundRect,0.250001X0.624999X-0.462499X0.624999X0.462499X-0.624999X0.462499X-0.624999X-0.462499X0*%
%ADD49RoundRect,0.150000X0.587500X0.150000X-0.587500X0.150000X-0.587500X-0.150000X0.587500X-0.150000X0*%
%ADD50RoundRect,0.150000X0.150000X-0.825000X0.150000X0.825000X-0.150000X0.825000X-0.150000X-0.825000X0*%
%ADD51R,3.000000X2.290000*%
%ADD52R,1.600000X1.600000*%
%ADD53C,1.600000*%
%ADD54R,0.700000X1.000000*%
%ADD55R,0.700000X0.600000*%
%ADD56RoundRect,0.150000X-0.150000X0.587500X-0.150000X-0.587500X0.150000X-0.587500X0.150000X0.587500X0*%
%ADD57RoundRect,0.250000X-0.620000X-0.845000X0.620000X-0.845000X0.620000X0.845000X-0.620000X0.845000X0*%
%ADD58O,1.740000X2.190000*%
%ADD59R,1.350000X1.350000*%
%ADD60O,1.350000X1.350000*%
%ADD61O,1.600000X1.600000*%
%ADD62RoundRect,0.572400X-0.487600X0.572600X-0.487600X-0.572600X0.487600X-0.572600X0.487600X0.572600X0*%
%ADD63RoundRect,0.572400X0.572600X0.487600X-0.572600X0.487600X-0.572600X-0.487600X0.572600X-0.487600X0*%
%ADD64RoundRect,0.150000X0.825000X0.150000X-0.825000X0.150000X-0.825000X-0.150000X0.825000X-0.150000X0*%
%ADD65R,2.290000X3.000000*%
%ADD66R,0.400000X1.350000*%
%ADD67O,0.890000X1.550000*%
%ADD68R,1.200000X1.550000*%
%ADD69O,1.250000X0.950000*%
%ADD70R,1.500000X1.550000*%
%ADD71FreePoly0,0.000000*%
%ADD72FreePoly1,0.000000*%
%ADD73RoundRect,0.250000X0.400000X0.625000X-0.400000X0.625000X-0.400000X-0.625000X0.400000X-0.625000X0*%
%ADD74RoundRect,0.250000X0.620000X0.845000X-0.620000X0.845000X-0.620000X-0.845000X0.620000X-0.845000X0*%
%ADD75R,1.700000X1.700000*%
%ADD76O,1.700000X1.700000*%
%ADD77RoundRect,0.572400X-0.572600X-0.487600X0.572600X-0.487600X0.572600X0.487600X-0.572600X0.487600X0*%
%ADD78RoundRect,0.062500X-0.337500X-0.062500X0.337500X-0.062500X0.337500X0.062500X-0.337500X0.062500X0*%
%ADD79RoundRect,0.062500X-0.062500X-0.337500X0.062500X-0.337500X0.062500X0.337500X-0.062500X0.337500X0*%
%ADD80R,3.350000X3.350000*%
G04 APERTURE END LIST*
D10*
X174600000Y-103900000D02*
X178200000Y-103900000D01*
X178200000Y-107500000D01*
X174600000Y-107500000D01*
X174600000Y-103900000D01*
G36*
X174600000Y-103900000D02*
G01*
X178200000Y-103900000D01*
X178200000Y-107500000D01*
X174600000Y-107500000D01*
X174600000Y-103900000D01*
G37*
D11*
%TO.C,RV1*%
X130600000Y-98180000D03*
X130600000Y-95640000D03*
X130600000Y-93100000D03*
%TD*%
D12*
%TO.C,R20*%
X147400000Y-112200000D03*
X145400000Y-112200000D03*
%TD*%
D13*
%TO.C,R19*%
X108500000Y-92300000D03*
X108500000Y-90300000D03*
%TD*%
D14*
%TO.C,Q5*%
X118580000Y-92160000D03*
D15*
X116300000Y-98460000D03*
D14*
X114020000Y-92160000D03*
%TD*%
D16*
%TO.C,H3*%
X182250001Y-78999999D03*
%TD*%
D17*
%TO.C,D5*%
X127050000Y-105200000D03*
X130550000Y-105200000D03*
%TD*%
D12*
%TO.C,R30*%
X182000000Y-119300000D03*
X180000000Y-119300000D03*
%TD*%
D18*
%TO.C,R17*%
X115850000Y-87400000D03*
X109750000Y-87400000D03*
%TD*%
D19*
%TO.C,U4*%
X184110000Y-98450000D03*
X182840000Y-98450000D03*
X181570000Y-98450000D03*
X180300000Y-98450000D03*
X179030000Y-98450000D03*
X177760000Y-98450000D03*
X176490000Y-98450000D03*
X175220000Y-98450000D03*
X173950000Y-98450000D03*
X172680000Y-98450000D03*
X171410000Y-98450000D03*
X170140000Y-98450000D03*
X168870000Y-98450000D03*
X167600000Y-98450000D03*
D20*
X166350000Y-101480000D03*
X166350000Y-102750000D03*
X166350000Y-104020000D03*
X166350000Y-105290000D03*
X166350000Y-106560000D03*
X166350000Y-107830000D03*
X166350000Y-109100000D03*
X166350000Y-110370000D03*
X166350000Y-111640000D03*
X166350000Y-112910000D03*
D19*
X167600000Y-115950000D03*
X168870000Y-115950000D03*
X170140000Y-115950000D03*
X171410000Y-115950000D03*
X172680000Y-115950000D03*
X173950000Y-115950000D03*
X175220000Y-115950000D03*
X176490000Y-115950000D03*
X177760000Y-115950000D03*
X179030000Y-115950000D03*
X180300000Y-115950000D03*
X181570000Y-115950000D03*
X182840000Y-115950000D03*
X184110000Y-115950000D03*
D21*
X177790000Y-104300000D03*
X176390000Y-104300000D03*
X174990000Y-104300000D03*
X177790000Y-105700000D03*
X176390000Y-105700000D03*
X174990000Y-105700000D03*
X177790000Y-107100000D03*
X176390000Y-107100000D03*
X174990000Y-107100000D03*
%TD*%
D22*
%TO.C,R38*%
X140600000Y-103100000D03*
X142600000Y-103100000D03*
%TD*%
D23*
%TO.C,R36*%
X143850000Y-89100000D03*
X146950000Y-89100000D03*
%TD*%
D13*
%TO.C,R6*%
X119300000Y-105100000D03*
X119300000Y-103100000D03*
%TD*%
D24*
%TO.C,JP4*%
X149850000Y-101800000D03*
D25*
X148550000Y-101800000D03*
%TD*%
D16*
%TO.C,H1*%
X100000001Y-139999999D03*
%TD*%
D26*
%TO.C,Q8*%
X170062500Y-88550000D03*
X170062500Y-90450000D03*
X171937500Y-89500000D03*
%TD*%
D27*
%TO.C,C25*%
X135362500Y-91600000D03*
X137437500Y-91600000D03*
%TD*%
D13*
%TO.C,R14*%
X102100000Y-92300000D03*
X102100000Y-90300000D03*
%TD*%
D28*
%TO.C,C16*%
X105100000Y-124337500D03*
X105100000Y-122262500D03*
%TD*%
D13*
%TO.C,R41*%
X172100000Y-96300000D03*
X172100000Y-94300000D03*
%TD*%
D29*
%TO.C,C20*%
X118062500Y-112700000D03*
X114937500Y-112700000D03*
%TD*%
D30*
%TO.C,C19*%
X119000000Y-119100000D03*
D31*
X114000000Y-119100000D03*
%TD*%
D32*
%TO.C,J10*%
X100250000Y-117770000D03*
D33*
X100250000Y-115230000D03*
%TD*%
D34*
%TO.C,JP6*%
X166100000Y-118450000D03*
D35*
X166100000Y-119750000D03*
%TD*%
D36*
%TO.C,TP7*%
X184600000Y-135800000D03*
%TD*%
D12*
%TO.C,R35*%
X154700000Y-98500000D03*
X152700000Y-98500000D03*
%TD*%
D37*
%TO.C,J1*%
X129330000Y-84750000D03*
D33*
X131870000Y-84750000D03*
%TD*%
D38*
%TO.C,U1*%
X105275000Y-104862500D03*
X105925000Y-104862500D03*
X106575000Y-104862500D03*
X107225000Y-104862500D03*
X107875000Y-104862500D03*
X108525000Y-104862500D03*
X109175000Y-104862500D03*
X109825000Y-104862500D03*
X110475000Y-104862500D03*
X111125000Y-104862500D03*
X111125000Y-99137500D03*
X110475000Y-99137500D03*
X109825000Y-99137500D03*
X109175000Y-99137500D03*
X108525000Y-99137500D03*
X107875000Y-99137500D03*
X107225000Y-99137500D03*
X106575000Y-99137500D03*
X105925000Y-99137500D03*
X105275000Y-99137500D03*
%TD*%
D27*
%TO.C,C2*%
X104362500Y-107000000D03*
X106437500Y-107000000D03*
%TD*%
D39*
%TO.C,R33*%
X184000000Y-119200000D03*
X184000000Y-121200000D03*
%TD*%
D34*
%TO.C,JP8*%
X156900000Y-98350000D03*
D35*
X156900000Y-99650000D03*
%TD*%
D40*
%TO.C,U7*%
X173775000Y-122005000D03*
X173775000Y-120735000D03*
X173775000Y-119465000D03*
X173775000Y-118195000D03*
X168625000Y-118195000D03*
X168625000Y-119465000D03*
X168625000Y-120735000D03*
X168625000Y-122005000D03*
%TD*%
D41*
%TO.C,C22*%
X177900000Y-130262500D03*
X177900000Y-132337500D03*
%TD*%
D36*
%TO.C,TP1*%
X159400000Y-116600000D03*
%TD*%
%TO.C,TP8*%
X156400000Y-129700000D03*
%TD*%
D22*
%TO.C,R29*%
X182500000Y-131800000D03*
X184500000Y-131800000D03*
%TD*%
D28*
%TO.C,C15*%
X105100000Y-128937500D03*
X105100000Y-126862500D03*
%TD*%
D14*
%TO.C,Q4*%
X125880000Y-92160000D03*
D15*
X123600000Y-98460000D03*
D14*
X121320000Y-92160000D03*
%TD*%
D16*
%TO.C,H2*%
X182250001Y-139999999D03*
%TD*%
%TO.C,H4*%
X100000001Y-78999999D03*
%TD*%
D13*
%TO.C,R9*%
X103600000Y-101100000D03*
X103600000Y-99100000D03*
%TD*%
%TO.C,R24*%
X103000000Y-124300000D03*
X103000000Y-122300000D03*
%TD*%
D27*
%TO.C,C3*%
X104362500Y-109100000D03*
X106437500Y-109100000D03*
%TD*%
D22*
%TO.C,R1*%
X141200000Y-134300000D03*
X143200000Y-134300000D03*
%TD*%
D42*
%TO.C,U6*%
X146325000Y-94150000D03*
X145675000Y-94150000D03*
X145025000Y-94150000D03*
X144375000Y-94150000D03*
X143725000Y-94150000D03*
X143075000Y-94150000D03*
X142425000Y-94150000D03*
X141775000Y-94150000D03*
X141125000Y-94150000D03*
X140475000Y-94150000D03*
X139825000Y-94150000D03*
X139175000Y-94150000D03*
X138525000Y-94150000D03*
X137875000Y-94150000D03*
X137875000Y-99850000D03*
X138525000Y-99850000D03*
X139175000Y-99850000D03*
X139825000Y-99850000D03*
X140475000Y-99850000D03*
X141125000Y-99850000D03*
X141775000Y-99850000D03*
X142425000Y-99850000D03*
X143075000Y-99850000D03*
X143725000Y-99850000D03*
X144375000Y-99850000D03*
X145025000Y-99850000D03*
X145675000Y-99850000D03*
X146325000Y-99850000D03*
D43*
X142100000Y-97000000D03*
%TD*%
D44*
%TO.C,L2*%
X119000000Y-134500000D03*
X119000000Y-125500000D03*
%TD*%
D34*
%TO.C,JP1*%
X180300000Y-132450000D03*
D35*
X180300000Y-133750000D03*
%TD*%
D22*
%TO.C,R28*%
X177600000Y-135800000D03*
X179600000Y-135800000D03*
%TD*%
D13*
%TO.C,R2*%
X117300000Y-105100000D03*
X117300000Y-103100000D03*
%TD*%
D12*
%TO.C,R47*%
X131100000Y-134400000D03*
X129100000Y-134400000D03*
%TD*%
D45*
%TO.C,L1*%
X142150000Y-120100000D03*
X152050000Y-120100000D03*
%TD*%
D46*
%TO.C,Q6*%
X171150000Y-127875000D03*
X173050000Y-127875000D03*
X172100000Y-126000000D03*
%TD*%
D13*
%TO.C,R21*%
X135400000Y-112100000D03*
X135400000Y-110100000D03*
%TD*%
%TO.C,R4*%
X121300000Y-105100000D03*
X121300000Y-103100000D03*
%TD*%
D21*
%TO.C,RN1*%
X178300000Y-92900000D03*
X176960000Y-92900000D03*
X175640000Y-92900000D03*
X174300000Y-92900000D03*
X174300000Y-95900000D03*
X175640000Y-95900000D03*
X176960000Y-95900000D03*
X178300000Y-95900000D03*
%TD*%
D39*
%TO.C,R7*%
X128500000Y-126400000D03*
X128500000Y-128400000D03*
%TD*%
D28*
%TO.C,C9*%
X104300000Y-97237500D03*
X104300000Y-95162500D03*
%TD*%
D12*
%TO.C,R40*%
X170400000Y-123900000D03*
X168400000Y-123900000D03*
%TD*%
D27*
%TO.C,C21*%
X181562500Y-96200000D03*
X183637500Y-96200000D03*
%TD*%
D47*
%TO.C,C13*%
X157437500Y-116600000D03*
X155362500Y-116600000D03*
%TD*%
D48*
%TO.C,F1*%
X99800000Y-93387500D03*
X99800000Y-90412500D03*
%TD*%
D22*
%TO.C,R27*%
X182500000Y-133800000D03*
X184500000Y-133800000D03*
%TD*%
D37*
%TO.C,J9*%
X153230000Y-84350000D03*
D33*
X155770000Y-84350000D03*
%TD*%
D22*
%TO.C,R32*%
X176200000Y-121200000D03*
X178200000Y-121200000D03*
%TD*%
D49*
%TO.C,Q2*%
X135037500Y-134550000D03*
X135037500Y-132650000D03*
X133162500Y-133600000D03*
%TD*%
D50*
%TO.C,U3*%
X106995000Y-127700000D03*
X108265000Y-127700000D03*
X109535000Y-127700000D03*
X110805000Y-127700000D03*
X110805000Y-122750000D03*
X109535000Y-122750000D03*
X108265000Y-122750000D03*
X106995000Y-122750000D03*
D51*
X108900000Y-125225000D03*
%TD*%
D22*
%TO.C,R48*%
X135000000Y-105300000D03*
X137000000Y-105300000D03*
%TD*%
D49*
%TO.C,Q1*%
X139137500Y-134550000D03*
X139137500Y-132650000D03*
X137262500Y-133600000D03*
%TD*%
D13*
%TO.C,R10*%
X113200000Y-105100000D03*
X113200000Y-103100000D03*
%TD*%
%TO.C,R15*%
X104250001Y-92300000D03*
X104250001Y-90300000D03*
%TD*%
D52*
%TO.C,C11*%
X158500000Y-120997349D03*
D53*
X158500000Y-124797349D03*
%TD*%
D54*
%TO.C,D4*%
X174100000Y-129900000D03*
D55*
X174100000Y-131600000D03*
X176100000Y-131600000D03*
X176100000Y-129700000D03*
%TD*%
D34*
%TO.C,JP7*%
X171900000Y-82850000D03*
D35*
X171900000Y-84150000D03*
%TD*%
D12*
%TO.C,R39*%
X174200000Y-123900000D03*
X172200000Y-123900000D03*
%TD*%
D56*
%TO.C,Q3*%
X129450000Y-130462500D03*
X127550000Y-130462500D03*
X128500000Y-132337500D03*
%TD*%
D57*
%TO.C,J5*%
X138490000Y-84420000D03*
D58*
X141030000Y-84420000D03*
X143570000Y-84420000D03*
X146110000Y-84420000D03*
%TD*%
D47*
%TO.C,C4*%
X110837500Y-109100000D03*
X108762500Y-109100000D03*
%TD*%
D39*
%TO.C,R8*%
X123300000Y-103100000D03*
X123300000Y-105100000D03*
%TD*%
D12*
%TO.C,R12*%
X135300000Y-120000000D03*
X133300000Y-120000000D03*
%TD*%
D13*
%TO.C,R42*%
X169900000Y-96300000D03*
X169900000Y-94300000D03*
%TD*%
D49*
%TO.C,D6*%
X153175000Y-111550000D03*
X153175000Y-109650000D03*
X151300000Y-110600000D03*
%TD*%
D27*
%TO.C,C23*%
X134462500Y-102000000D03*
X136537500Y-102000000D03*
%TD*%
D59*
%TO.C,J4*%
X157900000Y-102400000D03*
D60*
X159900000Y-102400000D03*
X157900000Y-104400000D03*
X159900000Y-104400000D03*
X157900000Y-106400000D03*
X159900000Y-106400000D03*
X157900000Y-108400000D03*
X159900000Y-108400000D03*
X157900000Y-110400000D03*
X159900000Y-110400000D03*
%TD*%
D52*
%TO.C,U8*%
X174925000Y-90200000D03*
D61*
X177465000Y-90200000D03*
X177465000Y-82580000D03*
X174925000Y-82580000D03*
%TD*%
D47*
%TO.C,C5*%
X110837500Y-107000000D03*
X108762500Y-107000000D03*
%TD*%
D12*
%TO.C,R43*%
X172000000Y-86700000D03*
X170000000Y-86700000D03*
%TD*%
D28*
%TO.C,C8*%
X102200000Y-97237500D03*
X102200000Y-95162500D03*
%TD*%
D52*
%TO.C,U9*%
X162900000Y-90400000D03*
D61*
X160360000Y-90400000D03*
X160360000Y-98020000D03*
X162900000Y-98020000D03*
%TD*%
D62*
%TO.C,D3*%
X124000000Y-123360000D03*
X124000000Y-119040000D03*
%TD*%
D63*
%TO.C,D2*%
X138280000Y-111000000D03*
X142600000Y-111000000D03*
%TD*%
D24*
%TO.C,JP5*%
X149850000Y-99100000D03*
D25*
X148550000Y-99100000D03*
%TD*%
D37*
%TO.C,J8*%
X162230000Y-84350000D03*
D33*
X164770000Y-84350000D03*
%TD*%
D27*
%TO.C,C30*%
X162762500Y-129500000D03*
X164837500Y-129500000D03*
%TD*%
D13*
%TO.C,R16*%
X106400000Y-92300000D03*
X106400000Y-90300000D03*
%TD*%
D18*
%TO.C,R23*%
X124150000Y-83400000D03*
X118050000Y-83400000D03*
%TD*%
D28*
%TO.C,C12*%
X108500000Y-97237500D03*
X108500000Y-95162500D03*
%TD*%
D13*
%TO.C,R11*%
X103687501Y-105074999D03*
X103687501Y-103074999D03*
%TD*%
D30*
%TO.C,C1*%
X137400000Y-126500000D03*
D31*
X132400000Y-126500000D03*
%TD*%
D18*
%TO.C,R22*%
X115850000Y-83400000D03*
X109750000Y-83400000D03*
%TD*%
D36*
%TO.C,TP5*%
X174900000Y-127800000D03*
%TD*%
%TO.C,TP3*%
X177200000Y-118600000D03*
%TD*%
D47*
%TO.C,C6*%
X139237500Y-120000000D03*
X137162500Y-120000000D03*
%TD*%
D39*
%TO.C,R49*%
X132600000Y-103400000D03*
X132600000Y-105400000D03*
%TD*%
%TO.C,R25*%
X108100000Y-114700000D03*
X108100000Y-116700000D03*
%TD*%
D36*
%TO.C,TP6*%
X177000000Y-127800000D03*
%TD*%
%TO.C,Batt.meas1*%
X138900000Y-105400000D03*
%TD*%
D39*
%TO.C,R13*%
X111700000Y-95000000D03*
X111700000Y-97000000D03*
%TD*%
D36*
%TO.C,TP2*%
X120200000Y-112600000D03*
%TD*%
D13*
%TO.C,R46*%
X165700000Y-92000000D03*
X165700000Y-90000000D03*
%TD*%
D64*
%TO.C,U2*%
X138475000Y-118105000D03*
X138475000Y-116835000D03*
X138475000Y-115565000D03*
X138475000Y-114295000D03*
X133525000Y-114295000D03*
X133525000Y-115565000D03*
X133525000Y-116835000D03*
X133525000Y-118105000D03*
D65*
X136000000Y-116200000D03*
%TD*%
D52*
%TO.C,C14*%
X110300000Y-133400000D03*
D53*
X106500000Y-133400000D03*
%TD*%
D22*
%TO.C,R34*%
X180000000Y-121300000D03*
X182000000Y-121300000D03*
%TD*%
D57*
%TO.C,J2*%
X98600000Y-85900000D03*
D58*
X101140000Y-85900000D03*
X103680000Y-85900000D03*
X106220000Y-85900000D03*
%TD*%
D66*
%TO.C,J3*%
X170800000Y-134100000D03*
X171450000Y-134100000D03*
X172100000Y-134100000D03*
X172750000Y-134100000D03*
X173400000Y-134100000D03*
D67*
X168600000Y-136800000D03*
D68*
X169200000Y-136800000D03*
D69*
X169600000Y-134100000D03*
D70*
X171100000Y-136800000D03*
X173100000Y-136800000D03*
D69*
X174600000Y-134100000D03*
D68*
X175000000Y-136800000D03*
D67*
X175600000Y-136800000D03*
%TD*%
D41*
%TO.C,C27*%
X149100000Y-87162500D03*
X149100000Y-89237500D03*
%TD*%
D46*
%TO.C,Q9*%
X166150000Y-96137500D03*
X168050000Y-96137500D03*
X167100000Y-94262500D03*
%TD*%
D28*
%TO.C,C28*%
X148475001Y-96362499D03*
X148475001Y-94287499D03*
%TD*%
%TO.C,C10*%
X106400000Y-97237500D03*
X106400000Y-95162500D03*
%TD*%
D41*
%TO.C,C17*%
X112700000Y-127362500D03*
X112700000Y-129437500D03*
%TD*%
D52*
%TO.C,C24*%
X154100000Y-95102651D03*
D53*
X154100000Y-91302651D03*
%TD*%
D13*
%TO.C,R3*%
X125700000Y-134600000D03*
X125700000Y-132600000D03*
%TD*%
D71*
%TO.C,JP2*%
X160350000Y-113200000D03*
D72*
X161650000Y-113200000D03*
%TD*%
D13*
%TO.C,R45*%
X169600000Y-84600000D03*
X169600000Y-82600000D03*
%TD*%
D36*
%TO.C,TP4*%
X180100000Y-123400000D03*
%TD*%
D73*
%TO.C,R37*%
X140550000Y-89100000D03*
X137450000Y-89100000D03*
%TD*%
D74*
%TO.C,J6*%
X163950000Y-134480000D03*
D58*
X161410000Y-134480000D03*
X158870000Y-134480000D03*
X156330000Y-134480000D03*
X153790000Y-134480000D03*
X151250000Y-134480000D03*
%TD*%
D39*
%TO.C,R44*%
X167800000Y-90000000D03*
X167800000Y-92000000D03*
%TD*%
D46*
%TO.C,Q7*%
X176350000Y-125137500D03*
X178250000Y-125137500D03*
X177300000Y-123262500D03*
%TD*%
D41*
%TO.C,C18*%
X103000000Y-126862500D03*
X103000000Y-128937500D03*
%TD*%
D24*
%TO.C,JP3*%
X149850000Y-104500000D03*
D25*
X148550000Y-104500000D03*
%TD*%
D28*
%TO.C,C29*%
X166300000Y-123837500D03*
X166300000Y-121762500D03*
%TD*%
D27*
%TO.C,C26*%
X146562500Y-91600000D03*
X148637500Y-91600000D03*
%TD*%
D39*
%TO.C,R5*%
X115300000Y-103100000D03*
X115300000Y-105100000D03*
%TD*%
D75*
%TO.C,J7*%
X183690000Y-84700000D03*
D76*
X181150000Y-84700000D03*
X183690000Y-87240000D03*
X181150000Y-87240000D03*
X183690000Y-89780000D03*
X181150000Y-89780000D03*
X183690000Y-92320000D03*
X181150000Y-92320000D03*
%TD*%
D77*
%TO.C,D1*%
X146120001Y-131199999D03*
X141800001Y-131199999D03*
%TD*%
D71*
%TO.C,JP9*%
X129350000Y-102800000D03*
D72*
X130650000Y-102800000D03*
%TD*%
D78*
%TO.C,U5*%
X179750000Y-126100000D03*
X179750000Y-126600000D03*
X179750000Y-127100000D03*
X179750000Y-127600000D03*
X179750000Y-128100000D03*
X179750000Y-128600000D03*
X179750000Y-129100000D03*
D79*
X180700000Y-130050000D03*
X181200000Y-130050000D03*
X181700000Y-130050000D03*
X182200000Y-130050000D03*
X182700000Y-130050000D03*
X183200000Y-130050000D03*
X183700000Y-130050000D03*
D78*
X184650000Y-129100000D03*
X184650000Y-128600000D03*
X184650000Y-128100000D03*
X184650000Y-127600000D03*
X184650000Y-127100000D03*
X184650000Y-126600000D03*
X184650000Y-126100000D03*
D79*
X183700000Y-125150000D03*
X183200000Y-125150000D03*
X182700000Y-125150000D03*
X182200000Y-125150000D03*
X181700000Y-125150000D03*
X181200000Y-125150000D03*
X180700000Y-125150000D03*
D80*
X182200000Y-127600000D03*
%TD*%
D18*
%TO.C,R18*%
X124150000Y-87400000D03*
X118050000Y-87400000D03*
%TD*%
D12*
%TO.C,R26*%
X108700000Y-120200000D03*
X106700000Y-120200000D03*
%TD*%
%TO.C,R31*%
X184100000Y-123300000D03*
X182100000Y-123300000D03*
%TD*%
M02*
