%TF.GenerationSoftware,KiCad,Pcbnew,7.0.2-6a45011f42~172~ubuntu22.04.1*%
%TF.CreationDate,2023-06-02T03:11:57+02:00*%
%TF.ProjectId,MR-SLDR-01,4d522d53-4c44-4522-9d30-312e6b696361,rev?*%
%TF.SameCoordinates,Original*%
%TF.FileFunction,Paste,Top*%
%TF.FilePolarity,Positive*%
%FSLAX46Y46*%
G04 Gerber Fmt 4.6, Leading zero omitted, Abs format (unit mm)*
G04 Created by KiCad (PCBNEW 7.0.2-6a45011f42~172~ubuntu22.04.1) date 2023-06-02 03:11:57*
%MOMM*%
%LPD*%
G01*
G04 APERTURE LIST*
G04 Aperture macros list*
%AMRoundRect*
0 Rectangle with rounded corners*
0 $1 Rounding radius*
0 $2 $3 $4 $5 $6 $7 $8 $9 X,Y pos of 4 corners*
0 Add a 4 corners polygon primitive as box body*
4,1,4,$2,$3,$4,$5,$6,$7,$8,$9,$2,$3,0*
0 Add four circle primitives for the rounded corners*
1,1,$1+$1,$2,$3*
1,1,$1+$1,$4,$5*
1,1,$1+$1,$6,$7*
1,1,$1+$1,$8,$9*
0 Add four rect primitives between the rounded corners*
20,1,$1+$1,$2,$3,$4,$5,0*
20,1,$1+$1,$4,$5,$6,$7,0*
20,1,$1+$1,$6,$7,$8,$9,0*
20,1,$1+$1,$8,$9,$2,$3,0*%
G04 Aperture macros list end*
%ADD10RoundRect,0.250000X-0.400000X-0.600000X0.400000X-0.600000X0.400000X0.600000X-0.400000X0.600000X0*%
%ADD11RoundRect,0.250000X0.350000X0.450000X-0.350000X0.450000X-0.350000X-0.450000X0.350000X-0.450000X0*%
%ADD12RoundRect,0.250000X0.450000X-0.350000X0.450000X0.350000X-0.450000X0.350000X-0.450000X-0.350000X0*%
%ADD13RoundRect,0.250000X-0.350000X0.850000X-0.350000X-0.850000X0.350000X-0.850000X0.350000X0.850000X0*%
%ADD14RoundRect,0.250000X-1.125000X1.275000X-1.125000X-1.275000X1.125000X-1.275000X1.125000X1.275000X0*%
%ADD15RoundRect,0.249999X0.450001X1.425001X-0.450001X1.425001X-0.450001X-1.425001X0.450001X-1.425001X0*%
%ADD16R,0.900000X1.500000*%
%ADD17R,1.500000X0.900000*%
%ADD18R,0.900000X0.900000*%
%ADD19RoundRect,0.250000X-0.350000X-0.450000X0.350000X-0.450000X0.350000X0.450000X-0.350000X0.450000X0*%
%ADD20RoundRect,0.250000X-0.400000X-0.625000X0.400000X-0.625000X0.400000X0.625000X-0.400000X0.625000X0*%
%ADD21RoundRect,0.150000X-0.587500X-0.150000X0.587500X-0.150000X0.587500X0.150000X-0.587500X0.150000X0*%
%ADD22RoundRect,0.250000X-0.337500X-0.475000X0.337500X-0.475000X0.337500X0.475000X-0.337500X0.475000X0*%
%ADD23RoundRect,0.250000X0.475000X-0.337500X0.475000X0.337500X-0.475000X0.337500X-0.475000X-0.337500X0*%
%ADD24RoundRect,0.250000X0.412500X0.650000X-0.412500X0.650000X-0.412500X-0.650000X0.412500X-0.650000X0*%
%ADD25RoundRect,0.100000X0.100000X-0.637500X0.100000X0.637500X-0.100000X0.637500X-0.100000X-0.637500X0*%
%ADD26RoundRect,0.250000X-0.450000X0.350000X-0.450000X-0.350000X0.450000X-0.350000X0.450000X0.350000X0*%
%ADD27RoundRect,0.150000X0.725000X0.150000X-0.725000X0.150000X-0.725000X-0.150000X0.725000X-0.150000X0*%
%ADD28RoundRect,0.250000X-0.475000X0.337500X-0.475000X-0.337500X0.475000X-0.337500X0.475000X0.337500X0*%
%ADD29R,1.400000X1.400000*%
%ADD30R,0.400000X1.100000*%
%ADD31R,3.600000X1.700000*%
%ADD32R,2.900000X5.400000*%
%ADD33RoundRect,0.150000X0.150000X-0.587500X0.150000X0.587500X-0.150000X0.587500X-0.150000X-0.587500X0*%
%ADD34RoundRect,0.250000X0.337500X0.475000X-0.337500X0.475000X-0.337500X-0.475000X0.337500X-0.475000X0*%
%ADD35RoundRect,0.250001X0.624999X-0.462499X0.624999X0.462499X-0.624999X0.462499X-0.624999X-0.462499X0*%
%ADD36RoundRect,0.150000X0.587500X0.150000X-0.587500X0.150000X-0.587500X-0.150000X0.587500X-0.150000X0*%
%ADD37RoundRect,0.230000X0.375000X-0.230000X0.375000X0.230000X-0.375000X0.230000X-0.375000X-0.230000X0*%
%ADD38RoundRect,0.150000X0.150000X-0.825000X0.150000X0.825000X-0.150000X0.825000X-0.150000X-0.825000X0*%
%ADD39R,0.700000X1.000000*%
%ADD40R,0.700000X0.600000*%
%ADD41RoundRect,0.150000X-0.150000X0.587500X-0.150000X-0.587500X0.150000X-0.587500X0.150000X0.587500X0*%
%ADD42RoundRect,0.572400X-0.487600X0.572600X-0.487600X-0.572600X0.487600X-0.572600X0.487600X0.572600X0*%
%ADD43RoundRect,0.572400X0.572600X0.487600X-0.572600X0.487600X-0.572600X-0.487600X0.572600X-0.487600X0*%
%ADD44RoundRect,0.230000X0.230000X0.375000X-0.230000X0.375000X-0.230000X-0.375000X0.230000X-0.375000X0*%
%ADD45RoundRect,0.150000X0.825000X0.150000X-0.825000X0.150000X-0.825000X-0.150000X0.825000X-0.150000X0*%
%ADD46O,0.890000X1.550000*%
%ADD47O,1.250000X0.950000*%
%ADD48R,0.400000X1.350000*%
%ADD49R,1.200000X1.550000*%
%ADD50R,1.500000X1.550000*%
%ADD51RoundRect,0.250000X0.400000X0.625000X-0.400000X0.625000X-0.400000X-0.625000X0.400000X-0.625000X0*%
%ADD52RoundRect,0.572400X-0.572600X-0.487600X0.572600X-0.487600X0.572600X0.487600X-0.572600X0.487600X0*%
%ADD53RoundRect,0.225000X-0.225000X-0.225000X0.225000X-0.225000X0.225000X0.225000X-0.225000X0.225000X0*%
%ADD54RoundRect,0.062500X-0.337500X-0.062500X0.337500X-0.062500X0.337500X0.062500X-0.337500X0.062500X0*%
%ADD55RoundRect,0.062500X-0.062500X-0.337500X0.062500X-0.337500X0.062500X0.337500X-0.062500X0.337500X0*%
G04 APERTURE END LIST*
D10*
%TO.C,D5*%
X127050000Y-105200000D03*
X130550000Y-105200000D03*
%TD*%
D11*
%TO.C,R20*%
X147400000Y-112200000D03*
X145400000Y-112200000D03*
%TD*%
D12*
%TO.C,R19*%
X108500000Y-92300000D03*
X108500000Y-90300000D03*
%TD*%
D13*
%TO.C,Q5*%
X118580000Y-92160000D03*
D14*
X117825000Y-96785000D03*
X114775000Y-96785000D03*
X117825000Y-100135000D03*
X114775000Y-100135000D03*
D13*
X114020000Y-92160000D03*
%TD*%
D11*
%TO.C,R30*%
X182000000Y-119300000D03*
X180000000Y-119300000D03*
%TD*%
D15*
%TO.C,R17*%
X115850000Y-87400000D03*
X109750000Y-87400000D03*
%TD*%
D16*
%TO.C,U4*%
X184110000Y-98450000D03*
X182840000Y-98450000D03*
X181570000Y-98450000D03*
X180300000Y-98450000D03*
X179030000Y-98450000D03*
X177760000Y-98450000D03*
X176490000Y-98450000D03*
X175220000Y-98450000D03*
X173950000Y-98450000D03*
X172680000Y-98450000D03*
X171410000Y-98450000D03*
X170140000Y-98450000D03*
X168870000Y-98450000D03*
X167600000Y-98450000D03*
D17*
X166350000Y-101480000D03*
X166350000Y-102750000D03*
X166350000Y-104020000D03*
X166350000Y-105290000D03*
X166350000Y-106560000D03*
X166350000Y-107830000D03*
X166350000Y-109100000D03*
X166350000Y-110370000D03*
X166350000Y-111640000D03*
X166350000Y-112910000D03*
D16*
X167600000Y-115950000D03*
X168870000Y-115950000D03*
X170140000Y-115950000D03*
X171410000Y-115950000D03*
X172680000Y-115950000D03*
X173950000Y-115950000D03*
X175220000Y-115950000D03*
X176490000Y-115950000D03*
X177760000Y-115950000D03*
X179030000Y-115950000D03*
X180300000Y-115950000D03*
X181570000Y-115950000D03*
X182840000Y-115950000D03*
X184110000Y-115950000D03*
D18*
X177790000Y-104300000D03*
X176390000Y-104300000D03*
X174990000Y-104300000D03*
X177790000Y-105700000D03*
X176390000Y-105700000D03*
X174990000Y-105700000D03*
X177790000Y-107100000D03*
X176390000Y-107100000D03*
X174990000Y-107100000D03*
%TD*%
D19*
%TO.C,R38*%
X140600000Y-103100000D03*
X142600000Y-103100000D03*
%TD*%
D20*
%TO.C,R36*%
X143850000Y-89100000D03*
X146950000Y-89100000D03*
%TD*%
D12*
%TO.C,R6*%
X119300000Y-105100000D03*
X119300000Y-103100000D03*
%TD*%
D21*
%TO.C,Q8*%
X170062500Y-88550000D03*
X170062500Y-90450000D03*
X171937500Y-89500000D03*
%TD*%
D22*
%TO.C,C25*%
X135362500Y-91600000D03*
X137437500Y-91600000D03*
%TD*%
D12*
%TO.C,R14*%
X102100000Y-92300000D03*
X102100000Y-90300000D03*
%TD*%
D23*
%TO.C,C16*%
X105100000Y-124337500D03*
X105100000Y-122262500D03*
%TD*%
D12*
%TO.C,R41*%
X172100000Y-96300000D03*
X172100000Y-94300000D03*
%TD*%
D24*
%TO.C,C20*%
X118062500Y-112700000D03*
X114937500Y-112700000D03*
%TD*%
D11*
%TO.C,R35*%
X154700000Y-98500000D03*
X152700000Y-98500000D03*
%TD*%
D25*
%TO.C,U1*%
X105275000Y-104862500D03*
X105925000Y-104862500D03*
X106575000Y-104862500D03*
X107225000Y-104862500D03*
X107875000Y-104862500D03*
X108525000Y-104862500D03*
X109175000Y-104862500D03*
X109825000Y-104862500D03*
X110475000Y-104862500D03*
X111125000Y-104862500D03*
X111125000Y-99137500D03*
X110475000Y-99137500D03*
X109825000Y-99137500D03*
X109175000Y-99137500D03*
X108525000Y-99137500D03*
X107875000Y-99137500D03*
X107225000Y-99137500D03*
X106575000Y-99137500D03*
X105925000Y-99137500D03*
X105275000Y-99137500D03*
%TD*%
D22*
%TO.C,C2*%
X104362500Y-107000000D03*
X106437500Y-107000000D03*
%TD*%
D26*
%TO.C,R33*%
X184000000Y-119200000D03*
X184000000Y-121200000D03*
%TD*%
D27*
%TO.C,U7*%
X173775000Y-122005000D03*
X173775000Y-120735000D03*
X173775000Y-119465000D03*
X173775000Y-118195000D03*
X168625000Y-118195000D03*
X168625000Y-119465000D03*
X168625000Y-120735000D03*
X168625000Y-122005000D03*
%TD*%
D28*
%TO.C,C22*%
X177900000Y-130262500D03*
X177900000Y-132337500D03*
%TD*%
D19*
%TO.C,R29*%
X182500000Y-131800000D03*
X184500000Y-131800000D03*
%TD*%
D23*
%TO.C,C15*%
X105100000Y-128937500D03*
X105100000Y-126862500D03*
%TD*%
D13*
%TO.C,Q4*%
X125880000Y-92160000D03*
D14*
X125125000Y-96785000D03*
X122075000Y-96785000D03*
X125125000Y-100135000D03*
X122075000Y-100135000D03*
D13*
X121320000Y-92160000D03*
%TD*%
D12*
%TO.C,R9*%
X103600000Y-101100000D03*
X103600000Y-99100000D03*
%TD*%
%TO.C,R24*%
X103000000Y-124300000D03*
X103000000Y-122300000D03*
%TD*%
D22*
%TO.C,C3*%
X104362500Y-109100000D03*
X106437500Y-109100000D03*
%TD*%
D19*
%TO.C,R1*%
X141200000Y-134300000D03*
X143200000Y-134300000D03*
%TD*%
D29*
%TO.C,U6*%
X145660000Y-96150000D03*
X143880000Y-96150000D03*
X142100000Y-96150000D03*
X140320000Y-96150000D03*
X138540000Y-96150000D03*
X145660000Y-97850000D03*
X143880000Y-97850000D03*
X142100000Y-97850000D03*
X140320000Y-97850000D03*
X138540000Y-97850000D03*
D30*
X146325000Y-94150000D03*
X145675000Y-94150000D03*
X145025000Y-94150000D03*
X144375000Y-94150000D03*
X143725000Y-94150000D03*
X143075000Y-94150000D03*
X142425000Y-94150000D03*
X141775000Y-94150000D03*
X141125000Y-94150000D03*
X140475000Y-94150000D03*
X139825000Y-94150000D03*
X139175000Y-94150000D03*
X138525000Y-94150000D03*
X137875000Y-94150000D03*
X137875000Y-99850000D03*
X138525000Y-99850000D03*
X139175000Y-99850000D03*
X139825000Y-99850000D03*
X140475000Y-99850000D03*
X141125000Y-99850000D03*
X141775000Y-99850000D03*
X142425000Y-99850000D03*
X143075000Y-99850000D03*
X143725000Y-99850000D03*
X144375000Y-99850000D03*
X145025000Y-99850000D03*
X145675000Y-99850000D03*
X146325000Y-99850000D03*
%TD*%
D31*
%TO.C,L2*%
X119000000Y-134500000D03*
X119000000Y-125500000D03*
%TD*%
D19*
%TO.C,R28*%
X177600000Y-135800000D03*
X179600000Y-135800000D03*
%TD*%
D12*
%TO.C,R2*%
X117300000Y-105100000D03*
X117300000Y-103100000D03*
%TD*%
D11*
%TO.C,R47*%
X131100000Y-134400000D03*
X129100000Y-134400000D03*
%TD*%
D32*
%TO.C,L1*%
X142150000Y-120100000D03*
X152050000Y-120100000D03*
%TD*%
D33*
%TO.C,Q6*%
X171150000Y-127875000D03*
X173050000Y-127875000D03*
X172100000Y-126000000D03*
%TD*%
D12*
%TO.C,R21*%
X135400000Y-112100000D03*
X135400000Y-110100000D03*
%TD*%
%TO.C,R4*%
X121300000Y-105100000D03*
X121300000Y-103100000D03*
%TD*%
D18*
%TO.C,RN1*%
X178300000Y-92900000D03*
X176960000Y-92900000D03*
X175640000Y-92900000D03*
X174300000Y-92900000D03*
X174300000Y-95900000D03*
X175640000Y-95900000D03*
X176960000Y-95900000D03*
X178300000Y-95900000D03*
%TD*%
D26*
%TO.C,R7*%
X128500000Y-126400000D03*
X128500000Y-128400000D03*
%TD*%
D23*
%TO.C,C9*%
X104300000Y-97237500D03*
X104300000Y-95162500D03*
%TD*%
D11*
%TO.C,R40*%
X170400000Y-123900000D03*
X168400000Y-123900000D03*
%TD*%
D22*
%TO.C,C21*%
X181562500Y-96200000D03*
X183637500Y-96200000D03*
%TD*%
D34*
%TO.C,C13*%
X157437500Y-116600000D03*
X155362500Y-116600000D03*
%TD*%
D35*
%TO.C,F1*%
X99800000Y-93387500D03*
X99800000Y-90412500D03*
%TD*%
D19*
%TO.C,R27*%
X182500000Y-133800000D03*
X184500000Y-133800000D03*
%TD*%
%TO.C,R32*%
X176200000Y-121200000D03*
X178200000Y-121200000D03*
%TD*%
D36*
%TO.C,Q2*%
X135037500Y-134550000D03*
X135037500Y-132650000D03*
X133162500Y-133600000D03*
%TD*%
D37*
%TO.C,U3*%
X108150000Y-125795000D03*
X109650000Y-125795000D03*
X108150000Y-124655000D03*
X109650000Y-124655000D03*
D38*
X106995000Y-127700000D03*
X108265000Y-127700000D03*
X109535000Y-127700000D03*
X110805000Y-127700000D03*
X110805000Y-122750000D03*
X109535000Y-122750000D03*
X108265000Y-122750000D03*
X106995000Y-122750000D03*
%TD*%
D19*
%TO.C,R48*%
X135000000Y-105300000D03*
X137000000Y-105300000D03*
%TD*%
D36*
%TO.C,Q1*%
X139137500Y-134550000D03*
X139137500Y-132650000D03*
X137262500Y-133600000D03*
%TD*%
D12*
%TO.C,R10*%
X113200000Y-105100000D03*
X113200000Y-103100000D03*
%TD*%
%TO.C,R15*%
X104250001Y-92300000D03*
X104250001Y-90300000D03*
%TD*%
D39*
%TO.C,D4*%
X174100000Y-129900000D03*
D40*
X174100000Y-131600000D03*
X176100000Y-131600000D03*
X176100000Y-129700000D03*
%TD*%
D11*
%TO.C,R39*%
X174200000Y-123900000D03*
X172200000Y-123900000D03*
%TD*%
D41*
%TO.C,Q3*%
X129450000Y-130462500D03*
X127550000Y-130462500D03*
X128500000Y-132337500D03*
%TD*%
D34*
%TO.C,C4*%
X110837500Y-109100000D03*
X108762500Y-109100000D03*
%TD*%
D26*
%TO.C,R8*%
X123300000Y-103100000D03*
X123300000Y-105100000D03*
%TD*%
D11*
%TO.C,R12*%
X135300000Y-120000000D03*
X133300000Y-120000000D03*
%TD*%
D12*
%TO.C,R42*%
X169900000Y-96300000D03*
X169900000Y-94300000D03*
%TD*%
D36*
%TO.C,D6*%
X153175000Y-111550000D03*
X153175000Y-109650000D03*
X151300000Y-110600000D03*
%TD*%
D22*
%TO.C,C23*%
X134462500Y-102000000D03*
X136537500Y-102000000D03*
%TD*%
D34*
%TO.C,C5*%
X110837500Y-107000000D03*
X108762500Y-107000000D03*
%TD*%
D11*
%TO.C,R43*%
X172000000Y-86700000D03*
X170000000Y-86700000D03*
%TD*%
D23*
%TO.C,C8*%
X102200000Y-97237500D03*
X102200000Y-95162500D03*
%TD*%
D42*
%TO.C,D3*%
X124000000Y-123360000D03*
X124000000Y-119040000D03*
%TD*%
D43*
%TO.C,D2*%
X138280000Y-111000000D03*
X142600000Y-111000000D03*
%TD*%
D22*
%TO.C,C30*%
X162762500Y-129500000D03*
X164837500Y-129500000D03*
%TD*%
D12*
%TO.C,R16*%
X106400000Y-92300000D03*
X106400000Y-90300000D03*
%TD*%
D15*
%TO.C,R23*%
X124150000Y-83400000D03*
X118050000Y-83400000D03*
%TD*%
D23*
%TO.C,C12*%
X108500000Y-97237500D03*
X108500000Y-95162500D03*
%TD*%
D12*
%TO.C,R11*%
X103687501Y-105074999D03*
X103687501Y-103074999D03*
%TD*%
D15*
%TO.C,R22*%
X115850000Y-83400000D03*
X109750000Y-83400000D03*
%TD*%
D34*
%TO.C,C6*%
X139237500Y-120000000D03*
X137162500Y-120000000D03*
%TD*%
D26*
%TO.C,R49*%
X132600000Y-103400000D03*
X132600000Y-105400000D03*
%TD*%
%TO.C,R25*%
X108100000Y-114700000D03*
X108100000Y-116700000D03*
%TD*%
%TO.C,R13*%
X111700000Y-95000000D03*
X111700000Y-97000000D03*
%TD*%
D12*
%TO.C,R46*%
X165700000Y-92000000D03*
X165700000Y-90000000D03*
%TD*%
D44*
%TO.C,U2*%
X136570000Y-116950000D03*
X136570000Y-115450000D03*
X135430000Y-116950000D03*
X135430000Y-115450000D03*
D45*
X138475000Y-118105000D03*
X138475000Y-116835000D03*
X138475000Y-115565000D03*
X138475000Y-114295000D03*
X133525000Y-114295000D03*
X133525000Y-115565000D03*
X133525000Y-116835000D03*
X133525000Y-118105000D03*
%TD*%
D19*
%TO.C,R34*%
X180000000Y-121300000D03*
X182000000Y-121300000D03*
%TD*%
D46*
%TO.C,J3*%
X168600000Y-136800000D03*
D47*
X169600000Y-134100000D03*
X174600000Y-134100000D03*
D46*
X175600000Y-136800000D03*
D48*
X170800000Y-134100000D03*
X171450000Y-134100000D03*
X172100000Y-134100000D03*
X172750000Y-134100000D03*
X173400000Y-134100000D03*
D49*
X169200000Y-136800000D03*
D50*
X171100000Y-136800000D03*
X173100000Y-136800000D03*
D49*
X175000000Y-136800000D03*
%TD*%
D28*
%TO.C,C27*%
X149100000Y-87162500D03*
X149100000Y-89237500D03*
%TD*%
D33*
%TO.C,Q9*%
X166150000Y-96137500D03*
X168050000Y-96137500D03*
X167100000Y-94262500D03*
%TD*%
D23*
%TO.C,C28*%
X148475001Y-96362499D03*
X148475001Y-94287499D03*
%TD*%
%TO.C,C10*%
X106400000Y-97237500D03*
X106400000Y-95162500D03*
%TD*%
D28*
%TO.C,C17*%
X112700000Y-127362500D03*
X112700000Y-129437500D03*
%TD*%
D12*
%TO.C,R3*%
X125700000Y-134600000D03*
X125700000Y-132600000D03*
%TD*%
%TO.C,R45*%
X169600000Y-84600000D03*
X169600000Y-82600000D03*
%TD*%
D51*
%TO.C,R37*%
X140550000Y-89100000D03*
X137450000Y-89100000D03*
%TD*%
D26*
%TO.C,R44*%
X167800000Y-90000000D03*
X167800000Y-92000000D03*
%TD*%
D33*
%TO.C,Q7*%
X176350000Y-125137500D03*
X178250000Y-125137500D03*
X177300000Y-123262500D03*
%TD*%
D28*
%TO.C,C18*%
X103000000Y-126862500D03*
X103000000Y-128937500D03*
%TD*%
D23*
%TO.C,C29*%
X166300000Y-123837500D03*
X166300000Y-121762500D03*
%TD*%
D22*
%TO.C,C26*%
X146562500Y-91600000D03*
X148637500Y-91600000D03*
%TD*%
D26*
%TO.C,R5*%
X115300000Y-103100000D03*
X115300000Y-105100000D03*
%TD*%
D52*
%TO.C,D1*%
X146120001Y-131199999D03*
X141800001Y-131199999D03*
%TD*%
D53*
%TO.C,U5*%
X181080000Y-126480000D03*
X181080000Y-127600000D03*
X181080000Y-128720000D03*
X182200000Y-126480000D03*
X182200000Y-127600000D03*
X182200000Y-128720000D03*
X183320000Y-126480000D03*
X183320000Y-127600000D03*
X183320000Y-128720000D03*
D54*
X179750000Y-126100000D03*
X179750000Y-126600000D03*
X179750000Y-127100000D03*
X179750000Y-127600000D03*
X179750000Y-128100000D03*
X179750000Y-128600000D03*
X179750000Y-129100000D03*
D55*
X180700000Y-130050000D03*
X181200000Y-130050000D03*
X181700000Y-130050000D03*
X182200000Y-130050000D03*
X182700000Y-130050000D03*
X183200000Y-130050000D03*
X183700000Y-130050000D03*
D54*
X184650000Y-129100000D03*
X184650000Y-128600000D03*
X184650000Y-128100000D03*
X184650000Y-127600000D03*
X184650000Y-127100000D03*
X184650000Y-126600000D03*
X184650000Y-126100000D03*
D55*
X183700000Y-125150000D03*
X183200000Y-125150000D03*
X182700000Y-125150000D03*
X182200000Y-125150000D03*
X181700000Y-125150000D03*
X181200000Y-125150000D03*
X180700000Y-125150000D03*
%TD*%
D15*
%TO.C,R18*%
X124150000Y-87400000D03*
X118050000Y-87400000D03*
%TD*%
D11*
%TO.C,R26*%
X108700000Y-120200000D03*
X106700000Y-120200000D03*
%TD*%
%TO.C,R31*%
X184100000Y-123300000D03*
X182100000Y-123300000D03*
%TD*%
M02*
