%TF.GenerationSoftware,KiCad,Pcbnew,7.0.5-7.0.5~ubuntu22.04.1*%
%TF.CreationDate,2023-06-06T13:21:44+02:00*%
%TF.ProjectId,MR-SLDR-01,4d522d53-4c44-4522-9d30-312e6b696361,rev?*%
%TF.SameCoordinates,Original*%
%TF.FileFunction,Legend,Top*%
%TF.FilePolarity,Positive*%
%FSLAX46Y46*%
G04 Gerber Fmt 4.6, Leading zero omitted, Abs format (unit mm)*
G04 Created by KiCad (PCBNEW 7.0.5-7.0.5~ubuntu22.04.1) date 2023-06-06 13:21:44*
%MOMM*%
%LPD*%
G01*
G04 APERTURE LIST*
%ADD10C,0.200000*%
%ADD11C,0.250000*%
%ADD12C,0.150000*%
%ADD13C,0.300000*%
%ADD14C,0.120000*%
%ADD15C,0.127000*%
G04 APERTURE END LIST*
D10*
X97756590Y-91503006D02*
X97708971Y-91645863D01*
X97708971Y-91645863D02*
X97661352Y-91693482D01*
X97661352Y-91693482D02*
X97566114Y-91741101D01*
X97566114Y-91741101D02*
X97423257Y-91741101D01*
X97423257Y-91741101D02*
X97328019Y-91693482D01*
X97328019Y-91693482D02*
X97280400Y-91645863D01*
X97280400Y-91645863D02*
X97232780Y-91550625D01*
X97232780Y-91550625D02*
X97232780Y-91169673D01*
X97232780Y-91169673D02*
X98232780Y-91169673D01*
X98232780Y-91169673D02*
X98232780Y-91503006D01*
X98232780Y-91503006D02*
X98185161Y-91598244D01*
X98185161Y-91598244D02*
X98137542Y-91645863D01*
X98137542Y-91645863D02*
X98042304Y-91693482D01*
X98042304Y-91693482D02*
X97947066Y-91693482D01*
X97947066Y-91693482D02*
X97851828Y-91645863D01*
X97851828Y-91645863D02*
X97804209Y-91598244D01*
X97804209Y-91598244D02*
X97756590Y-91503006D01*
X97756590Y-91503006D02*
X97756590Y-91169673D01*
X97518495Y-92122054D02*
X97518495Y-92598244D01*
X97232780Y-92026816D02*
X98232780Y-92360149D01*
X98232780Y-92360149D02*
X97232780Y-92693482D01*
X98232780Y-92883959D02*
X98232780Y-93455387D01*
X97232780Y-93169673D02*
X98232780Y-93169673D01*
X98232780Y-93645864D02*
X98232780Y-94217292D01*
X97232780Y-93931578D02*
X98232780Y-93931578D01*
X106432780Y-113660149D02*
X106432780Y-113850625D01*
X106432780Y-113850625D02*
X106385161Y-113945863D01*
X106385161Y-113945863D02*
X106289923Y-114041101D01*
X106289923Y-114041101D02*
X106099447Y-114088720D01*
X106099447Y-114088720D02*
X105766114Y-114088720D01*
X105766114Y-114088720D02*
X105575638Y-114041101D01*
X105575638Y-114041101D02*
X105480400Y-113945863D01*
X105480400Y-113945863D02*
X105432780Y-113850625D01*
X105432780Y-113850625D02*
X105432780Y-113660149D01*
X105432780Y-113660149D02*
X105480400Y-113564911D01*
X105480400Y-113564911D02*
X105575638Y-113469673D01*
X105575638Y-113469673D02*
X105766114Y-113422054D01*
X105766114Y-113422054D02*
X106099447Y-113422054D01*
X106099447Y-113422054D02*
X106289923Y-113469673D01*
X106289923Y-113469673D02*
X106385161Y-113564911D01*
X106385161Y-113564911D02*
X106432780Y-113660149D01*
X105432780Y-114517292D02*
X106432780Y-114517292D01*
X106432780Y-114517292D02*
X105432780Y-115088720D01*
X105432780Y-115088720D02*
X106432780Y-115088720D01*
X106480400Y-116279196D02*
X105194685Y-115422054D01*
X106432780Y-116803006D02*
X106432780Y-116993482D01*
X106432780Y-116993482D02*
X106385161Y-117088720D01*
X106385161Y-117088720D02*
X106289923Y-117183958D01*
X106289923Y-117183958D02*
X106099447Y-117231577D01*
X106099447Y-117231577D02*
X105766114Y-117231577D01*
X105766114Y-117231577D02*
X105575638Y-117183958D01*
X105575638Y-117183958D02*
X105480400Y-117088720D01*
X105480400Y-117088720D02*
X105432780Y-116993482D01*
X105432780Y-116993482D02*
X105432780Y-116803006D01*
X105432780Y-116803006D02*
X105480400Y-116707768D01*
X105480400Y-116707768D02*
X105575638Y-116612530D01*
X105575638Y-116612530D02*
X105766114Y-116564911D01*
X105766114Y-116564911D02*
X106099447Y-116564911D01*
X106099447Y-116564911D02*
X106289923Y-116612530D01*
X106289923Y-116612530D02*
X106385161Y-116707768D01*
X106385161Y-116707768D02*
X106432780Y-116803006D01*
X105956590Y-117993482D02*
X105956590Y-117660149D01*
X105432780Y-117660149D02*
X106432780Y-117660149D01*
X106432780Y-117660149D02*
X106432780Y-118136339D01*
X105956590Y-118850625D02*
X105956590Y-118517292D01*
X105432780Y-118517292D02*
X106432780Y-118517292D01*
X106432780Y-118517292D02*
X106432780Y-118993482D01*
D11*
X106602568Y-128894380D02*
X106650187Y-128942000D01*
X106650187Y-128942000D02*
X106602568Y-128989619D01*
X106602568Y-128989619D02*
X106554949Y-128942000D01*
X106554949Y-128942000D02*
X106602568Y-128894380D01*
X106602568Y-128894380D02*
X106602568Y-128989619D01*
D12*
X148336779Y-129059819D02*
X148336779Y-128059819D01*
X148336779Y-128059819D02*
X148574874Y-128059819D01*
X148574874Y-128059819D02*
X148717731Y-128107438D01*
X148717731Y-128107438D02*
X148812969Y-128202676D01*
X148812969Y-128202676D02*
X148860588Y-128297914D01*
X148860588Y-128297914D02*
X148908207Y-128488390D01*
X148908207Y-128488390D02*
X148908207Y-128631247D01*
X148908207Y-128631247D02*
X148860588Y-128821723D01*
X148860588Y-128821723D02*
X148812969Y-128916961D01*
X148812969Y-128916961D02*
X148717731Y-129012200D01*
X148717731Y-129012200D02*
X148574874Y-129059819D01*
X148574874Y-129059819D02*
X148336779Y-129059819D01*
X149336779Y-129059819D02*
X149336779Y-128059819D01*
X149765350Y-129012200D02*
X149908207Y-129059819D01*
X149908207Y-129059819D02*
X150146302Y-129059819D01*
X150146302Y-129059819D02*
X150241540Y-129012200D01*
X150241540Y-129012200D02*
X150289159Y-128964580D01*
X150289159Y-128964580D02*
X150336778Y-128869342D01*
X150336778Y-128869342D02*
X150336778Y-128774104D01*
X150336778Y-128774104D02*
X150289159Y-128678866D01*
X150289159Y-128678866D02*
X150241540Y-128631247D01*
X150241540Y-128631247D02*
X150146302Y-128583628D01*
X150146302Y-128583628D02*
X149955826Y-128536009D01*
X149955826Y-128536009D02*
X149860588Y-128488390D01*
X149860588Y-128488390D02*
X149812969Y-128440771D01*
X149812969Y-128440771D02*
X149765350Y-128345533D01*
X149765350Y-128345533D02*
X149765350Y-128250295D01*
X149765350Y-128250295D02*
X149812969Y-128155057D01*
X149812969Y-128155057D02*
X149860588Y-128107438D01*
X149860588Y-128107438D02*
X149955826Y-128059819D01*
X149955826Y-128059819D02*
X150193921Y-128059819D01*
X150193921Y-128059819D02*
X150336778Y-128107438D01*
X150622493Y-128059819D02*
X151193921Y-128059819D01*
X150908207Y-129059819D02*
X150908207Y-128059819D01*
X151479636Y-128774104D02*
X151955826Y-128774104D01*
X151384398Y-129059819D02*
X151717731Y-128059819D01*
X151717731Y-128059819D02*
X152051064Y-129059819D01*
X152384398Y-129059819D02*
X152384398Y-128059819D01*
X152384398Y-128059819D02*
X152955826Y-129059819D01*
X152955826Y-129059819D02*
X152955826Y-128059819D01*
X154003445Y-128964580D02*
X153955826Y-129012200D01*
X153955826Y-129012200D02*
X153812969Y-129059819D01*
X153812969Y-129059819D02*
X153717731Y-129059819D01*
X153717731Y-129059819D02*
X153574874Y-129012200D01*
X153574874Y-129012200D02*
X153479636Y-128916961D01*
X153479636Y-128916961D02*
X153432017Y-128821723D01*
X153432017Y-128821723D02*
X153384398Y-128631247D01*
X153384398Y-128631247D02*
X153384398Y-128488390D01*
X153384398Y-128488390D02*
X153432017Y-128297914D01*
X153432017Y-128297914D02*
X153479636Y-128202676D01*
X153479636Y-128202676D02*
X153574874Y-128107438D01*
X153574874Y-128107438D02*
X153717731Y-128059819D01*
X153717731Y-128059819D02*
X153812969Y-128059819D01*
X153812969Y-128059819D02*
X153955826Y-128107438D01*
X153955826Y-128107438D02*
X154003445Y-128155057D01*
X154432017Y-128536009D02*
X154765350Y-128536009D01*
X154908207Y-129059819D02*
X154432017Y-129059819D01*
X154432017Y-129059819D02*
X154432017Y-128059819D01*
X154432017Y-128059819D02*
X154908207Y-128059819D01*
X148289160Y-130622200D02*
X148432017Y-130669819D01*
X148432017Y-130669819D02*
X148670112Y-130669819D01*
X148670112Y-130669819D02*
X148765350Y-130622200D01*
X148765350Y-130622200D02*
X148812969Y-130574580D01*
X148812969Y-130574580D02*
X148860588Y-130479342D01*
X148860588Y-130479342D02*
X148860588Y-130384104D01*
X148860588Y-130384104D02*
X148812969Y-130288866D01*
X148812969Y-130288866D02*
X148765350Y-130241247D01*
X148765350Y-130241247D02*
X148670112Y-130193628D01*
X148670112Y-130193628D02*
X148479636Y-130146009D01*
X148479636Y-130146009D02*
X148384398Y-130098390D01*
X148384398Y-130098390D02*
X148336779Y-130050771D01*
X148336779Y-130050771D02*
X148289160Y-129955533D01*
X148289160Y-129955533D02*
X148289160Y-129860295D01*
X148289160Y-129860295D02*
X148336779Y-129765057D01*
X148336779Y-129765057D02*
X148384398Y-129717438D01*
X148384398Y-129717438D02*
X148479636Y-129669819D01*
X148479636Y-129669819D02*
X148717731Y-129669819D01*
X148717731Y-129669819D02*
X148860588Y-129717438D01*
X149289160Y-130146009D02*
X149622493Y-130146009D01*
X149765350Y-130669819D02*
X149289160Y-130669819D01*
X149289160Y-130669819D02*
X149289160Y-129669819D01*
X149289160Y-129669819D02*
X149765350Y-129669819D01*
X150193922Y-130669819D02*
X150193922Y-129669819D01*
X150193922Y-129669819D02*
X150765350Y-130669819D01*
X150765350Y-130669819D02*
X150765350Y-129669819D01*
X151193922Y-130622200D02*
X151336779Y-130669819D01*
X151336779Y-130669819D02*
X151574874Y-130669819D01*
X151574874Y-130669819D02*
X151670112Y-130622200D01*
X151670112Y-130622200D02*
X151717731Y-130574580D01*
X151717731Y-130574580D02*
X151765350Y-130479342D01*
X151765350Y-130479342D02*
X151765350Y-130384104D01*
X151765350Y-130384104D02*
X151717731Y-130288866D01*
X151717731Y-130288866D02*
X151670112Y-130241247D01*
X151670112Y-130241247D02*
X151574874Y-130193628D01*
X151574874Y-130193628D02*
X151384398Y-130146009D01*
X151384398Y-130146009D02*
X151289160Y-130098390D01*
X151289160Y-130098390D02*
X151241541Y-130050771D01*
X151241541Y-130050771D02*
X151193922Y-129955533D01*
X151193922Y-129955533D02*
X151193922Y-129860295D01*
X151193922Y-129860295D02*
X151241541Y-129765057D01*
X151241541Y-129765057D02*
X151289160Y-129717438D01*
X151289160Y-129717438D02*
X151384398Y-129669819D01*
X151384398Y-129669819D02*
X151622493Y-129669819D01*
X151622493Y-129669819D02*
X151765350Y-129717438D01*
X152384398Y-129669819D02*
X152574874Y-129669819D01*
X152574874Y-129669819D02*
X152670112Y-129717438D01*
X152670112Y-129717438D02*
X152765350Y-129812676D01*
X152765350Y-129812676D02*
X152812969Y-130003152D01*
X152812969Y-130003152D02*
X152812969Y-130336485D01*
X152812969Y-130336485D02*
X152765350Y-130526961D01*
X152765350Y-130526961D02*
X152670112Y-130622200D01*
X152670112Y-130622200D02*
X152574874Y-130669819D01*
X152574874Y-130669819D02*
X152384398Y-130669819D01*
X152384398Y-130669819D02*
X152289160Y-130622200D01*
X152289160Y-130622200D02*
X152193922Y-130526961D01*
X152193922Y-130526961D02*
X152146303Y-130336485D01*
X152146303Y-130336485D02*
X152146303Y-130003152D01*
X152146303Y-130003152D02*
X152193922Y-129812676D01*
X152193922Y-129812676D02*
X152289160Y-129717438D01*
X152289160Y-129717438D02*
X152384398Y-129669819D01*
X153812969Y-130669819D02*
X153479636Y-130193628D01*
X153241541Y-130669819D02*
X153241541Y-129669819D01*
X153241541Y-129669819D02*
X153622493Y-129669819D01*
X153622493Y-129669819D02*
X153717731Y-129717438D01*
X153717731Y-129717438D02*
X153765350Y-129765057D01*
X153765350Y-129765057D02*
X153812969Y-129860295D01*
X153812969Y-129860295D02*
X153812969Y-130003152D01*
X153812969Y-130003152D02*
X153765350Y-130098390D01*
X153765350Y-130098390D02*
X153717731Y-130146009D01*
X153717731Y-130146009D02*
X153622493Y-130193628D01*
X153622493Y-130193628D02*
X153241541Y-130193628D01*
D11*
X164502568Y-89369380D02*
X164550187Y-89417000D01*
X164550187Y-89417000D02*
X164502568Y-89464619D01*
X164502568Y-89464619D02*
X164454949Y-89417000D01*
X164454949Y-89417000D02*
X164502568Y-89369380D01*
X164502568Y-89369380D02*
X164502568Y-89464619D01*
X175102568Y-122569380D02*
X175150187Y-122617000D01*
X175150187Y-122617000D02*
X175102568Y-122664619D01*
X175102568Y-122664619D02*
X175054949Y-122617000D01*
X175054949Y-122617000D02*
X175102568Y-122569380D01*
X175102568Y-122569380D02*
X175102568Y-122664619D01*
X125902568Y-105169380D02*
X125950187Y-105217000D01*
X125950187Y-105217000D02*
X125902568Y-105264619D01*
X125902568Y-105264619D02*
X125854949Y-105217000D01*
X125854949Y-105217000D02*
X125902568Y-105169380D01*
X125902568Y-105169380D02*
X125902568Y-105264619D01*
D10*
X181845863Y-94867219D02*
X181369673Y-94867219D01*
X181369673Y-94867219D02*
X181369673Y-93867219D01*
X182179197Y-94343409D02*
X182512530Y-94343409D01*
X182655387Y-94867219D02*
X182179197Y-94867219D01*
X182179197Y-94867219D02*
X182179197Y-93867219D01*
X182179197Y-93867219D02*
X182655387Y-93867219D01*
X183083959Y-94867219D02*
X183083959Y-93867219D01*
X183083959Y-93867219D02*
X183322054Y-93867219D01*
X183322054Y-93867219D02*
X183464911Y-93914838D01*
X183464911Y-93914838D02*
X183560149Y-94010076D01*
X183560149Y-94010076D02*
X183607768Y-94105314D01*
X183607768Y-94105314D02*
X183655387Y-94295790D01*
X183655387Y-94295790D02*
X183655387Y-94438647D01*
X183655387Y-94438647D02*
X183607768Y-94629123D01*
X183607768Y-94629123D02*
X183560149Y-94724361D01*
X183560149Y-94724361D02*
X183464911Y-94819600D01*
X183464911Y-94819600D02*
X183322054Y-94867219D01*
X183322054Y-94867219D02*
X183083959Y-94867219D01*
X184036340Y-94819600D02*
X184179197Y-94867219D01*
X184179197Y-94867219D02*
X184417292Y-94867219D01*
X184417292Y-94867219D02*
X184512530Y-94819600D01*
X184512530Y-94819600D02*
X184560149Y-94771980D01*
X184560149Y-94771980D02*
X184607768Y-94676742D01*
X184607768Y-94676742D02*
X184607768Y-94581504D01*
X184607768Y-94581504D02*
X184560149Y-94486266D01*
X184560149Y-94486266D02*
X184512530Y-94438647D01*
X184512530Y-94438647D02*
X184417292Y-94391028D01*
X184417292Y-94391028D02*
X184226816Y-94343409D01*
X184226816Y-94343409D02*
X184131578Y-94295790D01*
X184131578Y-94295790D02*
X184083959Y-94248171D01*
X184083959Y-94248171D02*
X184036340Y-94152933D01*
X184036340Y-94152933D02*
X184036340Y-94057695D01*
X184036340Y-94057695D02*
X184083959Y-93962457D01*
X184083959Y-93962457D02*
X184131578Y-93914838D01*
X184131578Y-93914838D02*
X184226816Y-93867219D01*
X184226816Y-93867219D02*
X184464911Y-93867219D01*
X184464911Y-93867219D02*
X184607768Y-93914838D01*
X129669673Y-90367219D02*
X129669673Y-89367219D01*
X129669673Y-89367219D02*
X130241101Y-90367219D01*
X130241101Y-90367219D02*
X130241101Y-89367219D01*
X130574435Y-89367219D02*
X131145863Y-89367219D01*
X130860149Y-90367219D02*
X130860149Y-89367219D01*
X132050625Y-90271980D02*
X132003006Y-90319600D01*
X132003006Y-90319600D02*
X131860149Y-90367219D01*
X131860149Y-90367219D02*
X131764911Y-90367219D01*
X131764911Y-90367219D02*
X131622054Y-90319600D01*
X131622054Y-90319600D02*
X131526816Y-90224361D01*
X131526816Y-90224361D02*
X131479197Y-90129123D01*
X131479197Y-90129123D02*
X131431578Y-89938647D01*
X131431578Y-89938647D02*
X131431578Y-89795790D01*
X131431578Y-89795790D02*
X131479197Y-89605314D01*
X131479197Y-89605314D02*
X131526816Y-89510076D01*
X131526816Y-89510076D02*
X131622054Y-89414838D01*
X131622054Y-89414838D02*
X131764911Y-89367219D01*
X131764911Y-89367219D02*
X131860149Y-89367219D01*
X131860149Y-89367219D02*
X132003006Y-89414838D01*
X132003006Y-89414838D02*
X132050625Y-89462457D01*
D11*
X140002568Y-118669380D02*
X140050187Y-118717000D01*
X140050187Y-118717000D02*
X140002568Y-118764619D01*
X140002568Y-118764619D02*
X139954949Y-118717000D01*
X139954949Y-118717000D02*
X140002568Y-118669380D01*
X140002568Y-118669380D02*
X140002568Y-118764619D01*
X179402568Y-125169380D02*
X179450187Y-125217000D01*
X179450187Y-125217000D02*
X179402568Y-125264619D01*
X179402568Y-125264619D02*
X179354949Y-125217000D01*
X179354949Y-125217000D02*
X179402568Y-125169380D01*
X179402568Y-125169380D02*
X179402568Y-125264619D01*
D12*
X136836779Y-106569819D02*
X136836779Y-107379342D01*
X136836779Y-107379342D02*
X136884398Y-107474580D01*
X136884398Y-107474580D02*
X136932017Y-107522200D01*
X136932017Y-107522200D02*
X137027255Y-107569819D01*
X137027255Y-107569819D02*
X137217731Y-107569819D01*
X137217731Y-107569819D02*
X137312969Y-107522200D01*
X137312969Y-107522200D02*
X137360588Y-107474580D01*
X137360588Y-107474580D02*
X137408207Y-107379342D01*
X137408207Y-107379342D02*
X137408207Y-106569819D01*
X137884398Y-107474580D02*
X137932017Y-107522200D01*
X137932017Y-107522200D02*
X137884398Y-107569819D01*
X137884398Y-107569819D02*
X137836779Y-107522200D01*
X137836779Y-107522200D02*
X137884398Y-107474580D01*
X137884398Y-107474580D02*
X137884398Y-107569819D01*
X138693921Y-107046009D02*
X138836778Y-107093628D01*
X138836778Y-107093628D02*
X138884397Y-107141247D01*
X138884397Y-107141247D02*
X138932016Y-107236485D01*
X138932016Y-107236485D02*
X138932016Y-107379342D01*
X138932016Y-107379342D02*
X138884397Y-107474580D01*
X138884397Y-107474580D02*
X138836778Y-107522200D01*
X138836778Y-107522200D02*
X138741540Y-107569819D01*
X138741540Y-107569819D02*
X138360588Y-107569819D01*
X138360588Y-107569819D02*
X138360588Y-106569819D01*
X138360588Y-106569819D02*
X138693921Y-106569819D01*
X138693921Y-106569819D02*
X138789159Y-106617438D01*
X138789159Y-106617438D02*
X138836778Y-106665057D01*
X138836778Y-106665057D02*
X138884397Y-106760295D01*
X138884397Y-106760295D02*
X138884397Y-106855533D01*
X138884397Y-106855533D02*
X138836778Y-106950771D01*
X138836778Y-106950771D02*
X138789159Y-106998390D01*
X138789159Y-106998390D02*
X138693921Y-107046009D01*
X138693921Y-107046009D02*
X138360588Y-107046009D01*
X139312969Y-107284104D02*
X139789159Y-107284104D01*
X139217731Y-107569819D02*
X139551064Y-106569819D01*
X139551064Y-106569819D02*
X139884397Y-107569819D01*
X140074874Y-106569819D02*
X140646302Y-106569819D01*
X140360588Y-107569819D02*
X140360588Y-106569819D01*
X140836779Y-106569819D02*
X141408207Y-106569819D01*
X141122493Y-107569819D02*
X141122493Y-106569819D01*
D11*
X104902568Y-105869380D02*
X104950187Y-105917000D01*
X104950187Y-105917000D02*
X104902568Y-105964619D01*
X104902568Y-105964619D02*
X104854949Y-105917000D01*
X104854949Y-105917000D02*
X104902568Y-105869380D01*
X104902568Y-105869380D02*
X104902568Y-105964619D01*
X173702568Y-91069380D02*
X173750187Y-91117000D01*
X173750187Y-91117000D02*
X173702568Y-91164619D01*
X173702568Y-91164619D02*
X173654949Y-91117000D01*
X173654949Y-91117000D02*
X173702568Y-91069380D01*
X173702568Y-91069380D02*
X173702568Y-91164619D01*
D13*
X98099171Y-121754510D02*
X99599171Y-121754510D01*
X99599171Y-121754510D02*
X98527742Y-122254510D01*
X98527742Y-122254510D02*
X99599171Y-122754510D01*
X99599171Y-122754510D02*
X98099171Y-122754510D01*
X98099171Y-124325939D02*
X98813457Y-123825939D01*
X98099171Y-123468796D02*
X99599171Y-123468796D01*
X99599171Y-123468796D02*
X99599171Y-124040225D01*
X99599171Y-124040225D02*
X99527742Y-124183082D01*
X99527742Y-124183082D02*
X99456314Y-124254511D01*
X99456314Y-124254511D02*
X99313457Y-124325939D01*
X99313457Y-124325939D02*
X99099171Y-124325939D01*
X99099171Y-124325939D02*
X98956314Y-124254511D01*
X98956314Y-124254511D02*
X98884885Y-124183082D01*
X98884885Y-124183082D02*
X98813457Y-124040225D01*
X98813457Y-124040225D02*
X98813457Y-123468796D01*
X98670600Y-124968796D02*
X98670600Y-126111654D01*
X98170600Y-126754511D02*
X98099171Y-126968797D01*
X98099171Y-126968797D02*
X98099171Y-127325939D01*
X98099171Y-127325939D02*
X98170600Y-127468797D01*
X98170600Y-127468797D02*
X98242028Y-127540225D01*
X98242028Y-127540225D02*
X98384885Y-127611654D01*
X98384885Y-127611654D02*
X98527742Y-127611654D01*
X98527742Y-127611654D02*
X98670600Y-127540225D01*
X98670600Y-127540225D02*
X98742028Y-127468797D01*
X98742028Y-127468797D02*
X98813457Y-127325939D01*
X98813457Y-127325939D02*
X98884885Y-127040225D01*
X98884885Y-127040225D02*
X98956314Y-126897368D01*
X98956314Y-126897368D02*
X99027742Y-126825939D01*
X99027742Y-126825939D02*
X99170600Y-126754511D01*
X99170600Y-126754511D02*
X99313457Y-126754511D01*
X99313457Y-126754511D02*
X99456314Y-126825939D01*
X99456314Y-126825939D02*
X99527742Y-126897368D01*
X99527742Y-126897368D02*
X99599171Y-127040225D01*
X99599171Y-127040225D02*
X99599171Y-127397368D01*
X99599171Y-127397368D02*
X99527742Y-127611654D01*
X98099171Y-128968796D02*
X98099171Y-128254510D01*
X98099171Y-128254510D02*
X99599171Y-128254510D01*
X98099171Y-129468796D02*
X99599171Y-129468796D01*
X99599171Y-129468796D02*
X99599171Y-129825939D01*
X99599171Y-129825939D02*
X99527742Y-130040225D01*
X99527742Y-130040225D02*
X99384885Y-130183082D01*
X99384885Y-130183082D02*
X99242028Y-130254511D01*
X99242028Y-130254511D02*
X98956314Y-130325939D01*
X98956314Y-130325939D02*
X98742028Y-130325939D01*
X98742028Y-130325939D02*
X98456314Y-130254511D01*
X98456314Y-130254511D02*
X98313457Y-130183082D01*
X98313457Y-130183082D02*
X98170600Y-130040225D01*
X98170600Y-130040225D02*
X98099171Y-129825939D01*
X98099171Y-129825939D02*
X98099171Y-129468796D01*
X98099171Y-131825939D02*
X98813457Y-131325939D01*
X98099171Y-130968796D02*
X99599171Y-130968796D01*
X99599171Y-130968796D02*
X99599171Y-131540225D01*
X99599171Y-131540225D02*
X99527742Y-131683082D01*
X99527742Y-131683082D02*
X99456314Y-131754511D01*
X99456314Y-131754511D02*
X99313457Y-131825939D01*
X99313457Y-131825939D02*
X99099171Y-131825939D01*
X99099171Y-131825939D02*
X98956314Y-131754511D01*
X98956314Y-131754511D02*
X98884885Y-131683082D01*
X98884885Y-131683082D02*
X98813457Y-131540225D01*
X98813457Y-131540225D02*
X98813457Y-130968796D01*
X98670600Y-132468796D02*
X98670600Y-133611654D01*
X99599171Y-134611654D02*
X99599171Y-134754511D01*
X99599171Y-134754511D02*
X99527742Y-134897368D01*
X99527742Y-134897368D02*
X99456314Y-134968797D01*
X99456314Y-134968797D02*
X99313457Y-135040225D01*
X99313457Y-135040225D02*
X99027742Y-135111654D01*
X99027742Y-135111654D02*
X98670600Y-135111654D01*
X98670600Y-135111654D02*
X98384885Y-135040225D01*
X98384885Y-135040225D02*
X98242028Y-134968797D01*
X98242028Y-134968797D02*
X98170600Y-134897368D01*
X98170600Y-134897368D02*
X98099171Y-134754511D01*
X98099171Y-134754511D02*
X98099171Y-134611654D01*
X98099171Y-134611654D02*
X98170600Y-134468797D01*
X98170600Y-134468797D02*
X98242028Y-134397368D01*
X98242028Y-134397368D02*
X98384885Y-134325939D01*
X98384885Y-134325939D02*
X98670600Y-134254511D01*
X98670600Y-134254511D02*
X99027742Y-134254511D01*
X99027742Y-134254511D02*
X99313457Y-134325939D01*
X99313457Y-134325939D02*
X99456314Y-134397368D01*
X99456314Y-134397368D02*
X99527742Y-134468797D01*
X99527742Y-134468797D02*
X99599171Y-134611654D01*
X98099171Y-136540225D02*
X98099171Y-135683082D01*
X98099171Y-136111653D02*
X99599171Y-136111653D01*
X99599171Y-136111653D02*
X99384885Y-135968796D01*
X99384885Y-135968796D02*
X99242028Y-135825939D01*
X99242028Y-135825939D02*
X99170600Y-135683082D01*
D11*
X147102568Y-93069380D02*
X147150187Y-93117000D01*
X147150187Y-93117000D02*
X147102568Y-93164619D01*
X147102568Y-93164619D02*
X147054949Y-93117000D01*
X147054949Y-93117000D02*
X147102568Y-93069380D01*
X147102568Y-93069380D02*
X147102568Y-93164619D01*
D12*
X168574580Y-87391792D02*
X168622200Y-87439411D01*
X168622200Y-87439411D02*
X168669819Y-87582268D01*
X168669819Y-87582268D02*
X168669819Y-87677506D01*
X168669819Y-87677506D02*
X168622200Y-87820363D01*
X168622200Y-87820363D02*
X168526961Y-87915601D01*
X168526961Y-87915601D02*
X168431723Y-87963220D01*
X168431723Y-87963220D02*
X168241247Y-88010839D01*
X168241247Y-88010839D02*
X168098390Y-88010839D01*
X168098390Y-88010839D02*
X167907914Y-87963220D01*
X167907914Y-87963220D02*
X167812676Y-87915601D01*
X167812676Y-87915601D02*
X167717438Y-87820363D01*
X167717438Y-87820363D02*
X167669819Y-87677506D01*
X167669819Y-87677506D02*
X167669819Y-87582268D01*
X167669819Y-87582268D02*
X167717438Y-87439411D01*
X167717438Y-87439411D02*
X167765057Y-87391792D01*
X168384104Y-87010839D02*
X168384104Y-86534649D01*
X168669819Y-87106077D02*
X167669819Y-86772744D01*
X167669819Y-86772744D02*
X168669819Y-86439411D01*
X168669819Y-86106077D02*
X167669819Y-86106077D01*
X167669819Y-86106077D02*
X168384104Y-85772744D01*
X168384104Y-85772744D02*
X167669819Y-85439411D01*
X167669819Y-85439411D02*
X168669819Y-85439411D01*
X168146009Y-84963220D02*
X168146009Y-84629887D01*
X168669819Y-84487030D02*
X168669819Y-84963220D01*
X168669819Y-84963220D02*
X167669819Y-84963220D01*
X167669819Y-84963220D02*
X167669819Y-84487030D01*
X168669819Y-83487030D02*
X168193628Y-83820363D01*
X168669819Y-84058458D02*
X167669819Y-84058458D01*
X167669819Y-84058458D02*
X167669819Y-83677506D01*
X167669819Y-83677506D02*
X167717438Y-83582268D01*
X167717438Y-83582268D02*
X167765057Y-83534649D01*
X167765057Y-83534649D02*
X167860295Y-83487030D01*
X167860295Y-83487030D02*
X168003152Y-83487030D01*
X168003152Y-83487030D02*
X168098390Y-83534649D01*
X168098390Y-83534649D02*
X168146009Y-83582268D01*
X168146009Y-83582268D02*
X168193628Y-83677506D01*
X168193628Y-83677506D02*
X168193628Y-84058458D01*
X168384104Y-83106077D02*
X168384104Y-82629887D01*
X168669819Y-83201315D02*
X167669819Y-82867982D01*
X167669819Y-82867982D02*
X168669819Y-82534649D01*
D10*
X118869673Y-111186266D02*
X119631578Y-111186266D01*
X119250625Y-111567219D02*
X119250625Y-110805314D01*
X120631577Y-111567219D02*
X120060149Y-111567219D01*
X120345863Y-111567219D02*
X120345863Y-110567219D01*
X120345863Y-110567219D02*
X120250625Y-110710076D01*
X120250625Y-110710076D02*
X120155387Y-110805314D01*
X120155387Y-110805314D02*
X120060149Y-110852933D01*
X121012530Y-110662457D02*
X121060149Y-110614838D01*
X121060149Y-110614838D02*
X121155387Y-110567219D01*
X121155387Y-110567219D02*
X121393482Y-110567219D01*
X121393482Y-110567219D02*
X121488720Y-110614838D01*
X121488720Y-110614838D02*
X121536339Y-110662457D01*
X121536339Y-110662457D02*
X121583958Y-110757695D01*
X121583958Y-110757695D02*
X121583958Y-110852933D01*
X121583958Y-110852933D02*
X121536339Y-110995790D01*
X121536339Y-110995790D02*
X120964911Y-111567219D01*
X120964911Y-111567219D02*
X121583958Y-111567219D01*
X121869673Y-110567219D02*
X122203006Y-111567219D01*
X122203006Y-111567219D02*
X122536339Y-110567219D01*
D12*
X164869819Y-122639411D02*
X164869819Y-123210839D01*
X164869819Y-122925125D02*
X163869819Y-122925125D01*
X163869819Y-122925125D02*
X164012676Y-123020363D01*
X164012676Y-123020363D02*
X164107914Y-123115601D01*
X164107914Y-123115601D02*
X164155533Y-123210839D01*
X163869819Y-121782268D02*
X163869819Y-121972744D01*
X163869819Y-121972744D02*
X163917438Y-122067982D01*
X163917438Y-122067982D02*
X163965057Y-122115601D01*
X163965057Y-122115601D02*
X164107914Y-122210839D01*
X164107914Y-122210839D02*
X164298390Y-122258458D01*
X164298390Y-122258458D02*
X164679342Y-122258458D01*
X164679342Y-122258458D02*
X164774580Y-122210839D01*
X164774580Y-122210839D02*
X164822200Y-122163220D01*
X164822200Y-122163220D02*
X164869819Y-122067982D01*
X164869819Y-122067982D02*
X164869819Y-121877506D01*
X164869819Y-121877506D02*
X164822200Y-121782268D01*
X164822200Y-121782268D02*
X164774580Y-121734649D01*
X164774580Y-121734649D02*
X164679342Y-121687030D01*
X164679342Y-121687030D02*
X164441247Y-121687030D01*
X164441247Y-121687030D02*
X164346009Y-121734649D01*
X164346009Y-121734649D02*
X164298390Y-121782268D01*
X164298390Y-121782268D02*
X164250771Y-121877506D01*
X164250771Y-121877506D02*
X164250771Y-122067982D01*
X164250771Y-122067982D02*
X164298390Y-122163220D01*
X164298390Y-122163220D02*
X164346009Y-122210839D01*
X164346009Y-122210839D02*
X164441247Y-122258458D01*
X164869819Y-121258458D02*
X163869819Y-121258458D01*
X164250771Y-121258458D02*
X164203152Y-121163220D01*
X164203152Y-121163220D02*
X164203152Y-120972744D01*
X164203152Y-120972744D02*
X164250771Y-120877506D01*
X164250771Y-120877506D02*
X164298390Y-120829887D01*
X164298390Y-120829887D02*
X164393628Y-120782268D01*
X164393628Y-120782268D02*
X164679342Y-120782268D01*
X164679342Y-120782268D02*
X164774580Y-120829887D01*
X164774580Y-120829887D02*
X164822200Y-120877506D01*
X164822200Y-120877506D02*
X164869819Y-120972744D01*
X164869819Y-120972744D02*
X164869819Y-121163220D01*
X164869819Y-121163220D02*
X164822200Y-121258458D01*
X163822200Y-119639411D02*
X165107914Y-120496553D01*
X164298390Y-119163220D02*
X164250771Y-119258458D01*
X164250771Y-119258458D02*
X164203152Y-119306077D01*
X164203152Y-119306077D02*
X164107914Y-119353696D01*
X164107914Y-119353696D02*
X164060295Y-119353696D01*
X164060295Y-119353696D02*
X163965057Y-119306077D01*
X163965057Y-119306077D02*
X163917438Y-119258458D01*
X163917438Y-119258458D02*
X163869819Y-119163220D01*
X163869819Y-119163220D02*
X163869819Y-118972744D01*
X163869819Y-118972744D02*
X163917438Y-118877506D01*
X163917438Y-118877506D02*
X163965057Y-118829887D01*
X163965057Y-118829887D02*
X164060295Y-118782268D01*
X164060295Y-118782268D02*
X164107914Y-118782268D01*
X164107914Y-118782268D02*
X164203152Y-118829887D01*
X164203152Y-118829887D02*
X164250771Y-118877506D01*
X164250771Y-118877506D02*
X164298390Y-118972744D01*
X164298390Y-118972744D02*
X164298390Y-119163220D01*
X164298390Y-119163220D02*
X164346009Y-119258458D01*
X164346009Y-119258458D02*
X164393628Y-119306077D01*
X164393628Y-119306077D02*
X164488866Y-119353696D01*
X164488866Y-119353696D02*
X164679342Y-119353696D01*
X164679342Y-119353696D02*
X164774580Y-119306077D01*
X164774580Y-119306077D02*
X164822200Y-119258458D01*
X164822200Y-119258458D02*
X164869819Y-119163220D01*
X164869819Y-119163220D02*
X164869819Y-118972744D01*
X164869819Y-118972744D02*
X164822200Y-118877506D01*
X164822200Y-118877506D02*
X164774580Y-118829887D01*
X164774580Y-118829887D02*
X164679342Y-118782268D01*
X164679342Y-118782268D02*
X164488866Y-118782268D01*
X164488866Y-118782268D02*
X164393628Y-118829887D01*
X164393628Y-118829887D02*
X164346009Y-118877506D01*
X164346009Y-118877506D02*
X164298390Y-118972744D01*
X164869819Y-118353696D02*
X163869819Y-118353696D01*
X164250771Y-118353696D02*
X164203152Y-118258458D01*
X164203152Y-118258458D02*
X164203152Y-118067982D01*
X164203152Y-118067982D02*
X164250771Y-117972744D01*
X164250771Y-117972744D02*
X164298390Y-117925125D01*
X164298390Y-117925125D02*
X164393628Y-117877506D01*
X164393628Y-117877506D02*
X164679342Y-117877506D01*
X164679342Y-117877506D02*
X164774580Y-117925125D01*
X164774580Y-117925125D02*
X164822200Y-117972744D01*
X164822200Y-117972744D02*
X164869819Y-118067982D01*
X164869819Y-118067982D02*
X164869819Y-118258458D01*
X164869819Y-118258458D02*
X164822200Y-118353696D01*
X154769819Y-107877506D02*
X155484104Y-107877506D01*
X155484104Y-107877506D02*
X155626961Y-107925125D01*
X155626961Y-107925125D02*
X155722200Y-108020363D01*
X155722200Y-108020363D02*
X155769819Y-108163220D01*
X155769819Y-108163220D02*
X155769819Y-108258458D01*
X154769819Y-107544172D02*
X154769819Y-106972744D01*
X155769819Y-107258458D02*
X154769819Y-107258458D01*
X155484104Y-106687029D02*
X155484104Y-106210839D01*
X155769819Y-106782267D02*
X154769819Y-106448934D01*
X154769819Y-106448934D02*
X155769819Y-106115601D01*
X154817438Y-105258458D02*
X154769819Y-105353696D01*
X154769819Y-105353696D02*
X154769819Y-105496553D01*
X154769819Y-105496553D02*
X154817438Y-105639410D01*
X154817438Y-105639410D02*
X154912676Y-105734648D01*
X154912676Y-105734648D02*
X155007914Y-105782267D01*
X155007914Y-105782267D02*
X155198390Y-105829886D01*
X155198390Y-105829886D02*
X155341247Y-105829886D01*
X155341247Y-105829886D02*
X155531723Y-105782267D01*
X155531723Y-105782267D02*
X155626961Y-105734648D01*
X155626961Y-105734648D02*
X155722200Y-105639410D01*
X155722200Y-105639410D02*
X155769819Y-105496553D01*
X155769819Y-105496553D02*
X155769819Y-105401315D01*
X155769819Y-105401315D02*
X155722200Y-105258458D01*
X155722200Y-105258458D02*
X155674580Y-105210839D01*
X155674580Y-105210839D02*
X155341247Y-105210839D01*
X155341247Y-105210839D02*
X155341247Y-105401315D01*
D10*
X142667219Y-92530326D02*
X141667219Y-92530326D01*
X141667219Y-92530326D02*
X142381504Y-92196993D01*
X142381504Y-92196993D02*
X141667219Y-91863660D01*
X141667219Y-91863660D02*
X142667219Y-91863660D01*
X141667219Y-91196993D02*
X141667219Y-91006517D01*
X141667219Y-91006517D02*
X141714838Y-90911279D01*
X141714838Y-90911279D02*
X141810076Y-90816041D01*
X141810076Y-90816041D02*
X142000552Y-90768422D01*
X142000552Y-90768422D02*
X142333885Y-90768422D01*
X142333885Y-90768422D02*
X142524361Y-90816041D01*
X142524361Y-90816041D02*
X142619600Y-90911279D01*
X142619600Y-90911279D02*
X142667219Y-91006517D01*
X142667219Y-91006517D02*
X142667219Y-91196993D01*
X142667219Y-91196993D02*
X142619600Y-91292231D01*
X142619600Y-91292231D02*
X142524361Y-91387469D01*
X142524361Y-91387469D02*
X142333885Y-91435088D01*
X142333885Y-91435088D02*
X142000552Y-91435088D01*
X142000552Y-91435088D02*
X141810076Y-91387469D01*
X141810076Y-91387469D02*
X141714838Y-91292231D01*
X141714838Y-91292231D02*
X141667219Y-91196993D01*
X141667219Y-90482707D02*
X141667219Y-89911279D01*
X142667219Y-90196993D02*
X141667219Y-90196993D01*
X141667219Y-89387469D02*
X141667219Y-89196993D01*
X141667219Y-89196993D02*
X141714838Y-89101755D01*
X141714838Y-89101755D02*
X141810076Y-89006517D01*
X141810076Y-89006517D02*
X142000552Y-88958898D01*
X142000552Y-88958898D02*
X142333885Y-88958898D01*
X142333885Y-88958898D02*
X142524361Y-89006517D01*
X142524361Y-89006517D02*
X142619600Y-89101755D01*
X142619600Y-89101755D02*
X142667219Y-89196993D01*
X142667219Y-89196993D02*
X142667219Y-89387469D01*
X142667219Y-89387469D02*
X142619600Y-89482707D01*
X142619600Y-89482707D02*
X142524361Y-89577945D01*
X142524361Y-89577945D02*
X142333885Y-89625564D01*
X142333885Y-89625564D02*
X142000552Y-89625564D01*
X142000552Y-89625564D02*
X141810076Y-89577945D01*
X141810076Y-89577945D02*
X141714838Y-89482707D01*
X141714838Y-89482707D02*
X141667219Y-89387469D01*
X142667219Y-87958898D02*
X142191028Y-88292231D01*
X142667219Y-88530326D02*
X141667219Y-88530326D01*
X141667219Y-88530326D02*
X141667219Y-88149374D01*
X141667219Y-88149374D02*
X141714838Y-88054136D01*
X141714838Y-88054136D02*
X141762457Y-88006517D01*
X141762457Y-88006517D02*
X141857695Y-87958898D01*
X141857695Y-87958898D02*
X142000552Y-87958898D01*
X142000552Y-87958898D02*
X142095790Y-88006517D01*
X142095790Y-88006517D02*
X142143409Y-88054136D01*
X142143409Y-88054136D02*
X142191028Y-88149374D01*
X142191028Y-88149374D02*
X142191028Y-88530326D01*
D12*
X151859819Y-105563220D02*
X150859819Y-105563220D01*
X150859819Y-105563220D02*
X151574104Y-105229887D01*
X151574104Y-105229887D02*
X150859819Y-104896554D01*
X150859819Y-104896554D02*
X151859819Y-104896554D01*
X151859819Y-104420363D02*
X150859819Y-104420363D01*
X151764580Y-103372745D02*
X151812200Y-103420364D01*
X151812200Y-103420364D02*
X151859819Y-103563221D01*
X151859819Y-103563221D02*
X151859819Y-103658459D01*
X151859819Y-103658459D02*
X151812200Y-103801316D01*
X151812200Y-103801316D02*
X151716961Y-103896554D01*
X151716961Y-103896554D02*
X151621723Y-103944173D01*
X151621723Y-103944173D02*
X151431247Y-103991792D01*
X151431247Y-103991792D02*
X151288390Y-103991792D01*
X151288390Y-103991792D02*
X151097914Y-103944173D01*
X151097914Y-103944173D02*
X151002676Y-103896554D01*
X151002676Y-103896554D02*
X150907438Y-103801316D01*
X150907438Y-103801316D02*
X150859819Y-103658459D01*
X150859819Y-103658459D02*
X150859819Y-103563221D01*
X150859819Y-103563221D02*
X150907438Y-103420364D01*
X150907438Y-103420364D02*
X150955057Y-103372745D01*
X151859819Y-102372745D02*
X151383628Y-102706078D01*
X151859819Y-102944173D02*
X150859819Y-102944173D01*
X150859819Y-102944173D02*
X150859819Y-102563221D01*
X150859819Y-102563221D02*
X150907438Y-102467983D01*
X150907438Y-102467983D02*
X150955057Y-102420364D01*
X150955057Y-102420364D02*
X151050295Y-102372745D01*
X151050295Y-102372745D02*
X151193152Y-102372745D01*
X151193152Y-102372745D02*
X151288390Y-102420364D01*
X151288390Y-102420364D02*
X151336009Y-102467983D01*
X151336009Y-102467983D02*
X151383628Y-102563221D01*
X151383628Y-102563221D02*
X151383628Y-102944173D01*
X150859819Y-101753697D02*
X150859819Y-101563221D01*
X150859819Y-101563221D02*
X150907438Y-101467983D01*
X150907438Y-101467983D02*
X151002676Y-101372745D01*
X151002676Y-101372745D02*
X151193152Y-101325126D01*
X151193152Y-101325126D02*
X151526485Y-101325126D01*
X151526485Y-101325126D02*
X151716961Y-101372745D01*
X151716961Y-101372745D02*
X151812200Y-101467983D01*
X151812200Y-101467983D02*
X151859819Y-101563221D01*
X151859819Y-101563221D02*
X151859819Y-101753697D01*
X151859819Y-101753697D02*
X151812200Y-101848935D01*
X151812200Y-101848935D02*
X151716961Y-101944173D01*
X151716961Y-101944173D02*
X151526485Y-101991792D01*
X151526485Y-101991792D02*
X151193152Y-101991792D01*
X151193152Y-101991792D02*
X151002676Y-101944173D01*
X151002676Y-101944173D02*
X150907438Y-101848935D01*
X150907438Y-101848935D02*
X150859819Y-101753697D01*
X151812200Y-100944173D02*
X151859819Y-100801316D01*
X151859819Y-100801316D02*
X151859819Y-100563221D01*
X151859819Y-100563221D02*
X151812200Y-100467983D01*
X151812200Y-100467983D02*
X151764580Y-100420364D01*
X151764580Y-100420364D02*
X151669342Y-100372745D01*
X151669342Y-100372745D02*
X151574104Y-100372745D01*
X151574104Y-100372745D02*
X151478866Y-100420364D01*
X151478866Y-100420364D02*
X151431247Y-100467983D01*
X151431247Y-100467983D02*
X151383628Y-100563221D01*
X151383628Y-100563221D02*
X151336009Y-100753697D01*
X151336009Y-100753697D02*
X151288390Y-100848935D01*
X151288390Y-100848935D02*
X151240771Y-100896554D01*
X151240771Y-100896554D02*
X151145533Y-100944173D01*
X151145533Y-100944173D02*
X151050295Y-100944173D01*
X151050295Y-100944173D02*
X150955057Y-100896554D01*
X150955057Y-100896554D02*
X150907438Y-100848935D01*
X150907438Y-100848935D02*
X150859819Y-100753697D01*
X150859819Y-100753697D02*
X150859819Y-100515602D01*
X150859819Y-100515602D02*
X150907438Y-100372745D01*
X150859819Y-100087030D02*
X150859819Y-99515602D01*
X151859819Y-99801316D02*
X150859819Y-99801316D01*
X151336009Y-99182268D02*
X151336009Y-98848935D01*
X151859819Y-98706078D02*
X151859819Y-99182268D01*
X151859819Y-99182268D02*
X150859819Y-99182268D01*
X150859819Y-99182268D02*
X150859819Y-98706078D01*
X151859819Y-98277506D02*
X150859819Y-98277506D01*
X150859819Y-98277506D02*
X150859819Y-97896554D01*
X150859819Y-97896554D02*
X150907438Y-97801316D01*
X150907438Y-97801316D02*
X150955057Y-97753697D01*
X150955057Y-97753697D02*
X151050295Y-97706078D01*
X151050295Y-97706078D02*
X151193152Y-97706078D01*
X151193152Y-97706078D02*
X151288390Y-97753697D01*
X151288390Y-97753697D02*
X151336009Y-97801316D01*
X151336009Y-97801316D02*
X151383628Y-97896554D01*
X151383628Y-97896554D02*
X151383628Y-98277506D01*
X153469819Y-105563220D02*
X152469819Y-105563220D01*
X152469819Y-105563220D02*
X153184104Y-105229887D01*
X153184104Y-105229887D02*
X152469819Y-104896554D01*
X152469819Y-104896554D02*
X153469819Y-104896554D01*
X152469819Y-104229887D02*
X152469819Y-104039411D01*
X152469819Y-104039411D02*
X152517438Y-103944173D01*
X152517438Y-103944173D02*
X152612676Y-103848935D01*
X152612676Y-103848935D02*
X152803152Y-103801316D01*
X152803152Y-103801316D02*
X153136485Y-103801316D01*
X153136485Y-103801316D02*
X153326961Y-103848935D01*
X153326961Y-103848935D02*
X153422200Y-103944173D01*
X153422200Y-103944173D02*
X153469819Y-104039411D01*
X153469819Y-104039411D02*
X153469819Y-104229887D01*
X153469819Y-104229887D02*
X153422200Y-104325125D01*
X153422200Y-104325125D02*
X153326961Y-104420363D01*
X153326961Y-104420363D02*
X153136485Y-104467982D01*
X153136485Y-104467982D02*
X152803152Y-104467982D01*
X152803152Y-104467982D02*
X152612676Y-104420363D01*
X152612676Y-104420363D02*
X152517438Y-104325125D01*
X152517438Y-104325125D02*
X152469819Y-104229887D01*
X153469819Y-103372744D02*
X152469819Y-103372744D01*
X152469819Y-103372744D02*
X152469819Y-103134649D01*
X152469819Y-103134649D02*
X152517438Y-102991792D01*
X152517438Y-102991792D02*
X152612676Y-102896554D01*
X152612676Y-102896554D02*
X152707914Y-102848935D01*
X152707914Y-102848935D02*
X152898390Y-102801316D01*
X152898390Y-102801316D02*
X153041247Y-102801316D01*
X153041247Y-102801316D02*
X153231723Y-102848935D01*
X153231723Y-102848935D02*
X153326961Y-102896554D01*
X153326961Y-102896554D02*
X153422200Y-102991792D01*
X153422200Y-102991792D02*
X153469819Y-103134649D01*
X153469819Y-103134649D02*
X153469819Y-103372744D01*
X152946009Y-102372744D02*
X152946009Y-102039411D01*
X153469819Y-101896554D02*
X153469819Y-102372744D01*
X153469819Y-102372744D02*
X152469819Y-102372744D01*
X152469819Y-102372744D02*
X152469819Y-101896554D01*
X157960588Y-129217438D02*
X157865350Y-129169819D01*
X157865350Y-129169819D02*
X157722493Y-129169819D01*
X157722493Y-129169819D02*
X157579636Y-129217438D01*
X157579636Y-129217438D02*
X157484398Y-129312676D01*
X157484398Y-129312676D02*
X157436779Y-129407914D01*
X157436779Y-129407914D02*
X157389160Y-129598390D01*
X157389160Y-129598390D02*
X157389160Y-129741247D01*
X157389160Y-129741247D02*
X157436779Y-129931723D01*
X157436779Y-129931723D02*
X157484398Y-130026961D01*
X157484398Y-130026961D02*
X157579636Y-130122200D01*
X157579636Y-130122200D02*
X157722493Y-130169819D01*
X157722493Y-130169819D02*
X157817731Y-130169819D01*
X157817731Y-130169819D02*
X157960588Y-130122200D01*
X157960588Y-130122200D02*
X158008207Y-130074580D01*
X158008207Y-130074580D02*
X158008207Y-129741247D01*
X158008207Y-129741247D02*
X157817731Y-129741247D01*
X158436779Y-130169819D02*
X158436779Y-129169819D01*
X158436779Y-129169819D02*
X158817731Y-129169819D01*
X158817731Y-129169819D02*
X158912969Y-129217438D01*
X158912969Y-129217438D02*
X158960588Y-129265057D01*
X158960588Y-129265057D02*
X159008207Y-129360295D01*
X159008207Y-129360295D02*
X159008207Y-129503152D01*
X159008207Y-129503152D02*
X158960588Y-129598390D01*
X158960588Y-129598390D02*
X158912969Y-129646009D01*
X158912969Y-129646009D02*
X158817731Y-129693628D01*
X158817731Y-129693628D02*
X158436779Y-129693628D01*
X159436779Y-130169819D02*
X159436779Y-129169819D01*
X160103445Y-129169819D02*
X160293921Y-129169819D01*
X160293921Y-129169819D02*
X160389159Y-129217438D01*
X160389159Y-129217438D02*
X160484397Y-129312676D01*
X160484397Y-129312676D02*
X160532016Y-129503152D01*
X160532016Y-129503152D02*
X160532016Y-129836485D01*
X160532016Y-129836485D02*
X160484397Y-130026961D01*
X160484397Y-130026961D02*
X160389159Y-130122200D01*
X160389159Y-130122200D02*
X160293921Y-130169819D01*
X160293921Y-130169819D02*
X160103445Y-130169819D01*
X160103445Y-130169819D02*
X160008207Y-130122200D01*
X160008207Y-130122200D02*
X159912969Y-130026961D01*
X159912969Y-130026961D02*
X159865350Y-129836485D01*
X159865350Y-129836485D02*
X159865350Y-129503152D01*
X159865350Y-129503152D02*
X159912969Y-129312676D01*
X159912969Y-129312676D02*
X160008207Y-129217438D01*
X160008207Y-129217438D02*
X160103445Y-129169819D01*
X161484397Y-130169819D02*
X160912969Y-130169819D01*
X161198683Y-130169819D02*
X161198683Y-129169819D01*
X161198683Y-129169819D02*
X161103445Y-129312676D01*
X161103445Y-129312676D02*
X161008207Y-129407914D01*
X161008207Y-129407914D02*
X160912969Y-129455533D01*
D13*
X101799171Y-122111653D02*
X101799171Y-123040225D01*
X101799171Y-123040225D02*
X101227742Y-122540225D01*
X101227742Y-122540225D02*
X101227742Y-122754510D01*
X101227742Y-122754510D02*
X101156314Y-122897368D01*
X101156314Y-122897368D02*
X101084885Y-122968796D01*
X101084885Y-122968796D02*
X100942028Y-123040225D01*
X100942028Y-123040225D02*
X100584885Y-123040225D01*
X100584885Y-123040225D02*
X100442028Y-122968796D01*
X100442028Y-122968796D02*
X100370600Y-122897368D01*
X100370600Y-122897368D02*
X100299171Y-122754510D01*
X100299171Y-122754510D02*
X100299171Y-122325939D01*
X100299171Y-122325939D02*
X100370600Y-122183082D01*
X100370600Y-122183082D02*
X100442028Y-122111653D01*
X100299171Y-124468796D02*
X100299171Y-123611653D01*
X100299171Y-124040224D02*
X101799171Y-124040224D01*
X101799171Y-124040224D02*
X101584885Y-123897367D01*
X101584885Y-123897367D02*
X101442028Y-123754510D01*
X101442028Y-123754510D02*
X101370600Y-123611653D01*
X100442028Y-125111652D02*
X100370600Y-125183081D01*
X100370600Y-125183081D02*
X100299171Y-125111652D01*
X100299171Y-125111652D02*
X100370600Y-125040224D01*
X100370600Y-125040224D02*
X100442028Y-125111652D01*
X100442028Y-125111652D02*
X100299171Y-125111652D01*
X101799171Y-126111653D02*
X101799171Y-126254510D01*
X101799171Y-126254510D02*
X101727742Y-126397367D01*
X101727742Y-126397367D02*
X101656314Y-126468796D01*
X101656314Y-126468796D02*
X101513457Y-126540224D01*
X101513457Y-126540224D02*
X101227742Y-126611653D01*
X101227742Y-126611653D02*
X100870600Y-126611653D01*
X100870600Y-126611653D02*
X100584885Y-126540224D01*
X100584885Y-126540224D02*
X100442028Y-126468796D01*
X100442028Y-126468796D02*
X100370600Y-126397367D01*
X100370600Y-126397367D02*
X100299171Y-126254510D01*
X100299171Y-126254510D02*
X100299171Y-126111653D01*
X100299171Y-126111653D02*
X100370600Y-125968796D01*
X100370600Y-125968796D02*
X100442028Y-125897367D01*
X100442028Y-125897367D02*
X100584885Y-125825938D01*
X100584885Y-125825938D02*
X100870600Y-125754510D01*
X100870600Y-125754510D02*
X101227742Y-125754510D01*
X101227742Y-125754510D02*
X101513457Y-125825938D01*
X101513457Y-125825938D02*
X101656314Y-125897367D01*
X101656314Y-125897367D02*
X101727742Y-125968796D01*
X101727742Y-125968796D02*
X101799171Y-126111653D01*
X101799171Y-127968795D02*
X101799171Y-127254509D01*
X101799171Y-127254509D02*
X101084885Y-127183081D01*
X101084885Y-127183081D02*
X101156314Y-127254509D01*
X101156314Y-127254509D02*
X101227742Y-127397367D01*
X101227742Y-127397367D02*
X101227742Y-127754509D01*
X101227742Y-127754509D02*
X101156314Y-127897367D01*
X101156314Y-127897367D02*
X101084885Y-127968795D01*
X101084885Y-127968795D02*
X100942028Y-128040224D01*
X100942028Y-128040224D02*
X100584885Y-128040224D01*
X100584885Y-128040224D02*
X100442028Y-127968795D01*
X100442028Y-127968795D02*
X100370600Y-127897367D01*
X100370600Y-127897367D02*
X100299171Y-127754509D01*
X100299171Y-127754509D02*
X100299171Y-127397367D01*
X100299171Y-127397367D02*
X100370600Y-127254509D01*
X100370600Y-127254509D02*
X100442028Y-127183081D01*
X100442028Y-128683080D02*
X100370600Y-128754509D01*
X100370600Y-128754509D02*
X100299171Y-128683080D01*
X100299171Y-128683080D02*
X100370600Y-128611652D01*
X100370600Y-128611652D02*
X100442028Y-128683080D01*
X100442028Y-128683080D02*
X100299171Y-128683080D01*
X101656314Y-129325938D02*
X101727742Y-129397366D01*
X101727742Y-129397366D02*
X101799171Y-129540224D01*
X101799171Y-129540224D02*
X101799171Y-129897366D01*
X101799171Y-129897366D02*
X101727742Y-130040224D01*
X101727742Y-130040224D02*
X101656314Y-130111652D01*
X101656314Y-130111652D02*
X101513457Y-130183081D01*
X101513457Y-130183081D02*
X101370600Y-130183081D01*
X101370600Y-130183081D02*
X101156314Y-130111652D01*
X101156314Y-130111652D02*
X100299171Y-129254509D01*
X100299171Y-129254509D02*
X100299171Y-130183081D01*
X101799171Y-130683080D02*
X101799171Y-131611652D01*
X101799171Y-131611652D02*
X101227742Y-131111652D01*
X101227742Y-131111652D02*
X101227742Y-131325937D01*
X101227742Y-131325937D02*
X101156314Y-131468795D01*
X101156314Y-131468795D02*
X101084885Y-131540223D01*
X101084885Y-131540223D02*
X100942028Y-131611652D01*
X100942028Y-131611652D02*
X100584885Y-131611652D01*
X100584885Y-131611652D02*
X100442028Y-131540223D01*
X100442028Y-131540223D02*
X100370600Y-131468795D01*
X100370600Y-131468795D02*
X100299171Y-131325937D01*
X100299171Y-131325937D02*
X100299171Y-130897366D01*
X100299171Y-130897366D02*
X100370600Y-130754509D01*
X100370600Y-130754509D02*
X100442028Y-130683080D01*
X100299171Y-133397365D02*
X101799171Y-133397365D01*
X101799171Y-133397365D02*
X100727742Y-133897365D01*
X100727742Y-133897365D02*
X101799171Y-134397365D01*
X101799171Y-134397365D02*
X100299171Y-134397365D01*
X100299171Y-135111651D02*
X101799171Y-135111651D01*
X101799171Y-135111651D02*
X100727742Y-135611651D01*
X100727742Y-135611651D02*
X101799171Y-136111651D01*
X101799171Y-136111651D02*
X100299171Y-136111651D01*
D12*
X134369819Y-99663220D02*
X133369819Y-99663220D01*
X133369819Y-99663220D02*
X134084104Y-99329887D01*
X134084104Y-99329887D02*
X133369819Y-98996554D01*
X133369819Y-98996554D02*
X134369819Y-98996554D01*
X133369819Y-98329887D02*
X133369819Y-98139411D01*
X133369819Y-98139411D02*
X133417438Y-98044173D01*
X133417438Y-98044173D02*
X133512676Y-97948935D01*
X133512676Y-97948935D02*
X133703152Y-97901316D01*
X133703152Y-97901316D02*
X134036485Y-97901316D01*
X134036485Y-97901316D02*
X134226961Y-97948935D01*
X134226961Y-97948935D02*
X134322200Y-98044173D01*
X134322200Y-98044173D02*
X134369819Y-98139411D01*
X134369819Y-98139411D02*
X134369819Y-98329887D01*
X134369819Y-98329887D02*
X134322200Y-98425125D01*
X134322200Y-98425125D02*
X134226961Y-98520363D01*
X134226961Y-98520363D02*
X134036485Y-98567982D01*
X134036485Y-98567982D02*
X133703152Y-98567982D01*
X133703152Y-98567982D02*
X133512676Y-98520363D01*
X133512676Y-98520363D02*
X133417438Y-98425125D01*
X133417438Y-98425125D02*
X133369819Y-98329887D01*
X133369819Y-97615601D02*
X133369819Y-97044173D01*
X134369819Y-97329887D02*
X133369819Y-97329887D01*
X133369819Y-96520363D02*
X133369819Y-96329887D01*
X133369819Y-96329887D02*
X133417438Y-96234649D01*
X133417438Y-96234649D02*
X133512676Y-96139411D01*
X133512676Y-96139411D02*
X133703152Y-96091792D01*
X133703152Y-96091792D02*
X134036485Y-96091792D01*
X134036485Y-96091792D02*
X134226961Y-96139411D01*
X134226961Y-96139411D02*
X134322200Y-96234649D01*
X134322200Y-96234649D02*
X134369819Y-96329887D01*
X134369819Y-96329887D02*
X134369819Y-96520363D01*
X134369819Y-96520363D02*
X134322200Y-96615601D01*
X134322200Y-96615601D02*
X134226961Y-96710839D01*
X134226961Y-96710839D02*
X134036485Y-96758458D01*
X134036485Y-96758458D02*
X133703152Y-96758458D01*
X133703152Y-96758458D02*
X133512676Y-96710839D01*
X133512676Y-96710839D02*
X133417438Y-96615601D01*
X133417438Y-96615601D02*
X133369819Y-96520363D01*
X134369819Y-95091792D02*
X133893628Y-95425125D01*
X134369819Y-95663220D02*
X133369819Y-95663220D01*
X133369819Y-95663220D02*
X133369819Y-95282268D01*
X133369819Y-95282268D02*
X133417438Y-95187030D01*
X133417438Y-95187030D02*
X133465057Y-95139411D01*
X133465057Y-95139411D02*
X133560295Y-95091792D01*
X133560295Y-95091792D02*
X133703152Y-95091792D01*
X133703152Y-95091792D02*
X133798390Y-95139411D01*
X133798390Y-95139411D02*
X133846009Y-95187030D01*
X133846009Y-95187030D02*
X133893628Y-95282268D01*
X133893628Y-95282268D02*
X133893628Y-95663220D01*
X134274580Y-94663220D02*
X134322200Y-94615601D01*
X134322200Y-94615601D02*
X134369819Y-94663220D01*
X134369819Y-94663220D02*
X134322200Y-94710839D01*
X134322200Y-94710839D02*
X134274580Y-94663220D01*
X134274580Y-94663220D02*
X134369819Y-94663220D01*
X134274580Y-93615602D02*
X134322200Y-93663221D01*
X134322200Y-93663221D02*
X134369819Y-93806078D01*
X134369819Y-93806078D02*
X134369819Y-93901316D01*
X134369819Y-93901316D02*
X134322200Y-94044173D01*
X134322200Y-94044173D02*
X134226961Y-94139411D01*
X134226961Y-94139411D02*
X134131723Y-94187030D01*
X134131723Y-94187030D02*
X133941247Y-94234649D01*
X133941247Y-94234649D02*
X133798390Y-94234649D01*
X133798390Y-94234649D02*
X133607914Y-94187030D01*
X133607914Y-94187030D02*
X133512676Y-94139411D01*
X133512676Y-94139411D02*
X133417438Y-94044173D01*
X133417438Y-94044173D02*
X133369819Y-93901316D01*
X133369819Y-93901316D02*
X133369819Y-93806078D01*
X133369819Y-93806078D02*
X133417438Y-93663221D01*
X133417438Y-93663221D02*
X133465057Y-93615602D01*
X133369819Y-93187030D02*
X134179342Y-93187030D01*
X134179342Y-93187030D02*
X134274580Y-93139411D01*
X134274580Y-93139411D02*
X134322200Y-93091792D01*
X134322200Y-93091792D02*
X134369819Y-92996554D01*
X134369819Y-92996554D02*
X134369819Y-92806078D01*
X134369819Y-92806078D02*
X134322200Y-92710840D01*
X134322200Y-92710840D02*
X134274580Y-92663221D01*
X134274580Y-92663221D02*
X134179342Y-92615602D01*
X134179342Y-92615602D02*
X133369819Y-92615602D01*
X134369819Y-91567983D02*
X133893628Y-91901316D01*
X134369819Y-92139411D02*
X133369819Y-92139411D01*
X133369819Y-92139411D02*
X133369819Y-91758459D01*
X133369819Y-91758459D02*
X133417438Y-91663221D01*
X133417438Y-91663221D02*
X133465057Y-91615602D01*
X133465057Y-91615602D02*
X133560295Y-91567983D01*
X133560295Y-91567983D02*
X133703152Y-91567983D01*
X133703152Y-91567983D02*
X133798390Y-91615602D01*
X133798390Y-91615602D02*
X133846009Y-91663221D01*
X133846009Y-91663221D02*
X133893628Y-91758459D01*
X133893628Y-91758459D02*
X133893628Y-92139411D01*
X134369819Y-90567983D02*
X133893628Y-90901316D01*
X134369819Y-91139411D02*
X133369819Y-91139411D01*
X133369819Y-91139411D02*
X133369819Y-90758459D01*
X133369819Y-90758459D02*
X133417438Y-90663221D01*
X133417438Y-90663221D02*
X133465057Y-90615602D01*
X133465057Y-90615602D02*
X133560295Y-90567983D01*
X133560295Y-90567983D02*
X133703152Y-90567983D01*
X133703152Y-90567983D02*
X133798390Y-90615602D01*
X133798390Y-90615602D02*
X133846009Y-90663221D01*
X133846009Y-90663221D02*
X133893628Y-90758459D01*
X133893628Y-90758459D02*
X133893628Y-91139411D01*
X156036779Y-115088866D02*
X156798684Y-115088866D01*
X156417731Y-115469819D02*
X156417731Y-114707914D01*
X157179636Y-114469819D02*
X157798683Y-114469819D01*
X157798683Y-114469819D02*
X157465350Y-114850771D01*
X157465350Y-114850771D02*
X157608207Y-114850771D01*
X157608207Y-114850771D02*
X157703445Y-114898390D01*
X157703445Y-114898390D02*
X157751064Y-114946009D01*
X157751064Y-114946009D02*
X157798683Y-115041247D01*
X157798683Y-115041247D02*
X157798683Y-115279342D01*
X157798683Y-115279342D02*
X157751064Y-115374580D01*
X157751064Y-115374580D02*
X157703445Y-115422200D01*
X157703445Y-115422200D02*
X157608207Y-115469819D01*
X157608207Y-115469819D02*
X157322493Y-115469819D01*
X157322493Y-115469819D02*
X157227255Y-115422200D01*
X157227255Y-115422200D02*
X157179636Y-115374580D01*
X158274874Y-115422200D02*
X158274874Y-115469819D01*
X158274874Y-115469819D02*
X158227255Y-115565057D01*
X158227255Y-115565057D02*
X158179636Y-115612676D01*
X158608207Y-114469819D02*
X159227254Y-114469819D01*
X159227254Y-114469819D02*
X158893921Y-114850771D01*
X158893921Y-114850771D02*
X159036778Y-114850771D01*
X159036778Y-114850771D02*
X159132016Y-114898390D01*
X159132016Y-114898390D02*
X159179635Y-114946009D01*
X159179635Y-114946009D02*
X159227254Y-115041247D01*
X159227254Y-115041247D02*
X159227254Y-115279342D01*
X159227254Y-115279342D02*
X159179635Y-115374580D01*
X159179635Y-115374580D02*
X159132016Y-115422200D01*
X159132016Y-115422200D02*
X159036778Y-115469819D01*
X159036778Y-115469819D02*
X158751064Y-115469819D01*
X158751064Y-115469819D02*
X158655826Y-115422200D01*
X158655826Y-115422200D02*
X158608207Y-115374580D01*
X159512969Y-114469819D02*
X159846302Y-115469819D01*
X159846302Y-115469819D02*
X160179635Y-114469819D01*
D14*
%TO.C,RV1*%
X133130000Y-90755000D02*
X128060000Y-90755000D01*
X133130000Y-90755000D02*
X133130000Y-100525000D01*
X128060000Y-90755000D02*
X128060000Y-100525000D01*
X133130000Y-100525000D02*
X128060000Y-100525000D01*
%TO.C,R20*%
X146627064Y-112935000D02*
X146172936Y-112935000D01*
X146627064Y-111465000D02*
X146172936Y-111465000D01*
%TO.C,R19*%
X107765000Y-91527064D02*
X107765000Y-91072936D01*
X109235000Y-91527064D02*
X109235000Y-91072936D01*
%TO.C,Q5*%
X119750000Y-93890000D02*
X119480000Y-93890000D01*
X119480000Y-93890000D02*
X119480000Y-91060000D01*
X113120000Y-93890000D02*
X113120000Y-92790000D01*
X112850000Y-93890000D02*
X113120000Y-93890000D01*
X119750000Y-100310000D02*
X119750000Y-93890000D01*
X112850000Y-100310000D02*
X112850000Y-93890000D01*
%TO.C,D5*%
X126140000Y-104090000D02*
X126140000Y-106310000D01*
X126140000Y-106310000D02*
X130550000Y-106310000D01*
X130550000Y-104090000D02*
X126140000Y-104090000D01*
%TO.C,R30*%
X181227064Y-120035000D02*
X180772936Y-120035000D01*
X181227064Y-118565000D02*
X180772936Y-118565000D01*
%TO.C,R17*%
X114977064Y-89110000D02*
X110622936Y-89110000D01*
X114977064Y-85690000D02*
X110622936Y-85690000D01*
%TO.C,U4*%
X185100000Y-98200000D02*
X184700000Y-98200000D01*
X166850000Y-98200000D02*
X166100000Y-98200000D01*
X166100000Y-98200000D02*
X166100000Y-98950000D01*
X166100000Y-98950000D02*
X166100000Y-100700000D01*
X166100000Y-115450000D02*
X166100000Y-113700000D01*
X185100000Y-116200000D02*
X185100000Y-98200000D01*
X185100000Y-116200000D02*
X184700000Y-116200000D01*
X166850000Y-116200000D02*
X166100000Y-116200000D01*
X166100000Y-116200000D02*
X166100000Y-115450000D01*
%TO.C,R38*%
X141372936Y-102365000D02*
X141827064Y-102365000D01*
X141372936Y-103835000D02*
X141827064Y-103835000D01*
%TO.C,R36*%
X144672936Y-88190000D02*
X146127064Y-88190000D01*
X144672936Y-90010000D02*
X146127064Y-90010000D01*
%TO.C,R6*%
X118565000Y-104327064D02*
X118565000Y-103872936D01*
X120035000Y-104327064D02*
X120035000Y-103872936D01*
%TO.C,JP4*%
X150600000Y-101500000D02*
X150600000Y-102100000D01*
X149900000Y-102800000D02*
X148500000Y-102800000D01*
X148500000Y-100800000D02*
X149900000Y-100800000D01*
X147800000Y-102100000D02*
X147800000Y-101500000D01*
X149900000Y-102800000D02*
G75*
G03*
X150600000Y-102100000I1J699999D01*
G01*
X150600000Y-101500000D02*
G75*
G03*
X149900000Y-100800000I-699999J1D01*
G01*
X147800000Y-102100000D02*
G75*
G03*
X148500000Y-102800000I700000J0D01*
G01*
X148500000Y-100800000D02*
G75*
G03*
X147800000Y-101500000I0J-700000D01*
G01*
%TO.C,Q8*%
X171000000Y-87940000D02*
X169325000Y-87940000D01*
X171000000Y-87940000D02*
X171650000Y-87940000D01*
X171000000Y-91060000D02*
X170350000Y-91060000D01*
X171000000Y-91060000D02*
X171650000Y-91060000D01*
%TO.C,C25*%
X136138748Y-90865000D02*
X136661252Y-90865000D01*
X136138748Y-92335000D02*
X136661252Y-92335000D01*
%TO.C,R14*%
X101365000Y-91527064D02*
X101365000Y-91072936D01*
X102835000Y-91527064D02*
X102835000Y-91072936D01*
%TO.C,C16*%
X104365000Y-123561252D02*
X104365000Y-123038748D01*
X105835000Y-123561252D02*
X105835000Y-123038748D01*
%TO.C,R41*%
X171365000Y-95527064D02*
X171365000Y-95072936D01*
X172835000Y-95527064D02*
X172835000Y-95072936D01*
%TO.C,C20*%
X117211252Y-113610000D02*
X115788748Y-113610000D01*
X117211252Y-111790000D02*
X115788748Y-111790000D01*
%TO.C,C19*%
X121979646Y-121975000D02*
X120979646Y-121975000D01*
X121479646Y-122475000D02*
X121479646Y-121475000D01*
X116500000Y-124180000D02*
X116500000Y-114020000D01*
X116460000Y-124180000D02*
X116460000Y-114020000D01*
X116420000Y-124180000D02*
X116420000Y-114020000D01*
X116380000Y-124179000D02*
X116380000Y-114021000D01*
X116340000Y-124178000D02*
X116340000Y-114022000D01*
X116300000Y-124177000D02*
X116300000Y-114023000D01*
X116260000Y-124175000D02*
X116260000Y-114025000D01*
X116220000Y-124173000D02*
X116220000Y-114027000D01*
X116180000Y-124170000D02*
X116180000Y-114030000D01*
X116140000Y-124168000D02*
X116140000Y-114032000D01*
X116100000Y-124165000D02*
X116100000Y-114035000D01*
X116060000Y-124162000D02*
X116060000Y-114038000D01*
X116020000Y-124158000D02*
X116020000Y-114042000D01*
X115980000Y-124154000D02*
X115980000Y-114046000D01*
X115940000Y-124150000D02*
X115940000Y-114050000D01*
X115900000Y-124145000D02*
X115900000Y-114055000D01*
X115860000Y-124140000D02*
X115860000Y-114060000D01*
X115820000Y-124135000D02*
X115820000Y-114065000D01*
X115779000Y-124130000D02*
X115779000Y-114070000D01*
X115739000Y-124124000D02*
X115739000Y-114076000D01*
X115699000Y-124118000D02*
X115699000Y-114082000D01*
X115659000Y-124111000D02*
X115659000Y-114089000D01*
X115619000Y-124104000D02*
X115619000Y-114096000D01*
X115579000Y-124097000D02*
X115579000Y-114103000D01*
X115539000Y-124090000D02*
X115539000Y-114110000D01*
X115499000Y-124082000D02*
X115499000Y-114118000D01*
X115459000Y-124074000D02*
X115459000Y-114126000D01*
X115419000Y-124065000D02*
X115419000Y-114135000D01*
X115379000Y-124056000D02*
X115379000Y-114144000D01*
X115339000Y-124047000D02*
X115339000Y-114153000D01*
X115299000Y-124038000D02*
X115299000Y-114162000D01*
X115259000Y-124028000D02*
X115259000Y-114172000D01*
X115219000Y-124018000D02*
X115219000Y-120341000D01*
X115219000Y-117859000D02*
X115219000Y-114182000D01*
X115179000Y-124007000D02*
X115179000Y-120341000D01*
X115179000Y-117859000D02*
X115179000Y-114193000D01*
X115139000Y-123997000D02*
X115139000Y-120341000D01*
X115139000Y-117859000D02*
X115139000Y-114203000D01*
X115099000Y-123985000D02*
X115099000Y-120341000D01*
X115099000Y-117859000D02*
X115099000Y-114215000D01*
X115059000Y-123974000D02*
X115059000Y-120341000D01*
X115059000Y-117859000D02*
X115059000Y-114226000D01*
X115019000Y-123962000D02*
X115019000Y-120341000D01*
X115019000Y-117859000D02*
X115019000Y-114238000D01*
X114979000Y-123950000D02*
X114979000Y-120341000D01*
X114979000Y-117859000D02*
X114979000Y-114250000D01*
X114939000Y-123937000D02*
X114939000Y-120341000D01*
X114939000Y-117859000D02*
X114939000Y-114263000D01*
X114899000Y-123924000D02*
X114899000Y-120341000D01*
X114899000Y-117859000D02*
X114899000Y-114276000D01*
X114859000Y-123911000D02*
X114859000Y-120341000D01*
X114859000Y-117859000D02*
X114859000Y-114289000D01*
X114819000Y-123897000D02*
X114819000Y-120341000D01*
X114819000Y-117859000D02*
X114819000Y-114303000D01*
X114779000Y-123883000D02*
X114779000Y-120341000D01*
X114779000Y-117859000D02*
X114779000Y-114317000D01*
X114739000Y-123868000D02*
X114739000Y-120341000D01*
X114739000Y-117859000D02*
X114739000Y-114332000D01*
X114699000Y-123854000D02*
X114699000Y-120341000D01*
X114699000Y-117859000D02*
X114699000Y-114346000D01*
X114659000Y-123838000D02*
X114659000Y-120341000D01*
X114659000Y-117859000D02*
X114659000Y-114362000D01*
X114619000Y-123823000D02*
X114619000Y-120341000D01*
X114619000Y-117859000D02*
X114619000Y-114377000D01*
X114579000Y-123807000D02*
X114579000Y-120341000D01*
X114579000Y-117859000D02*
X114579000Y-114393000D01*
X114539000Y-123790000D02*
X114539000Y-120341000D01*
X114539000Y-117859000D02*
X114539000Y-114410000D01*
X114499000Y-123774000D02*
X114499000Y-120341000D01*
X114499000Y-117859000D02*
X114499000Y-114426000D01*
X114459000Y-123757000D02*
X114459000Y-120341000D01*
X114459000Y-117859000D02*
X114459000Y-114443000D01*
X114419000Y-123739000D02*
X114419000Y-120341000D01*
X114419000Y-117859000D02*
X114419000Y-114461000D01*
X114379000Y-123721000D02*
X114379000Y-120341000D01*
X114379000Y-117859000D02*
X114379000Y-114479000D01*
X114339000Y-123703000D02*
X114339000Y-120341000D01*
X114339000Y-117859000D02*
X114339000Y-114497000D01*
X114299000Y-123684000D02*
X114299000Y-120341000D01*
X114299000Y-117859000D02*
X114299000Y-114516000D01*
X114259000Y-123664000D02*
X114259000Y-120341000D01*
X114259000Y-117859000D02*
X114259000Y-114536000D01*
X114219000Y-123645000D02*
X114219000Y-120341000D01*
X114219000Y-117859000D02*
X114219000Y-114555000D01*
X114179000Y-123625000D02*
X114179000Y-120341000D01*
X114179000Y-117859000D02*
X114179000Y-114575000D01*
X114139000Y-123604000D02*
X114139000Y-120341000D01*
X114139000Y-117859000D02*
X114139000Y-114596000D01*
X114099000Y-123583000D02*
X114099000Y-120341000D01*
X114099000Y-117859000D02*
X114099000Y-114617000D01*
X114059000Y-123562000D02*
X114059000Y-120341000D01*
X114059000Y-117859000D02*
X114059000Y-114638000D01*
X114019000Y-123540000D02*
X114019000Y-120341000D01*
X114019000Y-117859000D02*
X114019000Y-114660000D01*
X113979000Y-123517000D02*
X113979000Y-120341000D01*
X113979000Y-117859000D02*
X113979000Y-114683000D01*
X113939000Y-123495000D02*
X113939000Y-120341000D01*
X113939000Y-117859000D02*
X113939000Y-114705000D01*
X113899000Y-123471000D02*
X113899000Y-120341000D01*
X113899000Y-117859000D02*
X113899000Y-114729000D01*
X113859000Y-123447000D02*
X113859000Y-120341000D01*
X113859000Y-117859000D02*
X113859000Y-114753000D01*
X113819000Y-123423000D02*
X113819000Y-120341000D01*
X113819000Y-117859000D02*
X113819000Y-114777000D01*
X113779000Y-123398000D02*
X113779000Y-120341000D01*
X113779000Y-117859000D02*
X113779000Y-114802000D01*
X113739000Y-123373000D02*
X113739000Y-120341000D01*
X113739000Y-117859000D02*
X113739000Y-114827000D01*
X113699000Y-123347000D02*
X113699000Y-120341000D01*
X113699000Y-117859000D02*
X113699000Y-114853000D01*
X113659000Y-123321000D02*
X113659000Y-120341000D01*
X113659000Y-117859000D02*
X113659000Y-114879000D01*
X113619000Y-123294000D02*
X113619000Y-120341000D01*
X113619000Y-117859000D02*
X113619000Y-114906000D01*
X113579000Y-123266000D02*
X113579000Y-120341000D01*
X113579000Y-117859000D02*
X113579000Y-114934000D01*
X113539000Y-123238000D02*
X113539000Y-120341000D01*
X113539000Y-117859000D02*
X113539000Y-114962000D01*
X113499000Y-123210000D02*
X113499000Y-120341000D01*
X113499000Y-117859000D02*
X113499000Y-114990000D01*
X113459000Y-123180000D02*
X113459000Y-120341000D01*
X113459000Y-117859000D02*
X113459000Y-115020000D01*
X113419000Y-123150000D02*
X113419000Y-120341000D01*
X113419000Y-117859000D02*
X113419000Y-115050000D01*
X113379000Y-123120000D02*
X113379000Y-120341000D01*
X113379000Y-117859000D02*
X113379000Y-115080000D01*
X113339000Y-123089000D02*
X113339000Y-120341000D01*
X113339000Y-117859000D02*
X113339000Y-115111000D01*
X113299000Y-123057000D02*
X113299000Y-120341000D01*
X113299000Y-117859000D02*
X113299000Y-115143000D01*
X113259000Y-123025000D02*
X113259000Y-120341000D01*
X113259000Y-117859000D02*
X113259000Y-115175000D01*
X113219000Y-122992000D02*
X113219000Y-120341000D01*
X113219000Y-117859000D02*
X113219000Y-115208000D01*
X113179000Y-122958000D02*
X113179000Y-120341000D01*
X113179000Y-117859000D02*
X113179000Y-115242000D01*
X113139000Y-122924000D02*
X113139000Y-120341000D01*
X113139000Y-117859000D02*
X113139000Y-115276000D01*
X113099000Y-122889000D02*
X113099000Y-120341000D01*
X113099000Y-117859000D02*
X113099000Y-115311000D01*
X113059000Y-122853000D02*
X113059000Y-120341000D01*
X113059000Y-117859000D02*
X113059000Y-115347000D01*
X113019000Y-122816000D02*
X113019000Y-120341000D01*
X113019000Y-117859000D02*
X113019000Y-115384000D01*
X112979000Y-122779000D02*
X112979000Y-120341000D01*
X112979000Y-117859000D02*
X112979000Y-115421000D01*
X112939000Y-122740000D02*
X112939000Y-120341000D01*
X112939000Y-117859000D02*
X112939000Y-115460000D01*
X112899000Y-122701000D02*
X112899000Y-120341000D01*
X112899000Y-117859000D02*
X112899000Y-115499000D01*
X112859000Y-122661000D02*
X112859000Y-120341000D01*
X112859000Y-117859000D02*
X112859000Y-115539000D01*
X112819000Y-122620000D02*
X112819000Y-120341000D01*
X112819000Y-117859000D02*
X112819000Y-115580000D01*
X112779000Y-122578000D02*
X112779000Y-120341000D01*
X112779000Y-117859000D02*
X112779000Y-115622000D01*
X112739000Y-122536000D02*
X112739000Y-115664000D01*
X112699000Y-122492000D02*
X112699000Y-115708000D01*
X112659000Y-122447000D02*
X112659000Y-115753000D01*
X112619000Y-122401000D02*
X112619000Y-115799000D01*
X112579000Y-122354000D02*
X112579000Y-115846000D01*
X112539000Y-122306000D02*
X112539000Y-115894000D01*
X112499000Y-122256000D02*
X112499000Y-115944000D01*
X112459000Y-122206000D02*
X112459000Y-115994000D01*
X112419000Y-122154000D02*
X112419000Y-116046000D01*
X112379000Y-122100000D02*
X112379000Y-116100000D01*
X112339000Y-122045000D02*
X112339000Y-116155000D01*
X112299000Y-121989000D02*
X112299000Y-116211000D01*
X112259000Y-121930000D02*
X112259000Y-116270000D01*
X112219000Y-121870000D02*
X112219000Y-116330000D01*
X112179000Y-121809000D02*
X112179000Y-116391000D01*
X112139000Y-121745000D02*
X112139000Y-116455000D01*
X112099000Y-121679000D02*
X112099000Y-116521000D01*
X112059000Y-121610000D02*
X112059000Y-116590000D01*
X112019000Y-121539000D02*
X112019000Y-116661000D01*
X111979000Y-121465000D02*
X111979000Y-116735000D01*
X111939000Y-121389000D02*
X111939000Y-116811000D01*
X111899000Y-121309000D02*
X111899000Y-116891000D01*
X111859000Y-121225000D02*
X111859000Y-116975000D01*
X111819000Y-121137000D02*
X111819000Y-117063000D01*
X111779000Y-121044000D02*
X111779000Y-117156000D01*
X111739000Y-120946000D02*
X111739000Y-117254000D01*
X111699000Y-120842000D02*
X111699000Y-117358000D01*
X111659000Y-120730000D02*
X111659000Y-117470000D01*
X111619000Y-120610000D02*
X111619000Y-117590000D01*
X111579000Y-120478000D02*
X111579000Y-117722000D01*
X111539000Y-120330000D02*
X111539000Y-117870000D01*
X111499000Y-120162000D02*
X111499000Y-118038000D01*
X111459000Y-119962000D02*
X111459000Y-118238000D01*
X111419000Y-119699000D02*
X111419000Y-118501000D01*
X121620000Y-119100000D02*
G75*
G03*
X121620000Y-119100000I-5120000J0D01*
G01*
%TO.C,J10*%
X97290000Y-120600000D02*
X97290000Y-118190000D01*
X99700000Y-120600000D02*
X97290000Y-120600000D01*
X97590000Y-120300000D02*
X100120000Y-120300000D01*
X100120000Y-120300000D02*
X100120000Y-120170000D01*
X101930000Y-120300000D02*
X102910000Y-120300000D01*
X102910000Y-120300000D02*
X102910000Y-120040000D01*
X100120000Y-120170000D02*
X101930000Y-120170000D01*
X101930000Y-120170000D02*
X101930000Y-120300000D01*
X102910000Y-120040000D02*
X104410000Y-120040000D01*
X104410000Y-120040000D02*
X104410000Y-112960000D01*
X102910000Y-112960000D02*
X102910000Y-112700000D01*
X104410000Y-112960000D02*
X102910000Y-112960000D01*
X100120000Y-112830000D02*
X100120000Y-112700000D01*
X101930000Y-112830000D02*
X100120000Y-112830000D01*
X97590000Y-112700000D02*
X97590000Y-120300000D01*
X100120000Y-112700000D02*
X97590000Y-112700000D01*
X101930000Y-112700000D02*
X101930000Y-112830000D01*
X102910000Y-112700000D02*
X101930000Y-112700000D01*
%TO.C,JP6*%
X165800000Y-117700000D02*
X166400000Y-117700000D01*
X167100000Y-118400000D02*
X167100000Y-119800000D01*
X165100000Y-119800000D02*
X165100000Y-118400000D01*
X166400000Y-120500000D02*
X165800000Y-120500000D01*
X167100000Y-118400000D02*
G75*
G03*
X166400000Y-117700000I-699999J1D01*
G01*
X165800000Y-117700000D02*
G75*
G03*
X165100000Y-118400000I-1J-699999D01*
G01*
X166400000Y-120500000D02*
G75*
G03*
X167100000Y-119800000I0J700000D01*
G01*
X165100000Y-119800000D02*
G75*
G03*
X165800000Y-120500000I700000J0D01*
G01*
%TO.C,TP7*%
X183900000Y-135100000D02*
X185300000Y-135100000D01*
X183900000Y-136500000D02*
X183900000Y-135100000D01*
X185300000Y-135100000D02*
X185300000Y-136500000D01*
X185300000Y-136500000D02*
X183900000Y-136500000D01*
%TO.C,R35*%
X153927064Y-99235000D02*
X153472936Y-99235000D01*
X153927064Y-97765000D02*
X153472936Y-97765000D01*
%TO.C,J1*%
X126500000Y-81790000D02*
X128910000Y-81790000D01*
X126500000Y-84200000D02*
X126500000Y-81790000D01*
X126800000Y-82090000D02*
X126800000Y-84620000D01*
X126800000Y-84620000D02*
X126930000Y-84620000D01*
X126800000Y-86430000D02*
X126800000Y-87410000D01*
X126800000Y-87410000D02*
X127060000Y-87410000D01*
X126930000Y-84620000D02*
X126930000Y-86430000D01*
X126930000Y-86430000D02*
X126800000Y-86430000D01*
X127060000Y-87410000D02*
X127060000Y-88910000D01*
X127060000Y-88910000D02*
X134140000Y-88910000D01*
X134140000Y-87410000D02*
X134400000Y-87410000D01*
X134140000Y-88910000D02*
X134140000Y-87410000D01*
X134270000Y-84620000D02*
X134400000Y-84620000D01*
X134270000Y-86430000D02*
X134270000Y-84620000D01*
X134400000Y-82090000D02*
X126800000Y-82090000D01*
X134400000Y-84620000D02*
X134400000Y-82090000D01*
X134400000Y-86430000D02*
X134270000Y-86430000D01*
X134400000Y-87410000D02*
X134400000Y-86430000D01*
%TO.C,U1*%
X104815000Y-102000000D02*
X104815000Y-105600000D01*
X104815000Y-102000000D02*
X104815000Y-99800000D01*
X111585000Y-102000000D02*
X111585000Y-104200000D01*
X111585000Y-102000000D02*
X111585000Y-99800000D01*
%TO.C,C2*%
X105138748Y-106265000D02*
X105661252Y-106265000D01*
X105138748Y-107735000D02*
X105661252Y-107735000D01*
%TO.C,R33*%
X184735000Y-119972936D02*
X184735000Y-120427064D01*
X183265000Y-119972936D02*
X183265000Y-120427064D01*
%TO.C,JP8*%
X156600000Y-97600000D02*
X157200000Y-97600000D01*
X157900000Y-98300000D02*
X157900000Y-99700000D01*
X155900000Y-99700000D02*
X155900000Y-98300000D01*
X157200000Y-100400000D02*
X156600000Y-100400000D01*
X157900000Y-98300000D02*
G75*
G03*
X157200000Y-97600000I-699999J1D01*
G01*
X156600000Y-97600000D02*
G75*
G03*
X155900000Y-98300000I-1J-699999D01*
G01*
X157200000Y-100400000D02*
G75*
G03*
X157900000Y-99700000I0J700000D01*
G01*
X155900000Y-99700000D02*
G75*
G03*
X156600000Y-100400000I700000J0D01*
G01*
%TO.C,U7*%
X171200000Y-122660000D02*
X174650000Y-122660000D01*
X171200000Y-122660000D02*
X169250000Y-122660000D01*
X171200000Y-117540000D02*
X173150000Y-117540000D01*
X171200000Y-117540000D02*
X169250000Y-117540000D01*
%TO.C,C22*%
X178635000Y-131038748D02*
X178635000Y-131561252D01*
X177165000Y-131038748D02*
X177165000Y-131561252D01*
%TO.C,TP1*%
X160100000Y-115900000D02*
X160100000Y-117300000D01*
X158700000Y-115900000D02*
X160100000Y-115900000D01*
X160100000Y-117300000D02*
X158700000Y-117300000D01*
X158700000Y-117300000D02*
X158700000Y-115900000D01*
%TO.C,TP8*%
X155700000Y-129000000D02*
X157100000Y-129000000D01*
X155700000Y-130400000D02*
X155700000Y-129000000D01*
X157100000Y-129000000D02*
X157100000Y-130400000D01*
X157100000Y-130400000D02*
X155700000Y-130400000D01*
%TO.C,R29*%
X183272936Y-131065000D02*
X183727064Y-131065000D01*
X183272936Y-132535000D02*
X183727064Y-132535000D01*
%TO.C,C15*%
X104365000Y-128161252D02*
X104365000Y-127638748D01*
X105835000Y-128161252D02*
X105835000Y-127638748D01*
%TO.C,Q4*%
X127050000Y-93890000D02*
X126780000Y-93890000D01*
X126780000Y-93890000D02*
X126780000Y-91060000D01*
X120420000Y-93890000D02*
X120420000Y-92790000D01*
X120150000Y-93890000D02*
X120420000Y-93890000D01*
X127050000Y-100310000D02*
X127050000Y-93890000D01*
X120150000Y-100310000D02*
X120150000Y-93890000D01*
%TO.C,R9*%
X102865000Y-100327064D02*
X102865000Y-99872936D01*
X104335000Y-100327064D02*
X104335000Y-99872936D01*
%TO.C,R24*%
X102265000Y-123527064D02*
X102265000Y-123072936D01*
X103735000Y-123527064D02*
X103735000Y-123072936D01*
%TO.C,C3*%
X105138748Y-108365000D02*
X105661252Y-108365000D01*
X105138748Y-109835000D02*
X105661252Y-109835000D01*
%TO.C,R1*%
X141972936Y-133565000D02*
X142427064Y-133565000D01*
X141972936Y-135035000D02*
X142427064Y-135035000D01*
D12*
%TO.C,U6*%
X147075000Y-94675000D02*
X146850000Y-94675000D01*
X147075000Y-94675000D02*
X147075000Y-99325000D01*
X146850000Y-94675000D02*
X146850000Y-93600000D01*
X137074200Y-94675000D02*
X137399200Y-94675000D01*
X137074200Y-94675000D02*
X137074200Y-99325000D01*
X147075000Y-99325000D02*
X146750000Y-99325000D01*
X137074200Y-99325000D02*
X137399200Y-99325000D01*
D14*
%TO.C,L2*%
X113900000Y-135100000D02*
X113900000Y-124900000D01*
X124100000Y-135100000D02*
X124100000Y-124900000D01*
%TO.C,JP1*%
X180000000Y-131700000D02*
X180600000Y-131700000D01*
X181300000Y-132400000D02*
X181300000Y-133800000D01*
X179300000Y-133800000D02*
X179300000Y-132400000D01*
X180600000Y-134500000D02*
X180000000Y-134500000D01*
X181300000Y-132400000D02*
G75*
G03*
X180600000Y-131700000I-699999J1D01*
G01*
X180000000Y-131700000D02*
G75*
G03*
X179300000Y-132400000I-1J-699999D01*
G01*
X180600000Y-134500000D02*
G75*
G03*
X181300000Y-133800000I0J700000D01*
G01*
X179300000Y-133800000D02*
G75*
G03*
X180000000Y-134500000I700000J0D01*
G01*
%TO.C,R28*%
X178372936Y-135065000D02*
X178827064Y-135065000D01*
X178372936Y-136535000D02*
X178827064Y-136535000D01*
%TO.C,R2*%
X116565000Y-104327064D02*
X116565000Y-103872936D01*
X118035000Y-104327064D02*
X118035000Y-103872936D01*
%TO.C,R47*%
X130327064Y-135135000D02*
X129872936Y-135135000D01*
X130327064Y-133665000D02*
X129872936Y-133665000D01*
%TO.C,L1*%
X140800000Y-113800000D02*
X153400000Y-113800000D01*
X140800000Y-116800000D02*
X140800000Y-113800000D01*
X140800000Y-126400000D02*
X140800000Y-123400000D01*
X153400000Y-113800000D02*
X153400000Y-116800000D01*
X153400000Y-123400000D02*
X153400000Y-126400000D01*
X153400000Y-126400000D02*
X140800000Y-126400000D01*
%TO.C,Q6*%
X170540000Y-126937500D02*
X170540000Y-128612500D01*
X170540000Y-126937500D02*
X170540000Y-126287500D01*
X173660000Y-126937500D02*
X173660000Y-127587500D01*
X173660000Y-126937500D02*
X173660000Y-126287500D01*
%TO.C,R21*%
X134665000Y-111327064D02*
X134665000Y-110872936D01*
X136135000Y-111327064D02*
X136135000Y-110872936D01*
%TO.C,R4*%
X120565000Y-104327064D02*
X120565000Y-103872936D01*
X122035000Y-104327064D02*
X122035000Y-103872936D01*
%TO.C,RN1*%
X178970000Y-95450000D02*
X178970000Y-93350000D01*
X173630000Y-95450000D02*
X173630000Y-93350000D01*
%TO.C,R7*%
X129235000Y-127172936D02*
X129235000Y-127627064D01*
X127765000Y-127172936D02*
X127765000Y-127627064D01*
%TO.C,C9*%
X103565000Y-96461252D02*
X103565000Y-95938748D01*
X105035000Y-96461252D02*
X105035000Y-95938748D01*
%TO.C,R40*%
X169627064Y-124635000D02*
X169172936Y-124635000D01*
X169627064Y-123165000D02*
X169172936Y-123165000D01*
%TO.C,C21*%
X182338748Y-95465000D02*
X182861252Y-95465000D01*
X182338748Y-96935000D02*
X182861252Y-96935000D01*
%TO.C,C13*%
X156661252Y-117335000D02*
X156138748Y-117335000D01*
X156661252Y-115865000D02*
X156138748Y-115865000D01*
%TO.C,F1*%
X98890000Y-92502064D02*
X98890000Y-91297936D01*
X100710000Y-92502064D02*
X100710000Y-91297936D01*
%TO.C,R27*%
X183272936Y-133065000D02*
X183727064Y-133065000D01*
X183272936Y-134535000D02*
X183727064Y-134535000D01*
%TO.C,J9*%
X150400000Y-81390000D02*
X152810000Y-81390000D01*
X150400000Y-83800000D02*
X150400000Y-81390000D01*
X150700000Y-81690000D02*
X150700000Y-84220000D01*
X150700000Y-84220000D02*
X150830000Y-84220000D01*
X150700000Y-86030000D02*
X150700000Y-87010000D01*
X150700000Y-87010000D02*
X150960000Y-87010000D01*
X150830000Y-84220000D02*
X150830000Y-86030000D01*
X150830000Y-86030000D02*
X150700000Y-86030000D01*
X150960000Y-87010000D02*
X150960000Y-88510000D01*
X150960000Y-88510000D02*
X158040000Y-88510000D01*
X158040000Y-87010000D02*
X158300000Y-87010000D01*
X158040000Y-88510000D02*
X158040000Y-87010000D01*
X158170000Y-84220000D02*
X158300000Y-84220000D01*
X158170000Y-86030000D02*
X158170000Y-84220000D01*
X158300000Y-81690000D02*
X150700000Y-81690000D01*
X158300000Y-84220000D02*
X158300000Y-81690000D01*
X158300000Y-86030000D02*
X158170000Y-86030000D01*
X158300000Y-87010000D02*
X158300000Y-86030000D01*
%TO.C,R32*%
X176972936Y-120465000D02*
X177427064Y-120465000D01*
X176972936Y-121935000D02*
X177427064Y-121935000D01*
%TO.C,Q2*%
X134100000Y-135160000D02*
X135775000Y-135160000D01*
X134100000Y-135160000D02*
X133450000Y-135160000D01*
X134100000Y-132040000D02*
X134750000Y-132040000D01*
X134100000Y-132040000D02*
X133450000Y-132040000D01*
%TO.C,U3*%
X106340000Y-125225000D02*
X106340000Y-128675000D01*
X106340000Y-125225000D02*
X106340000Y-123275000D01*
X111460000Y-125225000D02*
X111460000Y-127175000D01*
X111460000Y-125225000D02*
X111460000Y-123275000D01*
%TO.C,R48*%
X135772936Y-104565000D02*
X136227064Y-104565000D01*
X135772936Y-106035000D02*
X136227064Y-106035000D01*
%TO.C,Q1*%
X138200000Y-135160000D02*
X139875000Y-135160000D01*
X138200000Y-135160000D02*
X137550000Y-135160000D01*
X138200000Y-132040000D02*
X138850000Y-132040000D01*
X138200000Y-132040000D02*
X137550000Y-132040000D01*
%TO.C,R10*%
X112465000Y-104327064D02*
X112465000Y-103872936D01*
X113935000Y-104327064D02*
X113935000Y-103872936D01*
%TO.C,R15*%
X103515001Y-91527064D02*
X103515001Y-91072936D01*
X104985001Y-91527064D02*
X104985001Y-91072936D01*
%TO.C,C11*%
X160815000Y-118487651D02*
X160815000Y-119287651D01*
X161215000Y-118887651D02*
X160415000Y-118887651D01*
X162580000Y-122897349D02*
X154420000Y-122897349D01*
X162580000Y-122937349D02*
X154420000Y-122937349D01*
X162580000Y-122977349D02*
X154420000Y-122977349D01*
X162579000Y-123017349D02*
X154421000Y-123017349D01*
X162577000Y-123057349D02*
X154423000Y-123057349D01*
X162576000Y-123097349D02*
X154424000Y-123097349D01*
X162574000Y-123137349D02*
X154426000Y-123137349D01*
X162571000Y-123177349D02*
X154429000Y-123177349D01*
X162568000Y-123217349D02*
X154432000Y-123217349D01*
X162565000Y-123257349D02*
X154435000Y-123257349D01*
X162561000Y-123297349D02*
X154439000Y-123297349D01*
X162557000Y-123337349D02*
X154443000Y-123337349D01*
X162552000Y-123377349D02*
X154448000Y-123377349D01*
X162548000Y-123417349D02*
X154452000Y-123417349D01*
X162542000Y-123457349D02*
X154458000Y-123457349D01*
X162537000Y-123497349D02*
X154463000Y-123497349D01*
X162530000Y-123537349D02*
X154470000Y-123537349D01*
X162524000Y-123577349D02*
X154476000Y-123577349D01*
X162517000Y-123618349D02*
X154483000Y-123618349D01*
X162510000Y-123658349D02*
X154490000Y-123658349D01*
X162502000Y-123698349D02*
X154498000Y-123698349D01*
X162494000Y-123738349D02*
X154506000Y-123738349D01*
X162485000Y-123778349D02*
X159540000Y-123778349D01*
X157460000Y-123778349D02*
X154515000Y-123778349D01*
X162476000Y-123818349D02*
X159540000Y-123818349D01*
X157460000Y-123818349D02*
X154524000Y-123818349D01*
X162467000Y-123858349D02*
X159540000Y-123858349D01*
X157460000Y-123858349D02*
X154533000Y-123858349D01*
X162457000Y-123898349D02*
X159540000Y-123898349D01*
X157460000Y-123898349D02*
X154543000Y-123898349D01*
X162447000Y-123938349D02*
X159540000Y-123938349D01*
X157460000Y-123938349D02*
X154553000Y-123938349D01*
X162436000Y-123978349D02*
X159540000Y-123978349D01*
X157460000Y-123978349D02*
X154564000Y-123978349D01*
X162425000Y-124018349D02*
X159540000Y-124018349D01*
X157460000Y-124018349D02*
X154575000Y-124018349D01*
X162414000Y-124058349D02*
X159540000Y-124058349D01*
X157460000Y-124058349D02*
X154586000Y-124058349D01*
X162402000Y-124098349D02*
X159540000Y-124098349D01*
X157460000Y-124098349D02*
X154598000Y-124098349D01*
X162389000Y-124138349D02*
X159540000Y-124138349D01*
X157460000Y-124138349D02*
X154611000Y-124138349D01*
X162377000Y-124178349D02*
X159540000Y-124178349D01*
X157460000Y-124178349D02*
X154623000Y-124178349D01*
X162363000Y-124218349D02*
X159540000Y-124218349D01*
X157460000Y-124218349D02*
X154637000Y-124218349D01*
X162350000Y-124258349D02*
X159540000Y-124258349D01*
X157460000Y-124258349D02*
X154650000Y-124258349D01*
X162335000Y-124298349D02*
X159540000Y-124298349D01*
X157460000Y-124298349D02*
X154665000Y-124298349D01*
X162321000Y-124338349D02*
X159540000Y-124338349D01*
X157460000Y-124338349D02*
X154679000Y-124338349D01*
X162305000Y-124378349D02*
X159540000Y-124378349D01*
X157460000Y-124378349D02*
X154695000Y-124378349D01*
X162290000Y-124418349D02*
X159540000Y-124418349D01*
X157460000Y-124418349D02*
X154710000Y-124418349D01*
X162274000Y-124458349D02*
X159540000Y-124458349D01*
X157460000Y-124458349D02*
X154726000Y-124458349D01*
X162257000Y-124498349D02*
X159540000Y-124498349D01*
X157460000Y-124498349D02*
X154743000Y-124498349D01*
X162240000Y-124538349D02*
X159540000Y-124538349D01*
X157460000Y-124538349D02*
X154760000Y-124538349D01*
X162222000Y-124578349D02*
X159540000Y-124578349D01*
X157460000Y-124578349D02*
X154778000Y-124578349D01*
X162204000Y-124618349D02*
X159540000Y-124618349D01*
X157460000Y-124618349D02*
X154796000Y-124618349D01*
X162186000Y-124658349D02*
X159540000Y-124658349D01*
X157460000Y-124658349D02*
X154814000Y-124658349D01*
X162166000Y-124698349D02*
X159540000Y-124698349D01*
X157460000Y-124698349D02*
X154834000Y-124698349D01*
X162147000Y-124738349D02*
X159540000Y-124738349D01*
X157460000Y-124738349D02*
X154853000Y-124738349D01*
X162127000Y-124778349D02*
X159540000Y-124778349D01*
X157460000Y-124778349D02*
X154873000Y-124778349D01*
X162106000Y-124818349D02*
X159540000Y-124818349D01*
X157460000Y-124818349D02*
X154894000Y-124818349D01*
X162084000Y-124858349D02*
X159540000Y-124858349D01*
X157460000Y-124858349D02*
X154916000Y-124858349D01*
X162062000Y-124898349D02*
X159540000Y-124898349D01*
X157460000Y-124898349D02*
X154938000Y-124898349D01*
X162040000Y-124938349D02*
X159540000Y-124938349D01*
X157460000Y-124938349D02*
X154960000Y-124938349D01*
X162017000Y-124978349D02*
X159540000Y-124978349D01*
X157460000Y-124978349D02*
X154983000Y-124978349D01*
X161993000Y-125018349D02*
X159540000Y-125018349D01*
X157460000Y-125018349D02*
X155007000Y-125018349D01*
X161969000Y-125058349D02*
X159540000Y-125058349D01*
X157460000Y-125058349D02*
X155031000Y-125058349D01*
X161944000Y-125098349D02*
X159540000Y-125098349D01*
X157460000Y-125098349D02*
X155056000Y-125098349D01*
X161918000Y-125138349D02*
X159540000Y-125138349D01*
X157460000Y-125138349D02*
X155082000Y-125138349D01*
X161892000Y-125178349D02*
X159540000Y-125178349D01*
X157460000Y-125178349D02*
X155108000Y-125178349D01*
X161865000Y-125218349D02*
X159540000Y-125218349D01*
X157460000Y-125218349D02*
X155135000Y-125218349D01*
X161838000Y-125258349D02*
X159540000Y-125258349D01*
X157460000Y-125258349D02*
X155162000Y-125258349D01*
X161809000Y-125298349D02*
X159540000Y-125298349D01*
X157460000Y-125298349D02*
X155191000Y-125298349D01*
X161780000Y-125338349D02*
X159540000Y-125338349D01*
X157460000Y-125338349D02*
X155220000Y-125338349D01*
X161750000Y-125378349D02*
X159540000Y-125378349D01*
X157460000Y-125378349D02*
X155250000Y-125378349D01*
X161720000Y-125418349D02*
X159540000Y-125418349D01*
X157460000Y-125418349D02*
X155280000Y-125418349D01*
X161689000Y-125458349D02*
X159540000Y-125458349D01*
X157460000Y-125458349D02*
X155311000Y-125458349D01*
X161656000Y-125498349D02*
X159540000Y-125498349D01*
X157460000Y-125498349D02*
X155344000Y-125498349D01*
X161624000Y-125538349D02*
X159540000Y-125538349D01*
X157460000Y-125538349D02*
X155376000Y-125538349D01*
X161590000Y-125578349D02*
X159540000Y-125578349D01*
X157460000Y-125578349D02*
X155410000Y-125578349D01*
X161555000Y-125618349D02*
X159540000Y-125618349D01*
X157460000Y-125618349D02*
X155445000Y-125618349D01*
X161519000Y-125658349D02*
X159540000Y-125658349D01*
X157460000Y-125658349D02*
X155481000Y-125658349D01*
X161483000Y-125698349D02*
X159540000Y-125698349D01*
X157460000Y-125698349D02*
X155517000Y-125698349D01*
X161445000Y-125738349D02*
X159540000Y-125738349D01*
X157460000Y-125738349D02*
X155555000Y-125738349D01*
X161407000Y-125778349D02*
X159540000Y-125778349D01*
X157460000Y-125778349D02*
X155593000Y-125778349D01*
X161367000Y-125818349D02*
X159540000Y-125818349D01*
X157460000Y-125818349D02*
X155633000Y-125818349D01*
X161326000Y-125858349D02*
X155674000Y-125858349D01*
X161284000Y-125898349D02*
X155716000Y-125898349D01*
X161241000Y-125938349D02*
X155759000Y-125938349D01*
X161197000Y-125978349D02*
X155803000Y-125978349D01*
X161151000Y-126018349D02*
X155849000Y-126018349D01*
X161104000Y-126058349D02*
X155896000Y-126058349D01*
X161056000Y-126098349D02*
X155944000Y-126098349D01*
X161005000Y-126138349D02*
X155995000Y-126138349D01*
X160954000Y-126178349D02*
X156046000Y-126178349D01*
X160900000Y-126218349D02*
X156100000Y-126218349D01*
X160845000Y-126258349D02*
X156155000Y-126258349D01*
X160787000Y-126298349D02*
X156213000Y-126298349D01*
X160728000Y-126338349D02*
X156272000Y-126338349D01*
X160666000Y-126378349D02*
X156334000Y-126378349D01*
X160602000Y-126418349D02*
X156398000Y-126418349D01*
X160534000Y-126458349D02*
X156466000Y-126458349D01*
X160464000Y-126498349D02*
X156536000Y-126498349D01*
X160390000Y-126538349D02*
X156610000Y-126538349D01*
X160313000Y-126578349D02*
X156687000Y-126578349D01*
X160231000Y-126618349D02*
X156769000Y-126618349D01*
X160145000Y-126658349D02*
X156855000Y-126658349D01*
X160052000Y-126698349D02*
X156948000Y-126698349D01*
X159953000Y-126738349D02*
X157047000Y-126738349D01*
X159846000Y-126778349D02*
X157154000Y-126778349D01*
X159729000Y-126818349D02*
X157271000Y-126818349D01*
X159598000Y-126858349D02*
X157402000Y-126858349D01*
X159448000Y-126898349D02*
X157552000Y-126898349D01*
X159268000Y-126938349D02*
X157732000Y-126938349D01*
X159033000Y-126978349D02*
X157967000Y-126978349D01*
X162620000Y-122897349D02*
G75*
G03*
X162620000Y-122897349I-4120000J0D01*
G01*
%TO.C,D4*%
X174450000Y-132210000D02*
X175750000Y-132210000D01*
X175750000Y-129090000D02*
X173750000Y-129090000D01*
%TO.C,JP7*%
X171600000Y-82100000D02*
X172200000Y-82100000D01*
X172900000Y-82800000D02*
X172900000Y-84200000D01*
X170900000Y-84200000D02*
X170900000Y-82800000D01*
X172200000Y-84900000D02*
X171600000Y-84900000D01*
X172900000Y-82800000D02*
G75*
G03*
X172200000Y-82100000I-699999J1D01*
G01*
X171600000Y-82100000D02*
G75*
G03*
X170900000Y-82800000I-1J-699999D01*
G01*
X172200000Y-84900000D02*
G75*
G03*
X172900000Y-84200000I0J700000D01*
G01*
X170900000Y-84200000D02*
G75*
G03*
X171600000Y-84900000I700000J0D01*
G01*
%TO.C,R39*%
X173427064Y-124635000D02*
X172972936Y-124635000D01*
X173427064Y-123165000D02*
X172972936Y-123165000D01*
%TO.C,Q3*%
X130060000Y-131400000D02*
X130060000Y-129725000D01*
X130060000Y-131400000D02*
X130060000Y-132050000D01*
X126940000Y-131400000D02*
X126940000Y-130750000D01*
X126940000Y-131400000D02*
X126940000Y-132050000D01*
%TO.C,J5*%
X136820000Y-82420000D02*
X136820000Y-86420000D01*
X137110000Y-81390000D02*
X137110000Y-87410000D01*
X137110000Y-87410000D02*
X147490000Y-87410000D01*
X137690000Y-81390000D02*
X137690000Y-81990000D01*
X137690000Y-81990000D02*
X139290000Y-81990000D01*
X138490000Y-86410000D02*
X138740000Y-85880000D01*
X138490000Y-86410000D02*
X146110000Y-86410000D01*
X138490000Y-87410000D02*
X138490000Y-86410000D01*
X138740000Y-85880000D02*
X145860000Y-85880000D01*
X138740000Y-87410000D02*
X138740000Y-86410000D01*
X139290000Y-81990000D02*
X139290000Y-81390000D01*
X140230000Y-81390000D02*
X140230000Y-81990000D01*
X140230000Y-81990000D02*
X141830000Y-81990000D01*
X141830000Y-81990000D02*
X141830000Y-81390000D01*
X142770000Y-81390000D02*
X142770000Y-81990000D01*
X142770000Y-81990000D02*
X144370000Y-81990000D01*
X144370000Y-81990000D02*
X144370000Y-81390000D01*
X145310000Y-81390000D02*
X145310000Y-81990000D01*
X145310000Y-81990000D02*
X146910000Y-81990000D01*
X145860000Y-85880000D02*
X146110000Y-86410000D01*
X145860000Y-87410000D02*
X145860000Y-86410000D01*
X146110000Y-86410000D02*
X146110000Y-87410000D01*
X146910000Y-81990000D02*
X146910000Y-81390000D01*
X147490000Y-81390000D02*
X137110000Y-81390000D01*
X147490000Y-87410000D02*
X147490000Y-81390000D01*
%TO.C,C4*%
X110061252Y-109835000D02*
X109538748Y-109835000D01*
X110061252Y-108365000D02*
X109538748Y-108365000D01*
%TO.C,R8*%
X124035000Y-103872936D02*
X124035000Y-104327064D01*
X122565000Y-103872936D02*
X122565000Y-104327064D01*
%TO.C,R12*%
X134527064Y-120735000D02*
X134072936Y-120735000D01*
X134527064Y-119265000D02*
X134072936Y-119265000D01*
%TO.C,R42*%
X169165000Y-95527064D02*
X169165000Y-95072936D01*
X170635000Y-95527064D02*
X170635000Y-95072936D01*
%TO.C,D6*%
X152237500Y-112160000D02*
X153912500Y-112160000D01*
X152237500Y-112160000D02*
X151587500Y-112160000D01*
X152237500Y-109040000D02*
X152887500Y-109040000D01*
X152237500Y-109040000D02*
X151587500Y-109040000D01*
%TO.C,C23*%
X135238748Y-101265000D02*
X135761252Y-101265000D01*
X135238748Y-102735000D02*
X135761252Y-102735000D01*
%TO.C,J4*%
X156840000Y-101340000D02*
X157900000Y-101340000D01*
X156840000Y-102400000D02*
X156840000Y-101340000D01*
X156840000Y-103400000D02*
X156840000Y-111460000D01*
X156840000Y-103400000D02*
X158900000Y-103400000D01*
X156840000Y-111460000D02*
X160960000Y-111460000D01*
X158900000Y-101340000D02*
X160960000Y-101340000D01*
X158900000Y-103400000D02*
X158900000Y-101340000D01*
X160960000Y-101340000D02*
X160960000Y-111460000D01*
%TO.C,U8*%
X173595000Y-89040000D02*
X178795000Y-89040000D01*
X178795000Y-89040000D02*
X178795000Y-83740000D01*
X173595000Y-87390000D02*
X173595000Y-89040000D01*
X173595000Y-83740000D02*
X173595000Y-85390000D01*
X178795000Y-83740000D02*
X173595000Y-83740000D01*
X173595000Y-87390000D02*
G75*
G03*
X173595000Y-85390000I0J1000000D01*
G01*
%TO.C,C5*%
X110061252Y-107735000D02*
X109538748Y-107735000D01*
X110061252Y-106265000D02*
X109538748Y-106265000D01*
%TO.C,R43*%
X171227064Y-87435000D02*
X170772936Y-87435000D01*
X171227064Y-85965000D02*
X170772936Y-85965000D01*
%TO.C,C8*%
X101465000Y-96461252D02*
X101465000Y-95938748D01*
X102935000Y-96461252D02*
X102935000Y-95938748D01*
%TO.C,U9*%
X164230000Y-91560000D02*
X159030000Y-91560000D01*
X159030000Y-91560000D02*
X159030000Y-96860000D01*
X164230000Y-93210000D02*
X164230000Y-91560000D01*
X164230000Y-96860000D02*
X164230000Y-95210000D01*
X159030000Y-96860000D02*
X164230000Y-96860000D01*
X164230000Y-93210000D02*
G75*
G03*
X164230000Y-95210000I0J-1000000D01*
G01*
D15*
%TO.C,D3*%
X125812500Y-119000000D02*
X125380000Y-119000000D01*
X122620000Y-119000000D02*
X122187500Y-119000000D01*
X122187500Y-119000000D02*
X122187500Y-123400000D01*
X125812500Y-123400000D02*
X125812500Y-119000000D01*
X125812500Y-123400000D02*
X125380000Y-123400000D01*
X122620000Y-123400000D02*
X122187500Y-123400000D01*
D10*
X124100000Y-117300000D02*
G75*
G03*
X124100000Y-117300000I-100000J0D01*
G01*
D15*
%TO.C,D2*%
X142640000Y-112812500D02*
X142640000Y-112380000D01*
X142640000Y-109620000D02*
X142640000Y-109187500D01*
X142640000Y-109187500D02*
X138240000Y-109187500D01*
X138240000Y-112812500D02*
X142640000Y-112812500D01*
X138240000Y-112812500D02*
X138240000Y-112380000D01*
X138240000Y-109620000D02*
X138240000Y-109187500D01*
D10*
X144440000Y-111000000D02*
G75*
G03*
X144440000Y-111000000I-100000J0D01*
G01*
D14*
%TO.C,JP5*%
X150600000Y-98800000D02*
X150600000Y-99400000D01*
X149900000Y-100100000D02*
X148500000Y-100100000D01*
X148500000Y-98100000D02*
X149900000Y-98100000D01*
X147800000Y-99400000D02*
X147800000Y-98800000D01*
X149900000Y-100100000D02*
G75*
G03*
X150600000Y-99400000I1J699999D01*
G01*
X150600000Y-98800000D02*
G75*
G03*
X149900000Y-98100000I-699999J1D01*
G01*
X147800000Y-99400000D02*
G75*
G03*
X148500000Y-100100000I700000J0D01*
G01*
X148500000Y-98100000D02*
G75*
G03*
X147800000Y-98800000I0J-700000D01*
G01*
%TO.C,J8*%
X159400000Y-81390000D02*
X161810000Y-81390000D01*
X159400000Y-83800000D02*
X159400000Y-81390000D01*
X159700000Y-81690000D02*
X159700000Y-84220000D01*
X159700000Y-84220000D02*
X159830000Y-84220000D01*
X159700000Y-86030000D02*
X159700000Y-87010000D01*
X159700000Y-87010000D02*
X159960000Y-87010000D01*
X159830000Y-84220000D02*
X159830000Y-86030000D01*
X159830000Y-86030000D02*
X159700000Y-86030000D01*
X159960000Y-87010000D02*
X159960000Y-88510000D01*
X159960000Y-88510000D02*
X167040000Y-88510000D01*
X167040000Y-87010000D02*
X167300000Y-87010000D01*
X167040000Y-88510000D02*
X167040000Y-87010000D01*
X167170000Y-84220000D02*
X167300000Y-84220000D01*
X167170000Y-86030000D02*
X167170000Y-84220000D01*
X167300000Y-81690000D02*
X159700000Y-81690000D01*
X167300000Y-84220000D02*
X167300000Y-81690000D01*
X167300000Y-86030000D02*
X167170000Y-86030000D01*
X167300000Y-87010000D02*
X167300000Y-86030000D01*
%TO.C,C30*%
X163538748Y-128765000D02*
X164061252Y-128765000D01*
X163538748Y-130235000D02*
X164061252Y-130235000D01*
%TO.C,R16*%
X105665000Y-91527064D02*
X105665000Y-91072936D01*
X107135000Y-91527064D02*
X107135000Y-91072936D01*
%TO.C,R23*%
X123277064Y-85110000D02*
X118922936Y-85110000D01*
X123277064Y-81690000D02*
X118922936Y-81690000D01*
%TO.C,C12*%
X107765000Y-96461252D02*
X107765000Y-95938748D01*
X109235000Y-96461252D02*
X109235000Y-95938748D01*
%TO.C,R11*%
X102952501Y-104302063D02*
X102952501Y-103847935D01*
X104422501Y-104302063D02*
X104422501Y-103847935D01*
%TO.C,C1*%
X140379646Y-129375000D02*
X139379646Y-129375000D01*
X139879646Y-129875000D02*
X139879646Y-128875000D01*
X134900000Y-131580000D02*
X134900000Y-121420000D01*
X134860000Y-131580000D02*
X134860000Y-121420000D01*
X134820000Y-131580000D02*
X134820000Y-121420000D01*
X134780000Y-131579000D02*
X134780000Y-121421000D01*
X134740000Y-131578000D02*
X134740000Y-121422000D01*
X134700000Y-131577000D02*
X134700000Y-121423000D01*
X134660000Y-131575000D02*
X134660000Y-121425000D01*
X134620000Y-131573000D02*
X134620000Y-121427000D01*
X134580000Y-131570000D02*
X134580000Y-121430000D01*
X134540000Y-131568000D02*
X134540000Y-121432000D01*
X134500000Y-131565000D02*
X134500000Y-121435000D01*
X134460000Y-131562000D02*
X134460000Y-121438000D01*
X134420000Y-131558000D02*
X134420000Y-121442000D01*
X134380000Y-131554000D02*
X134380000Y-121446000D01*
X134340000Y-131550000D02*
X134340000Y-121450000D01*
X134300000Y-131545000D02*
X134300000Y-121455000D01*
X134260000Y-131540000D02*
X134260000Y-121460000D01*
X134220000Y-131535000D02*
X134220000Y-121465000D01*
X134179000Y-131530000D02*
X134179000Y-121470000D01*
X134139000Y-131524000D02*
X134139000Y-121476000D01*
X134099000Y-131518000D02*
X134099000Y-121482000D01*
X134059000Y-131511000D02*
X134059000Y-121489000D01*
X134019000Y-131504000D02*
X134019000Y-121496000D01*
X133979000Y-131497000D02*
X133979000Y-121503000D01*
X133939000Y-131490000D02*
X133939000Y-121510000D01*
X133899000Y-131482000D02*
X133899000Y-121518000D01*
X133859000Y-131474000D02*
X133859000Y-121526000D01*
X133819000Y-131465000D02*
X133819000Y-121535000D01*
X133779000Y-131456000D02*
X133779000Y-121544000D01*
X133739000Y-131447000D02*
X133739000Y-121553000D01*
X133699000Y-131438000D02*
X133699000Y-121562000D01*
X133659000Y-131428000D02*
X133659000Y-121572000D01*
X133619000Y-131418000D02*
X133619000Y-127741000D01*
X133619000Y-125259000D02*
X133619000Y-121582000D01*
X133579000Y-131407000D02*
X133579000Y-127741000D01*
X133579000Y-125259000D02*
X133579000Y-121593000D01*
X133539000Y-131397000D02*
X133539000Y-127741000D01*
X133539000Y-125259000D02*
X133539000Y-121603000D01*
X133499000Y-131385000D02*
X133499000Y-127741000D01*
X133499000Y-125259000D02*
X133499000Y-121615000D01*
X133459000Y-131374000D02*
X133459000Y-127741000D01*
X133459000Y-125259000D02*
X133459000Y-121626000D01*
X133419000Y-131362000D02*
X133419000Y-127741000D01*
X133419000Y-125259000D02*
X133419000Y-121638000D01*
X133379000Y-131350000D02*
X133379000Y-127741000D01*
X133379000Y-125259000D02*
X133379000Y-121650000D01*
X133339000Y-131337000D02*
X133339000Y-127741000D01*
X133339000Y-125259000D02*
X133339000Y-121663000D01*
X133299000Y-131324000D02*
X133299000Y-127741000D01*
X133299000Y-125259000D02*
X133299000Y-121676000D01*
X133259000Y-131311000D02*
X133259000Y-127741000D01*
X133259000Y-125259000D02*
X133259000Y-121689000D01*
X133219000Y-131297000D02*
X133219000Y-127741000D01*
X133219000Y-125259000D02*
X133219000Y-121703000D01*
X133179000Y-131283000D02*
X133179000Y-127741000D01*
X133179000Y-125259000D02*
X133179000Y-121717000D01*
X133139000Y-131268000D02*
X133139000Y-127741000D01*
X133139000Y-125259000D02*
X133139000Y-121732000D01*
X133099000Y-131254000D02*
X133099000Y-127741000D01*
X133099000Y-125259000D02*
X133099000Y-121746000D01*
X133059000Y-131238000D02*
X133059000Y-127741000D01*
X133059000Y-125259000D02*
X133059000Y-121762000D01*
X133019000Y-131223000D02*
X133019000Y-127741000D01*
X133019000Y-125259000D02*
X133019000Y-121777000D01*
X132979000Y-131207000D02*
X132979000Y-127741000D01*
X132979000Y-125259000D02*
X132979000Y-121793000D01*
X132939000Y-131190000D02*
X132939000Y-127741000D01*
X132939000Y-125259000D02*
X132939000Y-121810000D01*
X132899000Y-131174000D02*
X132899000Y-127741000D01*
X132899000Y-125259000D02*
X132899000Y-121826000D01*
X132859000Y-131157000D02*
X132859000Y-127741000D01*
X132859000Y-125259000D02*
X132859000Y-121843000D01*
X132819000Y-131139000D02*
X132819000Y-127741000D01*
X132819000Y-125259000D02*
X132819000Y-121861000D01*
X132779000Y-131121000D02*
X132779000Y-127741000D01*
X132779000Y-125259000D02*
X132779000Y-121879000D01*
X132739000Y-131103000D02*
X132739000Y-127741000D01*
X132739000Y-125259000D02*
X132739000Y-121897000D01*
X132699000Y-131084000D02*
X132699000Y-127741000D01*
X132699000Y-125259000D02*
X132699000Y-121916000D01*
X132659000Y-131064000D02*
X132659000Y-127741000D01*
X132659000Y-125259000D02*
X132659000Y-121936000D01*
X132619000Y-131045000D02*
X132619000Y-127741000D01*
X132619000Y-125259000D02*
X132619000Y-121955000D01*
X132579000Y-131025000D02*
X132579000Y-127741000D01*
X132579000Y-125259000D02*
X132579000Y-121975000D01*
X132539000Y-131004000D02*
X132539000Y-127741000D01*
X132539000Y-125259000D02*
X132539000Y-121996000D01*
X132499000Y-130983000D02*
X132499000Y-127741000D01*
X132499000Y-125259000D02*
X132499000Y-122017000D01*
X132459000Y-130962000D02*
X132459000Y-127741000D01*
X132459000Y-125259000D02*
X132459000Y-122038000D01*
X132419000Y-130940000D02*
X132419000Y-127741000D01*
X132419000Y-125259000D02*
X132419000Y-122060000D01*
X132379000Y-130917000D02*
X132379000Y-127741000D01*
X132379000Y-125259000D02*
X132379000Y-122083000D01*
X132339000Y-130895000D02*
X132339000Y-127741000D01*
X132339000Y-125259000D02*
X132339000Y-122105000D01*
X132299000Y-130871000D02*
X132299000Y-127741000D01*
X132299000Y-125259000D02*
X132299000Y-122129000D01*
X132259000Y-130847000D02*
X132259000Y-127741000D01*
X132259000Y-125259000D02*
X132259000Y-122153000D01*
X132219000Y-130823000D02*
X132219000Y-127741000D01*
X132219000Y-125259000D02*
X132219000Y-122177000D01*
X132179000Y-130798000D02*
X132179000Y-127741000D01*
X132179000Y-125259000D02*
X132179000Y-122202000D01*
X132139000Y-130773000D02*
X132139000Y-127741000D01*
X132139000Y-125259000D02*
X132139000Y-122227000D01*
X132099000Y-130747000D02*
X132099000Y-127741000D01*
X132099000Y-125259000D02*
X132099000Y-122253000D01*
X132059000Y-130721000D02*
X132059000Y-127741000D01*
X132059000Y-125259000D02*
X132059000Y-122279000D01*
X132019000Y-130694000D02*
X132019000Y-127741000D01*
X132019000Y-125259000D02*
X132019000Y-122306000D01*
X131979000Y-130666000D02*
X131979000Y-127741000D01*
X131979000Y-125259000D02*
X131979000Y-122334000D01*
X131939000Y-130638000D02*
X131939000Y-127741000D01*
X131939000Y-125259000D02*
X131939000Y-122362000D01*
X131899000Y-130610000D02*
X131899000Y-127741000D01*
X131899000Y-125259000D02*
X131899000Y-122390000D01*
X131859000Y-130580000D02*
X131859000Y-127741000D01*
X131859000Y-125259000D02*
X131859000Y-122420000D01*
X131819000Y-130550000D02*
X131819000Y-127741000D01*
X131819000Y-125259000D02*
X131819000Y-122450000D01*
X131779000Y-130520000D02*
X131779000Y-127741000D01*
X131779000Y-125259000D02*
X131779000Y-122480000D01*
X131739000Y-130489000D02*
X131739000Y-127741000D01*
X131739000Y-125259000D02*
X131739000Y-122511000D01*
X131699000Y-130457000D02*
X131699000Y-127741000D01*
X131699000Y-125259000D02*
X131699000Y-122543000D01*
X131659000Y-130425000D02*
X131659000Y-127741000D01*
X131659000Y-125259000D02*
X131659000Y-122575000D01*
X131619000Y-130392000D02*
X131619000Y-127741000D01*
X131619000Y-125259000D02*
X131619000Y-122608000D01*
X131579000Y-130358000D02*
X131579000Y-127741000D01*
X131579000Y-125259000D02*
X131579000Y-122642000D01*
X131539000Y-130324000D02*
X131539000Y-127741000D01*
X131539000Y-125259000D02*
X131539000Y-122676000D01*
X131499000Y-130289000D02*
X131499000Y-127741000D01*
X131499000Y-125259000D02*
X131499000Y-122711000D01*
X131459000Y-130253000D02*
X131459000Y-127741000D01*
X131459000Y-125259000D02*
X131459000Y-122747000D01*
X131419000Y-130216000D02*
X131419000Y-127741000D01*
X131419000Y-125259000D02*
X131419000Y-122784000D01*
X131379000Y-130179000D02*
X131379000Y-127741000D01*
X131379000Y-125259000D02*
X131379000Y-122821000D01*
X131339000Y-130140000D02*
X131339000Y-127741000D01*
X131339000Y-125259000D02*
X131339000Y-122860000D01*
X131299000Y-130101000D02*
X131299000Y-127741000D01*
X131299000Y-125259000D02*
X131299000Y-122899000D01*
X131259000Y-130061000D02*
X131259000Y-127741000D01*
X131259000Y-125259000D02*
X131259000Y-122939000D01*
X131219000Y-130020000D02*
X131219000Y-127741000D01*
X131219000Y-125259000D02*
X131219000Y-122980000D01*
X131179000Y-129978000D02*
X131179000Y-127741000D01*
X131179000Y-125259000D02*
X131179000Y-123022000D01*
X131139000Y-129936000D02*
X131139000Y-123064000D01*
X131099000Y-129892000D02*
X131099000Y-123108000D01*
X131059000Y-129847000D02*
X131059000Y-123153000D01*
X131019000Y-129801000D02*
X131019000Y-123199000D01*
X130979000Y-129754000D02*
X130979000Y-123246000D01*
X130939000Y-129706000D02*
X130939000Y-123294000D01*
X130899000Y-129656000D02*
X130899000Y-123344000D01*
X130859000Y-129606000D02*
X130859000Y-123394000D01*
X130819000Y-129554000D02*
X130819000Y-123446000D01*
X130779000Y-129500000D02*
X130779000Y-123500000D01*
X130739000Y-129445000D02*
X130739000Y-123555000D01*
X130699000Y-129389000D02*
X130699000Y-123611000D01*
X130659000Y-129330000D02*
X130659000Y-123670000D01*
X130619000Y-129270000D02*
X130619000Y-123730000D01*
X130579000Y-129209000D02*
X130579000Y-123791000D01*
X130539000Y-129145000D02*
X130539000Y-123855000D01*
X130499000Y-129079000D02*
X130499000Y-123921000D01*
X130459000Y-129010000D02*
X130459000Y-123990000D01*
X130419000Y-128939000D02*
X130419000Y-124061000D01*
X130379000Y-128865000D02*
X130379000Y-124135000D01*
X130339000Y-128789000D02*
X130339000Y-124211000D01*
X130299000Y-128709000D02*
X130299000Y-124291000D01*
X130259000Y-128625000D02*
X130259000Y-124375000D01*
X130219000Y-128537000D02*
X130219000Y-124463000D01*
X130179000Y-128444000D02*
X130179000Y-124556000D01*
X130139000Y-128346000D02*
X130139000Y-124654000D01*
X130099000Y-128242000D02*
X130099000Y-124758000D01*
X130059000Y-128130000D02*
X130059000Y-124870000D01*
X130019000Y-128010000D02*
X130019000Y-124990000D01*
X129979000Y-127878000D02*
X129979000Y-125122000D01*
X129939000Y-127730000D02*
X129939000Y-125270000D01*
X129899000Y-127562000D02*
X129899000Y-125438000D01*
X129859000Y-127362000D02*
X129859000Y-125638000D01*
X129819000Y-127099000D02*
X129819000Y-125901000D01*
X140020000Y-126500000D02*
G75*
G03*
X140020000Y-126500000I-5120000J0D01*
G01*
%TO.C,R22*%
X114977064Y-85110000D02*
X110622936Y-85110000D01*
X114977064Y-81690000D02*
X110622936Y-81690000D01*
%TO.C,TP5*%
X174200000Y-127100000D02*
X175600000Y-127100000D01*
X174200000Y-128500000D02*
X174200000Y-127100000D01*
X175600000Y-127100000D02*
X175600000Y-128500000D01*
X175600000Y-128500000D02*
X174200000Y-128500000D01*
%TO.C,TP3*%
X176500000Y-117900000D02*
X177900000Y-117900000D01*
X176500000Y-119300000D02*
X176500000Y-117900000D01*
X177900000Y-117900000D02*
X177900000Y-119300000D01*
X177900000Y-119300000D02*
X176500000Y-119300000D01*
%TO.C,C6*%
X138461252Y-120735000D02*
X137938748Y-120735000D01*
X138461252Y-119265000D02*
X137938748Y-119265000D01*
%TO.C,R49*%
X133335000Y-104172936D02*
X133335000Y-104627064D01*
X131865000Y-104172936D02*
X131865000Y-104627064D01*
%TO.C,R25*%
X108835000Y-115472936D02*
X108835000Y-115927064D01*
X107365000Y-115472936D02*
X107365000Y-115927064D01*
%TO.C,TP6*%
X176300000Y-127100000D02*
X177700000Y-127100000D01*
X176300000Y-128500000D02*
X176300000Y-127100000D01*
X177700000Y-127100000D02*
X177700000Y-128500000D01*
X177700000Y-128500000D02*
X176300000Y-128500000D01*
%TO.C,Batt.meas1*%
X138200000Y-104700000D02*
X139600000Y-104700000D01*
X138200000Y-106100000D02*
X138200000Y-104700000D01*
X139600000Y-104700000D02*
X139600000Y-106100000D01*
X139600000Y-106100000D02*
X138200000Y-106100000D01*
%TO.C,R13*%
X112435000Y-95772936D02*
X112435000Y-96227064D01*
X110965000Y-95772936D02*
X110965000Y-96227064D01*
%TO.C,TP2*%
X119500000Y-111900000D02*
X120900000Y-111900000D01*
X119500000Y-113300000D02*
X119500000Y-111900000D01*
X120900000Y-111900000D02*
X120900000Y-113300000D01*
X120900000Y-113300000D02*
X119500000Y-113300000D01*
%TO.C,R46*%
X164965000Y-91227064D02*
X164965000Y-90772936D01*
X166435000Y-91227064D02*
X166435000Y-90772936D01*
%TO.C,U2*%
X136000000Y-118760000D02*
X139450000Y-118760000D01*
X136000000Y-118760000D02*
X134050000Y-118760000D01*
X136000000Y-113640000D02*
X137950000Y-113640000D01*
X136000000Y-113640000D02*
X134050000Y-113640000D01*
%TO.C,C14*%
X112809698Y-135715000D02*
X112009698Y-135715000D01*
X112409698Y-136115000D02*
X112409698Y-135315000D01*
X108400000Y-137480000D02*
X108400000Y-129320000D01*
X108360000Y-137480000D02*
X108360000Y-129320000D01*
X108320000Y-137480000D02*
X108320000Y-129320000D01*
X108280000Y-137479000D02*
X108280000Y-129321000D01*
X108240000Y-137477000D02*
X108240000Y-129323000D01*
X108200000Y-137476000D02*
X108200000Y-129324000D01*
X108160000Y-137474000D02*
X108160000Y-129326000D01*
X108120000Y-137471000D02*
X108120000Y-129329000D01*
X108080000Y-137468000D02*
X108080000Y-129332000D01*
X108040000Y-137465000D02*
X108040000Y-129335000D01*
X108000000Y-137461000D02*
X108000000Y-129339000D01*
X107960000Y-137457000D02*
X107960000Y-129343000D01*
X107920000Y-137452000D02*
X107920000Y-129348000D01*
X107880000Y-137448000D02*
X107880000Y-129352000D01*
X107840000Y-137442000D02*
X107840000Y-129358000D01*
X107800000Y-137437000D02*
X107800000Y-129363000D01*
X107760000Y-137430000D02*
X107760000Y-129370000D01*
X107720000Y-137424000D02*
X107720000Y-129376000D01*
X107679000Y-137417000D02*
X107679000Y-129383000D01*
X107639000Y-137410000D02*
X107639000Y-129390000D01*
X107599000Y-137402000D02*
X107599000Y-129398000D01*
X107559000Y-137394000D02*
X107559000Y-129406000D01*
X107519000Y-137385000D02*
X107519000Y-134440000D01*
X107519000Y-132360000D02*
X107519000Y-129415000D01*
X107479000Y-137376000D02*
X107479000Y-134440000D01*
X107479000Y-132360000D02*
X107479000Y-129424000D01*
X107439000Y-137367000D02*
X107439000Y-134440000D01*
X107439000Y-132360000D02*
X107439000Y-129433000D01*
X107399000Y-137357000D02*
X107399000Y-134440000D01*
X107399000Y-132360000D02*
X107399000Y-129443000D01*
X107359000Y-137347000D02*
X107359000Y-134440000D01*
X107359000Y-132360000D02*
X107359000Y-129453000D01*
X107319000Y-137336000D02*
X107319000Y-134440000D01*
X107319000Y-132360000D02*
X107319000Y-129464000D01*
X107279000Y-137325000D02*
X107279000Y-134440000D01*
X107279000Y-132360000D02*
X107279000Y-129475000D01*
X107239000Y-137314000D02*
X107239000Y-134440000D01*
X107239000Y-132360000D02*
X107239000Y-129486000D01*
X107199000Y-137302000D02*
X107199000Y-134440000D01*
X107199000Y-132360000D02*
X107199000Y-129498000D01*
X107159000Y-137289000D02*
X107159000Y-134440000D01*
X107159000Y-132360000D02*
X107159000Y-129511000D01*
X107119000Y-137277000D02*
X107119000Y-134440000D01*
X107119000Y-132360000D02*
X107119000Y-129523000D01*
X107079000Y-137263000D02*
X107079000Y-134440000D01*
X107079000Y-132360000D02*
X107079000Y-129537000D01*
X107039000Y-137250000D02*
X107039000Y-134440000D01*
X107039000Y-132360000D02*
X107039000Y-129550000D01*
X106999000Y-137235000D02*
X106999000Y-134440000D01*
X106999000Y-132360000D02*
X106999000Y-129565000D01*
X106959000Y-137221000D02*
X106959000Y-134440000D01*
X106959000Y-132360000D02*
X106959000Y-129579000D01*
X106919000Y-137205000D02*
X106919000Y-134440000D01*
X106919000Y-132360000D02*
X106919000Y-129595000D01*
X106879000Y-137190000D02*
X106879000Y-134440000D01*
X106879000Y-132360000D02*
X106879000Y-129610000D01*
X106839000Y-137174000D02*
X106839000Y-134440000D01*
X106839000Y-132360000D02*
X106839000Y-129626000D01*
X106799000Y-137157000D02*
X106799000Y-134440000D01*
X106799000Y-132360000D02*
X106799000Y-129643000D01*
X106759000Y-137140000D02*
X106759000Y-134440000D01*
X106759000Y-132360000D02*
X106759000Y-129660000D01*
X106719000Y-137122000D02*
X106719000Y-134440000D01*
X106719000Y-132360000D02*
X106719000Y-129678000D01*
X106679000Y-137104000D02*
X106679000Y-134440000D01*
X106679000Y-132360000D02*
X106679000Y-129696000D01*
X106639000Y-137086000D02*
X106639000Y-134440000D01*
X106639000Y-132360000D02*
X106639000Y-129714000D01*
X106599000Y-137066000D02*
X106599000Y-134440000D01*
X106599000Y-132360000D02*
X106599000Y-129734000D01*
X106559000Y-137047000D02*
X106559000Y-134440000D01*
X106559000Y-132360000D02*
X106559000Y-129753000D01*
X106519000Y-137027000D02*
X106519000Y-134440000D01*
X106519000Y-132360000D02*
X106519000Y-129773000D01*
X106479000Y-137006000D02*
X106479000Y-134440000D01*
X106479000Y-132360000D02*
X106479000Y-129794000D01*
X106439000Y-136984000D02*
X106439000Y-134440000D01*
X106439000Y-132360000D02*
X106439000Y-129816000D01*
X106399000Y-136962000D02*
X106399000Y-134440000D01*
X106399000Y-132360000D02*
X106399000Y-129838000D01*
X106359000Y-136940000D02*
X106359000Y-134440000D01*
X106359000Y-132360000D02*
X106359000Y-129860000D01*
X106319000Y-136917000D02*
X106319000Y-134440000D01*
X106319000Y-132360000D02*
X106319000Y-129883000D01*
X106279000Y-136893000D02*
X106279000Y-134440000D01*
X106279000Y-132360000D02*
X106279000Y-129907000D01*
X106239000Y-136869000D02*
X106239000Y-134440000D01*
X106239000Y-132360000D02*
X106239000Y-129931000D01*
X106199000Y-136844000D02*
X106199000Y-134440000D01*
X106199000Y-132360000D02*
X106199000Y-129956000D01*
X106159000Y-136818000D02*
X106159000Y-134440000D01*
X106159000Y-132360000D02*
X106159000Y-129982000D01*
X106119000Y-136792000D02*
X106119000Y-134440000D01*
X106119000Y-132360000D02*
X106119000Y-130008000D01*
X106079000Y-136765000D02*
X106079000Y-134440000D01*
X106079000Y-132360000D02*
X106079000Y-130035000D01*
X106039000Y-136738000D02*
X106039000Y-134440000D01*
X106039000Y-132360000D02*
X106039000Y-130062000D01*
X105999000Y-136709000D02*
X105999000Y-134440000D01*
X105999000Y-132360000D02*
X105999000Y-130091000D01*
X105959000Y-136680000D02*
X105959000Y-134440000D01*
X105959000Y-132360000D02*
X105959000Y-130120000D01*
X105919000Y-136650000D02*
X105919000Y-134440000D01*
X105919000Y-132360000D02*
X105919000Y-130150000D01*
X105879000Y-136620000D02*
X105879000Y-134440000D01*
X105879000Y-132360000D02*
X105879000Y-130180000D01*
X105839000Y-136589000D02*
X105839000Y-134440000D01*
X105839000Y-132360000D02*
X105839000Y-130211000D01*
X105799000Y-136556000D02*
X105799000Y-134440000D01*
X105799000Y-132360000D02*
X105799000Y-130244000D01*
X105759000Y-136524000D02*
X105759000Y-134440000D01*
X105759000Y-132360000D02*
X105759000Y-130276000D01*
X105719000Y-136490000D02*
X105719000Y-134440000D01*
X105719000Y-132360000D02*
X105719000Y-130310000D01*
X105679000Y-136455000D02*
X105679000Y-134440000D01*
X105679000Y-132360000D02*
X105679000Y-130345000D01*
X105639000Y-136419000D02*
X105639000Y-134440000D01*
X105639000Y-132360000D02*
X105639000Y-130381000D01*
X105599000Y-136383000D02*
X105599000Y-134440000D01*
X105599000Y-132360000D02*
X105599000Y-130417000D01*
X105559000Y-136345000D02*
X105559000Y-134440000D01*
X105559000Y-132360000D02*
X105559000Y-130455000D01*
X105519000Y-136307000D02*
X105519000Y-134440000D01*
X105519000Y-132360000D02*
X105519000Y-130493000D01*
X105479000Y-136267000D02*
X105479000Y-134440000D01*
X105479000Y-132360000D02*
X105479000Y-130533000D01*
X105439000Y-136226000D02*
X105439000Y-130574000D01*
X105399000Y-136184000D02*
X105399000Y-130616000D01*
X105359000Y-136141000D02*
X105359000Y-130659000D01*
X105319000Y-136097000D02*
X105319000Y-130703000D01*
X105279000Y-136051000D02*
X105279000Y-130749000D01*
X105239000Y-136004000D02*
X105239000Y-130796000D01*
X105199000Y-135956000D02*
X105199000Y-130844000D01*
X105159000Y-135905000D02*
X105159000Y-130895000D01*
X105119000Y-135854000D02*
X105119000Y-130946000D01*
X105079000Y-135800000D02*
X105079000Y-131000000D01*
X105039000Y-135745000D02*
X105039000Y-131055000D01*
X104999000Y-135687000D02*
X104999000Y-131113000D01*
X104959000Y-135628000D02*
X104959000Y-131172000D01*
X104919000Y-135566000D02*
X104919000Y-131234000D01*
X104879000Y-135502000D02*
X104879000Y-131298000D01*
X104839000Y-135434000D02*
X104839000Y-131366000D01*
X104799000Y-135364000D02*
X104799000Y-131436000D01*
X104759000Y-135290000D02*
X104759000Y-131510000D01*
X104719000Y-135213000D02*
X104719000Y-131587000D01*
X104679000Y-135131000D02*
X104679000Y-131669000D01*
X104639000Y-135045000D02*
X104639000Y-131755000D01*
X104599000Y-134952000D02*
X104599000Y-131848000D01*
X104559000Y-134853000D02*
X104559000Y-131947000D01*
X104519000Y-134746000D02*
X104519000Y-132054000D01*
X104479000Y-134629000D02*
X104479000Y-132171000D01*
X104439000Y-134498000D02*
X104439000Y-132302000D01*
X104399000Y-134348000D02*
X104399000Y-132452000D01*
X104359000Y-134168000D02*
X104359000Y-132632000D01*
X104319000Y-133933000D02*
X104319000Y-132867000D01*
X112520000Y-133400000D02*
G75*
G03*
X112520000Y-133400000I-4120000J0D01*
G01*
%TO.C,R34*%
X180772936Y-120565000D02*
X181227064Y-120565000D01*
X180772936Y-122035000D02*
X181227064Y-122035000D01*
%TO.C,J2*%
X96930000Y-83900000D02*
X96930000Y-87900000D01*
X97220000Y-82870000D02*
X97220000Y-88890000D01*
X97220000Y-88890000D02*
X107600000Y-88890000D01*
X97800000Y-82870000D02*
X97800000Y-83470000D01*
X97800000Y-83470000D02*
X99400000Y-83470000D01*
X98600000Y-87890000D02*
X98850000Y-87360000D01*
X98600000Y-87890000D02*
X106220000Y-87890000D01*
X98600000Y-88890000D02*
X98600000Y-87890000D01*
X98850000Y-87360000D02*
X105970000Y-87360000D01*
X98850000Y-88890000D02*
X98850000Y-87890000D01*
X99400000Y-83470000D02*
X99400000Y-82870000D01*
X100340000Y-82870000D02*
X100340000Y-83470000D01*
X100340000Y-83470000D02*
X101940000Y-83470000D01*
X101940000Y-83470000D02*
X101940000Y-82870000D01*
X102880000Y-82870000D02*
X102880000Y-83470000D01*
X102880000Y-83470000D02*
X104480000Y-83470000D01*
X104480000Y-83470000D02*
X104480000Y-82870000D01*
X105420000Y-82870000D02*
X105420000Y-83470000D01*
X105420000Y-83470000D02*
X107020000Y-83470000D01*
X105970000Y-87360000D02*
X106220000Y-87890000D01*
X105970000Y-88890000D02*
X105970000Y-87890000D01*
X106220000Y-87890000D02*
X106220000Y-88890000D01*
X107020000Y-83470000D02*
X107020000Y-82870000D01*
X107600000Y-82870000D02*
X97220000Y-82870000D01*
X107600000Y-88890000D02*
X107600000Y-82870000D01*
%TO.C,J3*%
X168340000Y-133840000D02*
X168760000Y-133840000D01*
X168340000Y-135820000D02*
X168340000Y-133840000D01*
X170340000Y-133610000D02*
X170340000Y-133160000D01*
X170790000Y-133160000D02*
X170340000Y-133160000D01*
X175860000Y-133840000D02*
X175440000Y-133840000D01*
X175860000Y-135820000D02*
X175860000Y-133840000D01*
%TO.C,C27*%
X149835000Y-87938748D02*
X149835000Y-88461252D01*
X148365000Y-87938748D02*
X148365000Y-88461252D01*
%TO.C,Q9*%
X165540000Y-95200000D02*
X165540000Y-96875000D01*
X165540000Y-95200000D02*
X165540000Y-94550000D01*
X168660000Y-95200000D02*
X168660000Y-95850000D01*
X168660000Y-95200000D02*
X168660000Y-94550000D01*
%TO.C,C28*%
X147740001Y-95586251D02*
X147740001Y-95063747D01*
X149210001Y-95586251D02*
X149210001Y-95063747D01*
%TO.C,C10*%
X105665000Y-96461252D02*
X105665000Y-95938748D01*
X107135000Y-96461252D02*
X107135000Y-95938748D01*
%TO.C,C17*%
X113435000Y-128138748D02*
X113435000Y-128661252D01*
X111965000Y-128138748D02*
X111965000Y-128661252D01*
%TO.C,C24*%
X151785000Y-97612349D02*
X151785000Y-96812349D01*
X151385000Y-97212349D02*
X152185000Y-97212349D01*
X150020000Y-93202651D02*
X158180000Y-93202651D01*
X150020000Y-93162651D02*
X158180000Y-93162651D01*
X150020000Y-93122651D02*
X158180000Y-93122651D01*
X150021000Y-93082651D02*
X158179000Y-93082651D01*
X150023000Y-93042651D02*
X158177000Y-93042651D01*
X150024000Y-93002651D02*
X158176000Y-93002651D01*
X150026000Y-92962651D02*
X158174000Y-92962651D01*
X150029000Y-92922651D02*
X158171000Y-92922651D01*
X150032000Y-92882651D02*
X158168000Y-92882651D01*
X150035000Y-92842651D02*
X158165000Y-92842651D01*
X150039000Y-92802651D02*
X158161000Y-92802651D01*
X150043000Y-92762651D02*
X158157000Y-92762651D01*
X150048000Y-92722651D02*
X158152000Y-92722651D01*
X150052000Y-92682651D02*
X158148000Y-92682651D01*
X150058000Y-92642651D02*
X158142000Y-92642651D01*
X150063000Y-92602651D02*
X158137000Y-92602651D01*
X150070000Y-92562651D02*
X158130000Y-92562651D01*
X150076000Y-92522651D02*
X158124000Y-92522651D01*
X150083000Y-92481651D02*
X158117000Y-92481651D01*
X150090000Y-92441651D02*
X158110000Y-92441651D01*
X150098000Y-92401651D02*
X158102000Y-92401651D01*
X150106000Y-92361651D02*
X158094000Y-92361651D01*
X150115000Y-92321651D02*
X153060000Y-92321651D01*
X155140000Y-92321651D02*
X158085000Y-92321651D01*
X150124000Y-92281651D02*
X153060000Y-92281651D01*
X155140000Y-92281651D02*
X158076000Y-92281651D01*
X150133000Y-92241651D02*
X153060000Y-92241651D01*
X155140000Y-92241651D02*
X158067000Y-92241651D01*
X150143000Y-92201651D02*
X153060000Y-92201651D01*
X155140000Y-92201651D02*
X158057000Y-92201651D01*
X150153000Y-92161651D02*
X153060000Y-92161651D01*
X155140000Y-92161651D02*
X158047000Y-92161651D01*
X150164000Y-92121651D02*
X153060000Y-92121651D01*
X155140000Y-92121651D02*
X158036000Y-92121651D01*
X150175000Y-92081651D02*
X153060000Y-92081651D01*
X155140000Y-92081651D02*
X158025000Y-92081651D01*
X150186000Y-92041651D02*
X153060000Y-92041651D01*
X155140000Y-92041651D02*
X158014000Y-92041651D01*
X150198000Y-92001651D02*
X153060000Y-92001651D01*
X155140000Y-92001651D02*
X158002000Y-92001651D01*
X150211000Y-91961651D02*
X153060000Y-91961651D01*
X155140000Y-91961651D02*
X157989000Y-91961651D01*
X150223000Y-91921651D02*
X153060000Y-91921651D01*
X155140000Y-91921651D02*
X157977000Y-91921651D01*
X150237000Y-91881651D02*
X153060000Y-91881651D01*
X155140000Y-91881651D02*
X157963000Y-91881651D01*
X150250000Y-91841651D02*
X153060000Y-91841651D01*
X155140000Y-91841651D02*
X157950000Y-91841651D01*
X150265000Y-91801651D02*
X153060000Y-91801651D01*
X155140000Y-91801651D02*
X157935000Y-91801651D01*
X150279000Y-91761651D02*
X153060000Y-91761651D01*
X155140000Y-91761651D02*
X157921000Y-91761651D01*
X150295000Y-91721651D02*
X153060000Y-91721651D01*
X155140000Y-91721651D02*
X157905000Y-91721651D01*
X150310000Y-91681651D02*
X153060000Y-91681651D01*
X155140000Y-91681651D02*
X157890000Y-91681651D01*
X150326000Y-91641651D02*
X153060000Y-91641651D01*
X155140000Y-91641651D02*
X157874000Y-91641651D01*
X150343000Y-91601651D02*
X153060000Y-91601651D01*
X155140000Y-91601651D02*
X157857000Y-91601651D01*
X150360000Y-91561651D02*
X153060000Y-91561651D01*
X155140000Y-91561651D02*
X157840000Y-91561651D01*
X150378000Y-91521651D02*
X153060000Y-91521651D01*
X155140000Y-91521651D02*
X157822000Y-91521651D01*
X150396000Y-91481651D02*
X153060000Y-91481651D01*
X155140000Y-91481651D02*
X157804000Y-91481651D01*
X150414000Y-91441651D02*
X153060000Y-91441651D01*
X155140000Y-91441651D02*
X157786000Y-91441651D01*
X150434000Y-91401651D02*
X153060000Y-91401651D01*
X155140000Y-91401651D02*
X157766000Y-91401651D01*
X150453000Y-91361651D02*
X153060000Y-91361651D01*
X155140000Y-91361651D02*
X157747000Y-91361651D01*
X150473000Y-91321651D02*
X153060000Y-91321651D01*
X155140000Y-91321651D02*
X157727000Y-91321651D01*
X150494000Y-91281651D02*
X153060000Y-91281651D01*
X155140000Y-91281651D02*
X157706000Y-91281651D01*
X150516000Y-91241651D02*
X153060000Y-91241651D01*
X155140000Y-91241651D02*
X157684000Y-91241651D01*
X150538000Y-91201651D02*
X153060000Y-91201651D01*
X155140000Y-91201651D02*
X157662000Y-91201651D01*
X150560000Y-91161651D02*
X153060000Y-91161651D01*
X155140000Y-91161651D02*
X157640000Y-91161651D01*
X150583000Y-91121651D02*
X153060000Y-91121651D01*
X155140000Y-91121651D02*
X157617000Y-91121651D01*
X150607000Y-91081651D02*
X153060000Y-91081651D01*
X155140000Y-91081651D02*
X157593000Y-91081651D01*
X150631000Y-91041651D02*
X153060000Y-91041651D01*
X155140000Y-91041651D02*
X157569000Y-91041651D01*
X150656000Y-91001651D02*
X153060000Y-91001651D01*
X155140000Y-91001651D02*
X157544000Y-91001651D01*
X150682000Y-90961651D02*
X153060000Y-90961651D01*
X155140000Y-90961651D02*
X157518000Y-90961651D01*
X150708000Y-90921651D02*
X153060000Y-90921651D01*
X155140000Y-90921651D02*
X157492000Y-90921651D01*
X150735000Y-90881651D02*
X153060000Y-90881651D01*
X155140000Y-90881651D02*
X157465000Y-90881651D01*
X150762000Y-90841651D02*
X153060000Y-90841651D01*
X155140000Y-90841651D02*
X157438000Y-90841651D01*
X150791000Y-90801651D02*
X153060000Y-90801651D01*
X155140000Y-90801651D02*
X157409000Y-90801651D01*
X150820000Y-90761651D02*
X153060000Y-90761651D01*
X155140000Y-90761651D02*
X157380000Y-90761651D01*
X150850000Y-90721651D02*
X153060000Y-90721651D01*
X155140000Y-90721651D02*
X157350000Y-90721651D01*
X150880000Y-90681651D02*
X153060000Y-90681651D01*
X155140000Y-90681651D02*
X157320000Y-90681651D01*
X150911000Y-90641651D02*
X153060000Y-90641651D01*
X155140000Y-90641651D02*
X157289000Y-90641651D01*
X150944000Y-90601651D02*
X153060000Y-90601651D01*
X155140000Y-90601651D02*
X157256000Y-90601651D01*
X150976000Y-90561651D02*
X153060000Y-90561651D01*
X155140000Y-90561651D02*
X157224000Y-90561651D01*
X151010000Y-90521651D02*
X153060000Y-90521651D01*
X155140000Y-90521651D02*
X157190000Y-90521651D01*
X151045000Y-90481651D02*
X153060000Y-90481651D01*
X155140000Y-90481651D02*
X157155000Y-90481651D01*
X151081000Y-90441651D02*
X153060000Y-90441651D01*
X155140000Y-90441651D02*
X157119000Y-90441651D01*
X151117000Y-90401651D02*
X153060000Y-90401651D01*
X155140000Y-90401651D02*
X157083000Y-90401651D01*
X151155000Y-90361651D02*
X153060000Y-90361651D01*
X155140000Y-90361651D02*
X157045000Y-90361651D01*
X151193000Y-90321651D02*
X153060000Y-90321651D01*
X155140000Y-90321651D02*
X157007000Y-90321651D01*
X151233000Y-90281651D02*
X153060000Y-90281651D01*
X155140000Y-90281651D02*
X156967000Y-90281651D01*
X151274000Y-90241651D02*
X156926000Y-90241651D01*
X151316000Y-90201651D02*
X156884000Y-90201651D01*
X151359000Y-90161651D02*
X156841000Y-90161651D01*
X151403000Y-90121651D02*
X156797000Y-90121651D01*
X151449000Y-90081651D02*
X156751000Y-90081651D01*
X151496000Y-90041651D02*
X156704000Y-90041651D01*
X151544000Y-90001651D02*
X156656000Y-90001651D01*
X151595000Y-89961651D02*
X156605000Y-89961651D01*
X151646000Y-89921651D02*
X156554000Y-89921651D01*
X151700000Y-89881651D02*
X156500000Y-89881651D01*
X151755000Y-89841651D02*
X156445000Y-89841651D01*
X151813000Y-89801651D02*
X156387000Y-89801651D01*
X151872000Y-89761651D02*
X156328000Y-89761651D01*
X151934000Y-89721651D02*
X156266000Y-89721651D01*
X151998000Y-89681651D02*
X156202000Y-89681651D01*
X152066000Y-89641651D02*
X156134000Y-89641651D01*
X152136000Y-89601651D02*
X156064000Y-89601651D01*
X152210000Y-89561651D02*
X155990000Y-89561651D01*
X152287000Y-89521651D02*
X155913000Y-89521651D01*
X152369000Y-89481651D02*
X155831000Y-89481651D01*
X152455000Y-89441651D02*
X155745000Y-89441651D01*
X152548000Y-89401651D02*
X155652000Y-89401651D01*
X152647000Y-89361651D02*
X155553000Y-89361651D01*
X152754000Y-89321651D02*
X155446000Y-89321651D01*
X152871000Y-89281651D02*
X155329000Y-89281651D01*
X153002000Y-89241651D02*
X155198000Y-89241651D01*
X153152000Y-89201651D02*
X155048000Y-89201651D01*
X153332000Y-89161651D02*
X154868000Y-89161651D01*
X153567000Y-89121651D02*
X154633000Y-89121651D01*
X158220000Y-93202651D02*
G75*
G03*
X158220000Y-93202651I-4120000J0D01*
G01*
%TO.C,R3*%
X124965000Y-133827064D02*
X124965000Y-133372936D01*
X126435000Y-133827064D02*
X126435000Y-133372936D01*
%TO.C,JP2*%
X159600000Y-113500000D02*
X159600000Y-112900000D01*
X160300000Y-112200000D02*
X161700000Y-112200000D01*
X161700000Y-114200000D02*
X160300000Y-114200000D01*
X162400000Y-112900000D02*
X162400000Y-113500000D01*
X160300000Y-112200000D02*
G75*
G03*
X159600000Y-112900000I-1J-699999D01*
G01*
X159600000Y-113500000D02*
G75*
G03*
X160300000Y-114200000I699999J-1D01*
G01*
X162400000Y-112900000D02*
G75*
G03*
X161700000Y-112200000I-700000J0D01*
G01*
X161700000Y-114200000D02*
G75*
G03*
X162400000Y-113500000I0J700000D01*
G01*
%TO.C,R45*%
X168865000Y-83827064D02*
X168865000Y-83372936D01*
X170335000Y-83827064D02*
X170335000Y-83372936D01*
%TO.C,TP4*%
X179400000Y-122700000D02*
X180800000Y-122700000D01*
X179400000Y-124100000D02*
X179400000Y-122700000D01*
X180800000Y-122700000D02*
X180800000Y-124100000D01*
X180800000Y-124100000D02*
X179400000Y-124100000D01*
%TO.C,R37*%
X139727064Y-90010000D02*
X138272936Y-90010000D01*
X139727064Y-88190000D02*
X138272936Y-88190000D01*
%TO.C,J6*%
X165620000Y-136480000D02*
X165620000Y-132480000D01*
X165330000Y-137510000D02*
X165330000Y-131490000D01*
X165330000Y-131490000D02*
X149870000Y-131490000D01*
X164750000Y-137510000D02*
X164750000Y-136910000D01*
X164750000Y-136910000D02*
X163150000Y-136910000D01*
X163950000Y-132490000D02*
X163700000Y-133020000D01*
X163950000Y-132490000D02*
X151250000Y-132490000D01*
X163950000Y-131490000D02*
X163950000Y-132490000D01*
X163700000Y-133020000D02*
X151500000Y-133020000D01*
X163700000Y-131490000D02*
X163700000Y-132490000D01*
X163150000Y-136910000D02*
X163150000Y-137510000D01*
X162210000Y-137510000D02*
X162210000Y-136910000D01*
X162210000Y-136910000D02*
X160610000Y-136910000D01*
X160610000Y-136910000D02*
X160610000Y-137510000D01*
X159670000Y-137510000D02*
X159670000Y-136910000D01*
X159670000Y-136910000D02*
X158070000Y-136910000D01*
X158070000Y-136910000D02*
X158070000Y-137510000D01*
X157130000Y-137510000D02*
X157130000Y-136910000D01*
X157130000Y-136910000D02*
X155530000Y-136910000D01*
X155530000Y-136910000D02*
X155530000Y-137510000D01*
X154590000Y-137510000D02*
X154590000Y-136910000D01*
X154590000Y-136910000D02*
X152990000Y-136910000D01*
X152990000Y-136910000D02*
X152990000Y-137510000D01*
X152050000Y-137510000D02*
X152050000Y-136910000D01*
X152050000Y-136910000D02*
X150450000Y-136910000D01*
X151500000Y-133020000D02*
X151250000Y-132490000D01*
X151500000Y-131490000D02*
X151500000Y-132490000D01*
X151250000Y-132490000D02*
X151250000Y-131490000D01*
X150450000Y-136910000D02*
X150450000Y-137510000D01*
X149870000Y-137510000D02*
X165330000Y-137510000D01*
X149870000Y-131490000D02*
X149870000Y-137510000D01*
%TO.C,R44*%
X168535000Y-90772936D02*
X168535000Y-91227064D01*
X167065000Y-90772936D02*
X167065000Y-91227064D01*
%TO.C,Q7*%
X175740000Y-124200000D02*
X175740000Y-125875000D01*
X175740000Y-124200000D02*
X175740000Y-123550000D01*
X178860000Y-124200000D02*
X178860000Y-124850000D01*
X178860000Y-124200000D02*
X178860000Y-123550000D01*
%TO.C,C18*%
X103735000Y-127638748D02*
X103735000Y-128161252D01*
X102265000Y-127638748D02*
X102265000Y-128161252D01*
%TO.C,JP3*%
X150600000Y-104200000D02*
X150600000Y-104800000D01*
X149900000Y-105500000D02*
X148500000Y-105500000D01*
X148500000Y-103500000D02*
X149900000Y-103500000D01*
X147800000Y-104800000D02*
X147800000Y-104200000D01*
X149900000Y-105500000D02*
G75*
G03*
X150600000Y-104800000I1J699999D01*
G01*
X150600000Y-104200000D02*
G75*
G03*
X149900000Y-103500000I-699999J1D01*
G01*
X147800000Y-104800000D02*
G75*
G03*
X148500000Y-105500000I700000J0D01*
G01*
X148500000Y-103500000D02*
G75*
G03*
X147800000Y-104200000I0J-700000D01*
G01*
%TO.C,C29*%
X165565000Y-123061252D02*
X165565000Y-122538748D01*
X167035000Y-123061252D02*
X167035000Y-122538748D01*
%TO.C,C26*%
X147338748Y-90865000D02*
X147861252Y-90865000D01*
X147338748Y-92335000D02*
X147861252Y-92335000D01*
%TO.C,R5*%
X116035000Y-103872936D02*
X116035000Y-104327064D01*
X114565000Y-103872936D02*
X114565000Y-104327064D01*
%TO.C,J7*%
X179820000Y-83370000D02*
X179820000Y-93650000D01*
X179820000Y-83370000D02*
X182420000Y-83370000D01*
X179820000Y-93650000D02*
X185020000Y-93650000D01*
X182420000Y-83370000D02*
X182420000Y-85970000D01*
X182420000Y-85970000D02*
X185020000Y-85970000D01*
X183690000Y-83370000D02*
X185020000Y-83370000D01*
X185020000Y-83370000D02*
X185020000Y-84700000D01*
X185020000Y-85970000D02*
X185020000Y-93650000D01*
D15*
%TO.C,D1*%
X141760001Y-129387499D02*
X141760001Y-129819999D01*
X141760001Y-132579999D02*
X141760001Y-133012499D01*
X141760001Y-133012499D02*
X146160001Y-133012499D01*
X146160001Y-129387499D02*
X141760001Y-129387499D01*
X146160001Y-129387499D02*
X146160001Y-129819999D01*
X146160001Y-132579999D02*
X146160001Y-133012499D01*
D10*
X140160001Y-131199999D02*
G75*
G03*
X140160001Y-131199999I-100000J0D01*
G01*
D14*
%TO.C,JP9*%
X128600000Y-103100000D02*
X128600000Y-102500000D01*
X129300000Y-101800000D02*
X130700000Y-101800000D01*
X130700000Y-103800000D02*
X129300000Y-103800000D01*
X131400000Y-102500000D02*
X131400000Y-103100000D01*
X129300000Y-101800000D02*
G75*
G03*
X128600000Y-102500000I-1J-699999D01*
G01*
X128600000Y-103100000D02*
G75*
G03*
X129300000Y-103800000I699999J-1D01*
G01*
X131400000Y-102500000D02*
G75*
G03*
X130700000Y-101800000I-700000J0D01*
G01*
X130700000Y-103800000D02*
G75*
G03*
X131400000Y-103100000I0J700000D01*
G01*
%TO.C,U5*%
X179590000Y-130210000D02*
X179590000Y-129485000D01*
X180315000Y-124990000D02*
X179590000Y-124990000D01*
X180315000Y-130210000D02*
X179590000Y-130210000D01*
X184085000Y-124990000D02*
X184810000Y-124990000D01*
X184085000Y-130210000D02*
X184810000Y-130210000D01*
X184810000Y-124990000D02*
X184810000Y-125715000D01*
X184810000Y-130210000D02*
X184810000Y-129485000D01*
%TO.C,R18*%
X123277064Y-89110000D02*
X118922936Y-89110000D01*
X123277064Y-85690000D02*
X118922936Y-85690000D01*
%TO.C,R26*%
X107927064Y-120935000D02*
X107472936Y-120935000D01*
X107927064Y-119465000D02*
X107472936Y-119465000D01*
%TO.C,R31*%
X183327064Y-124035000D02*
X182872936Y-124035000D01*
X183327064Y-122565000D02*
X182872936Y-122565000D01*
%TD*%
M02*
