%TF.GenerationSoftware,KiCad,Pcbnew,7.0.2-6a45011f42~172~ubuntu22.04.1*%
%TF.CreationDate,2023-06-02T03:11:57+02:00*%
%TF.ProjectId,MR-SLDR-01,4d522d53-4c44-4522-9d30-312e6b696361,rev?*%
%TF.SameCoordinates,Original*%
%TF.FileFunction,Legend,Top*%
%TF.FilePolarity,Positive*%
%FSLAX46Y46*%
G04 Gerber Fmt 4.6, Leading zero omitted, Abs format (unit mm)*
G04 Created by KiCad (PCBNEW 7.0.2-6a45011f42~172~ubuntu22.04.1) date 2023-06-02 03:11:57*
%MOMM*%
%LPD*%
G01*
G04 APERTURE LIST*
%ADD10C,0.200000*%
%ADD11C,0.250000*%
%ADD12C,0.150000*%
%ADD13C,0.300000*%
%ADD14C,0.120000*%
%ADD15C,0.127000*%
G04 APERTURE END LIST*
D10*
X97746190Y-91371428D02*
X97698571Y-91514285D01*
X97698571Y-91514285D02*
X97650952Y-91561904D01*
X97650952Y-91561904D02*
X97555714Y-91609523D01*
X97555714Y-91609523D02*
X97412857Y-91609523D01*
X97412857Y-91609523D02*
X97317619Y-91561904D01*
X97317619Y-91561904D02*
X97270000Y-91514285D01*
X97270000Y-91514285D02*
X97222380Y-91419047D01*
X97222380Y-91419047D02*
X97222380Y-91038095D01*
X97222380Y-91038095D02*
X98222380Y-91038095D01*
X98222380Y-91038095D02*
X98222380Y-91371428D01*
X98222380Y-91371428D02*
X98174761Y-91466666D01*
X98174761Y-91466666D02*
X98127142Y-91514285D01*
X98127142Y-91514285D02*
X98031904Y-91561904D01*
X98031904Y-91561904D02*
X97936666Y-91561904D01*
X97936666Y-91561904D02*
X97841428Y-91514285D01*
X97841428Y-91514285D02*
X97793809Y-91466666D01*
X97793809Y-91466666D02*
X97746190Y-91371428D01*
X97746190Y-91371428D02*
X97746190Y-91038095D01*
X97508095Y-91990476D02*
X97508095Y-92466666D01*
X97222380Y-91895238D02*
X98222380Y-92228571D01*
X98222380Y-92228571D02*
X97222380Y-92561904D01*
X98222380Y-92752381D02*
X98222380Y-93323809D01*
X97222380Y-93038095D02*
X98222380Y-93038095D01*
X98222380Y-93514286D02*
X98222380Y-94085714D01*
X97222380Y-93800000D02*
X98222380Y-93800000D01*
X106422380Y-113528571D02*
X106422380Y-113719047D01*
X106422380Y-113719047D02*
X106374761Y-113814285D01*
X106374761Y-113814285D02*
X106279523Y-113909523D01*
X106279523Y-113909523D02*
X106089047Y-113957142D01*
X106089047Y-113957142D02*
X105755714Y-113957142D01*
X105755714Y-113957142D02*
X105565238Y-113909523D01*
X105565238Y-113909523D02*
X105470000Y-113814285D01*
X105470000Y-113814285D02*
X105422380Y-113719047D01*
X105422380Y-113719047D02*
X105422380Y-113528571D01*
X105422380Y-113528571D02*
X105470000Y-113433333D01*
X105470000Y-113433333D02*
X105565238Y-113338095D01*
X105565238Y-113338095D02*
X105755714Y-113290476D01*
X105755714Y-113290476D02*
X106089047Y-113290476D01*
X106089047Y-113290476D02*
X106279523Y-113338095D01*
X106279523Y-113338095D02*
X106374761Y-113433333D01*
X106374761Y-113433333D02*
X106422380Y-113528571D01*
X105422380Y-114385714D02*
X106422380Y-114385714D01*
X106422380Y-114385714D02*
X105422380Y-114957142D01*
X105422380Y-114957142D02*
X106422380Y-114957142D01*
X106470000Y-116147618D02*
X105184285Y-115290476D01*
X106422380Y-116671428D02*
X106422380Y-116861904D01*
X106422380Y-116861904D02*
X106374761Y-116957142D01*
X106374761Y-116957142D02*
X106279523Y-117052380D01*
X106279523Y-117052380D02*
X106089047Y-117099999D01*
X106089047Y-117099999D02*
X105755714Y-117099999D01*
X105755714Y-117099999D02*
X105565238Y-117052380D01*
X105565238Y-117052380D02*
X105470000Y-116957142D01*
X105470000Y-116957142D02*
X105422380Y-116861904D01*
X105422380Y-116861904D02*
X105422380Y-116671428D01*
X105422380Y-116671428D02*
X105470000Y-116576190D01*
X105470000Y-116576190D02*
X105565238Y-116480952D01*
X105565238Y-116480952D02*
X105755714Y-116433333D01*
X105755714Y-116433333D02*
X106089047Y-116433333D01*
X106089047Y-116433333D02*
X106279523Y-116480952D01*
X106279523Y-116480952D02*
X106374761Y-116576190D01*
X106374761Y-116576190D02*
X106422380Y-116671428D01*
X105946190Y-117861904D02*
X105946190Y-117528571D01*
X105422380Y-117528571D02*
X106422380Y-117528571D01*
X106422380Y-117528571D02*
X106422380Y-118004761D01*
X105946190Y-118719047D02*
X105946190Y-118385714D01*
X105422380Y-118385714D02*
X106422380Y-118385714D01*
X106422380Y-118385714D02*
X106422380Y-118861904D01*
D11*
X106438095Y-128907380D02*
X106485714Y-128955000D01*
X106485714Y-128955000D02*
X106438095Y-129002619D01*
X106438095Y-129002619D02*
X106390476Y-128955000D01*
X106390476Y-128955000D02*
X106438095Y-128907380D01*
X106438095Y-128907380D02*
X106438095Y-129002619D01*
D12*
X148238095Y-129057619D02*
X148238095Y-128057619D01*
X148238095Y-128057619D02*
X148476190Y-128057619D01*
X148476190Y-128057619D02*
X148619047Y-128105238D01*
X148619047Y-128105238D02*
X148714285Y-128200476D01*
X148714285Y-128200476D02*
X148761904Y-128295714D01*
X148761904Y-128295714D02*
X148809523Y-128486190D01*
X148809523Y-128486190D02*
X148809523Y-128629047D01*
X148809523Y-128629047D02*
X148761904Y-128819523D01*
X148761904Y-128819523D02*
X148714285Y-128914761D01*
X148714285Y-128914761D02*
X148619047Y-129010000D01*
X148619047Y-129010000D02*
X148476190Y-129057619D01*
X148476190Y-129057619D02*
X148238095Y-129057619D01*
X149238095Y-129057619D02*
X149238095Y-128057619D01*
X149666666Y-129010000D02*
X149809523Y-129057619D01*
X149809523Y-129057619D02*
X150047618Y-129057619D01*
X150047618Y-129057619D02*
X150142856Y-129010000D01*
X150142856Y-129010000D02*
X150190475Y-128962380D01*
X150190475Y-128962380D02*
X150238094Y-128867142D01*
X150238094Y-128867142D02*
X150238094Y-128771904D01*
X150238094Y-128771904D02*
X150190475Y-128676666D01*
X150190475Y-128676666D02*
X150142856Y-128629047D01*
X150142856Y-128629047D02*
X150047618Y-128581428D01*
X150047618Y-128581428D02*
X149857142Y-128533809D01*
X149857142Y-128533809D02*
X149761904Y-128486190D01*
X149761904Y-128486190D02*
X149714285Y-128438571D01*
X149714285Y-128438571D02*
X149666666Y-128343333D01*
X149666666Y-128343333D02*
X149666666Y-128248095D01*
X149666666Y-128248095D02*
X149714285Y-128152857D01*
X149714285Y-128152857D02*
X149761904Y-128105238D01*
X149761904Y-128105238D02*
X149857142Y-128057619D01*
X149857142Y-128057619D02*
X150095237Y-128057619D01*
X150095237Y-128057619D02*
X150238094Y-128105238D01*
X150523809Y-128057619D02*
X151095237Y-128057619D01*
X150809523Y-129057619D02*
X150809523Y-128057619D01*
X151380952Y-128771904D02*
X151857142Y-128771904D01*
X151285714Y-129057619D02*
X151619047Y-128057619D01*
X151619047Y-128057619D02*
X151952380Y-129057619D01*
X152285714Y-129057619D02*
X152285714Y-128057619D01*
X152285714Y-128057619D02*
X152857142Y-129057619D01*
X152857142Y-129057619D02*
X152857142Y-128057619D01*
X153904761Y-128962380D02*
X153857142Y-129010000D01*
X153857142Y-129010000D02*
X153714285Y-129057619D01*
X153714285Y-129057619D02*
X153619047Y-129057619D01*
X153619047Y-129057619D02*
X153476190Y-129010000D01*
X153476190Y-129010000D02*
X153380952Y-128914761D01*
X153380952Y-128914761D02*
X153333333Y-128819523D01*
X153333333Y-128819523D02*
X153285714Y-128629047D01*
X153285714Y-128629047D02*
X153285714Y-128486190D01*
X153285714Y-128486190D02*
X153333333Y-128295714D01*
X153333333Y-128295714D02*
X153380952Y-128200476D01*
X153380952Y-128200476D02*
X153476190Y-128105238D01*
X153476190Y-128105238D02*
X153619047Y-128057619D01*
X153619047Y-128057619D02*
X153714285Y-128057619D01*
X153714285Y-128057619D02*
X153857142Y-128105238D01*
X153857142Y-128105238D02*
X153904761Y-128152857D01*
X154333333Y-128533809D02*
X154666666Y-128533809D01*
X154809523Y-129057619D02*
X154333333Y-129057619D01*
X154333333Y-129057619D02*
X154333333Y-128057619D01*
X154333333Y-128057619D02*
X154809523Y-128057619D01*
X148190476Y-130630000D02*
X148333333Y-130677619D01*
X148333333Y-130677619D02*
X148571428Y-130677619D01*
X148571428Y-130677619D02*
X148666666Y-130630000D01*
X148666666Y-130630000D02*
X148714285Y-130582380D01*
X148714285Y-130582380D02*
X148761904Y-130487142D01*
X148761904Y-130487142D02*
X148761904Y-130391904D01*
X148761904Y-130391904D02*
X148714285Y-130296666D01*
X148714285Y-130296666D02*
X148666666Y-130249047D01*
X148666666Y-130249047D02*
X148571428Y-130201428D01*
X148571428Y-130201428D02*
X148380952Y-130153809D01*
X148380952Y-130153809D02*
X148285714Y-130106190D01*
X148285714Y-130106190D02*
X148238095Y-130058571D01*
X148238095Y-130058571D02*
X148190476Y-129963333D01*
X148190476Y-129963333D02*
X148190476Y-129868095D01*
X148190476Y-129868095D02*
X148238095Y-129772857D01*
X148238095Y-129772857D02*
X148285714Y-129725238D01*
X148285714Y-129725238D02*
X148380952Y-129677619D01*
X148380952Y-129677619D02*
X148619047Y-129677619D01*
X148619047Y-129677619D02*
X148761904Y-129725238D01*
X149190476Y-130153809D02*
X149523809Y-130153809D01*
X149666666Y-130677619D02*
X149190476Y-130677619D01*
X149190476Y-130677619D02*
X149190476Y-129677619D01*
X149190476Y-129677619D02*
X149666666Y-129677619D01*
X150095238Y-130677619D02*
X150095238Y-129677619D01*
X150095238Y-129677619D02*
X150666666Y-130677619D01*
X150666666Y-130677619D02*
X150666666Y-129677619D01*
X151095238Y-130630000D02*
X151238095Y-130677619D01*
X151238095Y-130677619D02*
X151476190Y-130677619D01*
X151476190Y-130677619D02*
X151571428Y-130630000D01*
X151571428Y-130630000D02*
X151619047Y-130582380D01*
X151619047Y-130582380D02*
X151666666Y-130487142D01*
X151666666Y-130487142D02*
X151666666Y-130391904D01*
X151666666Y-130391904D02*
X151619047Y-130296666D01*
X151619047Y-130296666D02*
X151571428Y-130249047D01*
X151571428Y-130249047D02*
X151476190Y-130201428D01*
X151476190Y-130201428D02*
X151285714Y-130153809D01*
X151285714Y-130153809D02*
X151190476Y-130106190D01*
X151190476Y-130106190D02*
X151142857Y-130058571D01*
X151142857Y-130058571D02*
X151095238Y-129963333D01*
X151095238Y-129963333D02*
X151095238Y-129868095D01*
X151095238Y-129868095D02*
X151142857Y-129772857D01*
X151142857Y-129772857D02*
X151190476Y-129725238D01*
X151190476Y-129725238D02*
X151285714Y-129677619D01*
X151285714Y-129677619D02*
X151523809Y-129677619D01*
X151523809Y-129677619D02*
X151666666Y-129725238D01*
X152285714Y-129677619D02*
X152476190Y-129677619D01*
X152476190Y-129677619D02*
X152571428Y-129725238D01*
X152571428Y-129725238D02*
X152666666Y-129820476D01*
X152666666Y-129820476D02*
X152714285Y-130010952D01*
X152714285Y-130010952D02*
X152714285Y-130344285D01*
X152714285Y-130344285D02*
X152666666Y-130534761D01*
X152666666Y-130534761D02*
X152571428Y-130630000D01*
X152571428Y-130630000D02*
X152476190Y-130677619D01*
X152476190Y-130677619D02*
X152285714Y-130677619D01*
X152285714Y-130677619D02*
X152190476Y-130630000D01*
X152190476Y-130630000D02*
X152095238Y-130534761D01*
X152095238Y-130534761D02*
X152047619Y-130344285D01*
X152047619Y-130344285D02*
X152047619Y-130010952D01*
X152047619Y-130010952D02*
X152095238Y-129820476D01*
X152095238Y-129820476D02*
X152190476Y-129725238D01*
X152190476Y-129725238D02*
X152285714Y-129677619D01*
X153714285Y-130677619D02*
X153380952Y-130201428D01*
X153142857Y-130677619D02*
X153142857Y-129677619D01*
X153142857Y-129677619D02*
X153523809Y-129677619D01*
X153523809Y-129677619D02*
X153619047Y-129725238D01*
X153619047Y-129725238D02*
X153666666Y-129772857D01*
X153666666Y-129772857D02*
X153714285Y-129868095D01*
X153714285Y-129868095D02*
X153714285Y-130010952D01*
X153714285Y-130010952D02*
X153666666Y-130106190D01*
X153666666Y-130106190D02*
X153619047Y-130153809D01*
X153619047Y-130153809D02*
X153523809Y-130201428D01*
X153523809Y-130201428D02*
X153142857Y-130201428D01*
D11*
X164338095Y-89382380D02*
X164385714Y-89430000D01*
X164385714Y-89430000D02*
X164338095Y-89477619D01*
X164338095Y-89477619D02*
X164290476Y-89430000D01*
X164290476Y-89430000D02*
X164338095Y-89382380D01*
X164338095Y-89382380D02*
X164338095Y-89477619D01*
X174938095Y-122582380D02*
X174985714Y-122630000D01*
X174985714Y-122630000D02*
X174938095Y-122677619D01*
X174938095Y-122677619D02*
X174890476Y-122630000D01*
X174890476Y-122630000D02*
X174938095Y-122582380D01*
X174938095Y-122582380D02*
X174938095Y-122677619D01*
X125738095Y-105182380D02*
X125785714Y-105230000D01*
X125785714Y-105230000D02*
X125738095Y-105277619D01*
X125738095Y-105277619D02*
X125690476Y-105230000D01*
X125690476Y-105230000D02*
X125738095Y-105182380D01*
X125738095Y-105182380D02*
X125738095Y-105277619D01*
D10*
X181714285Y-94877619D02*
X181238095Y-94877619D01*
X181238095Y-94877619D02*
X181238095Y-93877619D01*
X182047619Y-94353809D02*
X182380952Y-94353809D01*
X182523809Y-94877619D02*
X182047619Y-94877619D01*
X182047619Y-94877619D02*
X182047619Y-93877619D01*
X182047619Y-93877619D02*
X182523809Y-93877619D01*
X182952381Y-94877619D02*
X182952381Y-93877619D01*
X182952381Y-93877619D02*
X183190476Y-93877619D01*
X183190476Y-93877619D02*
X183333333Y-93925238D01*
X183333333Y-93925238D02*
X183428571Y-94020476D01*
X183428571Y-94020476D02*
X183476190Y-94115714D01*
X183476190Y-94115714D02*
X183523809Y-94306190D01*
X183523809Y-94306190D02*
X183523809Y-94449047D01*
X183523809Y-94449047D02*
X183476190Y-94639523D01*
X183476190Y-94639523D02*
X183428571Y-94734761D01*
X183428571Y-94734761D02*
X183333333Y-94830000D01*
X183333333Y-94830000D02*
X183190476Y-94877619D01*
X183190476Y-94877619D02*
X182952381Y-94877619D01*
X183904762Y-94830000D02*
X184047619Y-94877619D01*
X184047619Y-94877619D02*
X184285714Y-94877619D01*
X184285714Y-94877619D02*
X184380952Y-94830000D01*
X184380952Y-94830000D02*
X184428571Y-94782380D01*
X184428571Y-94782380D02*
X184476190Y-94687142D01*
X184476190Y-94687142D02*
X184476190Y-94591904D01*
X184476190Y-94591904D02*
X184428571Y-94496666D01*
X184428571Y-94496666D02*
X184380952Y-94449047D01*
X184380952Y-94449047D02*
X184285714Y-94401428D01*
X184285714Y-94401428D02*
X184095238Y-94353809D01*
X184095238Y-94353809D02*
X184000000Y-94306190D01*
X184000000Y-94306190D02*
X183952381Y-94258571D01*
X183952381Y-94258571D02*
X183904762Y-94163333D01*
X183904762Y-94163333D02*
X183904762Y-94068095D01*
X183904762Y-94068095D02*
X183952381Y-93972857D01*
X183952381Y-93972857D02*
X184000000Y-93925238D01*
X184000000Y-93925238D02*
X184095238Y-93877619D01*
X184095238Y-93877619D02*
X184333333Y-93877619D01*
X184333333Y-93877619D02*
X184476190Y-93925238D01*
X129538095Y-90377619D02*
X129538095Y-89377619D01*
X129538095Y-89377619D02*
X130109523Y-90377619D01*
X130109523Y-90377619D02*
X130109523Y-89377619D01*
X130442857Y-89377619D02*
X131014285Y-89377619D01*
X130728571Y-90377619D02*
X130728571Y-89377619D01*
X131919047Y-90282380D02*
X131871428Y-90330000D01*
X131871428Y-90330000D02*
X131728571Y-90377619D01*
X131728571Y-90377619D02*
X131633333Y-90377619D01*
X131633333Y-90377619D02*
X131490476Y-90330000D01*
X131490476Y-90330000D02*
X131395238Y-90234761D01*
X131395238Y-90234761D02*
X131347619Y-90139523D01*
X131347619Y-90139523D02*
X131300000Y-89949047D01*
X131300000Y-89949047D02*
X131300000Y-89806190D01*
X131300000Y-89806190D02*
X131347619Y-89615714D01*
X131347619Y-89615714D02*
X131395238Y-89520476D01*
X131395238Y-89520476D02*
X131490476Y-89425238D01*
X131490476Y-89425238D02*
X131633333Y-89377619D01*
X131633333Y-89377619D02*
X131728571Y-89377619D01*
X131728571Y-89377619D02*
X131871428Y-89425238D01*
X131871428Y-89425238D02*
X131919047Y-89472857D01*
D11*
X139838095Y-118682380D02*
X139885714Y-118730000D01*
X139885714Y-118730000D02*
X139838095Y-118777619D01*
X139838095Y-118777619D02*
X139790476Y-118730000D01*
X139790476Y-118730000D02*
X139838095Y-118682380D01*
X139838095Y-118682380D02*
X139838095Y-118777619D01*
X179338095Y-124882380D02*
X179385714Y-124930000D01*
X179385714Y-124930000D02*
X179338095Y-124977619D01*
X179338095Y-124977619D02*
X179290476Y-124930000D01*
X179290476Y-124930000D02*
X179338095Y-124882380D01*
X179338095Y-124882380D02*
X179338095Y-124977619D01*
D12*
X136738095Y-106577619D02*
X136738095Y-107387142D01*
X136738095Y-107387142D02*
X136785714Y-107482380D01*
X136785714Y-107482380D02*
X136833333Y-107530000D01*
X136833333Y-107530000D02*
X136928571Y-107577619D01*
X136928571Y-107577619D02*
X137119047Y-107577619D01*
X137119047Y-107577619D02*
X137214285Y-107530000D01*
X137214285Y-107530000D02*
X137261904Y-107482380D01*
X137261904Y-107482380D02*
X137309523Y-107387142D01*
X137309523Y-107387142D02*
X137309523Y-106577619D01*
X137785714Y-107482380D02*
X137833333Y-107530000D01*
X137833333Y-107530000D02*
X137785714Y-107577619D01*
X137785714Y-107577619D02*
X137738095Y-107530000D01*
X137738095Y-107530000D02*
X137785714Y-107482380D01*
X137785714Y-107482380D02*
X137785714Y-107577619D01*
X138595237Y-107053809D02*
X138738094Y-107101428D01*
X138738094Y-107101428D02*
X138785713Y-107149047D01*
X138785713Y-107149047D02*
X138833332Y-107244285D01*
X138833332Y-107244285D02*
X138833332Y-107387142D01*
X138833332Y-107387142D02*
X138785713Y-107482380D01*
X138785713Y-107482380D02*
X138738094Y-107530000D01*
X138738094Y-107530000D02*
X138642856Y-107577619D01*
X138642856Y-107577619D02*
X138261904Y-107577619D01*
X138261904Y-107577619D02*
X138261904Y-106577619D01*
X138261904Y-106577619D02*
X138595237Y-106577619D01*
X138595237Y-106577619D02*
X138690475Y-106625238D01*
X138690475Y-106625238D02*
X138738094Y-106672857D01*
X138738094Y-106672857D02*
X138785713Y-106768095D01*
X138785713Y-106768095D02*
X138785713Y-106863333D01*
X138785713Y-106863333D02*
X138738094Y-106958571D01*
X138738094Y-106958571D02*
X138690475Y-107006190D01*
X138690475Y-107006190D02*
X138595237Y-107053809D01*
X138595237Y-107053809D02*
X138261904Y-107053809D01*
X139214285Y-107291904D02*
X139690475Y-107291904D01*
X139119047Y-107577619D02*
X139452380Y-106577619D01*
X139452380Y-106577619D02*
X139785713Y-107577619D01*
X139976190Y-106577619D02*
X140547618Y-106577619D01*
X140261904Y-107577619D02*
X140261904Y-106577619D01*
X140738095Y-106577619D02*
X141309523Y-106577619D01*
X141023809Y-107577619D02*
X141023809Y-106577619D01*
D11*
X104738095Y-105882380D02*
X104785714Y-105930000D01*
X104785714Y-105930000D02*
X104738095Y-105977619D01*
X104738095Y-105977619D02*
X104690476Y-105930000D01*
X104690476Y-105930000D02*
X104738095Y-105882380D01*
X104738095Y-105882380D02*
X104738095Y-105977619D01*
X173538095Y-91082380D02*
X173585714Y-91130000D01*
X173585714Y-91130000D02*
X173538095Y-91177619D01*
X173538095Y-91177619D02*
X173490476Y-91130000D01*
X173490476Y-91130000D02*
X173538095Y-91082380D01*
X173538095Y-91082380D02*
X173538095Y-91177619D01*
D13*
X98083571Y-121557142D02*
X99583571Y-121557142D01*
X99583571Y-121557142D02*
X98512142Y-122057142D01*
X98512142Y-122057142D02*
X99583571Y-122557142D01*
X99583571Y-122557142D02*
X98083571Y-122557142D01*
X98083571Y-124128571D02*
X98797857Y-123628571D01*
X98083571Y-123271428D02*
X99583571Y-123271428D01*
X99583571Y-123271428D02*
X99583571Y-123842857D01*
X99583571Y-123842857D02*
X99512142Y-123985714D01*
X99512142Y-123985714D02*
X99440714Y-124057143D01*
X99440714Y-124057143D02*
X99297857Y-124128571D01*
X99297857Y-124128571D02*
X99083571Y-124128571D01*
X99083571Y-124128571D02*
X98940714Y-124057143D01*
X98940714Y-124057143D02*
X98869285Y-123985714D01*
X98869285Y-123985714D02*
X98797857Y-123842857D01*
X98797857Y-123842857D02*
X98797857Y-123271428D01*
X98655000Y-124771428D02*
X98655000Y-125914286D01*
X98155000Y-126557143D02*
X98083571Y-126771429D01*
X98083571Y-126771429D02*
X98083571Y-127128571D01*
X98083571Y-127128571D02*
X98155000Y-127271429D01*
X98155000Y-127271429D02*
X98226428Y-127342857D01*
X98226428Y-127342857D02*
X98369285Y-127414286D01*
X98369285Y-127414286D02*
X98512142Y-127414286D01*
X98512142Y-127414286D02*
X98655000Y-127342857D01*
X98655000Y-127342857D02*
X98726428Y-127271429D01*
X98726428Y-127271429D02*
X98797857Y-127128571D01*
X98797857Y-127128571D02*
X98869285Y-126842857D01*
X98869285Y-126842857D02*
X98940714Y-126700000D01*
X98940714Y-126700000D02*
X99012142Y-126628571D01*
X99012142Y-126628571D02*
X99155000Y-126557143D01*
X99155000Y-126557143D02*
X99297857Y-126557143D01*
X99297857Y-126557143D02*
X99440714Y-126628571D01*
X99440714Y-126628571D02*
X99512142Y-126700000D01*
X99512142Y-126700000D02*
X99583571Y-126842857D01*
X99583571Y-126842857D02*
X99583571Y-127200000D01*
X99583571Y-127200000D02*
X99512142Y-127414286D01*
X98083571Y-128771428D02*
X98083571Y-128057142D01*
X98083571Y-128057142D02*
X99583571Y-128057142D01*
X98083571Y-129271428D02*
X99583571Y-129271428D01*
X99583571Y-129271428D02*
X99583571Y-129628571D01*
X99583571Y-129628571D02*
X99512142Y-129842857D01*
X99512142Y-129842857D02*
X99369285Y-129985714D01*
X99369285Y-129985714D02*
X99226428Y-130057143D01*
X99226428Y-130057143D02*
X98940714Y-130128571D01*
X98940714Y-130128571D02*
X98726428Y-130128571D01*
X98726428Y-130128571D02*
X98440714Y-130057143D01*
X98440714Y-130057143D02*
X98297857Y-129985714D01*
X98297857Y-129985714D02*
X98155000Y-129842857D01*
X98155000Y-129842857D02*
X98083571Y-129628571D01*
X98083571Y-129628571D02*
X98083571Y-129271428D01*
X98083571Y-131628571D02*
X98797857Y-131128571D01*
X98083571Y-130771428D02*
X99583571Y-130771428D01*
X99583571Y-130771428D02*
X99583571Y-131342857D01*
X99583571Y-131342857D02*
X99512142Y-131485714D01*
X99512142Y-131485714D02*
X99440714Y-131557143D01*
X99440714Y-131557143D02*
X99297857Y-131628571D01*
X99297857Y-131628571D02*
X99083571Y-131628571D01*
X99083571Y-131628571D02*
X98940714Y-131557143D01*
X98940714Y-131557143D02*
X98869285Y-131485714D01*
X98869285Y-131485714D02*
X98797857Y-131342857D01*
X98797857Y-131342857D02*
X98797857Y-130771428D01*
X98655000Y-132271428D02*
X98655000Y-133414286D01*
X99583571Y-134414286D02*
X99583571Y-134557143D01*
X99583571Y-134557143D02*
X99512142Y-134700000D01*
X99512142Y-134700000D02*
X99440714Y-134771429D01*
X99440714Y-134771429D02*
X99297857Y-134842857D01*
X99297857Y-134842857D02*
X99012142Y-134914286D01*
X99012142Y-134914286D02*
X98655000Y-134914286D01*
X98655000Y-134914286D02*
X98369285Y-134842857D01*
X98369285Y-134842857D02*
X98226428Y-134771429D01*
X98226428Y-134771429D02*
X98155000Y-134700000D01*
X98155000Y-134700000D02*
X98083571Y-134557143D01*
X98083571Y-134557143D02*
X98083571Y-134414286D01*
X98083571Y-134414286D02*
X98155000Y-134271429D01*
X98155000Y-134271429D02*
X98226428Y-134200000D01*
X98226428Y-134200000D02*
X98369285Y-134128571D01*
X98369285Y-134128571D02*
X98655000Y-134057143D01*
X98655000Y-134057143D02*
X99012142Y-134057143D01*
X99012142Y-134057143D02*
X99297857Y-134128571D01*
X99297857Y-134128571D02*
X99440714Y-134200000D01*
X99440714Y-134200000D02*
X99512142Y-134271429D01*
X99512142Y-134271429D02*
X99583571Y-134414286D01*
X98083571Y-136342857D02*
X98083571Y-135485714D01*
X98083571Y-135914285D02*
X99583571Y-135914285D01*
X99583571Y-135914285D02*
X99369285Y-135771428D01*
X99369285Y-135771428D02*
X99226428Y-135628571D01*
X99226428Y-135628571D02*
X99155000Y-135485714D01*
D11*
X146938095Y-93082380D02*
X146985714Y-93130000D01*
X146985714Y-93130000D02*
X146938095Y-93177619D01*
X146938095Y-93177619D02*
X146890476Y-93130000D01*
X146890476Y-93130000D02*
X146938095Y-93082380D01*
X146938095Y-93082380D02*
X146938095Y-93177619D01*
D12*
X168582380Y-87490476D02*
X168630000Y-87538095D01*
X168630000Y-87538095D02*
X168677619Y-87680952D01*
X168677619Y-87680952D02*
X168677619Y-87776190D01*
X168677619Y-87776190D02*
X168630000Y-87919047D01*
X168630000Y-87919047D02*
X168534761Y-88014285D01*
X168534761Y-88014285D02*
X168439523Y-88061904D01*
X168439523Y-88061904D02*
X168249047Y-88109523D01*
X168249047Y-88109523D02*
X168106190Y-88109523D01*
X168106190Y-88109523D02*
X167915714Y-88061904D01*
X167915714Y-88061904D02*
X167820476Y-88014285D01*
X167820476Y-88014285D02*
X167725238Y-87919047D01*
X167725238Y-87919047D02*
X167677619Y-87776190D01*
X167677619Y-87776190D02*
X167677619Y-87680952D01*
X167677619Y-87680952D02*
X167725238Y-87538095D01*
X167725238Y-87538095D02*
X167772857Y-87490476D01*
X168391904Y-87109523D02*
X168391904Y-86633333D01*
X168677619Y-87204761D02*
X167677619Y-86871428D01*
X167677619Y-86871428D02*
X168677619Y-86538095D01*
X168677619Y-86204761D02*
X167677619Y-86204761D01*
X167677619Y-86204761D02*
X168391904Y-85871428D01*
X168391904Y-85871428D02*
X167677619Y-85538095D01*
X167677619Y-85538095D02*
X168677619Y-85538095D01*
X168153809Y-85061904D02*
X168153809Y-84728571D01*
X168677619Y-84585714D02*
X168677619Y-85061904D01*
X168677619Y-85061904D02*
X167677619Y-85061904D01*
X167677619Y-85061904D02*
X167677619Y-84585714D01*
X168677619Y-83585714D02*
X168201428Y-83919047D01*
X168677619Y-84157142D02*
X167677619Y-84157142D01*
X167677619Y-84157142D02*
X167677619Y-83776190D01*
X167677619Y-83776190D02*
X167725238Y-83680952D01*
X167725238Y-83680952D02*
X167772857Y-83633333D01*
X167772857Y-83633333D02*
X167868095Y-83585714D01*
X167868095Y-83585714D02*
X168010952Y-83585714D01*
X168010952Y-83585714D02*
X168106190Y-83633333D01*
X168106190Y-83633333D02*
X168153809Y-83680952D01*
X168153809Y-83680952D02*
X168201428Y-83776190D01*
X168201428Y-83776190D02*
X168201428Y-84157142D01*
X168391904Y-83204761D02*
X168391904Y-82728571D01*
X168677619Y-83299999D02*
X167677619Y-82966666D01*
X167677619Y-82966666D02*
X168677619Y-82633333D01*
D10*
X118738095Y-111196666D02*
X119500000Y-111196666D01*
X119119047Y-111577619D02*
X119119047Y-110815714D01*
X120499999Y-111577619D02*
X119928571Y-111577619D01*
X120214285Y-111577619D02*
X120214285Y-110577619D01*
X120214285Y-110577619D02*
X120119047Y-110720476D01*
X120119047Y-110720476D02*
X120023809Y-110815714D01*
X120023809Y-110815714D02*
X119928571Y-110863333D01*
X120880952Y-110672857D02*
X120928571Y-110625238D01*
X120928571Y-110625238D02*
X121023809Y-110577619D01*
X121023809Y-110577619D02*
X121261904Y-110577619D01*
X121261904Y-110577619D02*
X121357142Y-110625238D01*
X121357142Y-110625238D02*
X121404761Y-110672857D01*
X121404761Y-110672857D02*
X121452380Y-110768095D01*
X121452380Y-110768095D02*
X121452380Y-110863333D01*
X121452380Y-110863333D02*
X121404761Y-111006190D01*
X121404761Y-111006190D02*
X120833333Y-111577619D01*
X120833333Y-111577619D02*
X121452380Y-111577619D01*
X121738095Y-110577619D02*
X122071428Y-111577619D01*
X122071428Y-111577619D02*
X122404761Y-110577619D01*
D12*
X164877619Y-122738095D02*
X164877619Y-123309523D01*
X164877619Y-123023809D02*
X163877619Y-123023809D01*
X163877619Y-123023809D02*
X164020476Y-123119047D01*
X164020476Y-123119047D02*
X164115714Y-123214285D01*
X164115714Y-123214285D02*
X164163333Y-123309523D01*
X163877619Y-121880952D02*
X163877619Y-122071428D01*
X163877619Y-122071428D02*
X163925238Y-122166666D01*
X163925238Y-122166666D02*
X163972857Y-122214285D01*
X163972857Y-122214285D02*
X164115714Y-122309523D01*
X164115714Y-122309523D02*
X164306190Y-122357142D01*
X164306190Y-122357142D02*
X164687142Y-122357142D01*
X164687142Y-122357142D02*
X164782380Y-122309523D01*
X164782380Y-122309523D02*
X164830000Y-122261904D01*
X164830000Y-122261904D02*
X164877619Y-122166666D01*
X164877619Y-122166666D02*
X164877619Y-121976190D01*
X164877619Y-121976190D02*
X164830000Y-121880952D01*
X164830000Y-121880952D02*
X164782380Y-121833333D01*
X164782380Y-121833333D02*
X164687142Y-121785714D01*
X164687142Y-121785714D02*
X164449047Y-121785714D01*
X164449047Y-121785714D02*
X164353809Y-121833333D01*
X164353809Y-121833333D02*
X164306190Y-121880952D01*
X164306190Y-121880952D02*
X164258571Y-121976190D01*
X164258571Y-121976190D02*
X164258571Y-122166666D01*
X164258571Y-122166666D02*
X164306190Y-122261904D01*
X164306190Y-122261904D02*
X164353809Y-122309523D01*
X164353809Y-122309523D02*
X164449047Y-122357142D01*
X164877619Y-121357142D02*
X163877619Y-121357142D01*
X164258571Y-121357142D02*
X164210952Y-121261904D01*
X164210952Y-121261904D02*
X164210952Y-121071428D01*
X164210952Y-121071428D02*
X164258571Y-120976190D01*
X164258571Y-120976190D02*
X164306190Y-120928571D01*
X164306190Y-120928571D02*
X164401428Y-120880952D01*
X164401428Y-120880952D02*
X164687142Y-120880952D01*
X164687142Y-120880952D02*
X164782380Y-120928571D01*
X164782380Y-120928571D02*
X164830000Y-120976190D01*
X164830000Y-120976190D02*
X164877619Y-121071428D01*
X164877619Y-121071428D02*
X164877619Y-121261904D01*
X164877619Y-121261904D02*
X164830000Y-121357142D01*
X163830000Y-119738095D02*
X165115714Y-120595237D01*
X164306190Y-119261904D02*
X164258571Y-119357142D01*
X164258571Y-119357142D02*
X164210952Y-119404761D01*
X164210952Y-119404761D02*
X164115714Y-119452380D01*
X164115714Y-119452380D02*
X164068095Y-119452380D01*
X164068095Y-119452380D02*
X163972857Y-119404761D01*
X163972857Y-119404761D02*
X163925238Y-119357142D01*
X163925238Y-119357142D02*
X163877619Y-119261904D01*
X163877619Y-119261904D02*
X163877619Y-119071428D01*
X163877619Y-119071428D02*
X163925238Y-118976190D01*
X163925238Y-118976190D02*
X163972857Y-118928571D01*
X163972857Y-118928571D02*
X164068095Y-118880952D01*
X164068095Y-118880952D02*
X164115714Y-118880952D01*
X164115714Y-118880952D02*
X164210952Y-118928571D01*
X164210952Y-118928571D02*
X164258571Y-118976190D01*
X164258571Y-118976190D02*
X164306190Y-119071428D01*
X164306190Y-119071428D02*
X164306190Y-119261904D01*
X164306190Y-119261904D02*
X164353809Y-119357142D01*
X164353809Y-119357142D02*
X164401428Y-119404761D01*
X164401428Y-119404761D02*
X164496666Y-119452380D01*
X164496666Y-119452380D02*
X164687142Y-119452380D01*
X164687142Y-119452380D02*
X164782380Y-119404761D01*
X164782380Y-119404761D02*
X164830000Y-119357142D01*
X164830000Y-119357142D02*
X164877619Y-119261904D01*
X164877619Y-119261904D02*
X164877619Y-119071428D01*
X164877619Y-119071428D02*
X164830000Y-118976190D01*
X164830000Y-118976190D02*
X164782380Y-118928571D01*
X164782380Y-118928571D02*
X164687142Y-118880952D01*
X164687142Y-118880952D02*
X164496666Y-118880952D01*
X164496666Y-118880952D02*
X164401428Y-118928571D01*
X164401428Y-118928571D02*
X164353809Y-118976190D01*
X164353809Y-118976190D02*
X164306190Y-119071428D01*
X164877619Y-118452380D02*
X163877619Y-118452380D01*
X164258571Y-118452380D02*
X164210952Y-118357142D01*
X164210952Y-118357142D02*
X164210952Y-118166666D01*
X164210952Y-118166666D02*
X164258571Y-118071428D01*
X164258571Y-118071428D02*
X164306190Y-118023809D01*
X164306190Y-118023809D02*
X164401428Y-117976190D01*
X164401428Y-117976190D02*
X164687142Y-117976190D01*
X164687142Y-117976190D02*
X164782380Y-118023809D01*
X164782380Y-118023809D02*
X164830000Y-118071428D01*
X164830000Y-118071428D02*
X164877619Y-118166666D01*
X164877619Y-118166666D02*
X164877619Y-118357142D01*
X164877619Y-118357142D02*
X164830000Y-118452380D01*
X154777619Y-107976190D02*
X155491904Y-107976190D01*
X155491904Y-107976190D02*
X155634761Y-108023809D01*
X155634761Y-108023809D02*
X155730000Y-108119047D01*
X155730000Y-108119047D02*
X155777619Y-108261904D01*
X155777619Y-108261904D02*
X155777619Y-108357142D01*
X154777619Y-107642856D02*
X154777619Y-107071428D01*
X155777619Y-107357142D02*
X154777619Y-107357142D01*
X155491904Y-106785713D02*
X155491904Y-106309523D01*
X155777619Y-106880951D02*
X154777619Y-106547618D01*
X154777619Y-106547618D02*
X155777619Y-106214285D01*
X154825238Y-105357142D02*
X154777619Y-105452380D01*
X154777619Y-105452380D02*
X154777619Y-105595237D01*
X154777619Y-105595237D02*
X154825238Y-105738094D01*
X154825238Y-105738094D02*
X154920476Y-105833332D01*
X154920476Y-105833332D02*
X155015714Y-105880951D01*
X155015714Y-105880951D02*
X155206190Y-105928570D01*
X155206190Y-105928570D02*
X155349047Y-105928570D01*
X155349047Y-105928570D02*
X155539523Y-105880951D01*
X155539523Y-105880951D02*
X155634761Y-105833332D01*
X155634761Y-105833332D02*
X155730000Y-105738094D01*
X155730000Y-105738094D02*
X155777619Y-105595237D01*
X155777619Y-105595237D02*
X155777619Y-105499999D01*
X155777619Y-105499999D02*
X155730000Y-105357142D01*
X155730000Y-105357142D02*
X155682380Y-105309523D01*
X155682380Y-105309523D02*
X155349047Y-105309523D01*
X155349047Y-105309523D02*
X155349047Y-105499999D01*
D10*
X142677619Y-92661904D02*
X141677619Y-92661904D01*
X141677619Y-92661904D02*
X142391904Y-92328571D01*
X142391904Y-92328571D02*
X141677619Y-91995238D01*
X141677619Y-91995238D02*
X142677619Y-91995238D01*
X141677619Y-91328571D02*
X141677619Y-91138095D01*
X141677619Y-91138095D02*
X141725238Y-91042857D01*
X141725238Y-91042857D02*
X141820476Y-90947619D01*
X141820476Y-90947619D02*
X142010952Y-90900000D01*
X142010952Y-90900000D02*
X142344285Y-90900000D01*
X142344285Y-90900000D02*
X142534761Y-90947619D01*
X142534761Y-90947619D02*
X142630000Y-91042857D01*
X142630000Y-91042857D02*
X142677619Y-91138095D01*
X142677619Y-91138095D02*
X142677619Y-91328571D01*
X142677619Y-91328571D02*
X142630000Y-91423809D01*
X142630000Y-91423809D02*
X142534761Y-91519047D01*
X142534761Y-91519047D02*
X142344285Y-91566666D01*
X142344285Y-91566666D02*
X142010952Y-91566666D01*
X142010952Y-91566666D02*
X141820476Y-91519047D01*
X141820476Y-91519047D02*
X141725238Y-91423809D01*
X141725238Y-91423809D02*
X141677619Y-91328571D01*
X141677619Y-90614285D02*
X141677619Y-90042857D01*
X142677619Y-90328571D02*
X141677619Y-90328571D01*
X141677619Y-89519047D02*
X141677619Y-89328571D01*
X141677619Y-89328571D02*
X141725238Y-89233333D01*
X141725238Y-89233333D02*
X141820476Y-89138095D01*
X141820476Y-89138095D02*
X142010952Y-89090476D01*
X142010952Y-89090476D02*
X142344285Y-89090476D01*
X142344285Y-89090476D02*
X142534761Y-89138095D01*
X142534761Y-89138095D02*
X142630000Y-89233333D01*
X142630000Y-89233333D02*
X142677619Y-89328571D01*
X142677619Y-89328571D02*
X142677619Y-89519047D01*
X142677619Y-89519047D02*
X142630000Y-89614285D01*
X142630000Y-89614285D02*
X142534761Y-89709523D01*
X142534761Y-89709523D02*
X142344285Y-89757142D01*
X142344285Y-89757142D02*
X142010952Y-89757142D01*
X142010952Y-89757142D02*
X141820476Y-89709523D01*
X141820476Y-89709523D02*
X141725238Y-89614285D01*
X141725238Y-89614285D02*
X141677619Y-89519047D01*
X142677619Y-88090476D02*
X142201428Y-88423809D01*
X142677619Y-88661904D02*
X141677619Y-88661904D01*
X141677619Y-88661904D02*
X141677619Y-88280952D01*
X141677619Y-88280952D02*
X141725238Y-88185714D01*
X141725238Y-88185714D02*
X141772857Y-88138095D01*
X141772857Y-88138095D02*
X141868095Y-88090476D01*
X141868095Y-88090476D02*
X142010952Y-88090476D01*
X142010952Y-88090476D02*
X142106190Y-88138095D01*
X142106190Y-88138095D02*
X142153809Y-88185714D01*
X142153809Y-88185714D02*
X142201428Y-88280952D01*
X142201428Y-88280952D02*
X142201428Y-88661904D01*
D12*
X151857619Y-105661904D02*
X150857619Y-105661904D01*
X150857619Y-105661904D02*
X151571904Y-105328571D01*
X151571904Y-105328571D02*
X150857619Y-104995238D01*
X150857619Y-104995238D02*
X151857619Y-104995238D01*
X151857619Y-104519047D02*
X150857619Y-104519047D01*
X151762380Y-103471429D02*
X151810000Y-103519048D01*
X151810000Y-103519048D02*
X151857619Y-103661905D01*
X151857619Y-103661905D02*
X151857619Y-103757143D01*
X151857619Y-103757143D02*
X151810000Y-103900000D01*
X151810000Y-103900000D02*
X151714761Y-103995238D01*
X151714761Y-103995238D02*
X151619523Y-104042857D01*
X151619523Y-104042857D02*
X151429047Y-104090476D01*
X151429047Y-104090476D02*
X151286190Y-104090476D01*
X151286190Y-104090476D02*
X151095714Y-104042857D01*
X151095714Y-104042857D02*
X151000476Y-103995238D01*
X151000476Y-103995238D02*
X150905238Y-103900000D01*
X150905238Y-103900000D02*
X150857619Y-103757143D01*
X150857619Y-103757143D02*
X150857619Y-103661905D01*
X150857619Y-103661905D02*
X150905238Y-103519048D01*
X150905238Y-103519048D02*
X150952857Y-103471429D01*
X151857619Y-102471429D02*
X151381428Y-102804762D01*
X151857619Y-103042857D02*
X150857619Y-103042857D01*
X150857619Y-103042857D02*
X150857619Y-102661905D01*
X150857619Y-102661905D02*
X150905238Y-102566667D01*
X150905238Y-102566667D02*
X150952857Y-102519048D01*
X150952857Y-102519048D02*
X151048095Y-102471429D01*
X151048095Y-102471429D02*
X151190952Y-102471429D01*
X151190952Y-102471429D02*
X151286190Y-102519048D01*
X151286190Y-102519048D02*
X151333809Y-102566667D01*
X151333809Y-102566667D02*
X151381428Y-102661905D01*
X151381428Y-102661905D02*
X151381428Y-103042857D01*
X150857619Y-101852381D02*
X150857619Y-101661905D01*
X150857619Y-101661905D02*
X150905238Y-101566667D01*
X150905238Y-101566667D02*
X151000476Y-101471429D01*
X151000476Y-101471429D02*
X151190952Y-101423810D01*
X151190952Y-101423810D02*
X151524285Y-101423810D01*
X151524285Y-101423810D02*
X151714761Y-101471429D01*
X151714761Y-101471429D02*
X151810000Y-101566667D01*
X151810000Y-101566667D02*
X151857619Y-101661905D01*
X151857619Y-101661905D02*
X151857619Y-101852381D01*
X151857619Y-101852381D02*
X151810000Y-101947619D01*
X151810000Y-101947619D02*
X151714761Y-102042857D01*
X151714761Y-102042857D02*
X151524285Y-102090476D01*
X151524285Y-102090476D02*
X151190952Y-102090476D01*
X151190952Y-102090476D02*
X151000476Y-102042857D01*
X151000476Y-102042857D02*
X150905238Y-101947619D01*
X150905238Y-101947619D02*
X150857619Y-101852381D01*
X151810000Y-101042857D02*
X151857619Y-100900000D01*
X151857619Y-100900000D02*
X151857619Y-100661905D01*
X151857619Y-100661905D02*
X151810000Y-100566667D01*
X151810000Y-100566667D02*
X151762380Y-100519048D01*
X151762380Y-100519048D02*
X151667142Y-100471429D01*
X151667142Y-100471429D02*
X151571904Y-100471429D01*
X151571904Y-100471429D02*
X151476666Y-100519048D01*
X151476666Y-100519048D02*
X151429047Y-100566667D01*
X151429047Y-100566667D02*
X151381428Y-100661905D01*
X151381428Y-100661905D02*
X151333809Y-100852381D01*
X151333809Y-100852381D02*
X151286190Y-100947619D01*
X151286190Y-100947619D02*
X151238571Y-100995238D01*
X151238571Y-100995238D02*
X151143333Y-101042857D01*
X151143333Y-101042857D02*
X151048095Y-101042857D01*
X151048095Y-101042857D02*
X150952857Y-100995238D01*
X150952857Y-100995238D02*
X150905238Y-100947619D01*
X150905238Y-100947619D02*
X150857619Y-100852381D01*
X150857619Y-100852381D02*
X150857619Y-100614286D01*
X150857619Y-100614286D02*
X150905238Y-100471429D01*
X150857619Y-100185714D02*
X150857619Y-99614286D01*
X151857619Y-99900000D02*
X150857619Y-99900000D01*
X151333809Y-99280952D02*
X151333809Y-98947619D01*
X151857619Y-98804762D02*
X151857619Y-99280952D01*
X151857619Y-99280952D02*
X150857619Y-99280952D01*
X150857619Y-99280952D02*
X150857619Y-98804762D01*
X151857619Y-98376190D02*
X150857619Y-98376190D01*
X150857619Y-98376190D02*
X150857619Y-97995238D01*
X150857619Y-97995238D02*
X150905238Y-97900000D01*
X150905238Y-97900000D02*
X150952857Y-97852381D01*
X150952857Y-97852381D02*
X151048095Y-97804762D01*
X151048095Y-97804762D02*
X151190952Y-97804762D01*
X151190952Y-97804762D02*
X151286190Y-97852381D01*
X151286190Y-97852381D02*
X151333809Y-97900000D01*
X151333809Y-97900000D02*
X151381428Y-97995238D01*
X151381428Y-97995238D02*
X151381428Y-98376190D01*
X153477619Y-105661904D02*
X152477619Y-105661904D01*
X152477619Y-105661904D02*
X153191904Y-105328571D01*
X153191904Y-105328571D02*
X152477619Y-104995238D01*
X152477619Y-104995238D02*
X153477619Y-104995238D01*
X152477619Y-104328571D02*
X152477619Y-104138095D01*
X152477619Y-104138095D02*
X152525238Y-104042857D01*
X152525238Y-104042857D02*
X152620476Y-103947619D01*
X152620476Y-103947619D02*
X152810952Y-103900000D01*
X152810952Y-103900000D02*
X153144285Y-103900000D01*
X153144285Y-103900000D02*
X153334761Y-103947619D01*
X153334761Y-103947619D02*
X153430000Y-104042857D01*
X153430000Y-104042857D02*
X153477619Y-104138095D01*
X153477619Y-104138095D02*
X153477619Y-104328571D01*
X153477619Y-104328571D02*
X153430000Y-104423809D01*
X153430000Y-104423809D02*
X153334761Y-104519047D01*
X153334761Y-104519047D02*
X153144285Y-104566666D01*
X153144285Y-104566666D02*
X152810952Y-104566666D01*
X152810952Y-104566666D02*
X152620476Y-104519047D01*
X152620476Y-104519047D02*
X152525238Y-104423809D01*
X152525238Y-104423809D02*
X152477619Y-104328571D01*
X153477619Y-103471428D02*
X152477619Y-103471428D01*
X152477619Y-103471428D02*
X152477619Y-103233333D01*
X152477619Y-103233333D02*
X152525238Y-103090476D01*
X152525238Y-103090476D02*
X152620476Y-102995238D01*
X152620476Y-102995238D02*
X152715714Y-102947619D01*
X152715714Y-102947619D02*
X152906190Y-102900000D01*
X152906190Y-102900000D02*
X153049047Y-102900000D01*
X153049047Y-102900000D02*
X153239523Y-102947619D01*
X153239523Y-102947619D02*
X153334761Y-102995238D01*
X153334761Y-102995238D02*
X153430000Y-103090476D01*
X153430000Y-103090476D02*
X153477619Y-103233333D01*
X153477619Y-103233333D02*
X153477619Y-103471428D01*
X152953809Y-102471428D02*
X152953809Y-102138095D01*
X153477619Y-101995238D02*
X153477619Y-102471428D01*
X153477619Y-102471428D02*
X152477619Y-102471428D01*
X152477619Y-102471428D02*
X152477619Y-101995238D01*
X157861904Y-129225238D02*
X157766666Y-129177619D01*
X157766666Y-129177619D02*
X157623809Y-129177619D01*
X157623809Y-129177619D02*
X157480952Y-129225238D01*
X157480952Y-129225238D02*
X157385714Y-129320476D01*
X157385714Y-129320476D02*
X157338095Y-129415714D01*
X157338095Y-129415714D02*
X157290476Y-129606190D01*
X157290476Y-129606190D02*
X157290476Y-129749047D01*
X157290476Y-129749047D02*
X157338095Y-129939523D01*
X157338095Y-129939523D02*
X157385714Y-130034761D01*
X157385714Y-130034761D02*
X157480952Y-130130000D01*
X157480952Y-130130000D02*
X157623809Y-130177619D01*
X157623809Y-130177619D02*
X157719047Y-130177619D01*
X157719047Y-130177619D02*
X157861904Y-130130000D01*
X157861904Y-130130000D02*
X157909523Y-130082380D01*
X157909523Y-130082380D02*
X157909523Y-129749047D01*
X157909523Y-129749047D02*
X157719047Y-129749047D01*
X158338095Y-130177619D02*
X158338095Y-129177619D01*
X158338095Y-129177619D02*
X158719047Y-129177619D01*
X158719047Y-129177619D02*
X158814285Y-129225238D01*
X158814285Y-129225238D02*
X158861904Y-129272857D01*
X158861904Y-129272857D02*
X158909523Y-129368095D01*
X158909523Y-129368095D02*
X158909523Y-129510952D01*
X158909523Y-129510952D02*
X158861904Y-129606190D01*
X158861904Y-129606190D02*
X158814285Y-129653809D01*
X158814285Y-129653809D02*
X158719047Y-129701428D01*
X158719047Y-129701428D02*
X158338095Y-129701428D01*
X159338095Y-130177619D02*
X159338095Y-129177619D01*
X160004761Y-129177619D02*
X160195237Y-129177619D01*
X160195237Y-129177619D02*
X160290475Y-129225238D01*
X160290475Y-129225238D02*
X160385713Y-129320476D01*
X160385713Y-129320476D02*
X160433332Y-129510952D01*
X160433332Y-129510952D02*
X160433332Y-129844285D01*
X160433332Y-129844285D02*
X160385713Y-130034761D01*
X160385713Y-130034761D02*
X160290475Y-130130000D01*
X160290475Y-130130000D02*
X160195237Y-130177619D01*
X160195237Y-130177619D02*
X160004761Y-130177619D01*
X160004761Y-130177619D02*
X159909523Y-130130000D01*
X159909523Y-130130000D02*
X159814285Y-130034761D01*
X159814285Y-130034761D02*
X159766666Y-129844285D01*
X159766666Y-129844285D02*
X159766666Y-129510952D01*
X159766666Y-129510952D02*
X159814285Y-129320476D01*
X159814285Y-129320476D02*
X159909523Y-129225238D01*
X159909523Y-129225238D02*
X160004761Y-129177619D01*
X161385713Y-130177619D02*
X160814285Y-130177619D01*
X161099999Y-130177619D02*
X161099999Y-129177619D01*
X161099999Y-129177619D02*
X161004761Y-129320476D01*
X161004761Y-129320476D02*
X160909523Y-129415714D01*
X160909523Y-129415714D02*
X160814285Y-129463333D01*
D13*
X101783571Y-121914285D02*
X101783571Y-122842857D01*
X101783571Y-122842857D02*
X101212142Y-122342857D01*
X101212142Y-122342857D02*
X101212142Y-122557142D01*
X101212142Y-122557142D02*
X101140714Y-122700000D01*
X101140714Y-122700000D02*
X101069285Y-122771428D01*
X101069285Y-122771428D02*
X100926428Y-122842857D01*
X100926428Y-122842857D02*
X100569285Y-122842857D01*
X100569285Y-122842857D02*
X100426428Y-122771428D01*
X100426428Y-122771428D02*
X100355000Y-122700000D01*
X100355000Y-122700000D02*
X100283571Y-122557142D01*
X100283571Y-122557142D02*
X100283571Y-122128571D01*
X100283571Y-122128571D02*
X100355000Y-121985714D01*
X100355000Y-121985714D02*
X100426428Y-121914285D01*
X100283571Y-124271428D02*
X100283571Y-123414285D01*
X100283571Y-123842856D02*
X101783571Y-123842856D01*
X101783571Y-123842856D02*
X101569285Y-123699999D01*
X101569285Y-123699999D02*
X101426428Y-123557142D01*
X101426428Y-123557142D02*
X101355000Y-123414285D01*
X100426428Y-124914284D02*
X100355000Y-124985713D01*
X100355000Y-124985713D02*
X100283571Y-124914284D01*
X100283571Y-124914284D02*
X100355000Y-124842856D01*
X100355000Y-124842856D02*
X100426428Y-124914284D01*
X100426428Y-124914284D02*
X100283571Y-124914284D01*
X101783571Y-125914285D02*
X101783571Y-126057142D01*
X101783571Y-126057142D02*
X101712142Y-126199999D01*
X101712142Y-126199999D02*
X101640714Y-126271428D01*
X101640714Y-126271428D02*
X101497857Y-126342856D01*
X101497857Y-126342856D02*
X101212142Y-126414285D01*
X101212142Y-126414285D02*
X100855000Y-126414285D01*
X100855000Y-126414285D02*
X100569285Y-126342856D01*
X100569285Y-126342856D02*
X100426428Y-126271428D01*
X100426428Y-126271428D02*
X100355000Y-126199999D01*
X100355000Y-126199999D02*
X100283571Y-126057142D01*
X100283571Y-126057142D02*
X100283571Y-125914285D01*
X100283571Y-125914285D02*
X100355000Y-125771428D01*
X100355000Y-125771428D02*
X100426428Y-125699999D01*
X100426428Y-125699999D02*
X100569285Y-125628570D01*
X100569285Y-125628570D02*
X100855000Y-125557142D01*
X100855000Y-125557142D02*
X101212142Y-125557142D01*
X101212142Y-125557142D02*
X101497857Y-125628570D01*
X101497857Y-125628570D02*
X101640714Y-125699999D01*
X101640714Y-125699999D02*
X101712142Y-125771428D01*
X101712142Y-125771428D02*
X101783571Y-125914285D01*
X101783571Y-127771427D02*
X101783571Y-127057141D01*
X101783571Y-127057141D02*
X101069285Y-126985713D01*
X101069285Y-126985713D02*
X101140714Y-127057141D01*
X101140714Y-127057141D02*
X101212142Y-127199999D01*
X101212142Y-127199999D02*
X101212142Y-127557141D01*
X101212142Y-127557141D02*
X101140714Y-127699999D01*
X101140714Y-127699999D02*
X101069285Y-127771427D01*
X101069285Y-127771427D02*
X100926428Y-127842856D01*
X100926428Y-127842856D02*
X100569285Y-127842856D01*
X100569285Y-127842856D02*
X100426428Y-127771427D01*
X100426428Y-127771427D02*
X100355000Y-127699999D01*
X100355000Y-127699999D02*
X100283571Y-127557141D01*
X100283571Y-127557141D02*
X100283571Y-127199999D01*
X100283571Y-127199999D02*
X100355000Y-127057141D01*
X100355000Y-127057141D02*
X100426428Y-126985713D01*
X100426428Y-128485712D02*
X100355000Y-128557141D01*
X100355000Y-128557141D02*
X100283571Y-128485712D01*
X100283571Y-128485712D02*
X100355000Y-128414284D01*
X100355000Y-128414284D02*
X100426428Y-128485712D01*
X100426428Y-128485712D02*
X100283571Y-128485712D01*
X101640714Y-129128570D02*
X101712142Y-129199998D01*
X101712142Y-129199998D02*
X101783571Y-129342856D01*
X101783571Y-129342856D02*
X101783571Y-129699998D01*
X101783571Y-129699998D02*
X101712142Y-129842856D01*
X101712142Y-129842856D02*
X101640714Y-129914284D01*
X101640714Y-129914284D02*
X101497857Y-129985713D01*
X101497857Y-129985713D02*
X101355000Y-129985713D01*
X101355000Y-129985713D02*
X101140714Y-129914284D01*
X101140714Y-129914284D02*
X100283571Y-129057141D01*
X100283571Y-129057141D02*
X100283571Y-129985713D01*
X101783571Y-130485712D02*
X101783571Y-131414284D01*
X101783571Y-131414284D02*
X101212142Y-130914284D01*
X101212142Y-130914284D02*
X101212142Y-131128569D01*
X101212142Y-131128569D02*
X101140714Y-131271427D01*
X101140714Y-131271427D02*
X101069285Y-131342855D01*
X101069285Y-131342855D02*
X100926428Y-131414284D01*
X100926428Y-131414284D02*
X100569285Y-131414284D01*
X100569285Y-131414284D02*
X100426428Y-131342855D01*
X100426428Y-131342855D02*
X100355000Y-131271427D01*
X100355000Y-131271427D02*
X100283571Y-131128569D01*
X100283571Y-131128569D02*
X100283571Y-130699998D01*
X100283571Y-130699998D02*
X100355000Y-130557141D01*
X100355000Y-130557141D02*
X100426428Y-130485712D01*
X100283571Y-133199997D02*
X101783571Y-133199997D01*
X101783571Y-133199997D02*
X100712142Y-133699997D01*
X100712142Y-133699997D02*
X101783571Y-134199997D01*
X101783571Y-134199997D02*
X100283571Y-134199997D01*
X100283571Y-134914283D02*
X101783571Y-134914283D01*
X101783571Y-134914283D02*
X100712142Y-135414283D01*
X100712142Y-135414283D02*
X101783571Y-135914283D01*
X101783571Y-135914283D02*
X100283571Y-135914283D01*
D12*
X134377619Y-99761904D02*
X133377619Y-99761904D01*
X133377619Y-99761904D02*
X134091904Y-99428571D01*
X134091904Y-99428571D02*
X133377619Y-99095238D01*
X133377619Y-99095238D02*
X134377619Y-99095238D01*
X133377619Y-98428571D02*
X133377619Y-98238095D01*
X133377619Y-98238095D02*
X133425238Y-98142857D01*
X133425238Y-98142857D02*
X133520476Y-98047619D01*
X133520476Y-98047619D02*
X133710952Y-98000000D01*
X133710952Y-98000000D02*
X134044285Y-98000000D01*
X134044285Y-98000000D02*
X134234761Y-98047619D01*
X134234761Y-98047619D02*
X134330000Y-98142857D01*
X134330000Y-98142857D02*
X134377619Y-98238095D01*
X134377619Y-98238095D02*
X134377619Y-98428571D01*
X134377619Y-98428571D02*
X134330000Y-98523809D01*
X134330000Y-98523809D02*
X134234761Y-98619047D01*
X134234761Y-98619047D02*
X134044285Y-98666666D01*
X134044285Y-98666666D02*
X133710952Y-98666666D01*
X133710952Y-98666666D02*
X133520476Y-98619047D01*
X133520476Y-98619047D02*
X133425238Y-98523809D01*
X133425238Y-98523809D02*
X133377619Y-98428571D01*
X133377619Y-97714285D02*
X133377619Y-97142857D01*
X134377619Y-97428571D02*
X133377619Y-97428571D01*
X133377619Y-96619047D02*
X133377619Y-96428571D01*
X133377619Y-96428571D02*
X133425238Y-96333333D01*
X133425238Y-96333333D02*
X133520476Y-96238095D01*
X133520476Y-96238095D02*
X133710952Y-96190476D01*
X133710952Y-96190476D02*
X134044285Y-96190476D01*
X134044285Y-96190476D02*
X134234761Y-96238095D01*
X134234761Y-96238095D02*
X134330000Y-96333333D01*
X134330000Y-96333333D02*
X134377619Y-96428571D01*
X134377619Y-96428571D02*
X134377619Y-96619047D01*
X134377619Y-96619047D02*
X134330000Y-96714285D01*
X134330000Y-96714285D02*
X134234761Y-96809523D01*
X134234761Y-96809523D02*
X134044285Y-96857142D01*
X134044285Y-96857142D02*
X133710952Y-96857142D01*
X133710952Y-96857142D02*
X133520476Y-96809523D01*
X133520476Y-96809523D02*
X133425238Y-96714285D01*
X133425238Y-96714285D02*
X133377619Y-96619047D01*
X134377619Y-95190476D02*
X133901428Y-95523809D01*
X134377619Y-95761904D02*
X133377619Y-95761904D01*
X133377619Y-95761904D02*
X133377619Y-95380952D01*
X133377619Y-95380952D02*
X133425238Y-95285714D01*
X133425238Y-95285714D02*
X133472857Y-95238095D01*
X133472857Y-95238095D02*
X133568095Y-95190476D01*
X133568095Y-95190476D02*
X133710952Y-95190476D01*
X133710952Y-95190476D02*
X133806190Y-95238095D01*
X133806190Y-95238095D02*
X133853809Y-95285714D01*
X133853809Y-95285714D02*
X133901428Y-95380952D01*
X133901428Y-95380952D02*
X133901428Y-95761904D01*
X134282380Y-94761904D02*
X134330000Y-94714285D01*
X134330000Y-94714285D02*
X134377619Y-94761904D01*
X134377619Y-94761904D02*
X134330000Y-94809523D01*
X134330000Y-94809523D02*
X134282380Y-94761904D01*
X134282380Y-94761904D02*
X134377619Y-94761904D01*
X134282380Y-93714286D02*
X134330000Y-93761905D01*
X134330000Y-93761905D02*
X134377619Y-93904762D01*
X134377619Y-93904762D02*
X134377619Y-94000000D01*
X134377619Y-94000000D02*
X134330000Y-94142857D01*
X134330000Y-94142857D02*
X134234761Y-94238095D01*
X134234761Y-94238095D02*
X134139523Y-94285714D01*
X134139523Y-94285714D02*
X133949047Y-94333333D01*
X133949047Y-94333333D02*
X133806190Y-94333333D01*
X133806190Y-94333333D02*
X133615714Y-94285714D01*
X133615714Y-94285714D02*
X133520476Y-94238095D01*
X133520476Y-94238095D02*
X133425238Y-94142857D01*
X133425238Y-94142857D02*
X133377619Y-94000000D01*
X133377619Y-94000000D02*
X133377619Y-93904762D01*
X133377619Y-93904762D02*
X133425238Y-93761905D01*
X133425238Y-93761905D02*
X133472857Y-93714286D01*
X133377619Y-93285714D02*
X134187142Y-93285714D01*
X134187142Y-93285714D02*
X134282380Y-93238095D01*
X134282380Y-93238095D02*
X134330000Y-93190476D01*
X134330000Y-93190476D02*
X134377619Y-93095238D01*
X134377619Y-93095238D02*
X134377619Y-92904762D01*
X134377619Y-92904762D02*
X134330000Y-92809524D01*
X134330000Y-92809524D02*
X134282380Y-92761905D01*
X134282380Y-92761905D02*
X134187142Y-92714286D01*
X134187142Y-92714286D02*
X133377619Y-92714286D01*
X134377619Y-91666667D02*
X133901428Y-92000000D01*
X134377619Y-92238095D02*
X133377619Y-92238095D01*
X133377619Y-92238095D02*
X133377619Y-91857143D01*
X133377619Y-91857143D02*
X133425238Y-91761905D01*
X133425238Y-91761905D02*
X133472857Y-91714286D01*
X133472857Y-91714286D02*
X133568095Y-91666667D01*
X133568095Y-91666667D02*
X133710952Y-91666667D01*
X133710952Y-91666667D02*
X133806190Y-91714286D01*
X133806190Y-91714286D02*
X133853809Y-91761905D01*
X133853809Y-91761905D02*
X133901428Y-91857143D01*
X133901428Y-91857143D02*
X133901428Y-92238095D01*
X134377619Y-90666667D02*
X133901428Y-91000000D01*
X134377619Y-91238095D02*
X133377619Y-91238095D01*
X133377619Y-91238095D02*
X133377619Y-90857143D01*
X133377619Y-90857143D02*
X133425238Y-90761905D01*
X133425238Y-90761905D02*
X133472857Y-90714286D01*
X133472857Y-90714286D02*
X133568095Y-90666667D01*
X133568095Y-90666667D02*
X133710952Y-90666667D01*
X133710952Y-90666667D02*
X133806190Y-90714286D01*
X133806190Y-90714286D02*
X133853809Y-90761905D01*
X133853809Y-90761905D02*
X133901428Y-90857143D01*
X133901428Y-90857143D02*
X133901428Y-91238095D01*
X155938095Y-115096666D02*
X156700000Y-115096666D01*
X156319047Y-115477619D02*
X156319047Y-114715714D01*
X157080952Y-114477619D02*
X157699999Y-114477619D01*
X157699999Y-114477619D02*
X157366666Y-114858571D01*
X157366666Y-114858571D02*
X157509523Y-114858571D01*
X157509523Y-114858571D02*
X157604761Y-114906190D01*
X157604761Y-114906190D02*
X157652380Y-114953809D01*
X157652380Y-114953809D02*
X157699999Y-115049047D01*
X157699999Y-115049047D02*
X157699999Y-115287142D01*
X157699999Y-115287142D02*
X157652380Y-115382380D01*
X157652380Y-115382380D02*
X157604761Y-115430000D01*
X157604761Y-115430000D02*
X157509523Y-115477619D01*
X157509523Y-115477619D02*
X157223809Y-115477619D01*
X157223809Y-115477619D02*
X157128571Y-115430000D01*
X157128571Y-115430000D02*
X157080952Y-115382380D01*
X158176190Y-115430000D02*
X158176190Y-115477619D01*
X158176190Y-115477619D02*
X158128571Y-115572857D01*
X158128571Y-115572857D02*
X158080952Y-115620476D01*
X158509523Y-114477619D02*
X159128570Y-114477619D01*
X159128570Y-114477619D02*
X158795237Y-114858571D01*
X158795237Y-114858571D02*
X158938094Y-114858571D01*
X158938094Y-114858571D02*
X159033332Y-114906190D01*
X159033332Y-114906190D02*
X159080951Y-114953809D01*
X159080951Y-114953809D02*
X159128570Y-115049047D01*
X159128570Y-115049047D02*
X159128570Y-115287142D01*
X159128570Y-115287142D02*
X159080951Y-115382380D01*
X159080951Y-115382380D02*
X159033332Y-115430000D01*
X159033332Y-115430000D02*
X158938094Y-115477619D01*
X158938094Y-115477619D02*
X158652380Y-115477619D01*
X158652380Y-115477619D02*
X158557142Y-115430000D01*
X158557142Y-115430000D02*
X158509523Y-115382380D01*
X159414285Y-114477619D02*
X159747618Y-115477619D01*
X159747618Y-115477619D02*
X160080951Y-114477619D01*
D14*
%TO.C,D5*%
X130550000Y-104090000D02*
X126140000Y-104090000D01*
X126140000Y-104090000D02*
X126140000Y-106310000D01*
X126140000Y-106310000D02*
X130550000Y-106310000D01*
%TO.C,RV1*%
X133130000Y-90755000D02*
X128060000Y-90755000D01*
X133130000Y-90755000D02*
X133130000Y-100525000D01*
X128060000Y-90755000D02*
X128060000Y-100525000D01*
X133130000Y-100525000D02*
X128060000Y-100525000D01*
%TO.C,R20*%
X146627064Y-112935000D02*
X146172936Y-112935000D01*
X146627064Y-111465000D02*
X146172936Y-111465000D01*
%TO.C,R19*%
X107765000Y-91527064D02*
X107765000Y-91072936D01*
X109235000Y-91527064D02*
X109235000Y-91072936D01*
%TO.C,Q5*%
X119750000Y-93890000D02*
X119480000Y-93890000D01*
X119480000Y-93890000D02*
X119480000Y-91060000D01*
X113120000Y-93890000D02*
X113120000Y-92790000D01*
X112850000Y-93890000D02*
X113120000Y-93890000D01*
X119750000Y-100310000D02*
X119750000Y-93890000D01*
X112850000Y-100310000D02*
X112850000Y-93890000D01*
%TO.C,R30*%
X181227064Y-120035000D02*
X180772936Y-120035000D01*
X181227064Y-118565000D02*
X180772936Y-118565000D01*
%TO.C,R17*%
X114977064Y-89110000D02*
X110622936Y-89110000D01*
X114977064Y-85690000D02*
X110622936Y-85690000D01*
%TO.C,U4*%
X185100000Y-98200000D02*
X184700000Y-98200000D01*
X166850000Y-98200000D02*
X166100000Y-98200000D01*
X166100000Y-98200000D02*
X166100000Y-98950000D01*
X166100000Y-98950000D02*
X166100000Y-100700000D01*
X166100000Y-115450000D02*
X166100000Y-113700000D01*
X185100000Y-116200000D02*
X185100000Y-98200000D01*
X185100000Y-116200000D02*
X184700000Y-116200000D01*
X166850000Y-116200000D02*
X166100000Y-116200000D01*
X166100000Y-116200000D02*
X166100000Y-115450000D01*
%TO.C,R38*%
X141372936Y-102365000D02*
X141827064Y-102365000D01*
X141372936Y-103835000D02*
X141827064Y-103835000D01*
%TO.C,R36*%
X144672936Y-88190000D02*
X146127064Y-88190000D01*
X144672936Y-90010000D02*
X146127064Y-90010000D01*
%TO.C,R6*%
X118565000Y-104327064D02*
X118565000Y-103872936D01*
X120035000Y-104327064D02*
X120035000Y-103872936D01*
%TO.C,JP4*%
X150600000Y-101500000D02*
X150600000Y-102100000D01*
X149900000Y-102800000D02*
X148500000Y-102800000D01*
X148500000Y-100800000D02*
X149900000Y-100800000D01*
X147800000Y-102100000D02*
X147800000Y-101500000D01*
X149900000Y-102800000D02*
G75*
G03*
X150600000Y-102100000I1J699999D01*
G01*
X150600000Y-101500000D02*
G75*
G03*
X149900000Y-100800000I-699999J1D01*
G01*
X147800000Y-102100000D02*
G75*
G03*
X148500000Y-102800000I700000J0D01*
G01*
X148500000Y-100800000D02*
G75*
G03*
X147800000Y-101500000I0J-700000D01*
G01*
%TO.C,Q8*%
X171000000Y-87940000D02*
X169325000Y-87940000D01*
X171000000Y-87940000D02*
X171650000Y-87940000D01*
X171000000Y-91060000D02*
X170350000Y-91060000D01*
X171000000Y-91060000D02*
X171650000Y-91060000D01*
%TO.C,C25*%
X136138748Y-90865000D02*
X136661252Y-90865000D01*
X136138748Y-92335000D02*
X136661252Y-92335000D01*
%TO.C,R14*%
X101365000Y-91527064D02*
X101365000Y-91072936D01*
X102835000Y-91527064D02*
X102835000Y-91072936D01*
%TO.C,C16*%
X104365000Y-123561252D02*
X104365000Y-123038748D01*
X105835000Y-123561252D02*
X105835000Y-123038748D01*
%TO.C,R41*%
X171365000Y-95527064D02*
X171365000Y-95072936D01*
X172835000Y-95527064D02*
X172835000Y-95072936D01*
%TO.C,C20*%
X117211252Y-113610000D02*
X115788748Y-113610000D01*
X117211252Y-111790000D02*
X115788748Y-111790000D01*
%TO.C,C19*%
X121979646Y-121975000D02*
X120979646Y-121975000D01*
X121479646Y-122475000D02*
X121479646Y-121475000D01*
X116500000Y-124180000D02*
X116500000Y-114020000D01*
X116460000Y-124180000D02*
X116460000Y-114020000D01*
X116420000Y-124180000D02*
X116420000Y-114020000D01*
X116380000Y-124179000D02*
X116380000Y-114021000D01*
X116340000Y-124178000D02*
X116340000Y-114022000D01*
X116300000Y-124177000D02*
X116300000Y-114023000D01*
X116260000Y-124175000D02*
X116260000Y-114025000D01*
X116220000Y-124173000D02*
X116220000Y-114027000D01*
X116180000Y-124170000D02*
X116180000Y-114030000D01*
X116140000Y-124168000D02*
X116140000Y-114032000D01*
X116100000Y-124165000D02*
X116100000Y-114035000D01*
X116060000Y-124162000D02*
X116060000Y-114038000D01*
X116020000Y-124158000D02*
X116020000Y-114042000D01*
X115980000Y-124154000D02*
X115980000Y-114046000D01*
X115940000Y-124150000D02*
X115940000Y-114050000D01*
X115900000Y-124145000D02*
X115900000Y-114055000D01*
X115860000Y-124140000D02*
X115860000Y-114060000D01*
X115820000Y-124135000D02*
X115820000Y-114065000D01*
X115779000Y-124130000D02*
X115779000Y-114070000D01*
X115739000Y-124124000D02*
X115739000Y-114076000D01*
X115699000Y-124118000D02*
X115699000Y-114082000D01*
X115659000Y-124111000D02*
X115659000Y-114089000D01*
X115619000Y-124104000D02*
X115619000Y-114096000D01*
X115579000Y-124097000D02*
X115579000Y-114103000D01*
X115539000Y-124090000D02*
X115539000Y-114110000D01*
X115499000Y-124082000D02*
X115499000Y-114118000D01*
X115459000Y-124074000D02*
X115459000Y-114126000D01*
X115419000Y-124065000D02*
X115419000Y-114135000D01*
X115379000Y-124056000D02*
X115379000Y-114144000D01*
X115339000Y-124047000D02*
X115339000Y-114153000D01*
X115299000Y-124038000D02*
X115299000Y-114162000D01*
X115259000Y-124028000D02*
X115259000Y-114172000D01*
X115219000Y-124018000D02*
X115219000Y-120341000D01*
X115219000Y-117859000D02*
X115219000Y-114182000D01*
X115179000Y-124007000D02*
X115179000Y-120341000D01*
X115179000Y-117859000D02*
X115179000Y-114193000D01*
X115139000Y-123997000D02*
X115139000Y-120341000D01*
X115139000Y-117859000D02*
X115139000Y-114203000D01*
X115099000Y-123985000D02*
X115099000Y-120341000D01*
X115099000Y-117859000D02*
X115099000Y-114215000D01*
X115059000Y-123974000D02*
X115059000Y-120341000D01*
X115059000Y-117859000D02*
X115059000Y-114226000D01*
X115019000Y-123962000D02*
X115019000Y-120341000D01*
X115019000Y-117859000D02*
X115019000Y-114238000D01*
X114979000Y-123950000D02*
X114979000Y-120341000D01*
X114979000Y-117859000D02*
X114979000Y-114250000D01*
X114939000Y-123937000D02*
X114939000Y-120341000D01*
X114939000Y-117859000D02*
X114939000Y-114263000D01*
X114899000Y-123924000D02*
X114899000Y-120341000D01*
X114899000Y-117859000D02*
X114899000Y-114276000D01*
X114859000Y-123911000D02*
X114859000Y-120341000D01*
X114859000Y-117859000D02*
X114859000Y-114289000D01*
X114819000Y-123897000D02*
X114819000Y-120341000D01*
X114819000Y-117859000D02*
X114819000Y-114303000D01*
X114779000Y-123883000D02*
X114779000Y-120341000D01*
X114779000Y-117859000D02*
X114779000Y-114317000D01*
X114739000Y-123868000D02*
X114739000Y-120341000D01*
X114739000Y-117859000D02*
X114739000Y-114332000D01*
X114699000Y-123854000D02*
X114699000Y-120341000D01*
X114699000Y-117859000D02*
X114699000Y-114346000D01*
X114659000Y-123838000D02*
X114659000Y-120341000D01*
X114659000Y-117859000D02*
X114659000Y-114362000D01*
X114619000Y-123823000D02*
X114619000Y-120341000D01*
X114619000Y-117859000D02*
X114619000Y-114377000D01*
X114579000Y-123807000D02*
X114579000Y-120341000D01*
X114579000Y-117859000D02*
X114579000Y-114393000D01*
X114539000Y-123790000D02*
X114539000Y-120341000D01*
X114539000Y-117859000D02*
X114539000Y-114410000D01*
X114499000Y-123774000D02*
X114499000Y-120341000D01*
X114499000Y-117859000D02*
X114499000Y-114426000D01*
X114459000Y-123757000D02*
X114459000Y-120341000D01*
X114459000Y-117859000D02*
X114459000Y-114443000D01*
X114419000Y-123739000D02*
X114419000Y-120341000D01*
X114419000Y-117859000D02*
X114419000Y-114461000D01*
X114379000Y-123721000D02*
X114379000Y-120341000D01*
X114379000Y-117859000D02*
X114379000Y-114479000D01*
X114339000Y-123703000D02*
X114339000Y-120341000D01*
X114339000Y-117859000D02*
X114339000Y-114497000D01*
X114299000Y-123684000D02*
X114299000Y-120341000D01*
X114299000Y-117859000D02*
X114299000Y-114516000D01*
X114259000Y-123664000D02*
X114259000Y-120341000D01*
X114259000Y-117859000D02*
X114259000Y-114536000D01*
X114219000Y-123645000D02*
X114219000Y-120341000D01*
X114219000Y-117859000D02*
X114219000Y-114555000D01*
X114179000Y-123625000D02*
X114179000Y-120341000D01*
X114179000Y-117859000D02*
X114179000Y-114575000D01*
X114139000Y-123604000D02*
X114139000Y-120341000D01*
X114139000Y-117859000D02*
X114139000Y-114596000D01*
X114099000Y-123583000D02*
X114099000Y-120341000D01*
X114099000Y-117859000D02*
X114099000Y-114617000D01*
X114059000Y-123562000D02*
X114059000Y-120341000D01*
X114059000Y-117859000D02*
X114059000Y-114638000D01*
X114019000Y-123540000D02*
X114019000Y-120341000D01*
X114019000Y-117859000D02*
X114019000Y-114660000D01*
X113979000Y-123517000D02*
X113979000Y-120341000D01*
X113979000Y-117859000D02*
X113979000Y-114683000D01*
X113939000Y-123495000D02*
X113939000Y-120341000D01*
X113939000Y-117859000D02*
X113939000Y-114705000D01*
X113899000Y-123471000D02*
X113899000Y-120341000D01*
X113899000Y-117859000D02*
X113899000Y-114729000D01*
X113859000Y-123447000D02*
X113859000Y-120341000D01*
X113859000Y-117859000D02*
X113859000Y-114753000D01*
X113819000Y-123423000D02*
X113819000Y-120341000D01*
X113819000Y-117859000D02*
X113819000Y-114777000D01*
X113779000Y-123398000D02*
X113779000Y-120341000D01*
X113779000Y-117859000D02*
X113779000Y-114802000D01*
X113739000Y-123373000D02*
X113739000Y-120341000D01*
X113739000Y-117859000D02*
X113739000Y-114827000D01*
X113699000Y-123347000D02*
X113699000Y-120341000D01*
X113699000Y-117859000D02*
X113699000Y-114853000D01*
X113659000Y-123321000D02*
X113659000Y-120341000D01*
X113659000Y-117859000D02*
X113659000Y-114879000D01*
X113619000Y-123294000D02*
X113619000Y-120341000D01*
X113619000Y-117859000D02*
X113619000Y-114906000D01*
X113579000Y-123266000D02*
X113579000Y-120341000D01*
X113579000Y-117859000D02*
X113579000Y-114934000D01*
X113539000Y-123238000D02*
X113539000Y-120341000D01*
X113539000Y-117859000D02*
X113539000Y-114962000D01*
X113499000Y-123210000D02*
X113499000Y-120341000D01*
X113499000Y-117859000D02*
X113499000Y-114990000D01*
X113459000Y-123180000D02*
X113459000Y-120341000D01*
X113459000Y-117859000D02*
X113459000Y-115020000D01*
X113419000Y-123150000D02*
X113419000Y-120341000D01*
X113419000Y-117859000D02*
X113419000Y-115050000D01*
X113379000Y-123120000D02*
X113379000Y-120341000D01*
X113379000Y-117859000D02*
X113379000Y-115080000D01*
X113339000Y-123089000D02*
X113339000Y-120341000D01*
X113339000Y-117859000D02*
X113339000Y-115111000D01*
X113299000Y-123057000D02*
X113299000Y-120341000D01*
X113299000Y-117859000D02*
X113299000Y-115143000D01*
X113259000Y-123025000D02*
X113259000Y-120341000D01*
X113259000Y-117859000D02*
X113259000Y-115175000D01*
X113219000Y-122992000D02*
X113219000Y-120341000D01*
X113219000Y-117859000D02*
X113219000Y-115208000D01*
X113179000Y-122958000D02*
X113179000Y-120341000D01*
X113179000Y-117859000D02*
X113179000Y-115242000D01*
X113139000Y-122924000D02*
X113139000Y-120341000D01*
X113139000Y-117859000D02*
X113139000Y-115276000D01*
X113099000Y-122889000D02*
X113099000Y-120341000D01*
X113099000Y-117859000D02*
X113099000Y-115311000D01*
X113059000Y-122853000D02*
X113059000Y-120341000D01*
X113059000Y-117859000D02*
X113059000Y-115347000D01*
X113019000Y-122816000D02*
X113019000Y-120341000D01*
X113019000Y-117859000D02*
X113019000Y-115384000D01*
X112979000Y-122779000D02*
X112979000Y-120341000D01*
X112979000Y-117859000D02*
X112979000Y-115421000D01*
X112939000Y-122740000D02*
X112939000Y-120341000D01*
X112939000Y-117859000D02*
X112939000Y-115460000D01*
X112899000Y-122701000D02*
X112899000Y-120341000D01*
X112899000Y-117859000D02*
X112899000Y-115499000D01*
X112859000Y-122661000D02*
X112859000Y-120341000D01*
X112859000Y-117859000D02*
X112859000Y-115539000D01*
X112819000Y-122620000D02*
X112819000Y-120341000D01*
X112819000Y-117859000D02*
X112819000Y-115580000D01*
X112779000Y-122578000D02*
X112779000Y-120341000D01*
X112779000Y-117859000D02*
X112779000Y-115622000D01*
X112739000Y-122536000D02*
X112739000Y-115664000D01*
X112699000Y-122492000D02*
X112699000Y-115708000D01*
X112659000Y-122447000D02*
X112659000Y-115753000D01*
X112619000Y-122401000D02*
X112619000Y-115799000D01*
X112579000Y-122354000D02*
X112579000Y-115846000D01*
X112539000Y-122306000D02*
X112539000Y-115894000D01*
X112499000Y-122256000D02*
X112499000Y-115944000D01*
X112459000Y-122206000D02*
X112459000Y-115994000D01*
X112419000Y-122154000D02*
X112419000Y-116046000D01*
X112379000Y-122100000D02*
X112379000Y-116100000D01*
X112339000Y-122045000D02*
X112339000Y-116155000D01*
X112299000Y-121989000D02*
X112299000Y-116211000D01*
X112259000Y-121930000D02*
X112259000Y-116270000D01*
X112219000Y-121870000D02*
X112219000Y-116330000D01*
X112179000Y-121809000D02*
X112179000Y-116391000D01*
X112139000Y-121745000D02*
X112139000Y-116455000D01*
X112099000Y-121679000D02*
X112099000Y-116521000D01*
X112059000Y-121610000D02*
X112059000Y-116590000D01*
X112019000Y-121539000D02*
X112019000Y-116661000D01*
X111979000Y-121465000D02*
X111979000Y-116735000D01*
X111939000Y-121389000D02*
X111939000Y-116811000D01*
X111899000Y-121309000D02*
X111899000Y-116891000D01*
X111859000Y-121225000D02*
X111859000Y-116975000D01*
X111819000Y-121137000D02*
X111819000Y-117063000D01*
X111779000Y-121044000D02*
X111779000Y-117156000D01*
X111739000Y-120946000D02*
X111739000Y-117254000D01*
X111699000Y-120842000D02*
X111699000Y-117358000D01*
X111659000Y-120730000D02*
X111659000Y-117470000D01*
X111619000Y-120610000D02*
X111619000Y-117590000D01*
X111579000Y-120478000D02*
X111579000Y-117722000D01*
X111539000Y-120330000D02*
X111539000Y-117870000D01*
X111499000Y-120162000D02*
X111499000Y-118038000D01*
X111459000Y-119962000D02*
X111459000Y-118238000D01*
X111419000Y-119699000D02*
X111419000Y-118501000D01*
X121620000Y-119100000D02*
G75*
G03*
X121620000Y-119100000I-5120000J0D01*
G01*
%TO.C,J10*%
X97290000Y-120600000D02*
X97290000Y-118190000D01*
X99700000Y-120600000D02*
X97290000Y-120600000D01*
X97590000Y-120300000D02*
X100120000Y-120300000D01*
X100120000Y-120300000D02*
X100120000Y-120170000D01*
X101930000Y-120300000D02*
X102910000Y-120300000D01*
X102910000Y-120300000D02*
X102910000Y-120040000D01*
X100120000Y-120170000D02*
X101930000Y-120170000D01*
X101930000Y-120170000D02*
X101930000Y-120300000D01*
X102910000Y-120040000D02*
X104410000Y-120040000D01*
X104410000Y-120040000D02*
X104410000Y-112960000D01*
X102910000Y-112960000D02*
X102910000Y-112700000D01*
X104410000Y-112960000D02*
X102910000Y-112960000D01*
X100120000Y-112830000D02*
X100120000Y-112700000D01*
X101930000Y-112830000D02*
X100120000Y-112830000D01*
X97590000Y-112700000D02*
X97590000Y-120300000D01*
X100120000Y-112700000D02*
X97590000Y-112700000D01*
X101930000Y-112700000D02*
X101930000Y-112830000D01*
X102910000Y-112700000D02*
X101930000Y-112700000D01*
%TO.C,JP6*%
X165800000Y-117700000D02*
X166400000Y-117700000D01*
X167100000Y-118400000D02*
X167100000Y-119800000D01*
X165100000Y-119800000D02*
X165100000Y-118400000D01*
X166400000Y-120500000D02*
X165800000Y-120500000D01*
X167100000Y-118400000D02*
G75*
G03*
X166400000Y-117700000I-699999J1D01*
G01*
X165800000Y-117700000D02*
G75*
G03*
X165100000Y-118400000I-1J-699999D01*
G01*
X166400000Y-120500000D02*
G75*
G03*
X167100000Y-119800000I0J700000D01*
G01*
X165100000Y-119800000D02*
G75*
G03*
X165800000Y-120500000I700000J0D01*
G01*
%TO.C,TP7*%
X183900000Y-135100000D02*
X185300000Y-135100000D01*
X183900000Y-136500000D02*
X183900000Y-135100000D01*
X185300000Y-135100000D02*
X185300000Y-136500000D01*
X185300000Y-136500000D02*
X183900000Y-136500000D01*
%TO.C,R35*%
X153927064Y-99235000D02*
X153472936Y-99235000D01*
X153927064Y-97765000D02*
X153472936Y-97765000D01*
%TO.C,J1*%
X126500000Y-81790000D02*
X128910000Y-81790000D01*
X126500000Y-84200000D02*
X126500000Y-81790000D01*
X126800000Y-82090000D02*
X126800000Y-84620000D01*
X126800000Y-84620000D02*
X126930000Y-84620000D01*
X126800000Y-86430000D02*
X126800000Y-87410000D01*
X126800000Y-87410000D02*
X127060000Y-87410000D01*
X126930000Y-84620000D02*
X126930000Y-86430000D01*
X126930000Y-86430000D02*
X126800000Y-86430000D01*
X127060000Y-87410000D02*
X127060000Y-88910000D01*
X127060000Y-88910000D02*
X134140000Y-88910000D01*
X134140000Y-87410000D02*
X134400000Y-87410000D01*
X134140000Y-88910000D02*
X134140000Y-87410000D01*
X134270000Y-84620000D02*
X134400000Y-84620000D01*
X134270000Y-86430000D02*
X134270000Y-84620000D01*
X134400000Y-82090000D02*
X126800000Y-82090000D01*
X134400000Y-84620000D02*
X134400000Y-82090000D01*
X134400000Y-86430000D02*
X134270000Y-86430000D01*
X134400000Y-87410000D02*
X134400000Y-86430000D01*
%TO.C,U1*%
X104815000Y-102000000D02*
X104815000Y-105600000D01*
X104815000Y-102000000D02*
X104815000Y-99800000D01*
X111585000Y-102000000D02*
X111585000Y-104200000D01*
X111585000Y-102000000D02*
X111585000Y-99800000D01*
%TO.C,C2*%
X105138748Y-106265000D02*
X105661252Y-106265000D01*
X105138748Y-107735000D02*
X105661252Y-107735000D01*
%TO.C,R33*%
X184735000Y-119972936D02*
X184735000Y-120427064D01*
X183265000Y-119972936D02*
X183265000Y-120427064D01*
%TO.C,JP8*%
X156600000Y-97600000D02*
X157200000Y-97600000D01*
X157900000Y-98300000D02*
X157900000Y-99700000D01*
X155900000Y-99700000D02*
X155900000Y-98300000D01*
X157200000Y-100400000D02*
X156600000Y-100400000D01*
X157900000Y-98300000D02*
G75*
G03*
X157200000Y-97600000I-699999J1D01*
G01*
X156600000Y-97600000D02*
G75*
G03*
X155900000Y-98300000I-1J-699999D01*
G01*
X157200000Y-100400000D02*
G75*
G03*
X157900000Y-99700000I0J700000D01*
G01*
X155900000Y-99700000D02*
G75*
G03*
X156600000Y-100400000I700000J0D01*
G01*
%TO.C,U7*%
X171200000Y-122660000D02*
X174650000Y-122660000D01*
X171200000Y-122660000D02*
X169250000Y-122660000D01*
X171200000Y-117540000D02*
X173150000Y-117540000D01*
X171200000Y-117540000D02*
X169250000Y-117540000D01*
%TO.C,C22*%
X178635000Y-131038748D02*
X178635000Y-131561252D01*
X177165000Y-131038748D02*
X177165000Y-131561252D01*
%TO.C,TP1*%
X160100000Y-115900000D02*
X160100000Y-117300000D01*
X158700000Y-115900000D02*
X160100000Y-115900000D01*
X160100000Y-117300000D02*
X158700000Y-117300000D01*
X158700000Y-117300000D02*
X158700000Y-115900000D01*
%TO.C,TP8*%
X155700000Y-129000000D02*
X157100000Y-129000000D01*
X155700000Y-130400000D02*
X155700000Y-129000000D01*
X157100000Y-129000000D02*
X157100000Y-130400000D01*
X157100000Y-130400000D02*
X155700000Y-130400000D01*
%TO.C,R29*%
X183272936Y-131065000D02*
X183727064Y-131065000D01*
X183272936Y-132535000D02*
X183727064Y-132535000D01*
%TO.C,C15*%
X104365000Y-128161252D02*
X104365000Y-127638748D01*
X105835000Y-128161252D02*
X105835000Y-127638748D01*
%TO.C,Q4*%
X127050000Y-93890000D02*
X126780000Y-93890000D01*
X126780000Y-93890000D02*
X126780000Y-91060000D01*
X120420000Y-93890000D02*
X120420000Y-92790000D01*
X120150000Y-93890000D02*
X120420000Y-93890000D01*
X127050000Y-100310000D02*
X127050000Y-93890000D01*
X120150000Y-100310000D02*
X120150000Y-93890000D01*
%TO.C,R9*%
X102865000Y-100327064D02*
X102865000Y-99872936D01*
X104335000Y-100327064D02*
X104335000Y-99872936D01*
%TO.C,R24*%
X102265000Y-123527064D02*
X102265000Y-123072936D01*
X103735000Y-123527064D02*
X103735000Y-123072936D01*
%TO.C,C3*%
X105138748Y-108365000D02*
X105661252Y-108365000D01*
X105138748Y-109835000D02*
X105661252Y-109835000D01*
%TO.C,R1*%
X141972936Y-133565000D02*
X142427064Y-133565000D01*
X141972936Y-135035000D02*
X142427064Y-135035000D01*
D12*
%TO.C,U6*%
X147075000Y-94675000D02*
X146850000Y-94675000D01*
X147075000Y-94675000D02*
X147075000Y-99325000D01*
X146850000Y-94675000D02*
X146850000Y-93600000D01*
X137074200Y-94675000D02*
X137399200Y-94675000D01*
X137074200Y-94675000D02*
X137074200Y-99325000D01*
X147075000Y-99325000D02*
X146750000Y-99325000D01*
X137074200Y-99325000D02*
X137399200Y-99325000D01*
D14*
%TO.C,L2*%
X113900000Y-135100000D02*
X113900000Y-124900000D01*
X124100000Y-135100000D02*
X124100000Y-124900000D01*
%TO.C,JP1*%
X180000000Y-131700000D02*
X180600000Y-131700000D01*
X181300000Y-132400000D02*
X181300000Y-133800000D01*
X179300000Y-133800000D02*
X179300000Y-132400000D01*
X180600000Y-134500000D02*
X180000000Y-134500000D01*
X181300000Y-132400000D02*
G75*
G03*
X180600000Y-131700000I-699999J1D01*
G01*
X180000000Y-131700000D02*
G75*
G03*
X179300000Y-132400000I-1J-699999D01*
G01*
X180600000Y-134500000D02*
G75*
G03*
X181300000Y-133800000I0J700000D01*
G01*
X179300000Y-133800000D02*
G75*
G03*
X180000000Y-134500000I700000J0D01*
G01*
%TO.C,R28*%
X178372936Y-135065000D02*
X178827064Y-135065000D01*
X178372936Y-136535000D02*
X178827064Y-136535000D01*
%TO.C,R2*%
X116565000Y-104327064D02*
X116565000Y-103872936D01*
X118035000Y-104327064D02*
X118035000Y-103872936D01*
%TO.C,R47*%
X130327064Y-135135000D02*
X129872936Y-135135000D01*
X130327064Y-133665000D02*
X129872936Y-133665000D01*
%TO.C,L1*%
X140800000Y-113800000D02*
X153400000Y-113800000D01*
X140800000Y-116800000D02*
X140800000Y-113800000D01*
X140800000Y-126400000D02*
X140800000Y-123400000D01*
X153400000Y-113800000D02*
X153400000Y-116800000D01*
X153400000Y-123400000D02*
X153400000Y-126400000D01*
X153400000Y-126400000D02*
X140800000Y-126400000D01*
%TO.C,Q6*%
X170540000Y-126937500D02*
X170540000Y-128612500D01*
X170540000Y-126937500D02*
X170540000Y-126287500D01*
X173660000Y-126937500D02*
X173660000Y-127587500D01*
X173660000Y-126937500D02*
X173660000Y-126287500D01*
%TO.C,R21*%
X134665000Y-111327064D02*
X134665000Y-110872936D01*
X136135000Y-111327064D02*
X136135000Y-110872936D01*
%TO.C,R4*%
X120565000Y-104327064D02*
X120565000Y-103872936D01*
X122035000Y-104327064D02*
X122035000Y-103872936D01*
%TO.C,RN1*%
X178970000Y-95450000D02*
X178970000Y-93350000D01*
X173630000Y-95450000D02*
X173630000Y-93350000D01*
%TO.C,R7*%
X129235000Y-127172936D02*
X129235000Y-127627064D01*
X127765000Y-127172936D02*
X127765000Y-127627064D01*
%TO.C,C9*%
X103565000Y-96461252D02*
X103565000Y-95938748D01*
X105035000Y-96461252D02*
X105035000Y-95938748D01*
%TO.C,R40*%
X169627064Y-124635000D02*
X169172936Y-124635000D01*
X169627064Y-123165000D02*
X169172936Y-123165000D01*
%TO.C,C21*%
X182338748Y-95465000D02*
X182861252Y-95465000D01*
X182338748Y-96935000D02*
X182861252Y-96935000D01*
%TO.C,C13*%
X156661252Y-117335000D02*
X156138748Y-117335000D01*
X156661252Y-115865000D02*
X156138748Y-115865000D01*
%TO.C,F1*%
X98890000Y-92502064D02*
X98890000Y-91297936D01*
X100710000Y-92502064D02*
X100710000Y-91297936D01*
%TO.C,R27*%
X183272936Y-133065000D02*
X183727064Y-133065000D01*
X183272936Y-134535000D02*
X183727064Y-134535000D01*
%TO.C,J9*%
X150400000Y-81390000D02*
X152810000Y-81390000D01*
X150400000Y-83800000D02*
X150400000Y-81390000D01*
X150700000Y-81690000D02*
X150700000Y-84220000D01*
X150700000Y-84220000D02*
X150830000Y-84220000D01*
X150700000Y-86030000D02*
X150700000Y-87010000D01*
X150700000Y-87010000D02*
X150960000Y-87010000D01*
X150830000Y-84220000D02*
X150830000Y-86030000D01*
X150830000Y-86030000D02*
X150700000Y-86030000D01*
X150960000Y-87010000D02*
X150960000Y-88510000D01*
X150960000Y-88510000D02*
X158040000Y-88510000D01*
X158040000Y-87010000D02*
X158300000Y-87010000D01*
X158040000Y-88510000D02*
X158040000Y-87010000D01*
X158170000Y-84220000D02*
X158300000Y-84220000D01*
X158170000Y-86030000D02*
X158170000Y-84220000D01*
X158300000Y-81690000D02*
X150700000Y-81690000D01*
X158300000Y-84220000D02*
X158300000Y-81690000D01*
X158300000Y-86030000D02*
X158170000Y-86030000D01*
X158300000Y-87010000D02*
X158300000Y-86030000D01*
%TO.C,R32*%
X176972936Y-120465000D02*
X177427064Y-120465000D01*
X176972936Y-121935000D02*
X177427064Y-121935000D01*
%TO.C,Q2*%
X134100000Y-135160000D02*
X135775000Y-135160000D01*
X134100000Y-135160000D02*
X133450000Y-135160000D01*
X134100000Y-132040000D02*
X134750000Y-132040000D01*
X134100000Y-132040000D02*
X133450000Y-132040000D01*
%TO.C,U3*%
X106340000Y-125225000D02*
X106340000Y-128675000D01*
X106340000Y-125225000D02*
X106340000Y-123275000D01*
X111460000Y-125225000D02*
X111460000Y-127175000D01*
X111460000Y-125225000D02*
X111460000Y-123275000D01*
%TO.C,R48*%
X135772936Y-104565000D02*
X136227064Y-104565000D01*
X135772936Y-106035000D02*
X136227064Y-106035000D01*
%TO.C,Q1*%
X138200000Y-135160000D02*
X139875000Y-135160000D01*
X138200000Y-135160000D02*
X137550000Y-135160000D01*
X138200000Y-132040000D02*
X138850000Y-132040000D01*
X138200000Y-132040000D02*
X137550000Y-132040000D01*
%TO.C,R10*%
X112465000Y-104327064D02*
X112465000Y-103872936D01*
X113935000Y-104327064D02*
X113935000Y-103872936D01*
%TO.C,R15*%
X103515001Y-91527064D02*
X103515001Y-91072936D01*
X104985001Y-91527064D02*
X104985001Y-91072936D01*
%TO.C,C11*%
X160815000Y-118487651D02*
X160815000Y-119287651D01*
X161215000Y-118887651D02*
X160415000Y-118887651D01*
X162580000Y-122897349D02*
X154420000Y-122897349D01*
X162580000Y-122937349D02*
X154420000Y-122937349D01*
X162580000Y-122977349D02*
X154420000Y-122977349D01*
X162579000Y-123017349D02*
X154421000Y-123017349D01*
X162577000Y-123057349D02*
X154423000Y-123057349D01*
X162576000Y-123097349D02*
X154424000Y-123097349D01*
X162574000Y-123137349D02*
X154426000Y-123137349D01*
X162571000Y-123177349D02*
X154429000Y-123177349D01*
X162568000Y-123217349D02*
X154432000Y-123217349D01*
X162565000Y-123257349D02*
X154435000Y-123257349D01*
X162561000Y-123297349D02*
X154439000Y-123297349D01*
X162557000Y-123337349D02*
X154443000Y-123337349D01*
X162552000Y-123377349D02*
X154448000Y-123377349D01*
X162548000Y-123417349D02*
X154452000Y-123417349D01*
X162542000Y-123457349D02*
X154458000Y-123457349D01*
X162537000Y-123497349D02*
X154463000Y-123497349D01*
X162530000Y-123537349D02*
X154470000Y-123537349D01*
X162524000Y-123577349D02*
X154476000Y-123577349D01*
X162517000Y-123618349D02*
X154483000Y-123618349D01*
X162510000Y-123658349D02*
X154490000Y-123658349D01*
X162502000Y-123698349D02*
X154498000Y-123698349D01*
X162494000Y-123738349D02*
X154506000Y-123738349D01*
X162485000Y-123778349D02*
X159540000Y-123778349D01*
X157460000Y-123778349D02*
X154515000Y-123778349D01*
X162476000Y-123818349D02*
X159540000Y-123818349D01*
X157460000Y-123818349D02*
X154524000Y-123818349D01*
X162467000Y-123858349D02*
X159540000Y-123858349D01*
X157460000Y-123858349D02*
X154533000Y-123858349D01*
X162457000Y-123898349D02*
X159540000Y-123898349D01*
X157460000Y-123898349D02*
X154543000Y-123898349D01*
X162447000Y-123938349D02*
X159540000Y-123938349D01*
X157460000Y-123938349D02*
X154553000Y-123938349D01*
X162436000Y-123978349D02*
X159540000Y-123978349D01*
X157460000Y-123978349D02*
X154564000Y-123978349D01*
X162425000Y-124018349D02*
X159540000Y-124018349D01*
X157460000Y-124018349D02*
X154575000Y-124018349D01*
X162414000Y-124058349D02*
X159540000Y-124058349D01*
X157460000Y-124058349D02*
X154586000Y-124058349D01*
X162402000Y-124098349D02*
X159540000Y-124098349D01*
X157460000Y-124098349D02*
X154598000Y-124098349D01*
X162389000Y-124138349D02*
X159540000Y-124138349D01*
X157460000Y-124138349D02*
X154611000Y-124138349D01*
X162377000Y-124178349D02*
X159540000Y-124178349D01*
X157460000Y-124178349D02*
X154623000Y-124178349D01*
X162363000Y-124218349D02*
X159540000Y-124218349D01*
X157460000Y-124218349D02*
X154637000Y-124218349D01*
X162350000Y-124258349D02*
X159540000Y-124258349D01*
X157460000Y-124258349D02*
X154650000Y-124258349D01*
X162335000Y-124298349D02*
X159540000Y-124298349D01*
X157460000Y-124298349D02*
X154665000Y-124298349D01*
X162321000Y-124338349D02*
X159540000Y-124338349D01*
X157460000Y-124338349D02*
X154679000Y-124338349D01*
X162305000Y-124378349D02*
X159540000Y-124378349D01*
X157460000Y-124378349D02*
X154695000Y-124378349D01*
X162290000Y-124418349D02*
X159540000Y-124418349D01*
X157460000Y-124418349D02*
X154710000Y-124418349D01*
X162274000Y-124458349D02*
X159540000Y-124458349D01*
X157460000Y-124458349D02*
X154726000Y-124458349D01*
X162257000Y-124498349D02*
X159540000Y-124498349D01*
X157460000Y-124498349D02*
X154743000Y-124498349D01*
X162240000Y-124538349D02*
X159540000Y-124538349D01*
X157460000Y-124538349D02*
X154760000Y-124538349D01*
X162222000Y-124578349D02*
X159540000Y-124578349D01*
X157460000Y-124578349D02*
X154778000Y-124578349D01*
X162204000Y-124618349D02*
X159540000Y-124618349D01*
X157460000Y-124618349D02*
X154796000Y-124618349D01*
X162186000Y-124658349D02*
X159540000Y-124658349D01*
X157460000Y-124658349D02*
X154814000Y-124658349D01*
X162166000Y-124698349D02*
X159540000Y-124698349D01*
X157460000Y-124698349D02*
X154834000Y-124698349D01*
X162147000Y-124738349D02*
X159540000Y-124738349D01*
X157460000Y-124738349D02*
X154853000Y-124738349D01*
X162127000Y-124778349D02*
X159540000Y-124778349D01*
X157460000Y-124778349D02*
X154873000Y-124778349D01*
X162106000Y-124818349D02*
X159540000Y-124818349D01*
X157460000Y-124818349D02*
X154894000Y-124818349D01*
X162084000Y-124858349D02*
X159540000Y-124858349D01*
X157460000Y-124858349D02*
X154916000Y-124858349D01*
X162062000Y-124898349D02*
X159540000Y-124898349D01*
X157460000Y-124898349D02*
X154938000Y-124898349D01*
X162040000Y-124938349D02*
X159540000Y-124938349D01*
X157460000Y-124938349D02*
X154960000Y-124938349D01*
X162017000Y-124978349D02*
X159540000Y-124978349D01*
X157460000Y-124978349D02*
X154983000Y-124978349D01*
X161993000Y-125018349D02*
X159540000Y-125018349D01*
X157460000Y-125018349D02*
X155007000Y-125018349D01*
X161969000Y-125058349D02*
X159540000Y-125058349D01*
X157460000Y-125058349D02*
X155031000Y-125058349D01*
X161944000Y-125098349D02*
X159540000Y-125098349D01*
X157460000Y-125098349D02*
X155056000Y-125098349D01*
X161918000Y-125138349D02*
X159540000Y-125138349D01*
X157460000Y-125138349D02*
X155082000Y-125138349D01*
X161892000Y-125178349D02*
X159540000Y-125178349D01*
X157460000Y-125178349D02*
X155108000Y-125178349D01*
X161865000Y-125218349D02*
X159540000Y-125218349D01*
X157460000Y-125218349D02*
X155135000Y-125218349D01*
X161838000Y-125258349D02*
X159540000Y-125258349D01*
X157460000Y-125258349D02*
X155162000Y-125258349D01*
X161809000Y-125298349D02*
X159540000Y-125298349D01*
X157460000Y-125298349D02*
X155191000Y-125298349D01*
X161780000Y-125338349D02*
X159540000Y-125338349D01*
X157460000Y-125338349D02*
X155220000Y-125338349D01*
X161750000Y-125378349D02*
X159540000Y-125378349D01*
X157460000Y-125378349D02*
X155250000Y-125378349D01*
X161720000Y-125418349D02*
X159540000Y-125418349D01*
X157460000Y-125418349D02*
X155280000Y-125418349D01*
X161689000Y-125458349D02*
X159540000Y-125458349D01*
X157460000Y-125458349D02*
X155311000Y-125458349D01*
X161656000Y-125498349D02*
X159540000Y-125498349D01*
X157460000Y-125498349D02*
X155344000Y-125498349D01*
X161624000Y-125538349D02*
X159540000Y-125538349D01*
X157460000Y-125538349D02*
X155376000Y-125538349D01*
X161590000Y-125578349D02*
X159540000Y-125578349D01*
X157460000Y-125578349D02*
X155410000Y-125578349D01*
X161555000Y-125618349D02*
X159540000Y-125618349D01*
X157460000Y-125618349D02*
X155445000Y-125618349D01*
X161519000Y-125658349D02*
X159540000Y-125658349D01*
X157460000Y-125658349D02*
X155481000Y-125658349D01*
X161483000Y-125698349D02*
X159540000Y-125698349D01*
X157460000Y-125698349D02*
X155517000Y-125698349D01*
X161445000Y-125738349D02*
X159540000Y-125738349D01*
X157460000Y-125738349D02*
X155555000Y-125738349D01*
X161407000Y-125778349D02*
X159540000Y-125778349D01*
X157460000Y-125778349D02*
X155593000Y-125778349D01*
X161367000Y-125818349D02*
X159540000Y-125818349D01*
X157460000Y-125818349D02*
X155633000Y-125818349D01*
X161326000Y-125858349D02*
X155674000Y-125858349D01*
X161284000Y-125898349D02*
X155716000Y-125898349D01*
X161241000Y-125938349D02*
X155759000Y-125938349D01*
X161197000Y-125978349D02*
X155803000Y-125978349D01*
X161151000Y-126018349D02*
X155849000Y-126018349D01*
X161104000Y-126058349D02*
X155896000Y-126058349D01*
X161056000Y-126098349D02*
X155944000Y-126098349D01*
X161005000Y-126138349D02*
X155995000Y-126138349D01*
X160954000Y-126178349D02*
X156046000Y-126178349D01*
X160900000Y-126218349D02*
X156100000Y-126218349D01*
X160845000Y-126258349D02*
X156155000Y-126258349D01*
X160787000Y-126298349D02*
X156213000Y-126298349D01*
X160728000Y-126338349D02*
X156272000Y-126338349D01*
X160666000Y-126378349D02*
X156334000Y-126378349D01*
X160602000Y-126418349D02*
X156398000Y-126418349D01*
X160534000Y-126458349D02*
X156466000Y-126458349D01*
X160464000Y-126498349D02*
X156536000Y-126498349D01*
X160390000Y-126538349D02*
X156610000Y-126538349D01*
X160313000Y-126578349D02*
X156687000Y-126578349D01*
X160231000Y-126618349D02*
X156769000Y-126618349D01*
X160145000Y-126658349D02*
X156855000Y-126658349D01*
X160052000Y-126698349D02*
X156948000Y-126698349D01*
X159953000Y-126738349D02*
X157047000Y-126738349D01*
X159846000Y-126778349D02*
X157154000Y-126778349D01*
X159729000Y-126818349D02*
X157271000Y-126818349D01*
X159598000Y-126858349D02*
X157402000Y-126858349D01*
X159448000Y-126898349D02*
X157552000Y-126898349D01*
X159268000Y-126938349D02*
X157732000Y-126938349D01*
X159033000Y-126978349D02*
X157967000Y-126978349D01*
X162620000Y-122897349D02*
G75*
G03*
X162620000Y-122897349I-4120000J0D01*
G01*
%TO.C,D4*%
X174450000Y-132210000D02*
X175750000Y-132210000D01*
X175750000Y-129090000D02*
X173750000Y-129090000D01*
%TO.C,JP7*%
X171600000Y-82100000D02*
X172200000Y-82100000D01*
X172900000Y-82800000D02*
X172900000Y-84200000D01*
X170900000Y-84200000D02*
X170900000Y-82800000D01*
X172200000Y-84900000D02*
X171600000Y-84900000D01*
X172900000Y-82800000D02*
G75*
G03*
X172200000Y-82100000I-699999J1D01*
G01*
X171600000Y-82100000D02*
G75*
G03*
X170900000Y-82800000I-1J-699999D01*
G01*
X172200000Y-84900000D02*
G75*
G03*
X172900000Y-84200000I0J700000D01*
G01*
X170900000Y-84200000D02*
G75*
G03*
X171600000Y-84900000I700000J0D01*
G01*
%TO.C,R39*%
X173427064Y-124635000D02*
X172972936Y-124635000D01*
X173427064Y-123165000D02*
X172972936Y-123165000D01*
%TO.C,Q3*%
X130060000Y-131400000D02*
X130060000Y-129725000D01*
X130060000Y-131400000D02*
X130060000Y-132050000D01*
X126940000Y-131400000D02*
X126940000Y-130750000D01*
X126940000Y-131400000D02*
X126940000Y-132050000D01*
%TO.C,J5*%
X136820000Y-82420000D02*
X136820000Y-86420000D01*
X137110000Y-81390000D02*
X137110000Y-87410000D01*
X137110000Y-87410000D02*
X147490000Y-87410000D01*
X137690000Y-81390000D02*
X137690000Y-81990000D01*
X137690000Y-81990000D02*
X139290000Y-81990000D01*
X138490000Y-86410000D02*
X138740000Y-85880000D01*
X138490000Y-86410000D02*
X146110000Y-86410000D01*
X138490000Y-87410000D02*
X138490000Y-86410000D01*
X138740000Y-85880000D02*
X145860000Y-85880000D01*
X138740000Y-87410000D02*
X138740000Y-86410000D01*
X139290000Y-81990000D02*
X139290000Y-81390000D01*
X140230000Y-81390000D02*
X140230000Y-81990000D01*
X140230000Y-81990000D02*
X141830000Y-81990000D01*
X141830000Y-81990000D02*
X141830000Y-81390000D01*
X142770000Y-81390000D02*
X142770000Y-81990000D01*
X142770000Y-81990000D02*
X144370000Y-81990000D01*
X144370000Y-81990000D02*
X144370000Y-81390000D01*
X145310000Y-81390000D02*
X145310000Y-81990000D01*
X145310000Y-81990000D02*
X146910000Y-81990000D01*
X145860000Y-85880000D02*
X146110000Y-86410000D01*
X145860000Y-87410000D02*
X145860000Y-86410000D01*
X146110000Y-86410000D02*
X146110000Y-87410000D01*
X146910000Y-81990000D02*
X146910000Y-81390000D01*
X147490000Y-81390000D02*
X137110000Y-81390000D01*
X147490000Y-87410000D02*
X147490000Y-81390000D01*
%TO.C,C4*%
X110061252Y-109835000D02*
X109538748Y-109835000D01*
X110061252Y-108365000D02*
X109538748Y-108365000D01*
%TO.C,R8*%
X124035000Y-103872936D02*
X124035000Y-104327064D01*
X122565000Y-103872936D02*
X122565000Y-104327064D01*
%TO.C,R12*%
X134527064Y-120735000D02*
X134072936Y-120735000D01*
X134527064Y-119265000D02*
X134072936Y-119265000D01*
%TO.C,R42*%
X169165000Y-95527064D02*
X169165000Y-95072936D01*
X170635000Y-95527064D02*
X170635000Y-95072936D01*
%TO.C,D6*%
X152237500Y-112160000D02*
X153912500Y-112160000D01*
X152237500Y-112160000D02*
X151587500Y-112160000D01*
X152237500Y-109040000D02*
X152887500Y-109040000D01*
X152237500Y-109040000D02*
X151587500Y-109040000D01*
%TO.C,C23*%
X135238748Y-101265000D02*
X135761252Y-101265000D01*
X135238748Y-102735000D02*
X135761252Y-102735000D01*
%TO.C,J4*%
X156840000Y-101340000D02*
X157900000Y-101340000D01*
X156840000Y-102400000D02*
X156840000Y-101340000D01*
X156840000Y-103400000D02*
X156840000Y-111460000D01*
X156840000Y-103400000D02*
X158900000Y-103400000D01*
X156840000Y-111460000D02*
X160960000Y-111460000D01*
X158900000Y-101340000D02*
X160960000Y-101340000D01*
X158900000Y-103400000D02*
X158900000Y-101340000D01*
X160960000Y-101340000D02*
X160960000Y-111460000D01*
%TO.C,U8*%
X173595000Y-89040000D02*
X178795000Y-89040000D01*
X178795000Y-89040000D02*
X178795000Y-83740000D01*
X173595000Y-87390000D02*
X173595000Y-89040000D01*
X173595000Y-83740000D02*
X173595000Y-85390000D01*
X178795000Y-83740000D02*
X173595000Y-83740000D01*
X173595000Y-87390000D02*
G75*
G03*
X173595000Y-85390000I0J1000000D01*
G01*
%TO.C,C5*%
X110061252Y-107735000D02*
X109538748Y-107735000D01*
X110061252Y-106265000D02*
X109538748Y-106265000D01*
%TO.C,R43*%
X171227064Y-87435000D02*
X170772936Y-87435000D01*
X171227064Y-85965000D02*
X170772936Y-85965000D01*
%TO.C,C8*%
X101465000Y-96461252D02*
X101465000Y-95938748D01*
X102935000Y-96461252D02*
X102935000Y-95938748D01*
%TO.C,U9*%
X164230000Y-91560000D02*
X159030000Y-91560000D01*
X159030000Y-91560000D02*
X159030000Y-96860000D01*
X164230000Y-93210000D02*
X164230000Y-91560000D01*
X164230000Y-96860000D02*
X164230000Y-95210000D01*
X159030000Y-96860000D02*
X164230000Y-96860000D01*
X164230000Y-93210000D02*
G75*
G03*
X164230000Y-95210000I0J-1000000D01*
G01*
D15*
%TO.C,D3*%
X125812500Y-119000000D02*
X125380000Y-119000000D01*
X122620000Y-119000000D02*
X122187500Y-119000000D01*
X122187500Y-119000000D02*
X122187500Y-123400000D01*
X125812500Y-123400000D02*
X125812500Y-119000000D01*
X125812500Y-123400000D02*
X125380000Y-123400000D01*
X122620000Y-123400000D02*
X122187500Y-123400000D01*
D10*
X124100000Y-117300000D02*
G75*
G03*
X124100000Y-117300000I-100000J0D01*
G01*
D15*
%TO.C,D2*%
X142640000Y-112812500D02*
X142640000Y-112380000D01*
X142640000Y-109620000D02*
X142640000Y-109187500D01*
X142640000Y-109187500D02*
X138240000Y-109187500D01*
X138240000Y-112812500D02*
X142640000Y-112812500D01*
X138240000Y-112812500D02*
X138240000Y-112380000D01*
X138240000Y-109620000D02*
X138240000Y-109187500D01*
D10*
X144440000Y-111000000D02*
G75*
G03*
X144440000Y-111000000I-100000J0D01*
G01*
D14*
%TO.C,JP5*%
X150600000Y-98800000D02*
X150600000Y-99400000D01*
X149900000Y-100100000D02*
X148500000Y-100100000D01*
X148500000Y-98100000D02*
X149900000Y-98100000D01*
X147800000Y-99400000D02*
X147800000Y-98800000D01*
X149900000Y-100100000D02*
G75*
G03*
X150600000Y-99400000I1J699999D01*
G01*
X150600000Y-98800000D02*
G75*
G03*
X149900000Y-98100000I-699999J1D01*
G01*
X147800000Y-99400000D02*
G75*
G03*
X148500000Y-100100000I700000J0D01*
G01*
X148500000Y-98100000D02*
G75*
G03*
X147800000Y-98800000I0J-700000D01*
G01*
%TO.C,J8*%
X159400000Y-81390000D02*
X161810000Y-81390000D01*
X159400000Y-83800000D02*
X159400000Y-81390000D01*
X159700000Y-81690000D02*
X159700000Y-84220000D01*
X159700000Y-84220000D02*
X159830000Y-84220000D01*
X159700000Y-86030000D02*
X159700000Y-87010000D01*
X159700000Y-87010000D02*
X159960000Y-87010000D01*
X159830000Y-84220000D02*
X159830000Y-86030000D01*
X159830000Y-86030000D02*
X159700000Y-86030000D01*
X159960000Y-87010000D02*
X159960000Y-88510000D01*
X159960000Y-88510000D02*
X167040000Y-88510000D01*
X167040000Y-87010000D02*
X167300000Y-87010000D01*
X167040000Y-88510000D02*
X167040000Y-87010000D01*
X167170000Y-84220000D02*
X167300000Y-84220000D01*
X167170000Y-86030000D02*
X167170000Y-84220000D01*
X167300000Y-81690000D02*
X159700000Y-81690000D01*
X167300000Y-84220000D02*
X167300000Y-81690000D01*
X167300000Y-86030000D02*
X167170000Y-86030000D01*
X167300000Y-87010000D02*
X167300000Y-86030000D01*
%TO.C,C30*%
X163538748Y-128765000D02*
X164061252Y-128765000D01*
X163538748Y-130235000D02*
X164061252Y-130235000D01*
%TO.C,R16*%
X105665000Y-91527064D02*
X105665000Y-91072936D01*
X107135000Y-91527064D02*
X107135000Y-91072936D01*
%TO.C,R23*%
X123277064Y-85110000D02*
X118922936Y-85110000D01*
X123277064Y-81690000D02*
X118922936Y-81690000D01*
%TO.C,C12*%
X107765000Y-96461252D02*
X107765000Y-95938748D01*
X109235000Y-96461252D02*
X109235000Y-95938748D01*
%TO.C,R11*%
X102952501Y-104302063D02*
X102952501Y-103847935D01*
X104422501Y-104302063D02*
X104422501Y-103847935D01*
%TO.C,C1*%
X140379646Y-129375000D02*
X139379646Y-129375000D01*
X139879646Y-129875000D02*
X139879646Y-128875000D01*
X134900000Y-131580000D02*
X134900000Y-121420000D01*
X134860000Y-131580000D02*
X134860000Y-121420000D01*
X134820000Y-131580000D02*
X134820000Y-121420000D01*
X134780000Y-131579000D02*
X134780000Y-121421000D01*
X134740000Y-131578000D02*
X134740000Y-121422000D01*
X134700000Y-131577000D02*
X134700000Y-121423000D01*
X134660000Y-131575000D02*
X134660000Y-121425000D01*
X134620000Y-131573000D02*
X134620000Y-121427000D01*
X134580000Y-131570000D02*
X134580000Y-121430000D01*
X134540000Y-131568000D02*
X134540000Y-121432000D01*
X134500000Y-131565000D02*
X134500000Y-121435000D01*
X134460000Y-131562000D02*
X134460000Y-121438000D01*
X134420000Y-131558000D02*
X134420000Y-121442000D01*
X134380000Y-131554000D02*
X134380000Y-121446000D01*
X134340000Y-131550000D02*
X134340000Y-121450000D01*
X134300000Y-131545000D02*
X134300000Y-121455000D01*
X134260000Y-131540000D02*
X134260000Y-121460000D01*
X134220000Y-131535000D02*
X134220000Y-121465000D01*
X134179000Y-131530000D02*
X134179000Y-121470000D01*
X134139000Y-131524000D02*
X134139000Y-121476000D01*
X134099000Y-131518000D02*
X134099000Y-121482000D01*
X134059000Y-131511000D02*
X134059000Y-121489000D01*
X134019000Y-131504000D02*
X134019000Y-121496000D01*
X133979000Y-131497000D02*
X133979000Y-121503000D01*
X133939000Y-131490000D02*
X133939000Y-121510000D01*
X133899000Y-131482000D02*
X133899000Y-121518000D01*
X133859000Y-131474000D02*
X133859000Y-121526000D01*
X133819000Y-131465000D02*
X133819000Y-121535000D01*
X133779000Y-131456000D02*
X133779000Y-121544000D01*
X133739000Y-131447000D02*
X133739000Y-121553000D01*
X133699000Y-131438000D02*
X133699000Y-121562000D01*
X133659000Y-131428000D02*
X133659000Y-121572000D01*
X133619000Y-131418000D02*
X133619000Y-127741000D01*
X133619000Y-125259000D02*
X133619000Y-121582000D01*
X133579000Y-131407000D02*
X133579000Y-127741000D01*
X133579000Y-125259000D02*
X133579000Y-121593000D01*
X133539000Y-131397000D02*
X133539000Y-127741000D01*
X133539000Y-125259000D02*
X133539000Y-121603000D01*
X133499000Y-131385000D02*
X133499000Y-127741000D01*
X133499000Y-125259000D02*
X133499000Y-121615000D01*
X133459000Y-131374000D02*
X133459000Y-127741000D01*
X133459000Y-125259000D02*
X133459000Y-121626000D01*
X133419000Y-131362000D02*
X133419000Y-127741000D01*
X133419000Y-125259000D02*
X133419000Y-121638000D01*
X133379000Y-131350000D02*
X133379000Y-127741000D01*
X133379000Y-125259000D02*
X133379000Y-121650000D01*
X133339000Y-131337000D02*
X133339000Y-127741000D01*
X133339000Y-125259000D02*
X133339000Y-121663000D01*
X133299000Y-131324000D02*
X133299000Y-127741000D01*
X133299000Y-125259000D02*
X133299000Y-121676000D01*
X133259000Y-131311000D02*
X133259000Y-127741000D01*
X133259000Y-125259000D02*
X133259000Y-121689000D01*
X133219000Y-131297000D02*
X133219000Y-127741000D01*
X133219000Y-125259000D02*
X133219000Y-121703000D01*
X133179000Y-131283000D02*
X133179000Y-127741000D01*
X133179000Y-125259000D02*
X133179000Y-121717000D01*
X133139000Y-131268000D02*
X133139000Y-127741000D01*
X133139000Y-125259000D02*
X133139000Y-121732000D01*
X133099000Y-131254000D02*
X133099000Y-127741000D01*
X133099000Y-125259000D02*
X133099000Y-121746000D01*
X133059000Y-131238000D02*
X133059000Y-127741000D01*
X133059000Y-125259000D02*
X133059000Y-121762000D01*
X133019000Y-131223000D02*
X133019000Y-127741000D01*
X133019000Y-125259000D02*
X133019000Y-121777000D01*
X132979000Y-131207000D02*
X132979000Y-127741000D01*
X132979000Y-125259000D02*
X132979000Y-121793000D01*
X132939000Y-131190000D02*
X132939000Y-127741000D01*
X132939000Y-125259000D02*
X132939000Y-121810000D01*
X132899000Y-131174000D02*
X132899000Y-127741000D01*
X132899000Y-125259000D02*
X132899000Y-121826000D01*
X132859000Y-131157000D02*
X132859000Y-127741000D01*
X132859000Y-125259000D02*
X132859000Y-121843000D01*
X132819000Y-131139000D02*
X132819000Y-127741000D01*
X132819000Y-125259000D02*
X132819000Y-121861000D01*
X132779000Y-131121000D02*
X132779000Y-127741000D01*
X132779000Y-125259000D02*
X132779000Y-121879000D01*
X132739000Y-131103000D02*
X132739000Y-127741000D01*
X132739000Y-125259000D02*
X132739000Y-121897000D01*
X132699000Y-131084000D02*
X132699000Y-127741000D01*
X132699000Y-125259000D02*
X132699000Y-121916000D01*
X132659000Y-131064000D02*
X132659000Y-127741000D01*
X132659000Y-125259000D02*
X132659000Y-121936000D01*
X132619000Y-131045000D02*
X132619000Y-127741000D01*
X132619000Y-125259000D02*
X132619000Y-121955000D01*
X132579000Y-131025000D02*
X132579000Y-127741000D01*
X132579000Y-125259000D02*
X132579000Y-121975000D01*
X132539000Y-131004000D02*
X132539000Y-127741000D01*
X132539000Y-125259000D02*
X132539000Y-121996000D01*
X132499000Y-130983000D02*
X132499000Y-127741000D01*
X132499000Y-125259000D02*
X132499000Y-122017000D01*
X132459000Y-130962000D02*
X132459000Y-127741000D01*
X132459000Y-125259000D02*
X132459000Y-122038000D01*
X132419000Y-130940000D02*
X132419000Y-127741000D01*
X132419000Y-125259000D02*
X132419000Y-122060000D01*
X132379000Y-130917000D02*
X132379000Y-127741000D01*
X132379000Y-125259000D02*
X132379000Y-122083000D01*
X132339000Y-130895000D02*
X132339000Y-127741000D01*
X132339000Y-125259000D02*
X132339000Y-122105000D01*
X132299000Y-130871000D02*
X132299000Y-127741000D01*
X132299000Y-125259000D02*
X132299000Y-122129000D01*
X132259000Y-130847000D02*
X132259000Y-127741000D01*
X132259000Y-125259000D02*
X132259000Y-122153000D01*
X132219000Y-130823000D02*
X132219000Y-127741000D01*
X132219000Y-125259000D02*
X132219000Y-122177000D01*
X132179000Y-130798000D02*
X132179000Y-127741000D01*
X132179000Y-125259000D02*
X132179000Y-122202000D01*
X132139000Y-130773000D02*
X132139000Y-127741000D01*
X132139000Y-125259000D02*
X132139000Y-122227000D01*
X132099000Y-130747000D02*
X132099000Y-127741000D01*
X132099000Y-125259000D02*
X132099000Y-122253000D01*
X132059000Y-130721000D02*
X132059000Y-127741000D01*
X132059000Y-125259000D02*
X132059000Y-122279000D01*
X132019000Y-130694000D02*
X132019000Y-127741000D01*
X132019000Y-125259000D02*
X132019000Y-122306000D01*
X131979000Y-130666000D02*
X131979000Y-127741000D01*
X131979000Y-125259000D02*
X131979000Y-122334000D01*
X131939000Y-130638000D02*
X131939000Y-127741000D01*
X131939000Y-125259000D02*
X131939000Y-122362000D01*
X131899000Y-130610000D02*
X131899000Y-127741000D01*
X131899000Y-125259000D02*
X131899000Y-122390000D01*
X131859000Y-130580000D02*
X131859000Y-127741000D01*
X131859000Y-125259000D02*
X131859000Y-122420000D01*
X131819000Y-130550000D02*
X131819000Y-127741000D01*
X131819000Y-125259000D02*
X131819000Y-122450000D01*
X131779000Y-130520000D02*
X131779000Y-127741000D01*
X131779000Y-125259000D02*
X131779000Y-122480000D01*
X131739000Y-130489000D02*
X131739000Y-127741000D01*
X131739000Y-125259000D02*
X131739000Y-122511000D01*
X131699000Y-130457000D02*
X131699000Y-127741000D01*
X131699000Y-125259000D02*
X131699000Y-122543000D01*
X131659000Y-130425000D02*
X131659000Y-127741000D01*
X131659000Y-125259000D02*
X131659000Y-122575000D01*
X131619000Y-130392000D02*
X131619000Y-127741000D01*
X131619000Y-125259000D02*
X131619000Y-122608000D01*
X131579000Y-130358000D02*
X131579000Y-127741000D01*
X131579000Y-125259000D02*
X131579000Y-122642000D01*
X131539000Y-130324000D02*
X131539000Y-127741000D01*
X131539000Y-125259000D02*
X131539000Y-122676000D01*
X131499000Y-130289000D02*
X131499000Y-127741000D01*
X131499000Y-125259000D02*
X131499000Y-122711000D01*
X131459000Y-130253000D02*
X131459000Y-127741000D01*
X131459000Y-125259000D02*
X131459000Y-122747000D01*
X131419000Y-130216000D02*
X131419000Y-127741000D01*
X131419000Y-125259000D02*
X131419000Y-122784000D01*
X131379000Y-130179000D02*
X131379000Y-127741000D01*
X131379000Y-125259000D02*
X131379000Y-122821000D01*
X131339000Y-130140000D02*
X131339000Y-127741000D01*
X131339000Y-125259000D02*
X131339000Y-122860000D01*
X131299000Y-130101000D02*
X131299000Y-127741000D01*
X131299000Y-125259000D02*
X131299000Y-122899000D01*
X131259000Y-130061000D02*
X131259000Y-127741000D01*
X131259000Y-125259000D02*
X131259000Y-122939000D01*
X131219000Y-130020000D02*
X131219000Y-127741000D01*
X131219000Y-125259000D02*
X131219000Y-122980000D01*
X131179000Y-129978000D02*
X131179000Y-127741000D01*
X131179000Y-125259000D02*
X131179000Y-123022000D01*
X131139000Y-129936000D02*
X131139000Y-123064000D01*
X131099000Y-129892000D02*
X131099000Y-123108000D01*
X131059000Y-129847000D02*
X131059000Y-123153000D01*
X131019000Y-129801000D02*
X131019000Y-123199000D01*
X130979000Y-129754000D02*
X130979000Y-123246000D01*
X130939000Y-129706000D02*
X130939000Y-123294000D01*
X130899000Y-129656000D02*
X130899000Y-123344000D01*
X130859000Y-129606000D02*
X130859000Y-123394000D01*
X130819000Y-129554000D02*
X130819000Y-123446000D01*
X130779000Y-129500000D02*
X130779000Y-123500000D01*
X130739000Y-129445000D02*
X130739000Y-123555000D01*
X130699000Y-129389000D02*
X130699000Y-123611000D01*
X130659000Y-129330000D02*
X130659000Y-123670000D01*
X130619000Y-129270000D02*
X130619000Y-123730000D01*
X130579000Y-129209000D02*
X130579000Y-123791000D01*
X130539000Y-129145000D02*
X130539000Y-123855000D01*
X130499000Y-129079000D02*
X130499000Y-123921000D01*
X130459000Y-129010000D02*
X130459000Y-123990000D01*
X130419000Y-128939000D02*
X130419000Y-124061000D01*
X130379000Y-128865000D02*
X130379000Y-124135000D01*
X130339000Y-128789000D02*
X130339000Y-124211000D01*
X130299000Y-128709000D02*
X130299000Y-124291000D01*
X130259000Y-128625000D02*
X130259000Y-124375000D01*
X130219000Y-128537000D02*
X130219000Y-124463000D01*
X130179000Y-128444000D02*
X130179000Y-124556000D01*
X130139000Y-128346000D02*
X130139000Y-124654000D01*
X130099000Y-128242000D02*
X130099000Y-124758000D01*
X130059000Y-128130000D02*
X130059000Y-124870000D01*
X130019000Y-128010000D02*
X130019000Y-124990000D01*
X129979000Y-127878000D02*
X129979000Y-125122000D01*
X129939000Y-127730000D02*
X129939000Y-125270000D01*
X129899000Y-127562000D02*
X129899000Y-125438000D01*
X129859000Y-127362000D02*
X129859000Y-125638000D01*
X129819000Y-127099000D02*
X129819000Y-125901000D01*
X140020000Y-126500000D02*
G75*
G03*
X140020000Y-126500000I-5120000J0D01*
G01*
%TO.C,R22*%
X114977064Y-85110000D02*
X110622936Y-85110000D01*
X114977064Y-81690000D02*
X110622936Y-81690000D01*
%TO.C,TP5*%
X174200000Y-127100000D02*
X175600000Y-127100000D01*
X174200000Y-128500000D02*
X174200000Y-127100000D01*
X175600000Y-127100000D02*
X175600000Y-128500000D01*
X175600000Y-128500000D02*
X174200000Y-128500000D01*
%TO.C,TP3*%
X176500000Y-117900000D02*
X177900000Y-117900000D01*
X176500000Y-119300000D02*
X176500000Y-117900000D01*
X177900000Y-117900000D02*
X177900000Y-119300000D01*
X177900000Y-119300000D02*
X176500000Y-119300000D01*
%TO.C,C6*%
X138461252Y-120735000D02*
X137938748Y-120735000D01*
X138461252Y-119265000D02*
X137938748Y-119265000D01*
%TO.C,R49*%
X133335000Y-104172936D02*
X133335000Y-104627064D01*
X131865000Y-104172936D02*
X131865000Y-104627064D01*
%TO.C,R25*%
X108835000Y-115472936D02*
X108835000Y-115927064D01*
X107365000Y-115472936D02*
X107365000Y-115927064D01*
%TO.C,TP6*%
X176300000Y-127100000D02*
X177700000Y-127100000D01*
X176300000Y-128500000D02*
X176300000Y-127100000D01*
X177700000Y-127100000D02*
X177700000Y-128500000D01*
X177700000Y-128500000D02*
X176300000Y-128500000D01*
%TO.C,Batt.meas1*%
X138200000Y-104700000D02*
X139600000Y-104700000D01*
X138200000Y-106100000D02*
X138200000Y-104700000D01*
X139600000Y-104700000D02*
X139600000Y-106100000D01*
X139600000Y-106100000D02*
X138200000Y-106100000D01*
%TO.C,R13*%
X112435000Y-95772936D02*
X112435000Y-96227064D01*
X110965000Y-95772936D02*
X110965000Y-96227064D01*
%TO.C,TP2*%
X119500000Y-111900000D02*
X120900000Y-111900000D01*
X119500000Y-113300000D02*
X119500000Y-111900000D01*
X120900000Y-111900000D02*
X120900000Y-113300000D01*
X120900000Y-113300000D02*
X119500000Y-113300000D01*
%TO.C,R46*%
X164965000Y-91227064D02*
X164965000Y-90772936D01*
X166435000Y-91227064D02*
X166435000Y-90772936D01*
%TO.C,U2*%
X136000000Y-118760000D02*
X139450000Y-118760000D01*
X136000000Y-118760000D02*
X134050000Y-118760000D01*
X136000000Y-113640000D02*
X137950000Y-113640000D01*
X136000000Y-113640000D02*
X134050000Y-113640000D01*
%TO.C,C14*%
X112809698Y-135715000D02*
X112009698Y-135715000D01*
X112409698Y-136115000D02*
X112409698Y-135315000D01*
X108400000Y-137480000D02*
X108400000Y-129320000D01*
X108360000Y-137480000D02*
X108360000Y-129320000D01*
X108320000Y-137480000D02*
X108320000Y-129320000D01*
X108280000Y-137479000D02*
X108280000Y-129321000D01*
X108240000Y-137477000D02*
X108240000Y-129323000D01*
X108200000Y-137476000D02*
X108200000Y-129324000D01*
X108160000Y-137474000D02*
X108160000Y-129326000D01*
X108120000Y-137471000D02*
X108120000Y-129329000D01*
X108080000Y-137468000D02*
X108080000Y-129332000D01*
X108040000Y-137465000D02*
X108040000Y-129335000D01*
X108000000Y-137461000D02*
X108000000Y-129339000D01*
X107960000Y-137457000D02*
X107960000Y-129343000D01*
X107920000Y-137452000D02*
X107920000Y-129348000D01*
X107880000Y-137448000D02*
X107880000Y-129352000D01*
X107840000Y-137442000D02*
X107840000Y-129358000D01*
X107800000Y-137437000D02*
X107800000Y-129363000D01*
X107760000Y-137430000D02*
X107760000Y-129370000D01*
X107720000Y-137424000D02*
X107720000Y-129376000D01*
X107679000Y-137417000D02*
X107679000Y-129383000D01*
X107639000Y-137410000D02*
X107639000Y-129390000D01*
X107599000Y-137402000D02*
X107599000Y-129398000D01*
X107559000Y-137394000D02*
X107559000Y-129406000D01*
X107519000Y-137385000D02*
X107519000Y-134440000D01*
X107519000Y-132360000D02*
X107519000Y-129415000D01*
X107479000Y-137376000D02*
X107479000Y-134440000D01*
X107479000Y-132360000D02*
X107479000Y-129424000D01*
X107439000Y-137367000D02*
X107439000Y-134440000D01*
X107439000Y-132360000D02*
X107439000Y-129433000D01*
X107399000Y-137357000D02*
X107399000Y-134440000D01*
X107399000Y-132360000D02*
X107399000Y-129443000D01*
X107359000Y-137347000D02*
X107359000Y-134440000D01*
X107359000Y-132360000D02*
X107359000Y-129453000D01*
X107319000Y-137336000D02*
X107319000Y-134440000D01*
X107319000Y-132360000D02*
X107319000Y-129464000D01*
X107279000Y-137325000D02*
X107279000Y-134440000D01*
X107279000Y-132360000D02*
X107279000Y-129475000D01*
X107239000Y-137314000D02*
X107239000Y-134440000D01*
X107239000Y-132360000D02*
X107239000Y-129486000D01*
X107199000Y-137302000D02*
X107199000Y-134440000D01*
X107199000Y-132360000D02*
X107199000Y-129498000D01*
X107159000Y-137289000D02*
X107159000Y-134440000D01*
X107159000Y-132360000D02*
X107159000Y-129511000D01*
X107119000Y-137277000D02*
X107119000Y-134440000D01*
X107119000Y-132360000D02*
X107119000Y-129523000D01*
X107079000Y-137263000D02*
X107079000Y-134440000D01*
X107079000Y-132360000D02*
X107079000Y-129537000D01*
X107039000Y-137250000D02*
X107039000Y-134440000D01*
X107039000Y-132360000D02*
X107039000Y-129550000D01*
X106999000Y-137235000D02*
X106999000Y-134440000D01*
X106999000Y-132360000D02*
X106999000Y-129565000D01*
X106959000Y-137221000D02*
X106959000Y-134440000D01*
X106959000Y-132360000D02*
X106959000Y-129579000D01*
X106919000Y-137205000D02*
X106919000Y-134440000D01*
X106919000Y-132360000D02*
X106919000Y-129595000D01*
X106879000Y-137190000D02*
X106879000Y-134440000D01*
X106879000Y-132360000D02*
X106879000Y-129610000D01*
X106839000Y-137174000D02*
X106839000Y-134440000D01*
X106839000Y-132360000D02*
X106839000Y-129626000D01*
X106799000Y-137157000D02*
X106799000Y-134440000D01*
X106799000Y-132360000D02*
X106799000Y-129643000D01*
X106759000Y-137140000D02*
X106759000Y-134440000D01*
X106759000Y-132360000D02*
X106759000Y-129660000D01*
X106719000Y-137122000D02*
X106719000Y-134440000D01*
X106719000Y-132360000D02*
X106719000Y-129678000D01*
X106679000Y-137104000D02*
X106679000Y-134440000D01*
X106679000Y-132360000D02*
X106679000Y-129696000D01*
X106639000Y-137086000D02*
X106639000Y-134440000D01*
X106639000Y-132360000D02*
X106639000Y-129714000D01*
X106599000Y-137066000D02*
X106599000Y-134440000D01*
X106599000Y-132360000D02*
X106599000Y-129734000D01*
X106559000Y-137047000D02*
X106559000Y-134440000D01*
X106559000Y-132360000D02*
X106559000Y-129753000D01*
X106519000Y-137027000D02*
X106519000Y-134440000D01*
X106519000Y-132360000D02*
X106519000Y-129773000D01*
X106479000Y-137006000D02*
X106479000Y-134440000D01*
X106479000Y-132360000D02*
X106479000Y-129794000D01*
X106439000Y-136984000D02*
X106439000Y-134440000D01*
X106439000Y-132360000D02*
X106439000Y-129816000D01*
X106399000Y-136962000D02*
X106399000Y-134440000D01*
X106399000Y-132360000D02*
X106399000Y-129838000D01*
X106359000Y-136940000D02*
X106359000Y-134440000D01*
X106359000Y-132360000D02*
X106359000Y-129860000D01*
X106319000Y-136917000D02*
X106319000Y-134440000D01*
X106319000Y-132360000D02*
X106319000Y-129883000D01*
X106279000Y-136893000D02*
X106279000Y-134440000D01*
X106279000Y-132360000D02*
X106279000Y-129907000D01*
X106239000Y-136869000D02*
X106239000Y-134440000D01*
X106239000Y-132360000D02*
X106239000Y-129931000D01*
X106199000Y-136844000D02*
X106199000Y-134440000D01*
X106199000Y-132360000D02*
X106199000Y-129956000D01*
X106159000Y-136818000D02*
X106159000Y-134440000D01*
X106159000Y-132360000D02*
X106159000Y-129982000D01*
X106119000Y-136792000D02*
X106119000Y-134440000D01*
X106119000Y-132360000D02*
X106119000Y-130008000D01*
X106079000Y-136765000D02*
X106079000Y-134440000D01*
X106079000Y-132360000D02*
X106079000Y-130035000D01*
X106039000Y-136738000D02*
X106039000Y-134440000D01*
X106039000Y-132360000D02*
X106039000Y-130062000D01*
X105999000Y-136709000D02*
X105999000Y-134440000D01*
X105999000Y-132360000D02*
X105999000Y-130091000D01*
X105959000Y-136680000D02*
X105959000Y-134440000D01*
X105959000Y-132360000D02*
X105959000Y-130120000D01*
X105919000Y-136650000D02*
X105919000Y-134440000D01*
X105919000Y-132360000D02*
X105919000Y-130150000D01*
X105879000Y-136620000D02*
X105879000Y-134440000D01*
X105879000Y-132360000D02*
X105879000Y-130180000D01*
X105839000Y-136589000D02*
X105839000Y-134440000D01*
X105839000Y-132360000D02*
X105839000Y-130211000D01*
X105799000Y-136556000D02*
X105799000Y-134440000D01*
X105799000Y-132360000D02*
X105799000Y-130244000D01*
X105759000Y-136524000D02*
X105759000Y-134440000D01*
X105759000Y-132360000D02*
X105759000Y-130276000D01*
X105719000Y-136490000D02*
X105719000Y-134440000D01*
X105719000Y-132360000D02*
X105719000Y-130310000D01*
X105679000Y-136455000D02*
X105679000Y-134440000D01*
X105679000Y-132360000D02*
X105679000Y-130345000D01*
X105639000Y-136419000D02*
X105639000Y-134440000D01*
X105639000Y-132360000D02*
X105639000Y-130381000D01*
X105599000Y-136383000D02*
X105599000Y-134440000D01*
X105599000Y-132360000D02*
X105599000Y-130417000D01*
X105559000Y-136345000D02*
X105559000Y-134440000D01*
X105559000Y-132360000D02*
X105559000Y-130455000D01*
X105519000Y-136307000D02*
X105519000Y-134440000D01*
X105519000Y-132360000D02*
X105519000Y-130493000D01*
X105479000Y-136267000D02*
X105479000Y-134440000D01*
X105479000Y-132360000D02*
X105479000Y-130533000D01*
X105439000Y-136226000D02*
X105439000Y-130574000D01*
X105399000Y-136184000D02*
X105399000Y-130616000D01*
X105359000Y-136141000D02*
X105359000Y-130659000D01*
X105319000Y-136097000D02*
X105319000Y-130703000D01*
X105279000Y-136051000D02*
X105279000Y-130749000D01*
X105239000Y-136004000D02*
X105239000Y-130796000D01*
X105199000Y-135956000D02*
X105199000Y-130844000D01*
X105159000Y-135905000D02*
X105159000Y-130895000D01*
X105119000Y-135854000D02*
X105119000Y-130946000D01*
X105079000Y-135800000D02*
X105079000Y-131000000D01*
X105039000Y-135745000D02*
X105039000Y-131055000D01*
X104999000Y-135687000D02*
X104999000Y-131113000D01*
X104959000Y-135628000D02*
X104959000Y-131172000D01*
X104919000Y-135566000D02*
X104919000Y-131234000D01*
X104879000Y-135502000D02*
X104879000Y-131298000D01*
X104839000Y-135434000D02*
X104839000Y-131366000D01*
X104799000Y-135364000D02*
X104799000Y-131436000D01*
X104759000Y-135290000D02*
X104759000Y-131510000D01*
X104719000Y-135213000D02*
X104719000Y-131587000D01*
X104679000Y-135131000D02*
X104679000Y-131669000D01*
X104639000Y-135045000D02*
X104639000Y-131755000D01*
X104599000Y-134952000D02*
X104599000Y-131848000D01*
X104559000Y-134853000D02*
X104559000Y-131947000D01*
X104519000Y-134746000D02*
X104519000Y-132054000D01*
X104479000Y-134629000D02*
X104479000Y-132171000D01*
X104439000Y-134498000D02*
X104439000Y-132302000D01*
X104399000Y-134348000D02*
X104399000Y-132452000D01*
X104359000Y-134168000D02*
X104359000Y-132632000D01*
X104319000Y-133933000D02*
X104319000Y-132867000D01*
X112520000Y-133400000D02*
G75*
G03*
X112520000Y-133400000I-4120000J0D01*
G01*
%TO.C,R34*%
X180772936Y-120565000D02*
X181227064Y-120565000D01*
X180772936Y-122035000D02*
X181227064Y-122035000D01*
%TO.C,J2*%
X96930000Y-83900000D02*
X96930000Y-87900000D01*
X97220000Y-82870000D02*
X97220000Y-88890000D01*
X97220000Y-88890000D02*
X107600000Y-88890000D01*
X97800000Y-82870000D02*
X97800000Y-83470000D01*
X97800000Y-83470000D02*
X99400000Y-83470000D01*
X98600000Y-87890000D02*
X98850000Y-87360000D01*
X98600000Y-87890000D02*
X106220000Y-87890000D01*
X98600000Y-88890000D02*
X98600000Y-87890000D01*
X98850000Y-87360000D02*
X105970000Y-87360000D01*
X98850000Y-88890000D02*
X98850000Y-87890000D01*
X99400000Y-83470000D02*
X99400000Y-82870000D01*
X100340000Y-82870000D02*
X100340000Y-83470000D01*
X100340000Y-83470000D02*
X101940000Y-83470000D01*
X101940000Y-83470000D02*
X101940000Y-82870000D01*
X102880000Y-82870000D02*
X102880000Y-83470000D01*
X102880000Y-83470000D02*
X104480000Y-83470000D01*
X104480000Y-83470000D02*
X104480000Y-82870000D01*
X105420000Y-82870000D02*
X105420000Y-83470000D01*
X105420000Y-83470000D02*
X107020000Y-83470000D01*
X105970000Y-87360000D02*
X106220000Y-87890000D01*
X105970000Y-88890000D02*
X105970000Y-87890000D01*
X106220000Y-87890000D02*
X106220000Y-88890000D01*
X107020000Y-83470000D02*
X107020000Y-82870000D01*
X107600000Y-82870000D02*
X97220000Y-82870000D01*
X107600000Y-88890000D02*
X107600000Y-82870000D01*
%TO.C,J3*%
X168340000Y-133840000D02*
X168760000Y-133840000D01*
X168340000Y-135820000D02*
X168340000Y-133840000D01*
X170340000Y-133610000D02*
X170340000Y-133160000D01*
X170790000Y-133160000D02*
X170340000Y-133160000D01*
X175860000Y-133840000D02*
X175440000Y-133840000D01*
X175860000Y-135820000D02*
X175860000Y-133840000D01*
%TO.C,C27*%
X149835000Y-87938748D02*
X149835000Y-88461252D01*
X148365000Y-87938748D02*
X148365000Y-88461252D01*
%TO.C,Q9*%
X165540000Y-95200000D02*
X165540000Y-96875000D01*
X165540000Y-95200000D02*
X165540000Y-94550000D01*
X168660000Y-95200000D02*
X168660000Y-95850000D01*
X168660000Y-95200000D02*
X168660000Y-94550000D01*
%TO.C,C28*%
X147740001Y-95586251D02*
X147740001Y-95063747D01*
X149210001Y-95586251D02*
X149210001Y-95063747D01*
%TO.C,C10*%
X105665000Y-96461252D02*
X105665000Y-95938748D01*
X107135000Y-96461252D02*
X107135000Y-95938748D01*
%TO.C,C17*%
X113435000Y-128138748D02*
X113435000Y-128661252D01*
X111965000Y-128138748D02*
X111965000Y-128661252D01*
%TO.C,C24*%
X151785000Y-97612349D02*
X151785000Y-96812349D01*
X151385000Y-97212349D02*
X152185000Y-97212349D01*
X150020000Y-93202651D02*
X158180000Y-93202651D01*
X150020000Y-93162651D02*
X158180000Y-93162651D01*
X150020000Y-93122651D02*
X158180000Y-93122651D01*
X150021000Y-93082651D02*
X158179000Y-93082651D01*
X150023000Y-93042651D02*
X158177000Y-93042651D01*
X150024000Y-93002651D02*
X158176000Y-93002651D01*
X150026000Y-92962651D02*
X158174000Y-92962651D01*
X150029000Y-92922651D02*
X158171000Y-92922651D01*
X150032000Y-92882651D02*
X158168000Y-92882651D01*
X150035000Y-92842651D02*
X158165000Y-92842651D01*
X150039000Y-92802651D02*
X158161000Y-92802651D01*
X150043000Y-92762651D02*
X158157000Y-92762651D01*
X150048000Y-92722651D02*
X158152000Y-92722651D01*
X150052000Y-92682651D02*
X158148000Y-92682651D01*
X150058000Y-92642651D02*
X158142000Y-92642651D01*
X150063000Y-92602651D02*
X158137000Y-92602651D01*
X150070000Y-92562651D02*
X158130000Y-92562651D01*
X150076000Y-92522651D02*
X158124000Y-92522651D01*
X150083000Y-92481651D02*
X158117000Y-92481651D01*
X150090000Y-92441651D02*
X158110000Y-92441651D01*
X150098000Y-92401651D02*
X158102000Y-92401651D01*
X150106000Y-92361651D02*
X158094000Y-92361651D01*
X150115000Y-92321651D02*
X153060000Y-92321651D01*
X155140000Y-92321651D02*
X158085000Y-92321651D01*
X150124000Y-92281651D02*
X153060000Y-92281651D01*
X155140000Y-92281651D02*
X158076000Y-92281651D01*
X150133000Y-92241651D02*
X153060000Y-92241651D01*
X155140000Y-92241651D02*
X158067000Y-92241651D01*
X150143000Y-92201651D02*
X153060000Y-92201651D01*
X155140000Y-92201651D02*
X158057000Y-92201651D01*
X150153000Y-92161651D02*
X153060000Y-92161651D01*
X155140000Y-92161651D02*
X158047000Y-92161651D01*
X150164000Y-92121651D02*
X153060000Y-92121651D01*
X155140000Y-92121651D02*
X158036000Y-92121651D01*
X150175000Y-92081651D02*
X153060000Y-92081651D01*
X155140000Y-92081651D02*
X158025000Y-92081651D01*
X150186000Y-92041651D02*
X153060000Y-92041651D01*
X155140000Y-92041651D02*
X158014000Y-92041651D01*
X150198000Y-92001651D02*
X153060000Y-92001651D01*
X155140000Y-92001651D02*
X158002000Y-92001651D01*
X150211000Y-91961651D02*
X153060000Y-91961651D01*
X155140000Y-91961651D02*
X157989000Y-91961651D01*
X150223000Y-91921651D02*
X153060000Y-91921651D01*
X155140000Y-91921651D02*
X157977000Y-91921651D01*
X150237000Y-91881651D02*
X153060000Y-91881651D01*
X155140000Y-91881651D02*
X157963000Y-91881651D01*
X150250000Y-91841651D02*
X153060000Y-91841651D01*
X155140000Y-91841651D02*
X157950000Y-91841651D01*
X150265000Y-91801651D02*
X153060000Y-91801651D01*
X155140000Y-91801651D02*
X157935000Y-91801651D01*
X150279000Y-91761651D02*
X153060000Y-91761651D01*
X155140000Y-91761651D02*
X157921000Y-91761651D01*
X150295000Y-91721651D02*
X153060000Y-91721651D01*
X155140000Y-91721651D02*
X157905000Y-91721651D01*
X150310000Y-91681651D02*
X153060000Y-91681651D01*
X155140000Y-91681651D02*
X157890000Y-91681651D01*
X150326000Y-91641651D02*
X153060000Y-91641651D01*
X155140000Y-91641651D02*
X157874000Y-91641651D01*
X150343000Y-91601651D02*
X153060000Y-91601651D01*
X155140000Y-91601651D02*
X157857000Y-91601651D01*
X150360000Y-91561651D02*
X153060000Y-91561651D01*
X155140000Y-91561651D02*
X157840000Y-91561651D01*
X150378000Y-91521651D02*
X153060000Y-91521651D01*
X155140000Y-91521651D02*
X157822000Y-91521651D01*
X150396000Y-91481651D02*
X153060000Y-91481651D01*
X155140000Y-91481651D02*
X157804000Y-91481651D01*
X150414000Y-91441651D02*
X153060000Y-91441651D01*
X155140000Y-91441651D02*
X157786000Y-91441651D01*
X150434000Y-91401651D02*
X153060000Y-91401651D01*
X155140000Y-91401651D02*
X157766000Y-91401651D01*
X150453000Y-91361651D02*
X153060000Y-91361651D01*
X155140000Y-91361651D02*
X157747000Y-91361651D01*
X150473000Y-91321651D02*
X153060000Y-91321651D01*
X155140000Y-91321651D02*
X157727000Y-91321651D01*
X150494000Y-91281651D02*
X153060000Y-91281651D01*
X155140000Y-91281651D02*
X157706000Y-91281651D01*
X150516000Y-91241651D02*
X153060000Y-91241651D01*
X155140000Y-91241651D02*
X157684000Y-91241651D01*
X150538000Y-91201651D02*
X153060000Y-91201651D01*
X155140000Y-91201651D02*
X157662000Y-91201651D01*
X150560000Y-91161651D02*
X153060000Y-91161651D01*
X155140000Y-91161651D02*
X157640000Y-91161651D01*
X150583000Y-91121651D02*
X153060000Y-91121651D01*
X155140000Y-91121651D02*
X157617000Y-91121651D01*
X150607000Y-91081651D02*
X153060000Y-91081651D01*
X155140000Y-91081651D02*
X157593000Y-91081651D01*
X150631000Y-91041651D02*
X153060000Y-91041651D01*
X155140000Y-91041651D02*
X157569000Y-91041651D01*
X150656000Y-91001651D02*
X153060000Y-91001651D01*
X155140000Y-91001651D02*
X157544000Y-91001651D01*
X150682000Y-90961651D02*
X153060000Y-90961651D01*
X155140000Y-90961651D02*
X157518000Y-90961651D01*
X150708000Y-90921651D02*
X153060000Y-90921651D01*
X155140000Y-90921651D02*
X157492000Y-90921651D01*
X150735000Y-90881651D02*
X153060000Y-90881651D01*
X155140000Y-90881651D02*
X157465000Y-90881651D01*
X150762000Y-90841651D02*
X153060000Y-90841651D01*
X155140000Y-90841651D02*
X157438000Y-90841651D01*
X150791000Y-90801651D02*
X153060000Y-90801651D01*
X155140000Y-90801651D02*
X157409000Y-90801651D01*
X150820000Y-90761651D02*
X153060000Y-90761651D01*
X155140000Y-90761651D02*
X157380000Y-90761651D01*
X150850000Y-90721651D02*
X153060000Y-90721651D01*
X155140000Y-90721651D02*
X157350000Y-90721651D01*
X150880000Y-90681651D02*
X153060000Y-90681651D01*
X155140000Y-90681651D02*
X157320000Y-90681651D01*
X150911000Y-90641651D02*
X153060000Y-90641651D01*
X155140000Y-90641651D02*
X157289000Y-90641651D01*
X150944000Y-90601651D02*
X153060000Y-90601651D01*
X155140000Y-90601651D02*
X157256000Y-90601651D01*
X150976000Y-90561651D02*
X153060000Y-90561651D01*
X155140000Y-90561651D02*
X157224000Y-90561651D01*
X151010000Y-90521651D02*
X153060000Y-90521651D01*
X155140000Y-90521651D02*
X157190000Y-90521651D01*
X151045000Y-90481651D02*
X153060000Y-90481651D01*
X155140000Y-90481651D02*
X157155000Y-90481651D01*
X151081000Y-90441651D02*
X153060000Y-90441651D01*
X155140000Y-90441651D02*
X157119000Y-90441651D01*
X151117000Y-90401651D02*
X153060000Y-90401651D01*
X155140000Y-90401651D02*
X157083000Y-90401651D01*
X151155000Y-90361651D02*
X153060000Y-90361651D01*
X155140000Y-90361651D02*
X157045000Y-90361651D01*
X151193000Y-90321651D02*
X153060000Y-90321651D01*
X155140000Y-90321651D02*
X157007000Y-90321651D01*
X151233000Y-90281651D02*
X153060000Y-90281651D01*
X155140000Y-90281651D02*
X156967000Y-90281651D01*
X151274000Y-90241651D02*
X156926000Y-90241651D01*
X151316000Y-90201651D02*
X156884000Y-90201651D01*
X151359000Y-90161651D02*
X156841000Y-90161651D01*
X151403000Y-90121651D02*
X156797000Y-90121651D01*
X151449000Y-90081651D02*
X156751000Y-90081651D01*
X151496000Y-90041651D02*
X156704000Y-90041651D01*
X151544000Y-90001651D02*
X156656000Y-90001651D01*
X151595000Y-89961651D02*
X156605000Y-89961651D01*
X151646000Y-89921651D02*
X156554000Y-89921651D01*
X151700000Y-89881651D02*
X156500000Y-89881651D01*
X151755000Y-89841651D02*
X156445000Y-89841651D01*
X151813000Y-89801651D02*
X156387000Y-89801651D01*
X151872000Y-89761651D02*
X156328000Y-89761651D01*
X151934000Y-89721651D02*
X156266000Y-89721651D01*
X151998000Y-89681651D02*
X156202000Y-89681651D01*
X152066000Y-89641651D02*
X156134000Y-89641651D01*
X152136000Y-89601651D02*
X156064000Y-89601651D01*
X152210000Y-89561651D02*
X155990000Y-89561651D01*
X152287000Y-89521651D02*
X155913000Y-89521651D01*
X152369000Y-89481651D02*
X155831000Y-89481651D01*
X152455000Y-89441651D02*
X155745000Y-89441651D01*
X152548000Y-89401651D02*
X155652000Y-89401651D01*
X152647000Y-89361651D02*
X155553000Y-89361651D01*
X152754000Y-89321651D02*
X155446000Y-89321651D01*
X152871000Y-89281651D02*
X155329000Y-89281651D01*
X153002000Y-89241651D02*
X155198000Y-89241651D01*
X153152000Y-89201651D02*
X155048000Y-89201651D01*
X153332000Y-89161651D02*
X154868000Y-89161651D01*
X153567000Y-89121651D02*
X154633000Y-89121651D01*
X158220000Y-93202651D02*
G75*
G03*
X158220000Y-93202651I-4120000J0D01*
G01*
%TO.C,R3*%
X124965000Y-133827064D02*
X124965000Y-133372936D01*
X126435000Y-133827064D02*
X126435000Y-133372936D01*
%TO.C,JP2*%
X159600000Y-113500000D02*
X159600000Y-112900000D01*
X160300000Y-112200000D02*
X161700000Y-112200000D01*
X161700000Y-114200000D02*
X160300000Y-114200000D01*
X162400000Y-112900000D02*
X162400000Y-113500000D01*
X160300000Y-112200000D02*
G75*
G03*
X159600000Y-112900000I-1J-699999D01*
G01*
X159600000Y-113500000D02*
G75*
G03*
X160300000Y-114200000I699999J-1D01*
G01*
X162400000Y-112900000D02*
G75*
G03*
X161700000Y-112200000I-700000J0D01*
G01*
X161700000Y-114200000D02*
G75*
G03*
X162400000Y-113500000I0J700000D01*
G01*
%TO.C,R45*%
X168865000Y-83827064D02*
X168865000Y-83372936D01*
X170335000Y-83827064D02*
X170335000Y-83372936D01*
%TO.C,TP4*%
X179400000Y-122700000D02*
X180800000Y-122700000D01*
X179400000Y-124100000D02*
X179400000Y-122700000D01*
X180800000Y-122700000D02*
X180800000Y-124100000D01*
X180800000Y-124100000D02*
X179400000Y-124100000D01*
%TO.C,R37*%
X139727064Y-90010000D02*
X138272936Y-90010000D01*
X139727064Y-88190000D02*
X138272936Y-88190000D01*
%TO.C,J6*%
X165620000Y-136480000D02*
X165620000Y-132480000D01*
X165330000Y-137510000D02*
X165330000Y-131490000D01*
X165330000Y-131490000D02*
X149870000Y-131490000D01*
X164750000Y-137510000D02*
X164750000Y-136910000D01*
X164750000Y-136910000D02*
X163150000Y-136910000D01*
X163950000Y-132490000D02*
X163700000Y-133020000D01*
X163950000Y-132490000D02*
X151250000Y-132490000D01*
X163950000Y-131490000D02*
X163950000Y-132490000D01*
X163700000Y-133020000D02*
X151500000Y-133020000D01*
X163700000Y-131490000D02*
X163700000Y-132490000D01*
X163150000Y-136910000D02*
X163150000Y-137510000D01*
X162210000Y-137510000D02*
X162210000Y-136910000D01*
X162210000Y-136910000D02*
X160610000Y-136910000D01*
X160610000Y-136910000D02*
X160610000Y-137510000D01*
X159670000Y-137510000D02*
X159670000Y-136910000D01*
X159670000Y-136910000D02*
X158070000Y-136910000D01*
X158070000Y-136910000D02*
X158070000Y-137510000D01*
X157130000Y-137510000D02*
X157130000Y-136910000D01*
X157130000Y-136910000D02*
X155530000Y-136910000D01*
X155530000Y-136910000D02*
X155530000Y-137510000D01*
X154590000Y-137510000D02*
X154590000Y-136910000D01*
X154590000Y-136910000D02*
X152990000Y-136910000D01*
X152990000Y-136910000D02*
X152990000Y-137510000D01*
X152050000Y-137510000D02*
X152050000Y-136910000D01*
X152050000Y-136910000D02*
X150450000Y-136910000D01*
X151500000Y-133020000D02*
X151250000Y-132490000D01*
X151500000Y-131490000D02*
X151500000Y-132490000D01*
X151250000Y-132490000D02*
X151250000Y-131490000D01*
X150450000Y-136910000D02*
X150450000Y-137510000D01*
X149870000Y-137510000D02*
X165330000Y-137510000D01*
X149870000Y-131490000D02*
X149870000Y-137510000D01*
%TO.C,R44*%
X168535000Y-90772936D02*
X168535000Y-91227064D01*
X167065000Y-90772936D02*
X167065000Y-91227064D01*
%TO.C,Q7*%
X175740000Y-124200000D02*
X175740000Y-125875000D01*
X175740000Y-124200000D02*
X175740000Y-123550000D01*
X178860000Y-124200000D02*
X178860000Y-124850000D01*
X178860000Y-124200000D02*
X178860000Y-123550000D01*
%TO.C,C18*%
X103735000Y-127638748D02*
X103735000Y-128161252D01*
X102265000Y-127638748D02*
X102265000Y-128161252D01*
%TO.C,JP3*%
X150600000Y-104200000D02*
X150600000Y-104800000D01*
X149900000Y-105500000D02*
X148500000Y-105500000D01*
X148500000Y-103500000D02*
X149900000Y-103500000D01*
X147800000Y-104800000D02*
X147800000Y-104200000D01*
X149900000Y-105500000D02*
G75*
G03*
X150600000Y-104800000I1J699999D01*
G01*
X150600000Y-104200000D02*
G75*
G03*
X149900000Y-103500000I-699999J1D01*
G01*
X147800000Y-104800000D02*
G75*
G03*
X148500000Y-105500000I700000J0D01*
G01*
X148500000Y-103500000D02*
G75*
G03*
X147800000Y-104200000I0J-700000D01*
G01*
%TO.C,C29*%
X165565000Y-123061252D02*
X165565000Y-122538748D01*
X167035000Y-123061252D02*
X167035000Y-122538748D01*
%TO.C,C26*%
X147338748Y-90865000D02*
X147861252Y-90865000D01*
X147338748Y-92335000D02*
X147861252Y-92335000D01*
%TO.C,R5*%
X116035000Y-103872936D02*
X116035000Y-104327064D01*
X114565000Y-103872936D02*
X114565000Y-104327064D01*
%TO.C,J7*%
X179820000Y-83370000D02*
X179820000Y-93650000D01*
X179820000Y-83370000D02*
X182420000Y-83370000D01*
X179820000Y-93650000D02*
X185020000Y-93650000D01*
X182420000Y-83370000D02*
X182420000Y-85970000D01*
X182420000Y-85970000D02*
X185020000Y-85970000D01*
X183690000Y-83370000D02*
X185020000Y-83370000D01*
X185020000Y-83370000D02*
X185020000Y-84700000D01*
X185020000Y-85970000D02*
X185020000Y-93650000D01*
D15*
%TO.C,D1*%
X141760001Y-129387499D02*
X141760001Y-129819999D01*
X141760001Y-132579999D02*
X141760001Y-133012499D01*
X141760001Y-133012499D02*
X146160001Y-133012499D01*
X146160001Y-129387499D02*
X141760001Y-129387499D01*
X146160001Y-129387499D02*
X146160001Y-129819999D01*
X146160001Y-132579999D02*
X146160001Y-133012499D01*
D10*
X140160001Y-131199999D02*
G75*
G03*
X140160001Y-131199999I-100000J0D01*
G01*
D14*
%TO.C,JP9*%
X128600000Y-103100000D02*
X128600000Y-102500000D01*
X129300000Y-101800000D02*
X130700000Y-101800000D01*
X130700000Y-103800000D02*
X129300000Y-103800000D01*
X131400000Y-102500000D02*
X131400000Y-103100000D01*
X129300000Y-101800000D02*
G75*
G03*
X128600000Y-102500000I-1J-699999D01*
G01*
X128600000Y-103100000D02*
G75*
G03*
X129300000Y-103800000I699999J-1D01*
G01*
X131400000Y-102500000D02*
G75*
G03*
X130700000Y-101800000I-700000J0D01*
G01*
X130700000Y-103800000D02*
G75*
G03*
X131400000Y-103100000I0J700000D01*
G01*
%TO.C,U5*%
X179590000Y-130210000D02*
X179590000Y-129485000D01*
X180315000Y-124990000D02*
X179590000Y-124990000D01*
X180315000Y-130210000D02*
X179590000Y-130210000D01*
X184085000Y-124990000D02*
X184810000Y-124990000D01*
X184085000Y-130210000D02*
X184810000Y-130210000D01*
X184810000Y-124990000D02*
X184810000Y-125715000D01*
X184810000Y-130210000D02*
X184810000Y-129485000D01*
%TO.C,R18*%
X123277064Y-89110000D02*
X118922936Y-89110000D01*
X123277064Y-85690000D02*
X118922936Y-85690000D01*
%TO.C,R26*%
X107927064Y-120935000D02*
X107472936Y-120935000D01*
X107927064Y-119465000D02*
X107472936Y-119465000D01*
%TO.C,R31*%
X183327064Y-124035000D02*
X182872936Y-124035000D01*
X183327064Y-122565000D02*
X182872936Y-122565000D01*
%TD*%
M02*
