%TF.GenerationSoftware,KiCad,Pcbnew,7.0.2-6a45011f42~172~ubuntu22.04.1*%
%TF.CreationDate,2023-06-02T03:11:57+02:00*%
%TF.ProjectId,MR-SLDR-01,4d522d53-4c44-4522-9d30-312e6b696361,rev?*%
%TF.SameCoordinates,Original*%
%TF.FileFunction,Copper,L2,Bot*%
%TF.FilePolarity,Positive*%
%FSLAX46Y46*%
G04 Gerber Fmt 4.6, Leading zero omitted, Abs format (unit mm)*
G04 Created by KiCad (PCBNEW 7.0.2-6a45011f42~172~ubuntu22.04.1) date 2023-06-02 03:11:57*
%MOMM*%
%LPD*%
G01*
G04 APERTURE LIST*
G04 Aperture macros list*
%AMRoundRect*
0 Rectangle with rounded corners*
0 $1 Rounding radius*
0 $2 $3 $4 $5 $6 $7 $8 $9 X,Y pos of 4 corners*
0 Add a 4 corners polygon primitive as box body*
4,1,4,$2,$3,$4,$5,$6,$7,$8,$9,$2,$3,0*
0 Add four circle primitives for the rounded corners*
1,1,$1+$1,$2,$3*
1,1,$1+$1,$4,$5*
1,1,$1+$1,$6,$7*
1,1,$1+$1,$8,$9*
0 Add four rect primitives between the rounded corners*
20,1,$1+$1,$2,$3,$4,$5,0*
20,1,$1+$1,$4,$5,$6,$7,0*
20,1,$1+$1,$6,$7,$8,$9,0*
20,1,$1+$1,$8,$9,$2,$3,0*%
G04 Aperture macros list end*
%TA.AperFunction,ComponentPad*%
%ADD10C,1.440000*%
%TD*%
%TA.AperFunction,ComponentPad*%
%ADD11R,2.000000X2.000000*%
%TD*%
%TA.AperFunction,ComponentPad*%
%ADD12C,2.000000*%
%TD*%
%TA.AperFunction,ComponentPad*%
%ADD13RoundRect,0.250000X0.620000X-0.620000X0.620000X0.620000X-0.620000X0.620000X-0.620000X-0.620000X0*%
%TD*%
%TA.AperFunction,ComponentPad*%
%ADD14C,1.740000*%
%TD*%
%TA.AperFunction,ComponentPad*%
%ADD15R,1.000000X1.000000*%
%TD*%
%TA.AperFunction,ComponentPad*%
%ADD16RoundRect,0.250000X-0.620000X-0.620000X0.620000X-0.620000X0.620000X0.620000X-0.620000X0.620000X0*%
%TD*%
%TA.AperFunction,ComponentPad*%
%ADD17C,0.600000*%
%TD*%
%TA.AperFunction,SMDPad,CuDef*%
%ADD18R,9.500000X3.400000*%
%TD*%
%TA.AperFunction,ComponentPad*%
%ADD19R,1.600000X1.600000*%
%TD*%
%TA.AperFunction,ComponentPad*%
%ADD20C,1.600000*%
%TD*%
%TA.AperFunction,ComponentPad*%
%ADD21RoundRect,0.250000X-0.620000X-0.845000X0.620000X-0.845000X0.620000X0.845000X-0.620000X0.845000X0*%
%TD*%
%TA.AperFunction,ComponentPad*%
%ADD22O,1.740000X2.190000*%
%TD*%
%TA.AperFunction,ComponentPad*%
%ADD23R,1.350000X1.350000*%
%TD*%
%TA.AperFunction,ComponentPad*%
%ADD24O,1.350000X1.350000*%
%TD*%
%TA.AperFunction,ComponentPad*%
%ADD25O,1.600000X1.600000*%
%TD*%
%TA.AperFunction,ComponentPad*%
%ADD26O,0.890000X1.550000*%
%TD*%
%TA.AperFunction,ComponentPad*%
%ADD27O,1.250000X0.950000*%
%TD*%
%TA.AperFunction,ComponentPad*%
%ADD28RoundRect,0.250000X0.620000X0.845000X-0.620000X0.845000X-0.620000X-0.845000X0.620000X-0.845000X0*%
%TD*%
%TA.AperFunction,ComponentPad*%
%ADD29R,1.700000X1.700000*%
%TD*%
%TA.AperFunction,ComponentPad*%
%ADD30O,1.700000X1.700000*%
%TD*%
%TA.AperFunction,ViaPad*%
%ADD31C,0.800000*%
%TD*%
%TA.AperFunction,Conductor*%
%ADD32C,0.250000*%
%TD*%
%TA.AperFunction,Conductor*%
%ADD33C,1.000000*%
%TD*%
%TA.AperFunction,Conductor*%
%ADD34C,0.500000*%
%TD*%
G04 APERTURE END LIST*
D10*
%TO.P,RV1,1,1*%
%TO.N,M.V3P3OUT*%
X130600000Y-98180000D03*
%TO.P,RV1,2,2*%
%TO.N,Net-(U6-AVRef)*%
X130600000Y-95640000D03*
%TO.P,RV1,3,3*%
%TO.N,GND*%
X130600000Y-93100000D03*
%TD*%
D11*
%TO.P,C19,1*%
%TO.N,+12V*%
X119000000Y-119100000D03*
D12*
%TO.P,C19,2*%
%TO.N,GND*%
X114000000Y-119100000D03*
%TD*%
D13*
%TO.P,J10,1,Pin_1*%
%TO.N,Net-(J10-Pin_1)*%
X100250000Y-117770000D03*
D14*
%TO.P,J10,2,Pin_2*%
%TO.N,GND*%
X100250000Y-115230000D03*
%TD*%
D15*
%TO.P,TP7,1,1*%
%TO.N,Net-(U5-~{SUSPEND})*%
X184600000Y-135800000D03*
%TD*%
D16*
%TO.P,J1,1,Pin_1*%
%TO.N,BAT_NTC*%
X129330000Y-84750000D03*
D14*
%TO.P,J1,2,Pin_2*%
%TO.N,GND1*%
X131870000Y-84750000D03*
%TD*%
D15*
%TO.P,TP1,1,1*%
%TO.N,+3.3V*%
X159400000Y-116600000D03*
%TD*%
%TO.P,TP8,1,1*%
%TO.N,Net-(J6-Pin_5)*%
X156400000Y-129700000D03*
%TD*%
D17*
%TO.P,U6,29,GND(pad)*%
%TO.N,GND*%
X146550000Y-95700000D03*
X144770000Y-95700000D03*
X142990000Y-95700000D03*
X141210000Y-95700000D03*
X139430000Y-95700000D03*
X137650000Y-95700000D03*
X146550000Y-97000000D03*
X144770000Y-97000000D03*
X142990000Y-97000000D03*
D18*
X142100000Y-97000000D03*
D17*
X141210000Y-97000000D03*
X139430000Y-97000000D03*
X137650000Y-97000000D03*
X146550000Y-98300000D03*
X144770000Y-98300000D03*
X142990000Y-98300000D03*
X141210000Y-98300000D03*
X139430000Y-98300000D03*
X137650000Y-98300000D03*
%TD*%
D16*
%TO.P,J9,1,Pin_1*%
%TO.N,Net-(J9-Pin_1)*%
X153230000Y-84350000D03*
D14*
%TO.P,J9,2,Pin_2*%
%TO.N,Net-(J9-Pin_2)*%
X155770000Y-84350000D03*
%TD*%
D19*
%TO.P,C11,1*%
%TO.N,+3.3V*%
X158500000Y-120997349D03*
D20*
%TO.P,C11,2*%
%TO.N,GND*%
X158500000Y-124797349D03*
%TD*%
D21*
%TO.P,J5,1,Pin_1*%
%TO.N,M.1B*%
X138490000Y-84420000D03*
D22*
%TO.P,J5,2,Pin_2*%
%TO.N,M.2B*%
X141030000Y-84420000D03*
%TO.P,J5,3,Pin_3*%
%TO.N,M.1A*%
X143570000Y-84420000D03*
%TO.P,J5,4,Pin_4*%
%TO.N,M.2A*%
X146110000Y-84420000D03*
%TD*%
D23*
%TO.P,J4,1,Pin_1*%
%TO.N,+3.3V*%
X157900000Y-102400000D03*
D24*
%TO.P,J4,2,Pin_2*%
%TO.N,JTAG.TMS*%
X159900000Y-102400000D03*
%TO.P,J4,3,Pin_3*%
%TO.N,GND*%
X157900000Y-104400000D03*
%TO.P,J4,4,Pin_4*%
%TO.N,JTAG.TCK*%
X159900000Y-104400000D03*
%TO.P,J4,5,Pin_5*%
%TO.N,GND*%
X157900000Y-106400000D03*
%TO.P,J4,6,Pin_6*%
%TO.N,JTAG.TDO*%
X159900000Y-106400000D03*
%TO.P,J4,7,Pin_7*%
%TO.N,GND*%
X157900000Y-108400000D03*
%TO.P,J4,8,Pin_8*%
%TO.N,JTAG.TDI*%
X159900000Y-108400000D03*
%TO.P,J4,9,Pin_9*%
%TO.N,GND*%
X157900000Y-110400000D03*
%TO.P,J4,10,Pin_10*%
%TO.N,Net-(J4-Pin_10)*%
X159900000Y-110400000D03*
%TD*%
D19*
%TO.P,U8,1*%
%TO.N,Net-(Q8-C)*%
X174925000Y-90200000D03*
D25*
%TO.P,U8,2*%
%TO.N,GND*%
X177465000Y-90200000D03*
%TO.P,U8,3*%
%TO.N,Net-(J8-Pin_1)*%
X177465000Y-82580000D03*
%TO.P,U8,4*%
%TO.N,Net-(JP7-B)*%
X174925000Y-82580000D03*
%TD*%
D19*
%TO.P,U9,1*%
%TO.N,Net-(Q9-C)*%
X162900000Y-90400000D03*
D25*
%TO.P,U9,2*%
%TO.N,GND*%
X160360000Y-90400000D03*
%TO.P,U9,3*%
%TO.N,Net-(J9-Pin_1)*%
X160360000Y-98020000D03*
%TO.P,U9,4*%
%TO.N,Net-(JP8-B)*%
X162900000Y-98020000D03*
%TD*%
D16*
%TO.P,J8,1,Pin_1*%
%TO.N,Net-(J8-Pin_1)*%
X162230000Y-84350000D03*
D14*
%TO.P,J8,2,Pin_2*%
%TO.N,Net-(J8-Pin_2)*%
X164770000Y-84350000D03*
%TD*%
D11*
%TO.P,C1,1*%
%TO.N,Net-(Q3-D)*%
X137400000Y-126500000D03*
D12*
%TO.P,C1,2*%
%TO.N,GND*%
X132400000Y-126500000D03*
%TD*%
D15*
%TO.P,TP5,1,1*%
%TO.N,Net-(U5-~{DCD})*%
X174900000Y-127800000D03*
%TD*%
%TO.P,TP3,1,1*%
%TO.N,Net-(U5-~{CTS})*%
X177200000Y-118600000D03*
%TD*%
%TO.P,TP6,1,1*%
%TO.N,Net-(U5-~{RI}{slash}CLK)*%
X177000000Y-127800000D03*
%TD*%
%TO.P,Batt.meas1,1,1*%
%TO.N,/CPU/Batt.meas*%
X138900000Y-105400000D03*
%TD*%
%TO.P,TP2,1,1*%
%TO.N,+12V*%
X120200000Y-112600000D03*
%TD*%
D19*
%TO.P,C14,1*%
%TO.N,+5V*%
X110300000Y-133400000D03*
D20*
%TO.P,C14,2*%
%TO.N,GND*%
X106500000Y-133400000D03*
%TD*%
D21*
%TO.P,J2,1,Pin_1*%
%TO.N,Net-(J2-Pin_1)*%
X98600000Y-85900000D03*
D22*
%TO.P,J2,2,Pin_2*%
%TO.N,Net-(J2-Pin_2)*%
X101140000Y-85900000D03*
%TO.P,J2,3,Pin_3*%
%TO.N,Net-(J2-Pin_3)*%
X103680000Y-85900000D03*
%TO.P,J2,4,Pin_4*%
%TO.N,GND1*%
X106220000Y-85900000D03*
%TD*%
D26*
%TO.P,J3,6,Shield*%
%TO.N,GND*%
X168600000Y-136800000D03*
D27*
X169600000Y-134100000D03*
X174600000Y-134100000D03*
D26*
X175600000Y-136800000D03*
%TD*%
D19*
%TO.P,C24,1*%
%TO.N,+12V*%
X154100000Y-95102651D03*
D20*
%TO.P,C24,2*%
%TO.N,GND*%
X154100000Y-91302651D03*
%TD*%
D15*
%TO.P,TP4,1,1*%
%TO.N,Net-(U5-~{DSR})*%
X180100000Y-123400000D03*
%TD*%
D28*
%TO.P,J6,1,Pin_1*%
%TO.N,+3.3V*%
X163950000Y-134480000D03*
D22*
%TO.P,J6,2,Pin_2*%
%TO.N,GND*%
X161410000Y-134480000D03*
%TO.P,J6,3,Pin_3*%
%TO.N,/CPU/I2C0.SCL*%
X158870000Y-134480000D03*
%TO.P,J6,4,Pin_4*%
%TO.N,/CPU/I2C0.SDA*%
X156330000Y-134480000D03*
%TO.P,J6,5,Pin_5*%
%TO.N,Net-(J6-Pin_5)*%
X153790000Y-134480000D03*
%TO.P,J6,6,Pin_6*%
%TO.N,/CPU/DISTANCE_METER.EN*%
X151250000Y-134480000D03*
%TD*%
D29*
%TO.P,J7,1,Pin_1*%
%TO.N,GND*%
X183690000Y-84700000D03*
D30*
%TO.P,J7,2,Pin_2*%
%TO.N,Net-(J7-Pin_2)*%
X181150000Y-84700000D03*
%TO.P,J7,3,Pin_3*%
%TO.N,GND*%
X183690000Y-87240000D03*
%TO.P,J7,4,Pin_4*%
%TO.N,Net-(J7-Pin_4)*%
X181150000Y-87240000D03*
%TO.P,J7,5,Pin_5*%
%TO.N,GND*%
X183690000Y-89780000D03*
%TO.P,J7,6,Pin_6*%
%TO.N,Net-(J7-Pin_6)*%
X181150000Y-89780000D03*
%TO.P,J7,7,Pin_7*%
%TO.N,GND*%
X183690000Y-92320000D03*
%TO.P,J7,8,Pin_8*%
%TO.N,Net-(J7-Pin_8)*%
X181150000Y-92320000D03*
%TD*%
D31*
%TO.N,GND*%
X133800000Y-104500000D03*
%TO.N,+12V*%
X150227582Y-91203082D03*
X145200000Y-91600000D03*
X144524500Y-92000000D03*
X150224500Y-92000000D03*
X144527582Y-91203082D03*
X150900000Y-91600000D03*
X139000000Y-91600000D03*
X139675500Y-91174500D03*
X139675500Y-92000000D03*
%TO.N,GND*%
X184000000Y-114400000D03*
X113500000Y-113600000D03*
X135400000Y-115200000D03*
X178800000Y-105700000D03*
X178800000Y-104300000D03*
X122600000Y-92200000D03*
X177700000Y-133500000D03*
X180200000Y-96700000D03*
X103000000Y-130300000D03*
X146500000Y-87524999D03*
X167800000Y-102100000D03*
X138900000Y-112900000D03*
X175000000Y-103299999D03*
X135400000Y-117200000D03*
X112600000Y-112700000D03*
X177800000Y-108100000D03*
X175100000Y-133100000D03*
X146900000Y-86800000D03*
X134200000Y-113000000D03*
X113500000Y-112700000D03*
X174200000Y-125300000D03*
X112600000Y-113600000D03*
X137700000Y-132500000D03*
X173000000Y-129800000D03*
X167100000Y-96700000D03*
X136000000Y-90000000D03*
X174000000Y-133100000D03*
X135400000Y-116200000D03*
X123500000Y-92200000D03*
X177800000Y-103300000D03*
X178800000Y-107099999D03*
X136600000Y-115200000D03*
X137700000Y-112900000D03*
X154000000Y-116600000D03*
X176280153Y-134730057D03*
X111700000Y-113600000D03*
X136000000Y-89100000D03*
X174000000Y-107100000D03*
X147300000Y-87500000D03*
X110800000Y-113600000D03*
X123500000Y-91300000D03*
X122600000Y-93100000D03*
X181000000Y-126400000D03*
X181000000Y-128800000D03*
X136700000Y-132500000D03*
X154600000Y-111500000D03*
X183400000Y-126400000D03*
X176400000Y-108100000D03*
X162800000Y-130900000D03*
X175000000Y-108100000D03*
X174000000Y-105700000D03*
X183400000Y-128800000D03*
X182200000Y-127600000D03*
X149900000Y-93000000D03*
X122600000Y-91300000D03*
X174000000Y-104300000D03*
X167200000Y-117600000D03*
X169824875Y-89599999D03*
X136600000Y-117200000D03*
X105300000Y-120900000D03*
X136600000Y-116200000D03*
X111200000Y-129500000D03*
X166300000Y-125200000D03*
X105075500Y-125600000D03*
X123500000Y-93100000D03*
X135700000Y-113600000D03*
X176400000Y-103300000D03*
X134000000Y-100500000D03*
X183564500Y-99900000D03*
X120300000Y-106300000D03*
X136000000Y-88200000D03*
%TO.N,+3.3V*%
X144200498Y-106000500D03*
X182707862Y-112932362D03*
X182707862Y-117299502D03*
X158861445Y-113614055D03*
X172900000Y-131100000D03*
X144200497Y-108649500D03*
X176708216Y-133376027D03*
X167900000Y-111400000D03*
%TO.N,M.V3P3OUT*%
X137900000Y-101800000D03*
X147400000Y-100400000D03*
X142000000Y-101800000D03*
%TO.N,/CPU/I2C0.SCL*%
X163500000Y-116000000D03*
X161150000Y-118350000D03*
%TO.N,/CPU/I2C0.SDA*%
X162274309Y-118325691D03*
X164206755Y-116706755D03*
%TO.N,/CPU/DISTANCE_METER.EN*%
X164913510Y-117413510D03*
X163387701Y-118312299D03*
%TO.N,Net-(Q8-B)*%
X171700001Y-93124499D03*
X171700001Y-91474873D03*
%TO.N,ESP32.EN*%
X164321177Y-111450500D03*
X178396672Y-117301849D03*
X179400000Y-113700500D03*
X181600000Y-100899999D03*
X167730694Y-112725500D03*
X183564500Y-100900000D03*
%TO.N,Net-(U3-FB)*%
X107100000Y-130389500D03*
X110230341Y-129257585D03*
%TO.N,/CPU/!M.FAULT*%
X145200000Y-108649500D03*
X145200000Y-106000000D03*
X171400000Y-114500000D03*
X164500000Y-113900000D03*
%TO.N,/CPU/M.DIR*%
X152600000Y-100800000D03*
X154700000Y-103300000D03*
X169600000Y-101700000D03*
X164585993Y-99624499D03*
%TO.N,/CPU/M.STEP*%
X147000000Y-105550500D03*
X169100000Y-100800000D03*
X165900001Y-98899999D03*
X147200497Y-108649500D03*
%TO.N,/CPU/!M.RESET*%
X143200000Y-106000500D03*
X165900000Y-97900000D03*
X169700000Y-99800000D03*
X143200000Y-108199500D03*
%TO.N,/CPU/!M.EN*%
X164600000Y-112900000D03*
X146200529Y-104950625D03*
X146200994Y-108649500D03*
X169415500Y-114600498D03*
%TO.N,/CPU/VSPI.SDO*%
X175475500Y-118200000D03*
X178400497Y-114150500D03*
%TO.N,JTAG.TDI*%
X163954191Y-100854190D03*
X163900000Y-103274500D03*
%TO.N,GND1*%
X108400000Y-88300000D03*
X108900000Y-100600000D03*
X112100000Y-107000000D03*
X106400000Y-93800000D03*
X107900000Y-100600000D03*
X108400000Y-83500000D03*
X108500000Y-93800000D03*
X103100000Y-107000000D03*
X114600000Y-106400000D03*
X108400000Y-87200000D03*
X109900000Y-100600000D03*
X108400000Y-82500000D03*
X108400000Y-84600000D03*
X108400000Y-86100000D03*
X104300000Y-93800000D03*
X103100000Y-109100000D03*
X102200000Y-93800000D03*
%TO.N,Net-(U5-~{CTS})*%
X183909236Y-117299500D03*
%TO.N,Net-(U5-~{SUSPEND})*%
X184700000Y-130200000D03*
%TO.N,Net-(U5-VBUS)*%
X181600000Y-135100000D03*
X178599646Y-134699646D03*
%TO.N,Net-(J10-Pin_1)*%
X128477464Y-109077464D03*
X107700000Y-113500500D03*
X112824500Y-107711166D03*
X126922536Y-107522536D03*
%TO.N,/CPU/Batt.meas*%
X140941214Y-106000500D03*
X148046335Y-109553665D03*
%TD*%
D32*
%TO.N,Net-(J10-Pin_1)*%
X112824500Y-107711166D02*
X110250500Y-110285166D01*
X110250500Y-110285166D02*
X110250500Y-110950000D01*
X110250500Y-110950000D02*
X107700000Y-113500500D01*
D33*
%TO.N,+12V*%
X150900000Y-91600000D02*
X139000000Y-91600000D01*
D34*
%TO.N,+3.3V*%
X176708216Y-133376027D02*
X174432189Y-131100000D01*
X164900500Y-110600500D02*
X165700000Y-111400000D01*
X163969095Y-110600500D02*
X164900500Y-110600500D01*
D32*
X159400000Y-114152610D02*
X158861445Y-113614055D01*
D34*
X161500000Y-116600000D02*
X163400000Y-114700000D01*
D32*
X144200497Y-108649500D02*
X144200498Y-108649499D01*
X144200498Y-108649499D02*
X144200498Y-106000500D01*
D34*
X182707862Y-117299502D02*
X182707862Y-112932362D01*
X159400000Y-116600000D02*
X161500000Y-116600000D01*
D32*
X159400000Y-116600000D02*
X159400000Y-114152610D01*
D34*
X163400000Y-114700000D02*
X163400000Y-111169595D01*
X163400000Y-111169595D02*
X163969095Y-110600500D01*
X165700000Y-111400000D02*
X167900000Y-111400000D01*
X174432189Y-131100000D02*
X172900000Y-131100000D01*
D32*
%TO.N,M.V3P3OUT*%
X137900000Y-101800000D02*
X142000000Y-101800000D01*
X142000000Y-101800000D02*
X146000000Y-101800000D01*
X146000000Y-101800000D02*
X147400000Y-100400000D01*
%TO.N,/CPU/I2C0.SCL*%
X163500000Y-116000000D02*
X161150000Y-118350000D01*
%TO.N,/CPU/I2C0.SDA*%
X162274309Y-118325691D02*
X163893245Y-116706755D01*
X163893245Y-116706755D02*
X164206755Y-116706755D01*
%TO.N,/CPU/DISTANCE_METER.EN*%
X163387701Y-118312299D02*
X164268245Y-117431755D01*
X164507060Y-117431755D02*
X164525305Y-117413510D01*
X164268245Y-117431755D02*
X164507060Y-117431755D01*
X164525305Y-117413510D02*
X164913510Y-117413510D01*
%TO.N,Net-(Q8-B)*%
X171700001Y-93124499D02*
X171700001Y-91474873D01*
%TO.N,ESP32.EN*%
X165525500Y-112725500D02*
X167730694Y-112725500D01*
X181600000Y-100899999D02*
X181600001Y-100900000D01*
X179400000Y-113700500D02*
X179400000Y-116298521D01*
X164321177Y-111521177D02*
X165525500Y-112725500D01*
X179400000Y-116298521D02*
X178396672Y-117301849D01*
X164321177Y-111450500D02*
X164321177Y-111521177D01*
X181600001Y-100900000D02*
X183564500Y-100900000D01*
%TO.N,Net-(U3-FB)*%
X109098426Y-130389500D02*
X110230341Y-129257585D01*
X107100000Y-130389500D02*
X109098426Y-130389500D01*
%TO.N,/CPU/!M.FAULT*%
X169715805Y-115325498D02*
X169115195Y-115325498D01*
X169115195Y-115325498D02*
X168690500Y-114900803D01*
X170541303Y-114500000D02*
X169715805Y-115325498D01*
X168690500Y-114511894D02*
X168078606Y-113900000D01*
X171400000Y-114500000D02*
X170541303Y-114500000D01*
X145200000Y-106000000D02*
X145200000Y-108649500D01*
X168690500Y-114900803D02*
X168690500Y-114511894D01*
X168078606Y-113900000D02*
X164500000Y-113900000D01*
%TO.N,/CPU/M.DIR*%
X152600000Y-101200000D02*
X154700000Y-103300000D01*
X169600000Y-101700000D02*
X168974695Y-101700000D01*
X168375000Y-101100305D02*
X168974695Y-101700000D01*
X167524499Y-99624499D02*
X168375000Y-100475000D01*
X164585993Y-99624499D02*
X167524499Y-99624499D01*
X168375000Y-100475000D02*
X168375000Y-101100305D01*
X152600000Y-100800000D02*
X152600000Y-101200000D01*
%TO.N,/CPU/M.STEP*%
X147000000Y-105550500D02*
X147000000Y-108449003D01*
X147000000Y-108449003D02*
X147200497Y-108649500D01*
X167599999Y-98899999D02*
X165900001Y-98899999D01*
X169100000Y-100800000D02*
X169100000Y-100400000D01*
X169100000Y-100400000D02*
X167599999Y-98899999D01*
%TO.N,/CPU/!M.RESET*%
X166475306Y-98449999D02*
X167786396Y-98450000D01*
X166174999Y-98174999D02*
X166200306Y-98174999D01*
X168411396Y-99075000D02*
X168925180Y-99075000D01*
X167786396Y-98450000D02*
X168411396Y-99075000D01*
X169650180Y-99800000D02*
X169700000Y-99800000D01*
X143200000Y-106000500D02*
X143200000Y-108199500D01*
X166200306Y-98174999D02*
X166475306Y-98449999D01*
X165900000Y-97900000D02*
X166174999Y-98174999D01*
X168925180Y-99075000D02*
X169650180Y-99800000D01*
%TO.N,/CPU/!M.EN*%
X165150000Y-113450000D02*
X168265002Y-113450000D01*
X146200529Y-104950625D02*
X146200529Y-108649035D01*
X164600000Y-112900000D02*
X165150000Y-113450000D01*
X168265002Y-113450000D02*
X169415500Y-114600498D01*
X146200529Y-108649035D02*
X146200994Y-108649500D01*
%TO.N,/CPU/VSPI.SDO*%
X178400497Y-116199503D02*
X178400497Y-114150500D01*
X177100000Y-117500000D02*
X178400497Y-116199503D01*
X175475500Y-118200000D02*
X176175500Y-117500000D01*
X176175500Y-117500000D02*
X177100000Y-117500000D01*
%TO.N,JTAG.TDI*%
X163954191Y-103220309D02*
X163954191Y-100854190D01*
X163900000Y-103274500D02*
X163954191Y-103220309D01*
%TO.N,Net-(U5-~{CTS})*%
X182608736Y-118600000D02*
X177400000Y-118600000D01*
X183909236Y-117299500D02*
X182608736Y-118600000D01*
%TO.N,Net-(U5-~{SUSPEND})*%
X184600000Y-130300000D02*
X184600000Y-135800000D01*
X184700000Y-130200000D02*
X184600000Y-130300000D01*
%TO.N,Net-(U5-VBUS)*%
X181600000Y-135100000D02*
X179000000Y-135100000D01*
X179000000Y-135100000D02*
X178599646Y-134699646D01*
%TO.N,Net-(J10-Pin_1)*%
X128477464Y-109077464D02*
X126922536Y-107522536D01*
%TO.N,/CPU/Batt.meas*%
X141600500Y-106000500D02*
X142475000Y-106875000D01*
X142475000Y-108499805D02*
X143528860Y-109553665D01*
X140941214Y-106000500D02*
X141600500Y-106000500D01*
X142475000Y-106875000D02*
X142475000Y-108499805D01*
X143528860Y-109553665D02*
X148046335Y-109553665D01*
%TD*%
%TA.AperFunction,Conductor*%
%TO.N,GND1*%
G36*
X104786479Y-81203603D02*
G01*
X104843596Y-81217681D01*
X105113871Y-81250499D01*
X105117620Y-81250499D01*
X135076000Y-81250499D01*
X135143039Y-81270184D01*
X135188794Y-81322988D01*
X135200000Y-81374499D01*
X135200000Y-85447738D01*
X135180315Y-85514777D01*
X135162592Y-85536495D01*
X131136124Y-89464757D01*
X131074392Y-89497482D01*
X131049532Y-89500000D01*
X121999999Y-89500000D01*
X120399999Y-91100000D01*
X120399999Y-102048190D01*
X120380314Y-102115229D01*
X120363141Y-102136407D01*
X112236224Y-110164217D01*
X112174696Y-110197326D01*
X112149082Y-110200000D01*
X111519617Y-110200000D01*
X111452578Y-110180315D01*
X111406823Y-110127511D01*
X111396879Y-110058353D01*
X111425904Y-109994797D01*
X111431936Y-109988319D01*
X111974508Y-109445748D01*
X112772270Y-108647985D01*
X112833594Y-108614500D01*
X112859952Y-108611666D01*
X112919148Y-108611666D01*
X113042584Y-108585428D01*
X113104303Y-108572310D01*
X113277230Y-108495317D01*
X113430371Y-108384054D01*
X113557033Y-108243382D01*
X113651679Y-108079450D01*
X113710174Y-107899422D01*
X113729960Y-107711166D01*
X113710174Y-107522910D01*
X113651679Y-107342882D01*
X113651679Y-107342881D01*
X113557033Y-107178949D01*
X113430370Y-107038276D01*
X113277230Y-106927014D01*
X113104302Y-106850021D01*
X112919148Y-106810666D01*
X112919146Y-106810666D01*
X112729854Y-106810666D01*
X112729852Y-106810666D01*
X112544697Y-106850021D01*
X112371769Y-106927014D01*
X112218629Y-107038276D01*
X112091966Y-107178949D01*
X111997320Y-107342881D01*
X111938826Y-107522908D01*
X111921179Y-107690815D01*
X111894594Y-107755429D01*
X111885539Y-107765534D01*
X109866708Y-109784365D01*
X109850610Y-109797262D01*
X109802596Y-109848391D01*
X109799892Y-109851182D01*
X109783128Y-109867946D01*
X109783121Y-109867953D01*
X109780380Y-109870695D01*
X109777999Y-109873763D01*
X109777990Y-109873774D01*
X109777911Y-109873877D01*
X109770342Y-109882738D01*
X109740435Y-109914586D01*
X109730785Y-109932140D01*
X109720109Y-109948394D01*
X109707826Y-109964229D01*
X109690475Y-110004324D01*
X109685338Y-110014810D01*
X109664302Y-110053073D01*
X109659321Y-110072475D01*
X109653020Y-110090877D01*
X109638842Y-110123643D01*
X109634714Y-110121857D01*
X109617351Y-110158509D01*
X109558049Y-110195455D01*
X109524786Y-110200000D01*
X97124500Y-110200000D01*
X97057461Y-110180315D01*
X97011706Y-110127511D01*
X97000500Y-110076000D01*
X97000500Y-94251276D01*
X97000500Y-86943454D01*
X97020185Y-86876418D01*
X97072989Y-86830663D01*
X97142147Y-86820719D01*
X97205703Y-86849744D01*
X97242206Y-86904452D01*
X97295186Y-87064334D01*
X97330479Y-87121554D01*
X97387288Y-87213657D01*
X97511342Y-87337711D01*
X97535695Y-87352732D01*
X97660666Y-87429814D01*
X97772017Y-87466712D01*
X97827202Y-87484999D01*
X97926858Y-87495180D01*
X97926859Y-87495180D01*
X97929991Y-87495500D01*
X99270008Y-87495499D01*
X99372797Y-87484999D01*
X99539334Y-87429814D01*
X99688656Y-87337712D01*
X99812712Y-87213656D01*
X99904814Y-87064334D01*
X99904814Y-87064333D01*
X99912422Y-87051999D01*
X99916003Y-87054208D01*
X99940736Y-87018475D01*
X100005247Y-86991642D01*
X100074025Y-87003946D01*
X100108206Y-87029111D01*
X100231272Y-87157516D01*
X100418839Y-87296240D01*
X100627153Y-87401270D01*
X100850220Y-87469583D01*
X101081624Y-87499216D01*
X101314707Y-87489314D01*
X101542765Y-87440164D01*
X101759235Y-87353179D01*
X101957891Y-87230862D01*
X102133018Y-87076731D01*
X102279578Y-86895220D01*
X102302102Y-86854899D01*
X102351982Y-86805972D01*
X102420395Y-86791779D01*
X102485621Y-86816826D01*
X102513092Y-86845935D01*
X102579005Y-86943457D01*
X102609847Y-86989088D01*
X102771272Y-87157516D01*
X102958839Y-87296240D01*
X103167153Y-87401270D01*
X103390220Y-87469583D01*
X103621624Y-87499216D01*
X103854707Y-87489314D01*
X104082765Y-87440164D01*
X104299235Y-87353179D01*
X104497891Y-87230862D01*
X104673018Y-87076731D01*
X104819578Y-86895220D01*
X104842375Y-86854410D01*
X104892255Y-86805483D01*
X104960668Y-86791290D01*
X105025894Y-86816337D01*
X105053365Y-86845446D01*
X105150236Y-86988772D01*
X105311603Y-87157139D01*
X105499101Y-87295812D01*
X105707339Y-87400803D01*
X105930326Y-87469092D01*
X105969999Y-87474172D01*
X105969999Y-86440469D01*
X106064674Y-86479685D01*
X106181003Y-86495000D01*
X106258997Y-86495000D01*
X106375326Y-86479685D01*
X106470000Y-86440469D01*
X106470000Y-87472574D01*
X106622620Y-87439682D01*
X106839005Y-87352732D01*
X107037594Y-87230456D01*
X107212657Y-87076381D01*
X107359160Y-86894942D01*
X107472896Y-86691344D01*
X107550588Y-86471455D01*
X107590000Y-86241606D01*
X107590000Y-86150000D01*
X106760470Y-86150000D01*
X106799685Y-86055326D01*
X106820134Y-85900000D01*
X106799685Y-85744674D01*
X106760470Y-85650000D01*
X107590000Y-85650000D01*
X107590000Y-85619436D01*
X107589776Y-85614179D01*
X107575176Y-85442635D01*
X107568469Y-85416878D01*
X127959500Y-85416878D01*
X127959501Y-85420008D01*
X127959820Y-85423140D01*
X127959821Y-85423141D01*
X127970000Y-85522796D01*
X128025186Y-85689334D01*
X128117288Y-85838657D01*
X128241342Y-85962711D01*
X128241344Y-85962712D01*
X128390666Y-86054814D01*
X128474609Y-86082630D01*
X128557202Y-86109999D01*
X128656858Y-86120180D01*
X128656859Y-86120180D01*
X128659991Y-86120500D01*
X130000008Y-86120499D01*
X130102797Y-86109999D01*
X130269334Y-86054814D01*
X130418656Y-85962712D01*
X130542712Y-85838656D01*
X130634814Y-85689334D01*
X130659311Y-85615406D01*
X130699082Y-85557963D01*
X130715174Y-85551272D01*
X131348299Y-84918147D01*
X131351640Y-84934225D01*
X131420565Y-85067246D01*
X131522823Y-85176737D01*
X131650830Y-85254580D01*
X131704058Y-85269493D01*
X131092578Y-85880972D01*
X131092578Y-85880973D01*
X131118113Y-85900848D01*
X131317792Y-86008909D01*
X131532529Y-86082630D01*
X131756479Y-86120000D01*
X131983521Y-86120000D01*
X132207470Y-86082630D01*
X132422207Y-86008909D01*
X132621888Y-85900848D01*
X132647420Y-85880974D01*
X132647420Y-85880973D01*
X132037767Y-85271320D01*
X132155836Y-85220037D01*
X132272050Y-85125489D01*
X132358447Y-85003093D01*
X132389439Y-84915887D01*
X132999511Y-85525959D01*
X133079006Y-85404284D01*
X133170209Y-85196364D01*
X133225946Y-84976262D01*
X133244695Y-84750000D01*
X133225946Y-84523737D01*
X133170209Y-84303635D01*
X133079006Y-84095715D01*
X132999511Y-83974039D01*
X132391700Y-84581850D01*
X132388360Y-84565775D01*
X132319435Y-84432754D01*
X132217177Y-84323263D01*
X132089170Y-84245420D01*
X132035941Y-84230506D01*
X132647420Y-83619025D01*
X132621886Y-83599151D01*
X132422207Y-83491090D01*
X132207470Y-83417369D01*
X131983521Y-83380000D01*
X131756479Y-83380000D01*
X131532529Y-83417369D01*
X131317792Y-83491090D01*
X131118115Y-83599149D01*
X131092577Y-83619025D01*
X131702231Y-84228679D01*
X131584164Y-84279963D01*
X131467950Y-84374511D01*
X131381553Y-84496907D01*
X131350560Y-84584112D01*
X130723071Y-83956623D01*
X130721088Y-83956258D01*
X130670133Y-83908453D01*
X130659311Y-83884594D01*
X130634814Y-83810666D01*
X130542712Y-83661344D01*
X130542711Y-83661342D01*
X130418657Y-83537288D01*
X130269334Y-83445186D01*
X130102797Y-83390000D01*
X130003141Y-83379819D01*
X130003122Y-83379818D01*
X130000009Y-83379500D01*
X129996860Y-83379500D01*
X128663140Y-83379500D01*
X128663120Y-83379500D01*
X128659992Y-83379501D01*
X128656860Y-83379820D01*
X128656858Y-83379821D01*
X128557203Y-83390000D01*
X128390665Y-83445186D01*
X128241342Y-83537288D01*
X128117288Y-83661342D01*
X128025186Y-83810665D01*
X127970000Y-83977202D01*
X127959819Y-84076858D01*
X127959817Y-84076878D01*
X127959500Y-84079991D01*
X127959500Y-84083138D01*
X127959500Y-84083139D01*
X127959500Y-85416859D01*
X127959500Y-85416878D01*
X107568469Y-85416878D01*
X107516410Y-85216945D01*
X107420353Y-85004442D01*
X107289763Y-84811227D01*
X107128396Y-84642860D01*
X106940898Y-84504187D01*
X106732660Y-84399196D01*
X106509670Y-84330905D01*
X106470000Y-84325825D01*
X106470000Y-85359530D01*
X106375326Y-85320315D01*
X106258997Y-85305000D01*
X106181003Y-85305000D01*
X106064674Y-85320315D01*
X105970000Y-85359530D01*
X105970000Y-84327424D01*
X105817378Y-84360317D01*
X105600994Y-84447267D01*
X105402405Y-84569543D01*
X105227342Y-84723618D01*
X105080839Y-84905057D01*
X105058209Y-84945567D01*
X105008329Y-84994492D01*
X104939915Y-85008684D01*
X104874690Y-84983636D01*
X104847221Y-84954528D01*
X104750153Y-84810912D01*
X104588727Y-84642483D01*
X104401161Y-84503760D01*
X104192847Y-84398730D01*
X103969780Y-84330417D01*
X103969780Y-84330416D01*
X103738376Y-84300784D01*
X103738372Y-84300784D01*
X103505295Y-84310685D01*
X103277232Y-84359836D01*
X103060768Y-84446819D01*
X102862107Y-84569139D01*
X102686980Y-84723270D01*
X102540423Y-84904777D01*
X102517895Y-84945103D01*
X102468014Y-84994028D01*
X102399601Y-85008220D01*
X102334376Y-84983171D01*
X102306907Y-84954064D01*
X102300850Y-84945103D01*
X102210153Y-84810912D01*
X102048728Y-84642484D01*
X102042765Y-84638074D01*
X101861161Y-84503760D01*
X101652847Y-84398730D01*
X101429780Y-84330417D01*
X101429779Y-84330416D01*
X101198376Y-84300784D01*
X101198372Y-84300784D01*
X100965295Y-84310685D01*
X100737232Y-84359836D01*
X100520768Y-84446819D01*
X100322107Y-84569139D01*
X100146981Y-84723269D01*
X100115086Y-84762770D01*
X100057655Y-84802562D01*
X99987827Y-84804987D01*
X99927773Y-84769276D01*
X99914449Y-84746750D01*
X99912422Y-84748001D01*
X99897167Y-84723269D01*
X99812712Y-84586344D01*
X99812711Y-84586342D01*
X99688657Y-84462288D01*
X99539334Y-84370186D01*
X99372797Y-84315000D01*
X99273141Y-84304819D01*
X99273122Y-84304818D01*
X99270009Y-84304500D01*
X99266860Y-84304500D01*
X97933140Y-84304500D01*
X97933120Y-84304500D01*
X97929992Y-84304501D01*
X97926860Y-84304820D01*
X97926858Y-84304821D01*
X97827203Y-84315000D01*
X97660665Y-84370186D01*
X97511342Y-84462288D01*
X97387288Y-84586342D01*
X97295187Y-84735664D01*
X97242206Y-84895546D01*
X97202433Y-84952991D01*
X97137917Y-84979813D01*
X97069141Y-84967498D01*
X97017941Y-84919954D01*
X97000500Y-84856543D01*
X97000500Y-81324000D01*
X97020186Y-81256961D01*
X97072990Y-81211206D01*
X97124501Y-81200000D01*
X104756804Y-81200000D01*
X104786479Y-81203603D01*
G37*
%TD.AperFunction*%
%TD*%
%TA.AperFunction,Conductor*%
%TO.N,GND*%
G36*
X137500000Y-118000000D02*
G01*
X134500000Y-118000000D01*
X134500000Y-114300000D01*
X137500000Y-114300000D01*
X137500000Y-118000000D01*
G37*
%TD.AperFunction*%
%TD*%
%TA.AperFunction,Conductor*%
%TO.N,GND*%
G36*
X157661955Y-108727641D02*
G01*
X157774852Y-108785165D01*
X157868519Y-108800000D01*
X157931481Y-108800000D01*
X158025148Y-108785165D01*
X158138045Y-108727641D01*
X158150000Y-108715686D01*
X158150000Y-110084313D01*
X158138045Y-110072359D01*
X158025148Y-110014835D01*
X157931481Y-110000000D01*
X157868519Y-110000000D01*
X157774852Y-110014835D01*
X157661955Y-110072359D01*
X157649999Y-110084314D01*
X157649999Y-108715685D01*
X157661955Y-108727641D01*
G37*
%TD.AperFunction*%
%TA.AperFunction,Conductor*%
G36*
X157661955Y-106727641D02*
G01*
X157774852Y-106785165D01*
X157868519Y-106800000D01*
X157931481Y-106800000D01*
X158025148Y-106785165D01*
X158138045Y-106727641D01*
X158150000Y-106715686D01*
X158150000Y-108084314D01*
X158138045Y-108072359D01*
X158025148Y-108014835D01*
X157931481Y-108000000D01*
X157868519Y-108000000D01*
X157774852Y-108014835D01*
X157661955Y-108072359D01*
X157649999Y-108084314D01*
X157649999Y-106715685D01*
X157661955Y-106727641D01*
G37*
%TD.AperFunction*%
%TA.AperFunction,Conductor*%
G36*
X158150000Y-106084314D02*
G01*
X158138045Y-106072359D01*
X158025148Y-106014835D01*
X157931481Y-106000000D01*
X157868519Y-106000000D01*
X157774852Y-106014835D01*
X157661955Y-106072359D01*
X157649999Y-106084314D01*
X157649999Y-104715685D01*
X157661955Y-104727641D01*
X157774852Y-104785165D01*
X157868519Y-104800000D01*
X157931481Y-104800000D01*
X158025148Y-104785165D01*
X158138045Y-104727641D01*
X158150000Y-104715685D01*
X158150000Y-106084314D01*
G37*
%TD.AperFunction*%
%TA.AperFunction,Conductor*%
G36*
X174124283Y-81277848D02*
G01*
X174191282Y-81297667D01*
X174236931Y-81350562D01*
X174246736Y-81419740D01*
X174217584Y-81483238D01*
X174195157Y-81503423D01*
X174085859Y-81579953D01*
X173924953Y-81740859D01*
X173794432Y-81927264D01*
X173698261Y-82133502D01*
X173639364Y-82353310D01*
X173619531Y-82579999D01*
X173639364Y-82806689D01*
X173698261Y-83026497D01*
X173794432Y-83232735D01*
X173924953Y-83419140D01*
X174085859Y-83580046D01*
X174272264Y-83710567D01*
X174272265Y-83710567D01*
X174272266Y-83710568D01*
X174478504Y-83806739D01*
X174698308Y-83865635D01*
X174849435Y-83878856D01*
X174924999Y-83885468D01*
X174924999Y-83885467D01*
X174925000Y-83885468D01*
X175151692Y-83865635D01*
X175371496Y-83806739D01*
X175577734Y-83710568D01*
X175764139Y-83580047D01*
X175925047Y-83419139D01*
X176055568Y-83232734D01*
X176082618Y-83174724D01*
X176128790Y-83122285D01*
X176195983Y-83103133D01*
X176262865Y-83123348D01*
X176307382Y-83174725D01*
X176334431Y-83232733D01*
X176464953Y-83419140D01*
X176625859Y-83580046D01*
X176812264Y-83710567D01*
X176812265Y-83710567D01*
X176812266Y-83710568D01*
X177018504Y-83806739D01*
X177238308Y-83865635D01*
X177465000Y-83885468D01*
X177691692Y-83865635D01*
X177911496Y-83806739D01*
X178117734Y-83710568D01*
X178304139Y-83580047D01*
X178465047Y-83419139D01*
X178595568Y-83232734D01*
X178691739Y-83026496D01*
X178750635Y-82806692D01*
X178770468Y-82580000D01*
X178750635Y-82353308D01*
X178691739Y-82133504D01*
X178595568Y-81927266D01*
X178465047Y-81740861D01*
X178465046Y-81740859D01*
X178304140Y-81579953D01*
X178206706Y-81511730D01*
X178163081Y-81457154D01*
X178155887Y-81387655D01*
X178187409Y-81325300D01*
X178247639Y-81289886D01*
X178278067Y-81286156D01*
X185076024Y-81299752D01*
X185143024Y-81319571D01*
X185188673Y-81372466D01*
X185199776Y-81423976D01*
X185195993Y-83519629D01*
X185176187Y-83586633D01*
X185123301Y-83632292D01*
X185054124Y-83642111D01*
X184990621Y-83612971D01*
X184972726Y-83593716D01*
X184897188Y-83492811D01*
X184782089Y-83406647D01*
X184647371Y-83356400D01*
X184591132Y-83350354D01*
X184584518Y-83350000D01*
X183940000Y-83350000D01*
X183940000Y-84264498D01*
X183832315Y-84215320D01*
X183725763Y-84200000D01*
X183654237Y-84200000D01*
X183547685Y-84215320D01*
X183440000Y-84264498D01*
X183440000Y-83350000D01*
X182795482Y-83350000D01*
X182788867Y-83350354D01*
X182732628Y-83356400D01*
X182597910Y-83406647D01*
X182482811Y-83492811D01*
X182396646Y-83607913D01*
X182347576Y-83739472D01*
X182305705Y-83795405D01*
X182240240Y-83819821D01*
X182171967Y-83804969D01*
X182143714Y-83783818D01*
X182021404Y-83661508D01*
X182021401Y-83661505D01*
X181827830Y-83525965D01*
X181613663Y-83426097D01*
X181541074Y-83406647D01*
X181385407Y-83364936D01*
X181150000Y-83344340D01*
X180914592Y-83364936D01*
X180686336Y-83426097D01*
X180472170Y-83525965D01*
X180278598Y-83661505D01*
X180111505Y-83828598D01*
X179975965Y-84022170D01*
X179876097Y-84236336D01*
X179814936Y-84464592D01*
X179794340Y-84699999D01*
X179814936Y-84935407D01*
X179840496Y-85030798D01*
X179876097Y-85163663D01*
X179975965Y-85377830D01*
X180111505Y-85571401D01*
X180278599Y-85738495D01*
X180464160Y-85868426D01*
X180507783Y-85923002D01*
X180514976Y-85992501D01*
X180483454Y-86054855D01*
X180464160Y-86071574D01*
X180352228Y-86149950D01*
X180278595Y-86201508D01*
X180111505Y-86368598D01*
X179975965Y-86562170D01*
X179876097Y-86776336D01*
X179814936Y-87004592D01*
X179794340Y-87240000D01*
X179814936Y-87475407D01*
X179840496Y-87570798D01*
X179876097Y-87703663D01*
X179975965Y-87917830D01*
X180111505Y-88111401D01*
X180278599Y-88278495D01*
X180464160Y-88408426D01*
X180507783Y-88463002D01*
X180514976Y-88532501D01*
X180483454Y-88594855D01*
X180464159Y-88611575D01*
X180278595Y-88741508D01*
X180111505Y-88908598D01*
X179975965Y-89102170D01*
X179876097Y-89316336D01*
X179814936Y-89544592D01*
X179794340Y-89780000D01*
X179814936Y-90015407D01*
X179831275Y-90076384D01*
X179876097Y-90243663D01*
X179975965Y-90457830D01*
X180111505Y-90651401D01*
X180278599Y-90818495D01*
X180464160Y-90948426D01*
X180507783Y-91003002D01*
X180514976Y-91072501D01*
X180483454Y-91134855D01*
X180464160Y-91151574D01*
X180331377Y-91244550D01*
X180278595Y-91281508D01*
X180111505Y-91448598D01*
X179975965Y-91642170D01*
X179876097Y-91856336D01*
X179814936Y-92084592D01*
X179794340Y-92319999D01*
X179814936Y-92555407D01*
X179848626Y-92681138D01*
X179876097Y-92783663D01*
X179975965Y-92997830D01*
X180111505Y-93191401D01*
X180278599Y-93358495D01*
X180472170Y-93494035D01*
X180686337Y-93593903D01*
X180898059Y-93650633D01*
X180914592Y-93655063D01*
X181149999Y-93675659D01*
X181149999Y-93675658D01*
X181150000Y-93675659D01*
X181385408Y-93655063D01*
X181613663Y-93593903D01*
X181827830Y-93494035D01*
X182021401Y-93358495D01*
X182188495Y-93191401D01*
X182318732Y-93005403D01*
X182373307Y-92961780D01*
X182442805Y-92954586D01*
X182505160Y-92986109D01*
X182521880Y-93005404D01*
X182651893Y-93191081D01*
X182818918Y-93358106D01*
X183012423Y-93493600D01*
X183226509Y-93593430D01*
X183440000Y-93650634D01*
X183440000Y-92755501D01*
X183547685Y-92804680D01*
X183654237Y-92820000D01*
X183725763Y-92820000D01*
X183832315Y-92804680D01*
X183940000Y-92755501D01*
X183940000Y-93650633D01*
X184153490Y-93593430D01*
X184367576Y-93493600D01*
X184561081Y-93358106D01*
X184728106Y-93191081D01*
X184863602Y-92997574D01*
X184942714Y-92827918D01*
X184988886Y-92775478D01*
X185056079Y-92756326D01*
X185122961Y-92776542D01*
X185168295Y-92829707D01*
X185179096Y-92880546D01*
X185113511Y-129214373D01*
X185093705Y-129281377D01*
X185040819Y-129327036D01*
X184971642Y-129336855D01*
X184963730Y-129335439D01*
X184794648Y-129299500D01*
X184794646Y-129299500D01*
X184605354Y-129299500D01*
X184605352Y-129299500D01*
X184420197Y-129338855D01*
X184247269Y-129415848D01*
X184094129Y-129527110D01*
X183967466Y-129667783D01*
X183872820Y-129831715D01*
X183814326Y-130011742D01*
X183794540Y-130200000D01*
X183814326Y-130388257D01*
X183872820Y-130568284D01*
X183957887Y-130715623D01*
X183974500Y-130777623D01*
X183974500Y-134726533D01*
X183954815Y-134793572D01*
X183902011Y-134839327D01*
X183893835Y-134842714D01*
X183857671Y-134856202D01*
X183742454Y-134942454D01*
X183656204Y-135057668D01*
X183640416Y-135100000D01*
X183605909Y-135192517D01*
X183599500Y-135252127D01*
X183599500Y-135255448D01*
X183599500Y-135255449D01*
X183599500Y-136344560D01*
X183599500Y-136344578D01*
X183599501Y-136347872D01*
X183599853Y-136351152D01*
X183599854Y-136351159D01*
X183605909Y-136407484D01*
X183652600Y-136532667D01*
X183657584Y-136602358D01*
X183624099Y-136663681D01*
X183562776Y-136697166D01*
X183536418Y-136700000D01*
X177699999Y-136700000D01*
X176686820Y-137713180D01*
X176625497Y-137746665D01*
X176600000Y-137749406D01*
X176600000Y-134699646D01*
X177694186Y-134699646D01*
X177713972Y-134887903D01*
X177772466Y-135067930D01*
X177867112Y-135231862D01*
X177993775Y-135372535D01*
X178146915Y-135483797D01*
X178319843Y-135560790D01*
X178504998Y-135600146D01*
X178505000Y-135600146D01*
X178579544Y-135600146D01*
X178639278Y-135615482D01*
X178646976Y-135619714D01*
X178663233Y-135630393D01*
X178679064Y-135642673D01*
X178701284Y-135652288D01*
X178719152Y-135660021D01*
X178729631Y-135665154D01*
X178767908Y-135686197D01*
X178787306Y-135691177D01*
X178805708Y-135697477D01*
X178824104Y-135705438D01*
X178867261Y-135712273D01*
X178878664Y-135714634D01*
X178920981Y-135725500D01*
X178941016Y-135725500D01*
X178960413Y-135727026D01*
X178980196Y-135730160D01*
X179023674Y-135726050D01*
X179035344Y-135725500D01*
X180896253Y-135725500D01*
X180963292Y-135745185D01*
X180988400Y-135766526D01*
X180994129Y-135772888D01*
X181147270Y-135884151D01*
X181147271Y-135884151D01*
X181147272Y-135884152D01*
X181320197Y-135961144D01*
X181505352Y-136000500D01*
X181505354Y-136000500D01*
X181694648Y-136000500D01*
X181818084Y-135974262D01*
X181879803Y-135961144D01*
X182052730Y-135884151D01*
X182177286Y-135793656D01*
X182205870Y-135772889D01*
X182211598Y-135766528D01*
X182332533Y-135632216D01*
X182427179Y-135468284D01*
X182485674Y-135288256D01*
X182505460Y-135100000D01*
X182485674Y-134911744D01*
X182427179Y-134731716D01*
X182427179Y-134731715D01*
X182332533Y-134567783D01*
X182205870Y-134427110D01*
X182052730Y-134315848D01*
X181879802Y-134238855D01*
X181694648Y-134199500D01*
X181694646Y-134199500D01*
X181505354Y-134199500D01*
X181505352Y-134199500D01*
X181320197Y-134238855D01*
X181147272Y-134315847D01*
X181065855Y-134375000D01*
X180994129Y-134427112D01*
X180988401Y-134433472D01*
X180928916Y-134470121D01*
X180896253Y-134474500D01*
X179563425Y-134474500D01*
X179496386Y-134454815D01*
X179450631Y-134402011D01*
X179445494Y-134388818D01*
X179426825Y-134331361D01*
X179332179Y-134167429D01*
X179205516Y-134026756D01*
X179052376Y-133915494D01*
X178879448Y-133838501D01*
X178694294Y-133799146D01*
X178694292Y-133799146D01*
X178505000Y-133799146D01*
X178504998Y-133799146D01*
X178319843Y-133838501D01*
X178146915Y-133915494D01*
X177993775Y-134026756D01*
X177867112Y-134167429D01*
X177772466Y-134331361D01*
X177713972Y-134511388D01*
X177694186Y-134699646D01*
X176600000Y-134699646D01*
X176600000Y-134300000D01*
X176566528Y-134266528D01*
X176613568Y-134276527D01*
X176613570Y-134276527D01*
X176802864Y-134276527D01*
X176926300Y-134250289D01*
X176988019Y-134237171D01*
X177160946Y-134160178D01*
X177243774Y-134100000D01*
X177314086Y-134048916D01*
X177440749Y-133908243D01*
X177535395Y-133744311D01*
X177573641Y-133626602D01*
X177593890Y-133564283D01*
X177613676Y-133376027D01*
X177593890Y-133187771D01*
X177554099Y-133065307D01*
X177535395Y-133007742D01*
X177440749Y-132843810D01*
X177314086Y-132703137D01*
X177160946Y-132591875D01*
X176988018Y-132514882D01*
X176922886Y-132501038D01*
X176861404Y-132467846D01*
X176860986Y-132467429D01*
X175007917Y-130614360D01*
X174996135Y-130600727D01*
X174981798Y-130581469D01*
X174943855Y-130549631D01*
X174935880Y-130542323D01*
X174934518Y-130540961D01*
X174931966Y-130538409D01*
X174907633Y-130519169D01*
X174904836Y-130516890D01*
X174846440Y-130467890D01*
X174830010Y-130457422D01*
X174760880Y-130425186D01*
X174757636Y-130423615D01*
X174689495Y-130389394D01*
X174671092Y-130382997D01*
X174596400Y-130367574D01*
X174592881Y-130366794D01*
X174518679Y-130349208D01*
X174499310Y-130347229D01*
X174423058Y-130349448D01*
X174419452Y-130349500D01*
X173439337Y-130349500D01*
X173372298Y-130329815D01*
X173366450Y-130325817D01*
X173352728Y-130315847D01*
X173179802Y-130238855D01*
X172994648Y-130199500D01*
X172994646Y-130199500D01*
X172805354Y-130199500D01*
X172805352Y-130199500D01*
X172620197Y-130238855D01*
X172447269Y-130315848D01*
X172294129Y-130427110D01*
X172167466Y-130567783D01*
X172072820Y-130731715D01*
X172014326Y-130911742D01*
X171994540Y-131099999D01*
X172014326Y-131288257D01*
X172072820Y-131468284D01*
X172167466Y-131632216D01*
X172294129Y-131772889D01*
X172447269Y-131884151D01*
X172620197Y-131961144D01*
X172805352Y-132000500D01*
X172805354Y-132000500D01*
X172994648Y-132000500D01*
X173118084Y-131974262D01*
X173179803Y-131961144D01*
X173352730Y-131884151D01*
X173366449Y-131874183D01*
X173432256Y-131850702D01*
X173439337Y-131850500D01*
X174069959Y-131850500D01*
X174136998Y-131870185D01*
X174157640Y-131886819D01*
X174945348Y-132674527D01*
X175270822Y-133000000D01*
X167600000Y-133000000D01*
X167600000Y-137749246D01*
X167533822Y-137729814D01*
X167513180Y-137713180D01*
X166600001Y-136800000D01*
X166600000Y-136800000D01*
X166492972Y-136800114D01*
X97124632Y-136874631D01*
X97057572Y-136855018D01*
X97011760Y-136802264D01*
X97000499Y-136750631D01*
X97000499Y-134763216D01*
X149879500Y-134763216D01*
X149879722Y-134765832D01*
X149879723Y-134765840D01*
X149894329Y-134937451D01*
X149953114Y-135163220D01*
X150049207Y-135375801D01*
X150174239Y-135560790D01*
X150179847Y-135569088D01*
X150341272Y-135737516D01*
X150528839Y-135876240D01*
X150737153Y-135981270D01*
X150960220Y-136049583D01*
X151191624Y-136079216D01*
X151424707Y-136069314D01*
X151652765Y-136020164D01*
X151869235Y-135933179D01*
X152067891Y-135810862D01*
X152243018Y-135656731D01*
X152389578Y-135475220D01*
X152412102Y-135434899D01*
X152461982Y-135385972D01*
X152530395Y-135371779D01*
X152595621Y-135396826D01*
X152623092Y-135425935D01*
X152714238Y-135560790D01*
X152719847Y-135569088D01*
X152881272Y-135737516D01*
X153068839Y-135876240D01*
X153277153Y-135981270D01*
X153500220Y-136049583D01*
X153731624Y-136079216D01*
X153964707Y-136069314D01*
X154192765Y-136020164D01*
X154409235Y-135933179D01*
X154607891Y-135810862D01*
X154783018Y-135656731D01*
X154929578Y-135475220D01*
X154952102Y-135434899D01*
X155001982Y-135385972D01*
X155070395Y-135371779D01*
X155135621Y-135396826D01*
X155163092Y-135425935D01*
X155254238Y-135560790D01*
X155259847Y-135569088D01*
X155421272Y-135737516D01*
X155608839Y-135876240D01*
X155817153Y-135981270D01*
X156040220Y-136049583D01*
X156271624Y-136079216D01*
X156504707Y-136069314D01*
X156732765Y-136020164D01*
X156949235Y-135933179D01*
X157147891Y-135810862D01*
X157323018Y-135656731D01*
X157469578Y-135475220D01*
X157492102Y-135434899D01*
X157541982Y-135385972D01*
X157610395Y-135371779D01*
X157675621Y-135396826D01*
X157703092Y-135425935D01*
X157794238Y-135560790D01*
X157799847Y-135569088D01*
X157961272Y-135737516D01*
X158148839Y-135876240D01*
X158357153Y-135981270D01*
X158580220Y-136049583D01*
X158811624Y-136079216D01*
X159044707Y-136069314D01*
X159272765Y-136020164D01*
X159489235Y-135933179D01*
X159687891Y-135810862D01*
X159863018Y-135656731D01*
X160009578Y-135475220D01*
X160032375Y-135434410D01*
X160082255Y-135385483D01*
X160150668Y-135371290D01*
X160215894Y-135396337D01*
X160243365Y-135425446D01*
X160340236Y-135568772D01*
X160501603Y-135737139D01*
X160689101Y-135875812D01*
X160897339Y-135980803D01*
X161120326Y-136049092D01*
X161160000Y-136054172D01*
X161160000Y-135020469D01*
X161254674Y-135059685D01*
X161371003Y-135075000D01*
X161448997Y-135075000D01*
X161565326Y-135059685D01*
X161660000Y-135020469D01*
X161660000Y-136052574D01*
X161812620Y-136019682D01*
X162029005Y-135932732D01*
X162227594Y-135810456D01*
X162402654Y-135656384D01*
X162434724Y-135616667D01*
X162492155Y-135576874D01*
X162561983Y-135574447D01*
X162622037Y-135610158D01*
X162635661Y-135633180D01*
X162637578Y-135631999D01*
X162645185Y-135644333D01*
X162645186Y-135644334D01*
X162658032Y-135665160D01*
X162737288Y-135793657D01*
X162861342Y-135917711D01*
X162861344Y-135917712D01*
X163010666Y-136009814D01*
X163122017Y-136046712D01*
X163177202Y-136064999D01*
X163276858Y-136075180D01*
X163276859Y-136075180D01*
X163279991Y-136075500D01*
X164620008Y-136075499D01*
X164722797Y-136064999D01*
X164889334Y-136009814D01*
X165038656Y-135917712D01*
X165162712Y-135793656D01*
X165254814Y-135644334D01*
X165309999Y-135477797D01*
X165320500Y-135375009D01*
X165320499Y-133584992D01*
X165309999Y-133482203D01*
X165254814Y-133315666D01*
X165175927Y-133187769D01*
X165162711Y-133166342D01*
X165038657Y-133042288D01*
X164889334Y-132950186D01*
X164722797Y-132895000D01*
X164623141Y-132884819D01*
X164623122Y-132884818D01*
X164620009Y-132884500D01*
X164616860Y-132884500D01*
X163283140Y-132884500D01*
X163283120Y-132884500D01*
X163279992Y-132884501D01*
X163276860Y-132884820D01*
X163276858Y-132884821D01*
X163177203Y-132895000D01*
X163010665Y-132950186D01*
X162861342Y-133042288D01*
X162737288Y-133166342D01*
X162670360Y-133274852D01*
X162652833Y-133303269D01*
X162637578Y-133328001D01*
X162634134Y-133325877D01*
X162609038Y-133362099D01*
X162544513Y-133388900D01*
X162475742Y-133376562D01*
X162441614Y-133351424D01*
X162318396Y-133222860D01*
X162130898Y-133084187D01*
X161922660Y-132979196D01*
X161699670Y-132910905D01*
X161660000Y-132905825D01*
X161660000Y-133939530D01*
X161565326Y-133900315D01*
X161448997Y-133885000D01*
X161371003Y-133885000D01*
X161254674Y-133900315D01*
X161160000Y-133939530D01*
X161160000Y-132907424D01*
X161007378Y-132940317D01*
X160790994Y-133027267D01*
X160592405Y-133149543D01*
X160417342Y-133303618D01*
X160270839Y-133485057D01*
X160248209Y-133525567D01*
X160198329Y-133574492D01*
X160129915Y-133588684D01*
X160064690Y-133563636D01*
X160037221Y-133534528D01*
X159940153Y-133390912D01*
X159778727Y-133222483D01*
X159591161Y-133083760D01*
X159382847Y-132978730D01*
X159159780Y-132910417D01*
X159159780Y-132910416D01*
X158928376Y-132880784D01*
X158928372Y-132880784D01*
X158695295Y-132890685D01*
X158467232Y-132939836D01*
X158250768Y-133026819D01*
X158052107Y-133149139D01*
X157876980Y-133303270D01*
X157730423Y-133484777D01*
X157707895Y-133525103D01*
X157658014Y-133574028D01*
X157589601Y-133588220D01*
X157524376Y-133563171D01*
X157496907Y-133534064D01*
X157490850Y-133525103D01*
X157400153Y-133390912D01*
X157238728Y-133222484D01*
X157191790Y-133187769D01*
X157051161Y-133083760D01*
X156842847Y-132978730D01*
X156619780Y-132910417D01*
X156619779Y-132910417D01*
X156388376Y-132880784D01*
X156388372Y-132880784D01*
X156155295Y-132890685D01*
X155927232Y-132939836D01*
X155710768Y-133026819D01*
X155512107Y-133149139D01*
X155336980Y-133303270D01*
X155190423Y-133484777D01*
X155167895Y-133525103D01*
X155118014Y-133574028D01*
X155049601Y-133588220D01*
X154984376Y-133563171D01*
X154956907Y-133534064D01*
X154950850Y-133525103D01*
X154860153Y-133390912D01*
X154698728Y-133222484D01*
X154651790Y-133187769D01*
X154511161Y-133083760D01*
X154302847Y-132978730D01*
X154079780Y-132910417D01*
X154079779Y-132910417D01*
X153848376Y-132880784D01*
X153848372Y-132880784D01*
X153615295Y-132890685D01*
X153387232Y-132939836D01*
X153170768Y-133026819D01*
X152972107Y-133149139D01*
X152796980Y-133303270D01*
X152650423Y-133484777D01*
X152627895Y-133525103D01*
X152578014Y-133574028D01*
X152509601Y-133588220D01*
X152444376Y-133563171D01*
X152416907Y-133534064D01*
X152410850Y-133525103D01*
X152320153Y-133390912D01*
X152158728Y-133222484D01*
X152111790Y-133187769D01*
X151971161Y-133083760D01*
X151762847Y-132978730D01*
X151539780Y-132910417D01*
X151539780Y-132910416D01*
X151308376Y-132880784D01*
X151308372Y-132880784D01*
X151075295Y-132890685D01*
X150847232Y-132939836D01*
X150630768Y-133026819D01*
X150432107Y-133149139D01*
X150256980Y-133303270D01*
X150110423Y-133484776D01*
X149996645Y-133688448D01*
X149918925Y-133908418D01*
X149879500Y-134138350D01*
X149879500Y-134138353D01*
X149879500Y-134763216D01*
X97000499Y-134763216D01*
X97000499Y-133400000D01*
X105195033Y-133400000D01*
X105214858Y-133626602D01*
X105273733Y-133846326D01*
X105369866Y-134052484D01*
X105420972Y-134125471D01*
X105420974Y-134125472D01*
X106102046Y-133444399D01*
X106114835Y-133525148D01*
X106172359Y-133638045D01*
X106261955Y-133727641D01*
X106374852Y-133785165D01*
X106455599Y-133797953D01*
X105774526Y-134479025D01*
X105774526Y-134479026D01*
X105847515Y-134530133D01*
X106053673Y-134626266D01*
X106273397Y-134685141D01*
X106500000Y-134704966D01*
X106726602Y-134685141D01*
X106946326Y-134626266D01*
X107152480Y-134530134D01*
X107225472Y-134479025D01*
X106991025Y-134244578D01*
X108999500Y-134244578D01*
X108999501Y-134247872D01*
X108999853Y-134251152D01*
X108999854Y-134251159D01*
X109005909Y-134307484D01*
X109009029Y-134315848D01*
X109056204Y-134442331D01*
X109142454Y-134557546D01*
X109257669Y-134643796D01*
X109392517Y-134694091D01*
X109452127Y-134700500D01*
X111147872Y-134700499D01*
X111207483Y-134694091D01*
X111342331Y-134643796D01*
X111457546Y-134557546D01*
X111543796Y-134442331D01*
X111594091Y-134307483D01*
X111600500Y-134247873D01*
X111600499Y-132552128D01*
X111594091Y-132492517D01*
X111543796Y-132357669D01*
X111457546Y-132242454D01*
X111342331Y-132156204D01*
X111207483Y-132105909D01*
X111147873Y-132099500D01*
X111144550Y-132099500D01*
X109455439Y-132099500D01*
X109455420Y-132099500D01*
X109452128Y-132099501D01*
X109448848Y-132099853D01*
X109448840Y-132099854D01*
X109392515Y-132105909D01*
X109257669Y-132156204D01*
X109142454Y-132242454D01*
X109056204Y-132357668D01*
X109005910Y-132492515D01*
X109005909Y-132492517D01*
X108999500Y-132552127D01*
X108999500Y-132555448D01*
X108999500Y-132555449D01*
X108999500Y-134244560D01*
X108999500Y-134244578D01*
X106991025Y-134244578D01*
X106544401Y-133797953D01*
X106625148Y-133785165D01*
X106738045Y-133727641D01*
X106827641Y-133638045D01*
X106885165Y-133525148D01*
X106897953Y-133444399D01*
X107579025Y-134125472D01*
X107630134Y-134052480D01*
X107726266Y-133846326D01*
X107785141Y-133626602D01*
X107804966Y-133400000D01*
X107785141Y-133173397D01*
X107726266Y-132953673D01*
X107630133Y-132747515D01*
X107579025Y-132674526D01*
X106897953Y-133355597D01*
X106885165Y-133274852D01*
X106827641Y-133161955D01*
X106738045Y-133072359D01*
X106625148Y-133014835D01*
X106544400Y-133002046D01*
X107225472Y-132320974D01*
X107225471Y-132320972D01*
X107152484Y-132269866D01*
X106946326Y-132173733D01*
X106726602Y-132114858D01*
X106500000Y-132095033D01*
X106273397Y-132114858D01*
X106053672Y-132173733D01*
X105847516Y-132269865D01*
X105774527Y-132320973D01*
X105774526Y-132320973D01*
X106455600Y-133002046D01*
X106374852Y-133014835D01*
X106261955Y-133072359D01*
X106172359Y-133161955D01*
X106114835Y-133274852D01*
X106102046Y-133355599D01*
X105420973Y-132674526D01*
X105420973Y-132674527D01*
X105369865Y-132747516D01*
X105273733Y-132953672D01*
X105214858Y-133173397D01*
X105195033Y-133400000D01*
X97000499Y-133400000D01*
X97000499Y-130389499D01*
X106194540Y-130389499D01*
X106214326Y-130577757D01*
X106272820Y-130757784D01*
X106367466Y-130921716D01*
X106494129Y-131062389D01*
X106647269Y-131173651D01*
X106820197Y-131250644D01*
X107005352Y-131290000D01*
X107005354Y-131290000D01*
X107194648Y-131290000D01*
X107318084Y-131263762D01*
X107379803Y-131250644D01*
X107552730Y-131173651D01*
X107705871Y-131062388D01*
X107711598Y-131056027D01*
X107771084Y-131019379D01*
X107803747Y-131015000D01*
X109015682Y-131015000D01*
X109036188Y-131017264D01*
X109039091Y-131017172D01*
X109039093Y-131017173D01*
X109106298Y-131015061D01*
X109110194Y-131015000D01*
X109133874Y-131015000D01*
X109137776Y-131015000D01*
X109141739Y-131014499D01*
X109153388Y-131013580D01*
X109197053Y-131012209D01*
X109216285Y-131006620D01*
X109235344Y-131002674D01*
X109241622Y-131001881D01*
X109255218Y-131000164D01*
X109295833Y-130984082D01*
X109306870Y-130980303D01*
X109348816Y-130968118D01*
X109366055Y-130957922D01*
X109383528Y-130949362D01*
X109402158Y-130941986D01*
X109437490Y-130916314D01*
X109447256Y-130909900D01*
X109484844Y-130887671D01*
X109484843Y-130887671D01*
X109484846Y-130887670D01*
X109499011Y-130873504D01*
X109513799Y-130860873D01*
X109530013Y-130849094D01*
X109557864Y-130815426D01*
X109565705Y-130806809D01*
X110127937Y-130244578D01*
X155399500Y-130244578D01*
X155399501Y-130247872D01*
X155399853Y-130251152D01*
X155399854Y-130251159D01*
X155405909Y-130307484D01*
X155409029Y-130315848D01*
X155456204Y-130442331D01*
X155542454Y-130557546D01*
X155657669Y-130643796D01*
X155792517Y-130694091D01*
X155852127Y-130700500D01*
X156947872Y-130700499D01*
X157007483Y-130694091D01*
X157142331Y-130643796D01*
X157257546Y-130557546D01*
X157343796Y-130442331D01*
X157394091Y-130307483D01*
X157400500Y-130247873D01*
X157400499Y-129152128D01*
X157394091Y-129092517D01*
X157343796Y-128957669D01*
X157257546Y-128842454D01*
X157142331Y-128756204D01*
X157007483Y-128705909D01*
X156947873Y-128699500D01*
X156944550Y-128699500D01*
X155855439Y-128699500D01*
X155855420Y-128699500D01*
X155852128Y-128699501D01*
X155848848Y-128699853D01*
X155848840Y-128699854D01*
X155792515Y-128705909D01*
X155657669Y-128756204D01*
X155542454Y-128842454D01*
X155456204Y-128957668D01*
X155405910Y-129092515D01*
X155405909Y-129092517D01*
X155399500Y-129152127D01*
X155399500Y-129155448D01*
X155399500Y-129155449D01*
X155399500Y-130244560D01*
X155399500Y-130244578D01*
X110127937Y-130244578D01*
X110178111Y-130194404D01*
X110239435Y-130160919D01*
X110265793Y-130158085D01*
X110324989Y-130158085D01*
X110448425Y-130131847D01*
X110510144Y-130118729D01*
X110683071Y-130041736D01*
X110836211Y-129930474D01*
X110962874Y-129789801D01*
X111057520Y-129625869D01*
X111089609Y-129527110D01*
X111116015Y-129445841D01*
X111135801Y-129257585D01*
X111116015Y-129069329D01*
X111057520Y-128889301D01*
X111057520Y-128889300D01*
X110962874Y-128725368D01*
X110836211Y-128584695D01*
X110683071Y-128473433D01*
X110510143Y-128396440D01*
X110324989Y-128357085D01*
X110324987Y-128357085D01*
X110135695Y-128357085D01*
X110135693Y-128357085D01*
X109950538Y-128396440D01*
X109777610Y-128473433D01*
X109624470Y-128584695D01*
X109497807Y-128725368D01*
X109403161Y-128889300D01*
X109344667Y-129069327D01*
X109327020Y-129237235D01*
X109300435Y-129301849D01*
X109291380Y-129311954D01*
X108875654Y-129727681D01*
X108814331Y-129761166D01*
X108787973Y-129764000D01*
X107803747Y-129764000D01*
X107736708Y-129744315D01*
X107711599Y-129722973D01*
X107705871Y-129716612D01*
X107552730Y-129605349D01*
X107552729Y-129605348D01*
X107552727Y-129605347D01*
X107379802Y-129528355D01*
X107194648Y-129489000D01*
X107194646Y-129489000D01*
X107005354Y-129489000D01*
X107005352Y-129489000D01*
X106820197Y-129528355D01*
X106647269Y-129605348D01*
X106494129Y-129716610D01*
X106367466Y-129857283D01*
X106272820Y-130021215D01*
X106214326Y-130201242D01*
X106194540Y-130389499D01*
X97000499Y-130389499D01*
X97000499Y-128344578D01*
X173899500Y-128344578D01*
X173899501Y-128347872D01*
X173905909Y-128407483D01*
X173956204Y-128542331D01*
X174042454Y-128657546D01*
X174157669Y-128743796D01*
X174292517Y-128794091D01*
X174352127Y-128800500D01*
X175447872Y-128800499D01*
X175507483Y-128794091D01*
X175642331Y-128743796D01*
X175757546Y-128657546D01*
X175843796Y-128542331D01*
X175843797Y-128542328D01*
X175850733Y-128533063D01*
X175906667Y-128491192D01*
X175976358Y-128486208D01*
X176037681Y-128519693D01*
X176049267Y-128533063D01*
X176056203Y-128542328D01*
X176056204Y-128542331D01*
X176142454Y-128657546D01*
X176257669Y-128743796D01*
X176392517Y-128794091D01*
X176452127Y-128800500D01*
X177547872Y-128800499D01*
X177607483Y-128794091D01*
X177742331Y-128743796D01*
X177857546Y-128657546D01*
X177943796Y-128542331D01*
X177994091Y-128407483D01*
X178000500Y-128347873D01*
X178000499Y-127252128D01*
X177994091Y-127192517D01*
X177943796Y-127057669D01*
X177857546Y-126942454D01*
X177742331Y-126856204D01*
X177607483Y-126805909D01*
X177547873Y-126799500D01*
X177544550Y-126799500D01*
X176455439Y-126799500D01*
X176455420Y-126799500D01*
X176452128Y-126799501D01*
X176448848Y-126799853D01*
X176448840Y-126799854D01*
X176392515Y-126805909D01*
X176257669Y-126856204D01*
X176142453Y-126942454D01*
X176049267Y-127066936D01*
X175993333Y-127108807D01*
X175923641Y-127113791D01*
X175862318Y-127080306D01*
X175850733Y-127066936D01*
X175757546Y-126942454D01*
X175642331Y-126856204D01*
X175507483Y-126805909D01*
X175451166Y-126799854D01*
X175451165Y-126799853D01*
X175447873Y-126799500D01*
X175444550Y-126799500D01*
X174355439Y-126799500D01*
X174355420Y-126799500D01*
X174352128Y-126799501D01*
X174348848Y-126799853D01*
X174348840Y-126799854D01*
X174292515Y-126805909D01*
X174157669Y-126856204D01*
X174042454Y-126942454D01*
X173956204Y-127057668D01*
X173905909Y-127192516D01*
X173903345Y-127216369D01*
X173899500Y-127252127D01*
X173899500Y-127255448D01*
X173899500Y-127255449D01*
X173899500Y-128344560D01*
X173899500Y-128344578D01*
X97000499Y-128344578D01*
X97000499Y-126499999D01*
X130894858Y-126499999D01*
X130915386Y-126747732D01*
X130976413Y-126988721D01*
X131076268Y-127216370D01*
X131176563Y-127369882D01*
X131176564Y-127369882D01*
X131916923Y-126629523D01*
X131940507Y-126709844D01*
X132018239Y-126830798D01*
X132126900Y-126924952D01*
X132257685Y-126984680D01*
X132267466Y-126986086D01*
X131529942Y-127723609D01*
X131529942Y-127723610D01*
X131576766Y-127760055D01*
X131795393Y-127878368D01*
X132030506Y-127959083D01*
X132275707Y-128000000D01*
X132524293Y-128000000D01*
X132769493Y-127959083D01*
X133004606Y-127878368D01*
X133223233Y-127760053D01*
X133270056Y-127723609D01*
X133091025Y-127544578D01*
X135899500Y-127544578D01*
X135899501Y-127547872D01*
X135905909Y-127607483D01*
X135956204Y-127742331D01*
X136042454Y-127857546D01*
X136157669Y-127943796D01*
X136292517Y-127994091D01*
X136352127Y-128000500D01*
X138447872Y-128000499D01*
X138507483Y-127994091D01*
X138642331Y-127943796D01*
X138757546Y-127857546D01*
X138843796Y-127742331D01*
X138894091Y-127607483D01*
X138900500Y-127547873D01*
X138900499Y-125452128D01*
X138894091Y-125392517D01*
X138843796Y-125257669D01*
X138757546Y-125142454D01*
X138642331Y-125056204D01*
X138507483Y-125005909D01*
X138507482Y-125005909D01*
X138451166Y-124999854D01*
X138451165Y-124999853D01*
X138447873Y-124999500D01*
X138444550Y-124999500D01*
X136355439Y-124999500D01*
X136355420Y-124999500D01*
X136352128Y-124999501D01*
X136348848Y-124999853D01*
X136348840Y-124999854D01*
X136292515Y-125005909D01*
X136157669Y-125056204D01*
X136042454Y-125142454D01*
X135956204Y-125257668D01*
X135905910Y-125392515D01*
X135905909Y-125392517D01*
X135899500Y-125452127D01*
X135899500Y-125455448D01*
X135899500Y-125455449D01*
X135899500Y-127544560D01*
X135899500Y-127544578D01*
X133091025Y-127544578D01*
X132532533Y-126986086D01*
X132542315Y-126984680D01*
X132673100Y-126924952D01*
X132781761Y-126830798D01*
X132859493Y-126709844D01*
X132883077Y-126629523D01*
X133623434Y-127369882D01*
X133723730Y-127216369D01*
X133823586Y-126988721D01*
X133884613Y-126747732D01*
X133905141Y-126500000D01*
X133884613Y-126252267D01*
X133823586Y-126011278D01*
X133723730Y-125783630D01*
X133623434Y-125630116D01*
X132883076Y-126370474D01*
X132859493Y-126290156D01*
X132781761Y-126169202D01*
X132673100Y-126075048D01*
X132542315Y-126015320D01*
X132532534Y-126013913D01*
X133270057Y-125276390D01*
X133270056Y-125276388D01*
X133223235Y-125239947D01*
X133004606Y-125121631D01*
X132769493Y-125040916D01*
X132524293Y-125000000D01*
X132275707Y-125000000D01*
X132030506Y-125040916D01*
X131795393Y-125121631D01*
X131576764Y-125239946D01*
X131529942Y-125276388D01*
X131529942Y-125276390D01*
X132267466Y-126013913D01*
X132257685Y-126015320D01*
X132126900Y-126075048D01*
X132018239Y-126169202D01*
X131940507Y-126290156D01*
X131916923Y-126370475D01*
X131176564Y-125630116D01*
X131076266Y-125783634D01*
X130976413Y-126011278D01*
X130915386Y-126252267D01*
X130894858Y-126499999D01*
X97000499Y-126499999D01*
X97000499Y-124797348D01*
X157195033Y-124797348D01*
X157214858Y-125023951D01*
X157273733Y-125243675D01*
X157369866Y-125449833D01*
X157420972Y-125522820D01*
X157420974Y-125522821D01*
X158102046Y-124841748D01*
X158114835Y-124922497D01*
X158172359Y-125035394D01*
X158261955Y-125124990D01*
X158374852Y-125182514D01*
X158455599Y-125195302D01*
X157774526Y-125876374D01*
X157774526Y-125876375D01*
X157847515Y-125927482D01*
X158053673Y-126023615D01*
X158273397Y-126082490D01*
X158500000Y-126102315D01*
X158726602Y-126082490D01*
X158946326Y-126023615D01*
X159152480Y-125927483D01*
X159225472Y-125876374D01*
X158544401Y-125195302D01*
X158625148Y-125182514D01*
X158738045Y-125124990D01*
X158827641Y-125035394D01*
X158885165Y-124922497D01*
X158897953Y-124841748D01*
X159579025Y-125522821D01*
X159630134Y-125449829D01*
X159726266Y-125243675D01*
X159785141Y-125023951D01*
X159804966Y-124797349D01*
X159785141Y-124570746D01*
X159726266Y-124351022D01*
X159630133Y-124144864D01*
X159579025Y-124071875D01*
X158897953Y-124752946D01*
X158885165Y-124672201D01*
X158827641Y-124559304D01*
X158738045Y-124469708D01*
X158625148Y-124412184D01*
X158544400Y-124399395D01*
X158999217Y-123944578D01*
X179099500Y-123944578D01*
X179099501Y-123947872D01*
X179105909Y-124007483D01*
X179156204Y-124142331D01*
X179242454Y-124257546D01*
X179357669Y-124343796D01*
X179492517Y-124394091D01*
X179552127Y-124400500D01*
X180647872Y-124400499D01*
X180707483Y-124394091D01*
X180842331Y-124343796D01*
X180957546Y-124257546D01*
X181043796Y-124142331D01*
X181094091Y-124007483D01*
X181100500Y-123947873D01*
X181100499Y-122852128D01*
X181094091Y-122792517D01*
X181043796Y-122657669D01*
X180957546Y-122542454D01*
X180842331Y-122456204D01*
X180707483Y-122405909D01*
X180647873Y-122399500D01*
X180644550Y-122399500D01*
X179555439Y-122399500D01*
X179555420Y-122399500D01*
X179552128Y-122399501D01*
X179548848Y-122399853D01*
X179548840Y-122399854D01*
X179492515Y-122405909D01*
X179357669Y-122456204D01*
X179242454Y-122542454D01*
X179156204Y-122657668D01*
X179105910Y-122792515D01*
X179105909Y-122792517D01*
X179099500Y-122852127D01*
X179099500Y-122855448D01*
X179099500Y-122855449D01*
X179099500Y-123944560D01*
X179099500Y-123944578D01*
X158999217Y-123944578D01*
X159225472Y-123718323D01*
X159225471Y-123718321D01*
X159152484Y-123667215D01*
X158946326Y-123571082D01*
X158726602Y-123512207D01*
X158500000Y-123492382D01*
X158273397Y-123512207D01*
X158053672Y-123571082D01*
X157847516Y-123667214D01*
X157774527Y-123718322D01*
X157774526Y-123718322D01*
X158455600Y-124399395D01*
X158374852Y-124412184D01*
X158261955Y-124469708D01*
X158172359Y-124559304D01*
X158114835Y-124672201D01*
X158102046Y-124752948D01*
X157420973Y-124071875D01*
X157420973Y-124071876D01*
X157369865Y-124144865D01*
X157273733Y-124351021D01*
X157214858Y-124570746D01*
X157195033Y-124797348D01*
X97000499Y-124797348D01*
X97000499Y-121841927D01*
X157199500Y-121841927D01*
X157199501Y-121845221D01*
X157205909Y-121904832D01*
X157256204Y-122039680D01*
X157342454Y-122154895D01*
X157457669Y-122241145D01*
X157592517Y-122291440D01*
X157652127Y-122297849D01*
X159347872Y-122297848D01*
X159407483Y-122291440D01*
X159542331Y-122241145D01*
X159657546Y-122154895D01*
X159743796Y-122039680D01*
X159794091Y-121904832D01*
X159800500Y-121845222D01*
X159800499Y-120149477D01*
X159794091Y-120089866D01*
X159743796Y-119955018D01*
X159657546Y-119839803D01*
X159542331Y-119753553D01*
X159407483Y-119703258D01*
X159347873Y-119696849D01*
X159344550Y-119696849D01*
X157655439Y-119696849D01*
X157655420Y-119696849D01*
X157652128Y-119696850D01*
X157648848Y-119697202D01*
X157648840Y-119697203D01*
X157592515Y-119703258D01*
X157457669Y-119753553D01*
X157342454Y-119839803D01*
X157256204Y-119955017D01*
X157205909Y-120089865D01*
X157200029Y-120144560D01*
X157199500Y-120149476D01*
X157199500Y-120152797D01*
X157199500Y-120152798D01*
X157199500Y-121841909D01*
X157199500Y-121841927D01*
X97000499Y-121841927D01*
X97000499Y-115230000D01*
X98875304Y-115230000D01*
X98894053Y-115456262D01*
X98949791Y-115676365D01*
X99040990Y-115884280D01*
X99120487Y-116005959D01*
X99728299Y-115398147D01*
X99731640Y-115414225D01*
X99800565Y-115547246D01*
X99902823Y-115656737D01*
X100030830Y-115734580D01*
X100084058Y-115749493D01*
X99455412Y-116378138D01*
X99454236Y-116383311D01*
X99404364Y-116432246D01*
X99384978Y-116440560D01*
X99310667Y-116465185D01*
X99161342Y-116557288D01*
X99037288Y-116681342D01*
X98945186Y-116830665D01*
X98890000Y-116997202D01*
X98879819Y-117096858D01*
X98879817Y-117096878D01*
X98879500Y-117099991D01*
X98879500Y-117103138D01*
X98879500Y-117103139D01*
X98879500Y-118436859D01*
X98879500Y-118436878D01*
X98879501Y-118440008D01*
X98879820Y-118443140D01*
X98879821Y-118443141D01*
X98890000Y-118542796D01*
X98945186Y-118709334D01*
X99037288Y-118858657D01*
X99161342Y-118982711D01*
X99165358Y-118985188D01*
X99310666Y-119074814D01*
X99416373Y-119109842D01*
X99477202Y-119129999D01*
X99576858Y-119140180D01*
X99576859Y-119140180D01*
X99579991Y-119140500D01*
X100920008Y-119140499D01*
X101022797Y-119129999D01*
X101113331Y-119099999D01*
X112494858Y-119099999D01*
X112499576Y-119156925D01*
X112500000Y-119167166D01*
X112500000Y-120000000D01*
X113100000Y-120600000D01*
X114900000Y-120600000D01*
X115355422Y-120144578D01*
X117499500Y-120144578D01*
X117499501Y-120147872D01*
X117499853Y-120151152D01*
X117499854Y-120151159D01*
X117505909Y-120207483D01*
X117556204Y-120342331D01*
X117642454Y-120457546D01*
X117757669Y-120543796D01*
X117892517Y-120594091D01*
X117952127Y-120600500D01*
X120047872Y-120600499D01*
X120107483Y-120594091D01*
X120242331Y-120543796D01*
X120357546Y-120457546D01*
X120443796Y-120342331D01*
X120494091Y-120207483D01*
X120500500Y-120147873D01*
X120500499Y-118052128D01*
X120494091Y-117992517D01*
X120443796Y-117857669D01*
X120357546Y-117742454D01*
X120242331Y-117656204D01*
X120107483Y-117605909D01*
X120107482Y-117605909D01*
X120051166Y-117599854D01*
X120051165Y-117599853D01*
X120047873Y-117599500D01*
X120044550Y-117599500D01*
X117955439Y-117599500D01*
X117955420Y-117599500D01*
X117952128Y-117599501D01*
X117948848Y-117599853D01*
X117948840Y-117599854D01*
X117892515Y-117605909D01*
X117757669Y-117656204D01*
X117642454Y-117742454D01*
X117556204Y-117857668D01*
X117505910Y-117992515D01*
X117505909Y-117992517D01*
X117499500Y-118052127D01*
X117499500Y-118055448D01*
X117499500Y-118055449D01*
X117499500Y-120144560D01*
X117499500Y-120144578D01*
X115355422Y-120144578D01*
X115500000Y-120000000D01*
X115500000Y-119167166D01*
X115500424Y-119156925D01*
X115505141Y-119099999D01*
X115500424Y-119043072D01*
X115500000Y-119032832D01*
X115500000Y-118200000D01*
X114900000Y-117600000D01*
X113100000Y-117600000D01*
X113099999Y-117600000D01*
X112500000Y-118199999D01*
X112500000Y-119032832D01*
X112499576Y-119043072D01*
X112494858Y-119099999D01*
X101113331Y-119099999D01*
X101189334Y-119074814D01*
X101338656Y-118982712D01*
X101462712Y-118858656D01*
X101554814Y-118709334D01*
X101609999Y-118542797D01*
X101620500Y-118440009D01*
X101620499Y-117099992D01*
X101609999Y-116997203D01*
X101554814Y-116830666D01*
X101462712Y-116681344D01*
X101462711Y-116681342D01*
X101338657Y-116557288D01*
X101246554Y-116500479D01*
X101189334Y-116465186D01*
X101115021Y-116440561D01*
X101057577Y-116400788D01*
X101050703Y-116384255D01*
X100417768Y-115751320D01*
X100535836Y-115700037D01*
X100652050Y-115605489D01*
X100738447Y-115483093D01*
X100769440Y-115395886D01*
X101379511Y-116005959D01*
X101459006Y-115884284D01*
X101550209Y-115676364D01*
X101605946Y-115456262D01*
X101624695Y-115230000D01*
X101605946Y-115003737D01*
X101550209Y-114783635D01*
X101459008Y-114575719D01*
X101379511Y-114454039D01*
X100771700Y-115061850D01*
X100768360Y-115045775D01*
X100699435Y-114912754D01*
X100597177Y-114803263D01*
X100469170Y-114725420D01*
X100415941Y-114710506D01*
X101027420Y-114099025D01*
X101001886Y-114079151D01*
X100802207Y-113971090D01*
X100587470Y-113897369D01*
X100363521Y-113860000D01*
X100136479Y-113860000D01*
X99912529Y-113897369D01*
X99697792Y-113971090D01*
X99498115Y-114079149D01*
X99472577Y-114099025D01*
X100082231Y-114708679D01*
X99964164Y-114759963D01*
X99847950Y-114854511D01*
X99761553Y-114976907D01*
X99730559Y-115064112D01*
X99120487Y-114454040D01*
X99040990Y-114575719D01*
X98949791Y-114783634D01*
X98894053Y-115003737D01*
X98875304Y-115230000D01*
X97000499Y-115230000D01*
X97000499Y-110829500D01*
X97020184Y-110762461D01*
X97072988Y-110716706D01*
X97124499Y-110705500D01*
X109311047Y-110705500D01*
X109378086Y-110725185D01*
X109423841Y-110777989D01*
X109433785Y-110847147D01*
X109404760Y-110910703D01*
X109398728Y-110917181D01*
X107752228Y-112563681D01*
X107690905Y-112597166D01*
X107664547Y-112600000D01*
X107605352Y-112600000D01*
X107420197Y-112639355D01*
X107247269Y-112716348D01*
X107094129Y-112827610D01*
X106967466Y-112968283D01*
X106872820Y-113132215D01*
X106814326Y-113312242D01*
X106794540Y-113500500D01*
X106814326Y-113688757D01*
X106872820Y-113868784D01*
X106967466Y-114032716D01*
X107094129Y-114173389D01*
X107247269Y-114284651D01*
X107420197Y-114361644D01*
X107605352Y-114401000D01*
X107605354Y-114401000D01*
X107794648Y-114401000D01*
X107918083Y-114374762D01*
X107979803Y-114361644D01*
X108118256Y-114300000D01*
X134500000Y-114300000D01*
X134500000Y-118000000D01*
X137500000Y-118000000D01*
X137500000Y-114300000D01*
X134500000Y-114300000D01*
X108118256Y-114300000D01*
X108152730Y-114284651D01*
X108248805Y-114214849D01*
X108305870Y-114173389D01*
X108326480Y-114150500D01*
X108432533Y-114032716D01*
X108527179Y-113868784D01*
X108585674Y-113688756D01*
X108593525Y-113614055D01*
X157955985Y-113614055D01*
X157975771Y-113802312D01*
X158034265Y-113982339D01*
X158128911Y-114146271D01*
X158255574Y-114286944D01*
X158408714Y-114398206D01*
X158581642Y-114475199D01*
X158676280Y-114495315D01*
X158737762Y-114528507D01*
X158771539Y-114589670D01*
X158774500Y-114616605D01*
X158774500Y-115526533D01*
X158754815Y-115593572D01*
X158702011Y-115639327D01*
X158693835Y-115642714D01*
X158657671Y-115656202D01*
X158542454Y-115742454D01*
X158456204Y-115857668D01*
X158411797Y-115976731D01*
X158405909Y-115992517D01*
X158399500Y-116052127D01*
X158399500Y-116055448D01*
X158399500Y-116055449D01*
X158399500Y-117144560D01*
X158399500Y-117144578D01*
X158399501Y-117147872D01*
X158405909Y-117207483D01*
X158456204Y-117342331D01*
X158542454Y-117457546D01*
X158657669Y-117543796D01*
X158792517Y-117594091D01*
X158852127Y-117600500D01*
X159947872Y-117600499D01*
X160007483Y-117594091D01*
X160142331Y-117543796D01*
X160257546Y-117457546D01*
X160264142Y-117448733D01*
X160300485Y-117400189D01*
X160356419Y-117358318D01*
X160399751Y-117350500D01*
X160612039Y-117350500D01*
X160679078Y-117370185D01*
X160724833Y-117422989D01*
X160734777Y-117492147D01*
X160705752Y-117555703D01*
X160684924Y-117574818D01*
X160544129Y-117677110D01*
X160417466Y-117817783D01*
X160322820Y-117981715D01*
X160264326Y-118161742D01*
X160244540Y-118349999D01*
X160264326Y-118538257D01*
X160322820Y-118718284D01*
X160417466Y-118882216D01*
X160544129Y-119022889D01*
X160697269Y-119134151D01*
X160870197Y-119211144D01*
X161055352Y-119250500D01*
X161055354Y-119250500D01*
X161244648Y-119250500D01*
X161401678Y-119217122D01*
X161429803Y-119211144D01*
X161602730Y-119134151D01*
X161655999Y-119095447D01*
X161721803Y-119071969D01*
X161789857Y-119087794D01*
X161801770Y-119095450D01*
X161821580Y-119109843D01*
X161994506Y-119186835D01*
X162179661Y-119226191D01*
X162179663Y-119226191D01*
X162368957Y-119226191D01*
X162535453Y-119190801D01*
X162554112Y-119186835D01*
X162727039Y-119109842D01*
X162767337Y-119080562D01*
X162833141Y-119057084D01*
X162901195Y-119072909D01*
X162913096Y-119080557D01*
X162934971Y-119096450D01*
X162934972Y-119096450D01*
X162934973Y-119096451D01*
X163107898Y-119173443D01*
X163293053Y-119212799D01*
X163293055Y-119212799D01*
X163482349Y-119212799D01*
X163643157Y-119178618D01*
X163667504Y-119173443D01*
X163840431Y-119096450D01*
X163927994Y-119032832D01*
X163993571Y-118985188D01*
X163995801Y-118982712D01*
X164120234Y-118844515D01*
X164214880Y-118680583D01*
X164273375Y-118500555D01*
X164291022Y-118332643D01*
X164317605Y-118268033D01*
X164326652Y-118257937D01*
X164349419Y-118235170D01*
X164410740Y-118201687D01*
X164480432Y-118206671D01*
X164487533Y-118209573D01*
X164633709Y-118274655D01*
X164818862Y-118314010D01*
X164818864Y-118314010D01*
X165008158Y-118314010D01*
X165131594Y-118287772D01*
X165193313Y-118274654D01*
X165360989Y-118199999D01*
X174570040Y-118199999D01*
X174589826Y-118388257D01*
X174648320Y-118568284D01*
X174742966Y-118732216D01*
X174869629Y-118872889D01*
X175022769Y-118984151D01*
X175195697Y-119061144D01*
X175380852Y-119100500D01*
X175380854Y-119100500D01*
X175570148Y-119100500D01*
X175693584Y-119074262D01*
X175755303Y-119061144D01*
X175928230Y-118984151D01*
X176002614Y-118930107D01*
X176068420Y-118906627D01*
X176136474Y-118922452D01*
X176185169Y-118972557D01*
X176199500Y-119030424D01*
X176199500Y-119144560D01*
X176199500Y-119144578D01*
X176199501Y-119147872D01*
X176199853Y-119151152D01*
X176199854Y-119151159D01*
X176205909Y-119207484D01*
X176213439Y-119227673D01*
X176256204Y-119342331D01*
X176342454Y-119457546D01*
X176457669Y-119543796D01*
X176592517Y-119594091D01*
X176652127Y-119600500D01*
X177747872Y-119600499D01*
X177807483Y-119594091D01*
X177942331Y-119543796D01*
X178057546Y-119457546D01*
X178143796Y-119342331D01*
X178157284Y-119306166D01*
X178199155Y-119250233D01*
X178264620Y-119225816D01*
X178273466Y-119225500D01*
X182525992Y-119225500D01*
X182546498Y-119227764D01*
X182549401Y-119227672D01*
X182549403Y-119227673D01*
X182616608Y-119225561D01*
X182620504Y-119225500D01*
X182644184Y-119225500D01*
X182648086Y-119225500D01*
X182652049Y-119224999D01*
X182663698Y-119224080D01*
X182707363Y-119222709D01*
X182726595Y-119217120D01*
X182745654Y-119213174D01*
X182751932Y-119212381D01*
X182765528Y-119210664D01*
X182806143Y-119194582D01*
X182817180Y-119190803D01*
X182859126Y-119178618D01*
X182876365Y-119168422D01*
X182893838Y-119159862D01*
X182912468Y-119152486D01*
X182947800Y-119126814D01*
X182957566Y-119120400D01*
X182995154Y-119098171D01*
X182995153Y-119098171D01*
X182995156Y-119098170D01*
X183009321Y-119084004D01*
X183024109Y-119071373D01*
X183040323Y-119059594D01*
X183068174Y-119025926D01*
X183076015Y-119017309D01*
X183857006Y-118236319D01*
X183918330Y-118202834D01*
X183944688Y-118200000D01*
X184003884Y-118200000D01*
X184161093Y-118166584D01*
X184189039Y-118160644D01*
X184361966Y-118083651D01*
X184405355Y-118052127D01*
X184515106Y-117972389D01*
X184641769Y-117831716D01*
X184736415Y-117667784D01*
X184740178Y-117656204D01*
X184794910Y-117487756D01*
X184814696Y-117299500D01*
X184794910Y-117111244D01*
X184741711Y-116947514D01*
X184736415Y-116931215D01*
X184641769Y-116767283D01*
X184515106Y-116626610D01*
X184361966Y-116515348D01*
X184189038Y-116438355D01*
X184003884Y-116399000D01*
X184003882Y-116399000D01*
X183814590Y-116399000D01*
X183814588Y-116399000D01*
X183616685Y-116441065D01*
X183616261Y-116439074D01*
X183563546Y-116446142D01*
X183500270Y-116416513D01*
X183463057Y-116357377D01*
X183458362Y-116323578D01*
X183458362Y-113466683D01*
X183474975Y-113404683D01*
X183535041Y-113300646D01*
X183565311Y-113207484D01*
X183593536Y-113120618D01*
X183613322Y-112932362D01*
X183593536Y-112744106D01*
X183535041Y-112564078D01*
X183535041Y-112564077D01*
X183440395Y-112400145D01*
X183313732Y-112259472D01*
X183160592Y-112148210D01*
X182987664Y-112071217D01*
X182802510Y-112031862D01*
X182802508Y-112031862D01*
X182613216Y-112031862D01*
X182613214Y-112031862D01*
X182428059Y-112071217D01*
X182255131Y-112148210D01*
X182101991Y-112259472D01*
X181975328Y-112400145D01*
X181880682Y-112564077D01*
X181822188Y-112744104D01*
X181802402Y-112932362D01*
X181822188Y-113120619D01*
X181880682Y-113300646D01*
X181940748Y-113404683D01*
X181957361Y-113466683D01*
X181957361Y-116765179D01*
X181940749Y-116827178D01*
X181880682Y-116931218D01*
X181822188Y-117111244D01*
X181810206Y-117225254D01*
X181802402Y-117299502D01*
X181807762Y-117350500D01*
X181822188Y-117487759D01*
X181880682Y-117667786D01*
X181950377Y-117788500D01*
X181966850Y-117856400D01*
X181943997Y-117922427D01*
X181889076Y-117965618D01*
X181842990Y-117974500D01*
X179262899Y-117974500D01*
X179195860Y-117954815D01*
X179150105Y-117902011D01*
X179140161Y-117832853D01*
X179155512Y-117788500D01*
X179223851Y-117670133D01*
X179244719Y-117605909D01*
X179282346Y-117490105D01*
X179299993Y-117322193D01*
X179326576Y-117257583D01*
X179335623Y-117247487D01*
X179783789Y-116799321D01*
X179799885Y-116786427D01*
X179801873Y-116784308D01*
X179801877Y-116784307D01*
X179847949Y-116735244D01*
X179850534Y-116732576D01*
X179870120Y-116712992D01*
X179872585Y-116709813D01*
X179880167Y-116700937D01*
X179910062Y-116669103D01*
X179919712Y-116651548D01*
X179930400Y-116635278D01*
X179942673Y-116619457D01*
X179960026Y-116579353D01*
X179965157Y-116568883D01*
X179986197Y-116530613D01*
X179991175Y-116511220D01*
X179997481Y-116492803D01*
X179999018Y-116489249D01*
X180005438Y-116474417D01*
X180012272Y-116431266D01*
X180014635Y-116419852D01*
X180025500Y-116377540D01*
X180025500Y-116357504D01*
X180027027Y-116338105D01*
X180030160Y-116318325D01*
X180026050Y-116274845D01*
X180025500Y-116263176D01*
X180025500Y-114399187D01*
X180045185Y-114332148D01*
X180057350Y-114316214D01*
X180085770Y-114284651D01*
X180132533Y-114232716D01*
X180142849Y-114214849D01*
X180227179Y-114068784D01*
X180250888Y-113995816D01*
X180285674Y-113888756D01*
X180305460Y-113700500D01*
X180285674Y-113512244D01*
X180230466Y-113342331D01*
X180227179Y-113332215D01*
X180132533Y-113168283D01*
X180005870Y-113027610D01*
X179852730Y-112916348D01*
X179679802Y-112839355D01*
X179494648Y-112800000D01*
X179494646Y-112800000D01*
X179305354Y-112800000D01*
X179305352Y-112800000D01*
X179120197Y-112839355D01*
X178947269Y-112916348D01*
X178794129Y-113027610D01*
X178667465Y-113168286D01*
X178651652Y-113195674D01*
X178601084Y-113243888D01*
X178532476Y-113257109D01*
X178518488Y-113254962D01*
X178495143Y-113250000D01*
X178305851Y-113250000D01*
X178305849Y-113250000D01*
X178120694Y-113289355D01*
X177947766Y-113366348D01*
X177794626Y-113477610D01*
X177667963Y-113618283D01*
X177573317Y-113782215D01*
X177514823Y-113962242D01*
X177495037Y-114150500D01*
X177514823Y-114338757D01*
X177573317Y-114518784D01*
X177667961Y-114682713D01*
X177672952Y-114688256D01*
X177742824Y-114765856D01*
X177743147Y-114766214D01*
X177773377Y-114829206D01*
X177774997Y-114849187D01*
X177774997Y-115889050D01*
X177755312Y-115956089D01*
X177738678Y-115976731D01*
X176877228Y-116838181D01*
X176815905Y-116871666D01*
X176789547Y-116874500D01*
X176258240Y-116874500D01*
X176237736Y-116872236D01*
X176167644Y-116874439D01*
X176163750Y-116874500D01*
X176136150Y-116874500D01*
X176132289Y-116874987D01*
X176132278Y-116874988D01*
X176132145Y-116875005D01*
X176120529Y-116875918D01*
X176076868Y-116877290D01*
X176057629Y-116882880D01*
X176038580Y-116886825D01*
X176018708Y-116889335D01*
X175978093Y-116905415D01*
X175967049Y-116909196D01*
X175925111Y-116921382D01*
X175907864Y-116931581D01*
X175890400Y-116940136D01*
X175871767Y-116947514D01*
X175836426Y-116973189D01*
X175826668Y-116979599D01*
X175789079Y-117001829D01*
X175774910Y-117015998D01*
X175760122Y-117028628D01*
X175743910Y-117040407D01*
X175716070Y-117074059D01*
X175708210Y-117082697D01*
X175527726Y-117263182D01*
X175466406Y-117296666D01*
X175440047Y-117299500D01*
X175380852Y-117299500D01*
X175195697Y-117338855D01*
X175022769Y-117415848D01*
X174869629Y-117527110D01*
X174742966Y-117667783D01*
X174648320Y-117831715D01*
X174589826Y-118011742D01*
X174570040Y-118199999D01*
X165360989Y-118199999D01*
X165366240Y-118197661D01*
X165415676Y-118161744D01*
X165519380Y-118086399D01*
X165646043Y-117945726D01*
X165740689Y-117781794D01*
X165776970Y-117670133D01*
X165799184Y-117601766D01*
X165818970Y-117413510D01*
X165799184Y-117225254D01*
X165751519Y-117078557D01*
X165740689Y-117045225D01*
X165646043Y-116881293D01*
X165519380Y-116740620D01*
X165366242Y-116629359D01*
X165193313Y-116552366D01*
X165166789Y-116546728D01*
X165105308Y-116513534D01*
X165074642Y-116463756D01*
X165033934Y-116338470D01*
X164939288Y-116174538D01*
X164812625Y-116033865D01*
X164659487Y-115922604D01*
X164486558Y-115845611D01*
X164460034Y-115839973D01*
X164398553Y-115806779D01*
X164367887Y-115757001D01*
X164327179Y-115631715D01*
X164232533Y-115467783D01*
X164105872Y-115327112D01*
X164056660Y-115291358D01*
X164013995Y-115236028D01*
X164008016Y-115166415D01*
X164026121Y-115128844D01*
X164024793Y-115128177D01*
X164030569Y-115116673D01*
X164042573Y-115097827D01*
X164043106Y-115096682D01*
X164043111Y-115096677D01*
X164074833Y-115028646D01*
X164076362Y-115025488D01*
X164110040Y-114958433D01*
X164110040Y-114958432D01*
X164110612Y-114957294D01*
X164117000Y-114938914D01*
X164117255Y-114937675D01*
X164117257Y-114937673D01*
X164131281Y-114869750D01*
X164164112Y-114808080D01*
X164225077Y-114773947D01*
X164278499Y-114773537D01*
X164405352Y-114800500D01*
X164405354Y-114800500D01*
X164594648Y-114800500D01*
X164755950Y-114766214D01*
X164779803Y-114761144D01*
X164952730Y-114684151D01*
X165105871Y-114572888D01*
X165111598Y-114566527D01*
X165171084Y-114529879D01*
X165203747Y-114525500D01*
X167768154Y-114525500D01*
X167835193Y-114545185D01*
X167855835Y-114561819D01*
X168027897Y-114733881D01*
X168061382Y-114795204D01*
X168061296Y-114825846D01*
X168062335Y-114825814D01*
X168064939Y-114908675D01*
X168065000Y-114912570D01*
X168065000Y-114940153D01*
X168065488Y-114944022D01*
X168065489Y-114944028D01*
X168065504Y-114944146D01*
X168066418Y-114955770D01*
X168067790Y-114999429D01*
X168073379Y-115018663D01*
X168077325Y-115037719D01*
X168079835Y-115057595D01*
X168095914Y-115098207D01*
X168099697Y-115109254D01*
X168111882Y-115151194D01*
X168122080Y-115168438D01*
X168130636Y-115185903D01*
X168138014Y-115204535D01*
X168144851Y-115213945D01*
X168163680Y-115239862D01*
X168170093Y-115249625D01*
X168192326Y-115287219D01*
X168192329Y-115287222D01*
X168192330Y-115287223D01*
X168206495Y-115301388D01*
X168219127Y-115316178D01*
X168230906Y-115332390D01*
X168264558Y-115360229D01*
X168273199Y-115368092D01*
X168614389Y-115709282D01*
X168627289Y-115725384D01*
X168629408Y-115727374D01*
X168629409Y-115727375D01*
X168645831Y-115742796D01*
X168678418Y-115773398D01*
X168681215Y-115776109D01*
X168700724Y-115795618D01*
X168703904Y-115798085D01*
X168712766Y-115805653D01*
X168732783Y-115824451D01*
X168744613Y-115835560D01*
X168762165Y-115845209D01*
X168778433Y-115855895D01*
X168794259Y-115868171D01*
X168834341Y-115885515D01*
X168844828Y-115890653D01*
X168883102Y-115911695D01*
X168891605Y-115913877D01*
X168902503Y-115916676D01*
X168920908Y-115922976D01*
X168939299Y-115930935D01*
X168982445Y-115937768D01*
X168993863Y-115940133D01*
X169036176Y-115950998D01*
X169056211Y-115950998D01*
X169075610Y-115952525D01*
X169095391Y-115955658D01*
X169138869Y-115951548D01*
X169150539Y-115950998D01*
X169633061Y-115950998D01*
X169653567Y-115953262D01*
X169656470Y-115953170D01*
X169656472Y-115953171D01*
X169723677Y-115951059D01*
X169727573Y-115950998D01*
X169751253Y-115950998D01*
X169755155Y-115950998D01*
X169759118Y-115950497D01*
X169770767Y-115949578D01*
X169814432Y-115948207D01*
X169833664Y-115942618D01*
X169852723Y-115938672D01*
X169859904Y-115937765D01*
X169872597Y-115936162D01*
X169913212Y-115920080D01*
X169924249Y-115916301D01*
X169966195Y-115904116D01*
X169983434Y-115893920D01*
X170000907Y-115885360D01*
X170019537Y-115877984D01*
X170054869Y-115852312D01*
X170064635Y-115845898D01*
X170082116Y-115835560D01*
X170102225Y-115823668D01*
X170116390Y-115809502D01*
X170131178Y-115796871D01*
X170147392Y-115785092D01*
X170175243Y-115751424D01*
X170183084Y-115742807D01*
X170695424Y-115230467D01*
X170756745Y-115196984D01*
X170826437Y-115201968D01*
X170855988Y-115217832D01*
X170947269Y-115284151D01*
X171120197Y-115361144D01*
X171305352Y-115400500D01*
X171305354Y-115400500D01*
X171494648Y-115400500D01*
X171618083Y-115374262D01*
X171679803Y-115361144D01*
X171852730Y-115284151D01*
X171962311Y-115204536D01*
X172005870Y-115172889D01*
X172045529Y-115128844D01*
X172132533Y-115032216D01*
X172227179Y-114868284D01*
X172285674Y-114688256D01*
X172305460Y-114500000D01*
X172285674Y-114311744D01*
X172254191Y-114214849D01*
X172227179Y-114131715D01*
X172132533Y-113967783D01*
X172005870Y-113827110D01*
X171852730Y-113715848D01*
X171679802Y-113638855D01*
X171494648Y-113599500D01*
X171494646Y-113599500D01*
X171305354Y-113599500D01*
X171305352Y-113599500D01*
X171120197Y-113638855D01*
X170947272Y-113715847D01*
X170877981Y-113766190D01*
X170794129Y-113827112D01*
X170788401Y-113833472D01*
X170728916Y-113870121D01*
X170696253Y-113874500D01*
X170624043Y-113874500D01*
X170603539Y-113872236D01*
X170533447Y-113874439D01*
X170529553Y-113874500D01*
X170501953Y-113874500D01*
X170498092Y-113874987D01*
X170498081Y-113874988D01*
X170497948Y-113875005D01*
X170486332Y-113875918D01*
X170442671Y-113877290D01*
X170423432Y-113882880D01*
X170404383Y-113886825D01*
X170384511Y-113889335D01*
X170343896Y-113905415D01*
X170332852Y-113909196D01*
X170290914Y-113921382D01*
X170273667Y-113931581D01*
X170256203Y-113940136D01*
X170237570Y-113947514D01*
X170208028Y-113968976D01*
X170142221Y-113992453D01*
X170074167Y-113976625D01*
X170042998Y-113951628D01*
X170021371Y-113927609D01*
X169868230Y-113816346D01*
X169695302Y-113739353D01*
X169510148Y-113699998D01*
X169510146Y-113699998D01*
X169450952Y-113699998D01*
X169383913Y-113680313D01*
X169363271Y-113663679D01*
X169065941Y-113366349D01*
X168765804Y-113066211D01*
X168752908Y-113050113D01*
X168701777Y-113002098D01*
X168698980Y-112999387D01*
X168682229Y-112982636D01*
X168679473Y-112979880D01*
X168676292Y-112977412D01*
X168667427Y-112969840D01*
X168660453Y-112963291D01*
X168625064Y-112903049D01*
X168622023Y-112859948D01*
X168636154Y-112725500D01*
X168616368Y-112537244D01*
X168557873Y-112357216D01*
X168557873Y-112357215D01*
X168482580Y-112226804D01*
X168466107Y-112158904D01*
X168488960Y-112092877D01*
X168497818Y-112081831D01*
X168505869Y-112072889D01*
X168505871Y-112072888D01*
X168632533Y-111932216D01*
X168727179Y-111768284D01*
X168785674Y-111588256D01*
X168805460Y-111400000D01*
X168785674Y-111211744D01*
X168743765Y-111082762D01*
X168727179Y-111031715D01*
X168632533Y-110867783D01*
X168505870Y-110727110D01*
X168352730Y-110615848D01*
X168179802Y-110538855D01*
X167994648Y-110499500D01*
X167994646Y-110499500D01*
X167805354Y-110499500D01*
X167805352Y-110499500D01*
X167620197Y-110538855D01*
X167447271Y-110615847D01*
X167433550Y-110625817D01*
X167367744Y-110649298D01*
X167360663Y-110649500D01*
X166062229Y-110649500D01*
X165995190Y-110629815D01*
X165974548Y-110613181D01*
X165476228Y-110114860D01*
X165464446Y-110101227D01*
X165460806Y-110096338D01*
X165450110Y-110081970D01*
X165446364Y-110078827D01*
X165412166Y-110050131D01*
X165404191Y-110042823D01*
X165402829Y-110041461D01*
X165400277Y-110038909D01*
X165388792Y-110029828D01*
X165375944Y-110019669D01*
X165373147Y-110017390D01*
X165314751Y-109968390D01*
X165298321Y-109957922D01*
X165229191Y-109925686D01*
X165225947Y-109924115D01*
X165157806Y-109889894D01*
X165139403Y-109883497D01*
X165064711Y-109868074D01*
X165061192Y-109867294D01*
X164986990Y-109849708D01*
X164967621Y-109847729D01*
X164891369Y-109849948D01*
X164887763Y-109850000D01*
X164032801Y-109850000D01*
X164014831Y-109848691D01*
X164000948Y-109846657D01*
X163991072Y-109845211D01*
X163991071Y-109845211D01*
X163941726Y-109849528D01*
X163930919Y-109850000D01*
X163925386Y-109850000D01*
X163921825Y-109850416D01*
X163921810Y-109850417D01*
X163894596Y-109853598D01*
X163891011Y-109853964D01*
X163815056Y-109860609D01*
X163796016Y-109864830D01*
X163724327Y-109890921D01*
X163720926Y-109892103D01*
X163648569Y-109916080D01*
X163631022Y-109924575D01*
X163567316Y-109966475D01*
X163564276Y-109968412D01*
X163499375Y-110008444D01*
X163484259Y-110020757D01*
X163431910Y-110076242D01*
X163429399Y-110078827D01*
X162914359Y-110593866D01*
X162900728Y-110605646D01*
X162881470Y-110619983D01*
X162849635Y-110657923D01*
X162842338Y-110665887D01*
X162840972Y-110667252D01*
X162840950Y-110667276D01*
X162838409Y-110669818D01*
X162836173Y-110672645D01*
X162836171Y-110672648D01*
X162819176Y-110694141D01*
X162816902Y-110696932D01*
X162767894Y-110755339D01*
X162757418Y-110771782D01*
X162725192Y-110840889D01*
X162723622Y-110844131D01*
X162689393Y-110912287D01*
X162682996Y-110930693D01*
X162667573Y-111005383D01*
X162666793Y-111008900D01*
X162649208Y-111083101D01*
X162647229Y-111102474D01*
X162649448Y-111178724D01*
X162649500Y-111182330D01*
X162649500Y-114337769D01*
X162629815Y-114404808D01*
X162613181Y-114425450D01*
X161225451Y-115813181D01*
X161164128Y-115846666D01*
X161137770Y-115849500D01*
X160399751Y-115849500D01*
X160332712Y-115829815D01*
X160300485Y-115799811D01*
X160257548Y-115742456D01*
X160257546Y-115742455D01*
X160257546Y-115742454D01*
X160142331Y-115656204D01*
X160142330Y-115656203D01*
X160142328Y-115656202D01*
X160106165Y-115642714D01*
X160050232Y-115600842D01*
X160025816Y-115535377D01*
X160025500Y-115526533D01*
X160025500Y-114235353D01*
X160027764Y-114214849D01*
X160025561Y-114144736D01*
X160025500Y-114140841D01*
X160025500Y-114117150D01*
X160025500Y-114113260D01*
X160024998Y-114109287D01*
X160024080Y-114097628D01*
X160022709Y-114053983D01*
X160017120Y-114034750D01*
X160013174Y-114015692D01*
X160010664Y-113995816D01*
X159994588Y-113955214D01*
X159990804Y-113944163D01*
X159984185Y-113921382D01*
X159978618Y-113902220D01*
X159968414Y-113884965D01*
X159959861Y-113867505D01*
X159952486Y-113848878D01*
X159926808Y-113813535D01*
X159920401Y-113803781D01*
X159919532Y-113802311D01*
X159898170Y-113766190D01*
X159884006Y-113752026D01*
X159871367Y-113737227D01*
X159859595Y-113721023D01*
X159825941Y-113693183D01*
X159817299Y-113685319D01*
X159800405Y-113668425D01*
X159766920Y-113607102D01*
X159764768Y-113593726D01*
X159747119Y-113425799D01*
X159702786Y-113289356D01*
X159688624Y-113245770D01*
X159593978Y-113081838D01*
X159467315Y-112941165D01*
X159314175Y-112829903D01*
X159141247Y-112752910D01*
X158956093Y-112713555D01*
X158956091Y-112713555D01*
X158766799Y-112713555D01*
X158766797Y-112713555D01*
X158581642Y-112752910D01*
X158408714Y-112829903D01*
X158255574Y-112941165D01*
X158128911Y-113081838D01*
X158034265Y-113245770D01*
X157975771Y-113425797D01*
X157955985Y-113614055D01*
X108593525Y-113614055D01*
X108603321Y-113520845D01*
X108629905Y-113456232D01*
X108638952Y-113446136D01*
X108940510Y-113144578D01*
X119199500Y-113144578D01*
X119199501Y-113147872D01*
X119199853Y-113151152D01*
X119199854Y-113151159D01*
X119205909Y-113207484D01*
X119224418Y-113257109D01*
X119256204Y-113342331D01*
X119342454Y-113457546D01*
X119457669Y-113543796D01*
X119592517Y-113594091D01*
X119652127Y-113600500D01*
X120747872Y-113600499D01*
X120807483Y-113594091D01*
X120942331Y-113543796D01*
X121057546Y-113457546D01*
X121143796Y-113342331D01*
X121194091Y-113207483D01*
X121200500Y-113147873D01*
X121200499Y-112052128D01*
X121194091Y-111992517D01*
X121143796Y-111857669D01*
X121057546Y-111742454D01*
X120942331Y-111656204D01*
X120807483Y-111605909D01*
X120747873Y-111599500D01*
X120744550Y-111599500D01*
X119655439Y-111599500D01*
X119655420Y-111599500D01*
X119652128Y-111599501D01*
X119648848Y-111599853D01*
X119648840Y-111599854D01*
X119592515Y-111605909D01*
X119457669Y-111656204D01*
X119342454Y-111742454D01*
X119256204Y-111857668D01*
X119205910Y-111992515D01*
X119205909Y-111992517D01*
X119199500Y-112052127D01*
X119199500Y-112055448D01*
X119199500Y-112055449D01*
X119199500Y-113144560D01*
X119199500Y-113144578D01*
X108940510Y-113144578D01*
X110634286Y-111450802D01*
X110650386Y-111437905D01*
X110652374Y-111435787D01*
X110652377Y-111435786D01*
X110698464Y-111386707D01*
X110701049Y-111384039D01*
X110720620Y-111364470D01*
X110723065Y-111361316D01*
X110730654Y-111352429D01*
X110760562Y-111320582D01*
X110770213Y-111303026D01*
X110780893Y-111286767D01*
X110793174Y-111270936D01*
X110810518Y-111230851D01*
X110815660Y-111220356D01*
X110820396Y-111211742D01*
X110836697Y-111182092D01*
X110841678Y-111162688D01*
X110847980Y-111144283D01*
X110855938Y-111125895D01*
X110862770Y-111082748D01*
X110865139Y-111071316D01*
X110876000Y-111029020D01*
X110876000Y-111008983D01*
X110877527Y-110989584D01*
X110880660Y-110969804D01*
X110876550Y-110926324D01*
X110876000Y-110914655D01*
X110876000Y-110614293D01*
X110895685Y-110547254D01*
X110948489Y-110501499D01*
X111017647Y-110491555D01*
X111081201Y-110520579D01*
X111179281Y-110605567D01*
X111310158Y-110665338D01*
X111377197Y-110685023D01*
X111377201Y-110685024D01*
X111519617Y-110705500D01*
X112147463Y-110705500D01*
X112149082Y-110705500D01*
X112201569Y-110702768D01*
X112227183Y-110700094D01*
X112279119Y-110691923D01*
X112414233Y-110642469D01*
X112475761Y-110609360D01*
X112591467Y-110523846D01*
X115629830Y-107522536D01*
X126017076Y-107522536D01*
X126036862Y-107710793D01*
X126095356Y-107890820D01*
X126190002Y-108054752D01*
X126316665Y-108195425D01*
X126469805Y-108306687D01*
X126642733Y-108383680D01*
X126827888Y-108423036D01*
X126827890Y-108423036D01*
X126887084Y-108423036D01*
X126954123Y-108442721D01*
X126974765Y-108459355D01*
X127538502Y-109023093D01*
X127571987Y-109084416D01*
X127574142Y-109097812D01*
X127591790Y-109265721D01*
X127650284Y-109445748D01*
X127744930Y-109609680D01*
X127871593Y-109750353D01*
X128024733Y-109861615D01*
X128197661Y-109938608D01*
X128382816Y-109977964D01*
X128382818Y-109977964D01*
X128572112Y-109977964D01*
X128717155Y-109947134D01*
X128757267Y-109938608D01*
X128930194Y-109861615D01*
X128940942Y-109853806D01*
X129083334Y-109750353D01*
X129209997Y-109609680D01*
X129304643Y-109445748D01*
X129309134Y-109431926D01*
X129363138Y-109265720D01*
X129382924Y-109077464D01*
X129363138Y-108889208D01*
X129324247Y-108769514D01*
X129304643Y-108709179D01*
X129209997Y-108545247D01*
X129083334Y-108404574D01*
X128930194Y-108293312D01*
X128757266Y-108216319D01*
X128572112Y-108176964D01*
X128572110Y-108176964D01*
X128512917Y-108176964D01*
X128445878Y-108157279D01*
X128425236Y-108140645D01*
X127861496Y-107576905D01*
X127828011Y-107515582D01*
X127825859Y-107502204D01*
X127808210Y-107334280D01*
X127762950Y-107194985D01*
X127749715Y-107154251D01*
X127655069Y-106990319D01*
X127528406Y-106849646D01*
X127375266Y-106738384D01*
X127202338Y-106661391D01*
X127017184Y-106622036D01*
X127017182Y-106622036D01*
X126827890Y-106622036D01*
X126827888Y-106622036D01*
X126642733Y-106661391D01*
X126469805Y-106738384D01*
X126316665Y-106849646D01*
X126190002Y-106990319D01*
X126095356Y-107154251D01*
X126036862Y-107334278D01*
X126017076Y-107522536D01*
X115629830Y-107522536D01*
X117227268Y-105944578D01*
X137899500Y-105944578D01*
X137899501Y-105947872D01*
X137899853Y-105951152D01*
X137899854Y-105951159D01*
X137905158Y-106000500D01*
X137905909Y-106007483D01*
X137956204Y-106142331D01*
X138042454Y-106257546D01*
X138157669Y-106343796D01*
X138292517Y-106394091D01*
X138352127Y-106400500D01*
X139447872Y-106400499D01*
X139507483Y-106394091D01*
X139642331Y-106343796D01*
X139757546Y-106257546D01*
X139837630Y-106150566D01*
X139893562Y-106108696D01*
X139963254Y-106103712D01*
X140024577Y-106137197D01*
X140054827Y-106186560D01*
X140055539Y-106188753D01*
X140055540Y-106188756D01*
X140059709Y-106201587D01*
X140114034Y-106368784D01*
X140208680Y-106532716D01*
X140335343Y-106673389D01*
X140488483Y-106784651D01*
X140661411Y-106861644D01*
X140846566Y-106901000D01*
X140846568Y-106901000D01*
X141035862Y-106901000D01*
X141159298Y-106874762D01*
X141221017Y-106861644D01*
X141389515Y-106786622D01*
X141458764Y-106777338D01*
X141522040Y-106806966D01*
X141527631Y-106812221D01*
X141813181Y-107097771D01*
X141846666Y-107159094D01*
X141849500Y-107185452D01*
X141849500Y-108417061D01*
X141847235Y-108437571D01*
X141849439Y-108507677D01*
X141849500Y-108511572D01*
X141849500Y-108539155D01*
X141849988Y-108543024D01*
X141849989Y-108543030D01*
X141850004Y-108543148D01*
X141850918Y-108554772D01*
X141852290Y-108598431D01*
X141857879Y-108617665D01*
X141861825Y-108636721D01*
X141864335Y-108656597D01*
X141880414Y-108697209D01*
X141884197Y-108708256D01*
X141896382Y-108750196D01*
X141906580Y-108767440D01*
X141915136Y-108784905D01*
X141922514Y-108803537D01*
X141922515Y-108803538D01*
X141948180Y-108838864D01*
X141954593Y-108848627D01*
X141976826Y-108886221D01*
X141976829Y-108886224D01*
X141976830Y-108886225D01*
X141990995Y-108900390D01*
X142003627Y-108915180D01*
X142015406Y-108931392D01*
X142049058Y-108959231D01*
X142057699Y-108967094D01*
X143028056Y-109937452D01*
X143040956Y-109953553D01*
X143092083Y-110001565D01*
X143094880Y-110004276D01*
X143114389Y-110023785D01*
X143117569Y-110026252D01*
X143126431Y-110033820D01*
X143140096Y-110046653D01*
X143158278Y-110063727D01*
X143175830Y-110073376D01*
X143192098Y-110084062D01*
X143207924Y-110096338D01*
X143248006Y-110113682D01*
X143258493Y-110118820D01*
X143296767Y-110139862D01*
X143305270Y-110142044D01*
X143316168Y-110144843D01*
X143334573Y-110151143D01*
X143352964Y-110159102D01*
X143396110Y-110165935D01*
X143407528Y-110168300D01*
X143449841Y-110179165D01*
X143469876Y-110179165D01*
X143489275Y-110180692D01*
X143509056Y-110183825D01*
X143552534Y-110179715D01*
X143564204Y-110179165D01*
X147342588Y-110179165D01*
X147409627Y-110198850D01*
X147434735Y-110220191D01*
X147440464Y-110226553D01*
X147593605Y-110337816D01*
X147593606Y-110337816D01*
X147593607Y-110337817D01*
X147766532Y-110414809D01*
X147951687Y-110454165D01*
X147951689Y-110454165D01*
X148140983Y-110454165D01*
X148264418Y-110427927D01*
X148326138Y-110414809D01*
X148499065Y-110337816D01*
X148652206Y-110226553D01*
X148778868Y-110085881D01*
X148873514Y-109921949D01*
X148932009Y-109741921D01*
X148951795Y-109553665D01*
X148932009Y-109365409D01*
X148899618Y-109265720D01*
X148873514Y-109185380D01*
X148778868Y-109021448D01*
X148652205Y-108880775D01*
X148499065Y-108769513D01*
X148326137Y-108692520D01*
X148193673Y-108664364D01*
X148132191Y-108631172D01*
X148098415Y-108570009D01*
X148096134Y-108556046D01*
X148086171Y-108461244D01*
X148031607Y-108293313D01*
X148027676Y-108281215D01*
X147933030Y-108117283D01*
X147806367Y-107976610D01*
X147676615Y-107882341D01*
X147633949Y-107827012D01*
X147625500Y-107782023D01*
X147625500Y-106249187D01*
X147645185Y-106182148D01*
X147657350Y-106166214D01*
X147671438Y-106150568D01*
X147732533Y-106082716D01*
X147810385Y-105947873D01*
X147827179Y-105918784D01*
X147827179Y-105918783D01*
X147885674Y-105738756D01*
X147905460Y-105550500D01*
X147885674Y-105362244D01*
X147838107Y-105215849D01*
X147827179Y-105182215D01*
X147732533Y-105018283D01*
X147605870Y-104877610D01*
X147452730Y-104766348D01*
X147279802Y-104689355D01*
X147116384Y-104654620D01*
X147054902Y-104621428D01*
X147036844Y-104592115D01*
X147034225Y-104593628D01*
X146933062Y-104418408D01*
X146806399Y-104277735D01*
X146653259Y-104166473D01*
X146480331Y-104089480D01*
X146295177Y-104050125D01*
X146295175Y-104050125D01*
X146105883Y-104050125D01*
X146105881Y-104050125D01*
X145920726Y-104089480D01*
X145747798Y-104166473D01*
X145594658Y-104277735D01*
X145467995Y-104418408D01*
X145373349Y-104582340D01*
X145314855Y-104762367D01*
X145295069Y-104950625D01*
X145296321Y-104962541D01*
X145283750Y-105031270D01*
X145236018Y-105082293D01*
X145173000Y-105099500D01*
X145105352Y-105099500D01*
X144920199Y-105138854D01*
X144750122Y-105214578D01*
X144680872Y-105223862D01*
X144649252Y-105214578D01*
X144480298Y-105139354D01*
X144295146Y-105100000D01*
X144295144Y-105100000D01*
X144105852Y-105100000D01*
X144105850Y-105100000D01*
X143920697Y-105139354D01*
X143750683Y-105215050D01*
X143681433Y-105224334D01*
X143649812Y-105215049D01*
X143479802Y-105139355D01*
X143294648Y-105100000D01*
X143294646Y-105100000D01*
X143105354Y-105100000D01*
X143105352Y-105100000D01*
X142920197Y-105139355D01*
X142747269Y-105216348D01*
X142594129Y-105327610D01*
X142467466Y-105468283D01*
X142372818Y-105632219D01*
X142372562Y-105633009D01*
X142371282Y-105634879D01*
X142366304Y-105643503D01*
X142365645Y-105643122D01*
X142333120Y-105690681D01*
X142268759Y-105717874D01*
X142199913Y-105705954D01*
X142166953Y-105682362D01*
X142101302Y-105616711D01*
X142088406Y-105600613D01*
X142037275Y-105552598D01*
X142034478Y-105549887D01*
X142017727Y-105533136D01*
X142014971Y-105530380D01*
X142011790Y-105527912D01*
X142002922Y-105520337D01*
X141971082Y-105490438D01*
X141953524Y-105480785D01*
X141937264Y-105470104D01*
X141921436Y-105457827D01*
X141881351Y-105440480D01*
X141870861Y-105435341D01*
X141832591Y-105414302D01*
X141813191Y-105409321D01*
X141794784Y-105403019D01*
X141776397Y-105395062D01*
X141733258Y-105388229D01*
X141721824Y-105385861D01*
X141679519Y-105375000D01*
X141659484Y-105375000D01*
X141640087Y-105373473D01*
X141628417Y-105371624D01*
X141623146Y-105370790D01*
X141560012Y-105340860D01*
X141550396Y-105331289D01*
X141547083Y-105327610D01*
X141393944Y-105216348D01*
X141221016Y-105139355D01*
X141035862Y-105100000D01*
X141035860Y-105100000D01*
X140846568Y-105100000D01*
X140846566Y-105100000D01*
X140661411Y-105139355D01*
X140488483Y-105216348D01*
X140335343Y-105327610D01*
X140208680Y-105468284D01*
X140131886Y-105601295D01*
X140081319Y-105649511D01*
X140012712Y-105662733D01*
X139947847Y-105636765D01*
X139907319Y-105579851D01*
X139900499Y-105539298D01*
X139900499Y-104852128D01*
X139894091Y-104792517D01*
X139843796Y-104657669D01*
X139757546Y-104542454D01*
X139642331Y-104456204D01*
X139507483Y-104405909D01*
X139507482Y-104405908D01*
X139451166Y-104399854D01*
X139451165Y-104399853D01*
X139447873Y-104399500D01*
X139444550Y-104399500D01*
X138355439Y-104399500D01*
X138355420Y-104399500D01*
X138352128Y-104399501D01*
X138348848Y-104399853D01*
X138348840Y-104399854D01*
X138292515Y-104405909D01*
X138157669Y-104456204D01*
X138042454Y-104542454D01*
X137956204Y-104657668D01*
X137905910Y-104792515D01*
X137905909Y-104792517D01*
X137899500Y-104852127D01*
X137899500Y-104855448D01*
X137899500Y-104855449D01*
X137899500Y-105944560D01*
X137899500Y-105944578D01*
X117227268Y-105944578D01*
X120718384Y-102496036D01*
X120755776Y-102454790D01*
X120772949Y-102433612D01*
X120805566Y-102388526D01*
X120865337Y-102257649D01*
X120885022Y-102190610D01*
X120885023Y-102190606D01*
X120905499Y-102048190D01*
X120905499Y-101800000D01*
X136994540Y-101800000D01*
X137014326Y-101988257D01*
X137072820Y-102168284D01*
X137167466Y-102332216D01*
X137294129Y-102472889D01*
X137447269Y-102584151D01*
X137620197Y-102661144D01*
X137805352Y-102700500D01*
X137805354Y-102700500D01*
X137994648Y-102700500D01*
X138118084Y-102674262D01*
X138179803Y-102661144D01*
X138352730Y-102584151D01*
X138505871Y-102472888D01*
X138511598Y-102466527D01*
X138571084Y-102429879D01*
X138603747Y-102425500D01*
X141296253Y-102425500D01*
X141363292Y-102445185D01*
X141388400Y-102466526D01*
X141394129Y-102472888D01*
X141547270Y-102584151D01*
X141547271Y-102584151D01*
X141547272Y-102584152D01*
X141720197Y-102661144D01*
X141905352Y-102700500D01*
X141905354Y-102700500D01*
X142094648Y-102700500D01*
X142218083Y-102674262D01*
X142279803Y-102661144D01*
X142452730Y-102584151D01*
X142605871Y-102472888D01*
X142611598Y-102466527D01*
X142671084Y-102429879D01*
X142703747Y-102425500D01*
X145917256Y-102425500D01*
X145937762Y-102427764D01*
X145940665Y-102427672D01*
X145940667Y-102427673D01*
X146007872Y-102425561D01*
X146011768Y-102425500D01*
X146035448Y-102425500D01*
X146039350Y-102425500D01*
X146043313Y-102424999D01*
X146054962Y-102424080D01*
X146098627Y-102422709D01*
X146117859Y-102417120D01*
X146136918Y-102413174D01*
X146143196Y-102412381D01*
X146156792Y-102410664D01*
X146197407Y-102394582D01*
X146208444Y-102390803D01*
X146250390Y-102378618D01*
X146267629Y-102368422D01*
X146285102Y-102359862D01*
X146303732Y-102352486D01*
X146339064Y-102326814D01*
X146348830Y-102320400D01*
X146386418Y-102298171D01*
X146386417Y-102298171D01*
X146386420Y-102298170D01*
X146400585Y-102284004D01*
X146415373Y-102271373D01*
X146431587Y-102259594D01*
X146459438Y-102225926D01*
X146467279Y-102217309D01*
X147347771Y-101336819D01*
X147409095Y-101303334D01*
X147435453Y-101300500D01*
X147494648Y-101300500D01*
X147618083Y-101274262D01*
X147679803Y-101261144D01*
X147852730Y-101184151D01*
X147922484Y-101133472D01*
X148005870Y-101072889D01*
X148132533Y-100932216D01*
X148208868Y-100800000D01*
X151694540Y-100800000D01*
X151714326Y-100988257D01*
X151772820Y-101168284D01*
X151867464Y-101332213D01*
X151891153Y-101358522D01*
X151994129Y-101472888D01*
X151994132Y-101472890D01*
X151994133Y-101472891D01*
X152043847Y-101509011D01*
X152071270Y-101536430D01*
X152073180Y-101539059D01*
X152079597Y-101548827D01*
X152097850Y-101579690D01*
X152101830Y-101586420D01*
X152115995Y-101600585D01*
X152128627Y-101615375D01*
X152140406Y-101631587D01*
X152174058Y-101659426D01*
X152182699Y-101667289D01*
X153761038Y-103245629D01*
X153794523Y-103306952D01*
X153796678Y-103320348D01*
X153814326Y-103488257D01*
X153872820Y-103668284D01*
X153967466Y-103832216D01*
X154094129Y-103972889D01*
X154247269Y-104084151D01*
X154420197Y-104161144D01*
X154605352Y-104200500D01*
X154605354Y-104200500D01*
X154794648Y-104200500D01*
X154954727Y-104166474D01*
X154979803Y-104161144D01*
X155152730Y-104084151D01*
X155248136Y-104014835D01*
X155305870Y-103972889D01*
X155432533Y-103832216D01*
X155527179Y-103668284D01*
X155527178Y-103668283D01*
X155585674Y-103488256D01*
X155605460Y-103300000D01*
X155586497Y-103119578D01*
X156724500Y-103119578D01*
X156724501Y-103122872D01*
X156724853Y-103126152D01*
X156724854Y-103126159D01*
X156730909Y-103182484D01*
X156735698Y-103195323D01*
X156781204Y-103317331D01*
X156843090Y-103400000D01*
X156867454Y-103432546D01*
X156953504Y-103496963D01*
X156995375Y-103552897D01*
X157000359Y-103622589D01*
X156978148Y-103670956D01*
X156896712Y-103778795D01*
X156799651Y-103973721D01*
X156749494Y-104149999D01*
X156749495Y-104150000D01*
X157584314Y-104150000D01*
X157572359Y-104161955D01*
X157514835Y-104274852D01*
X157495014Y-104400000D01*
X157514835Y-104525148D01*
X157572359Y-104638045D01*
X157584314Y-104650000D01*
X156749495Y-104650000D01*
X156799651Y-104826278D01*
X156896712Y-105021205D01*
X157027944Y-105194985D01*
X157152315Y-105308363D01*
X157188597Y-105368074D01*
X157186836Y-105437921D01*
X157152315Y-105491637D01*
X157027944Y-105605014D01*
X156896712Y-105778794D01*
X156799651Y-105973721D01*
X156749494Y-106149999D01*
X156749495Y-106150000D01*
X157584314Y-106150000D01*
X157572359Y-106161955D01*
X157514835Y-106274852D01*
X157495014Y-106400000D01*
X157514835Y-106525148D01*
X157572359Y-106638045D01*
X157584314Y-106650000D01*
X156749495Y-106650000D01*
X156799651Y-106826278D01*
X156896712Y-107021205D01*
X157027944Y-107194985D01*
X157152315Y-107308363D01*
X157188597Y-107368074D01*
X157186836Y-107437921D01*
X157152315Y-107491637D01*
X157027944Y-107605014D01*
X156896712Y-107778794D01*
X156799651Y-107973721D01*
X156749494Y-108149999D01*
X156749495Y-108150000D01*
X157584314Y-108150000D01*
X157572359Y-108161955D01*
X157514835Y-108274852D01*
X157495014Y-108400000D01*
X157514835Y-108525148D01*
X157572359Y-108638045D01*
X157584314Y-108650000D01*
X156749495Y-108650000D01*
X156799651Y-108826278D01*
X156896712Y-109021205D01*
X157027944Y-109194985D01*
X157152315Y-109308363D01*
X157188597Y-109368074D01*
X157186836Y-109437921D01*
X157152315Y-109491637D01*
X157027944Y-109605014D01*
X156896712Y-109778794D01*
X156799651Y-109973721D01*
X156749494Y-110149999D01*
X156749495Y-110150000D01*
X157584314Y-110150000D01*
X157572359Y-110161955D01*
X157514835Y-110274852D01*
X157495014Y-110400000D01*
X157514835Y-110525148D01*
X157572359Y-110638045D01*
X157584314Y-110650000D01*
X156749495Y-110650000D01*
X156799651Y-110826278D01*
X156896712Y-111021205D01*
X157027944Y-111194985D01*
X157188868Y-111341685D01*
X157374012Y-111456322D01*
X157577069Y-111534986D01*
X157650000Y-111548619D01*
X157650000Y-110715686D01*
X157661955Y-110727641D01*
X157774852Y-110785165D01*
X157868519Y-110800000D01*
X157931481Y-110800000D01*
X158025148Y-110785165D01*
X158138045Y-110727641D01*
X158150000Y-110715685D01*
X158150000Y-111548619D01*
X158222930Y-111534986D01*
X158425987Y-111456322D01*
X158611131Y-111341685D01*
X158772052Y-111194987D01*
X158800730Y-111157011D01*
X158856838Y-111115374D01*
X158926550Y-111110681D01*
X158987733Y-111144422D01*
X158998640Y-111157009D01*
X159027573Y-111195323D01*
X159127878Y-111286762D01*
X159188568Y-111342088D01*
X159229148Y-111367214D01*
X159373791Y-111456773D01*
X159557991Y-111528132D01*
X159576931Y-111535470D01*
X159791074Y-111575500D01*
X159791076Y-111575500D01*
X160008924Y-111575500D01*
X160008926Y-111575500D01*
X160223069Y-111535470D01*
X160358496Y-111483004D01*
X160426208Y-111456773D01*
X160426210Y-111456772D01*
X160611432Y-111342088D01*
X160772427Y-111195322D01*
X160903712Y-111021472D01*
X161000817Y-110826459D01*
X161000818Y-110826457D01*
X161060435Y-110616925D01*
X161069362Y-110520581D01*
X161080536Y-110400000D01*
X161064464Y-110226553D01*
X161060435Y-110183074D01*
X161000818Y-109973542D01*
X160903712Y-109778528D01*
X160772426Y-109604676D01*
X160648427Y-109491637D01*
X160612145Y-109431926D01*
X160613906Y-109362079D01*
X160648427Y-109308363D01*
X160772426Y-109195323D01*
X160801358Y-109157011D01*
X160903712Y-109021472D01*
X161000817Y-108826459D01*
X161000818Y-108826457D01*
X161060435Y-108616925D01*
X161066735Y-108548935D01*
X161080536Y-108400000D01*
X161065149Y-108233948D01*
X161060435Y-108183074D01*
X161000818Y-107973542D01*
X160903712Y-107778528D01*
X160772426Y-107604676D01*
X160648427Y-107491637D01*
X160612145Y-107431926D01*
X160613906Y-107362079D01*
X160648427Y-107308363D01*
X160772426Y-107195323D01*
X160801358Y-107157011D01*
X160903712Y-107021472D01*
X161000817Y-106826459D01*
X161000818Y-106826457D01*
X161060435Y-106616925D01*
X161068939Y-106525148D01*
X161080536Y-106400000D01*
X161060435Y-106183077D01*
X161060435Y-106183074D01*
X161000818Y-105973542D01*
X160903712Y-105778528D01*
X160772426Y-105604676D01*
X160648427Y-105491637D01*
X160612145Y-105431926D01*
X160613906Y-105362079D01*
X160648427Y-105308363D01*
X160772426Y-105195323D01*
X160801358Y-105157011D01*
X160903712Y-105021472D01*
X161000817Y-104826459D01*
X161000818Y-104826457D01*
X161060435Y-104616925D01*
X161063640Y-104582340D01*
X161080536Y-104400000D01*
X161064087Y-104222489D01*
X161060435Y-104183074D01*
X161000818Y-103973542D01*
X160903712Y-103778528D01*
X160772426Y-103604676D01*
X160648427Y-103491637D01*
X160612145Y-103431926D01*
X160613906Y-103362079D01*
X160648427Y-103308363D01*
X160772426Y-103195323D01*
X160772427Y-103195322D01*
X160903712Y-103021472D01*
X161000817Y-102826459D01*
X161000818Y-102826457D01*
X161060435Y-102616925D01*
X161069821Y-102515628D01*
X161080536Y-102400000D01*
X161062936Y-102210062D01*
X161060435Y-102183074D01*
X161000818Y-101973542D01*
X160903712Y-101778528D01*
X160772426Y-101604676D01*
X160611432Y-101457912D01*
X160426208Y-101343226D01*
X160223073Y-101264531D01*
X160223070Y-101264530D01*
X160223069Y-101264530D01*
X160008926Y-101224500D01*
X159791074Y-101224500D01*
X159595045Y-101261144D01*
X159576926Y-101264531D01*
X159373794Y-101343225D01*
X159188564Y-101457914D01*
X159177584Y-101467924D01*
X159114778Y-101498537D01*
X159045391Y-101490336D01*
X158994784Y-101450593D01*
X158932546Y-101367454D01*
X158817331Y-101281204D01*
X158682483Y-101230909D01*
X158626166Y-101224854D01*
X158626165Y-101224853D01*
X158622873Y-101224500D01*
X158619550Y-101224500D01*
X157180439Y-101224500D01*
X157180420Y-101224500D01*
X157177128Y-101224501D01*
X157173848Y-101224853D01*
X157173840Y-101224854D01*
X157117515Y-101230909D01*
X156982669Y-101281204D01*
X156867454Y-101367454D01*
X156781204Y-101482668D01*
X156730909Y-101617516D01*
X156726003Y-101663152D01*
X156724500Y-101677127D01*
X156724500Y-101680448D01*
X156724500Y-101680449D01*
X156724500Y-103119560D01*
X156724500Y-103119578D01*
X155586497Y-103119578D01*
X155585674Y-103111744D01*
X155527179Y-102931716D01*
X155527179Y-102931715D01*
X155432533Y-102767783D01*
X155305870Y-102627110D01*
X155152730Y-102515848D01*
X154979802Y-102438855D01*
X154794648Y-102399500D01*
X154794646Y-102399500D01*
X154735453Y-102399500D01*
X154668414Y-102379815D01*
X154647772Y-102363181D01*
X153487211Y-101202620D01*
X153453726Y-101141297D01*
X153456960Y-101076624D01*
X153485674Y-100988256D01*
X153505460Y-100800000D01*
X153485674Y-100611744D01*
X153440557Y-100472888D01*
X153427179Y-100431715D01*
X153332533Y-100267783D01*
X153205870Y-100127110D01*
X153052730Y-100015848D01*
X152879802Y-99938855D01*
X152694648Y-99899500D01*
X152694646Y-99899500D01*
X152505354Y-99899500D01*
X152505352Y-99899500D01*
X152320197Y-99938855D01*
X152147269Y-100015848D01*
X151994129Y-100127110D01*
X151867466Y-100267783D01*
X151772820Y-100431715D01*
X151714326Y-100611742D01*
X151694540Y-100800000D01*
X148208868Y-100800000D01*
X148227179Y-100768284D01*
X148230165Y-100759094D01*
X148285674Y-100588256D01*
X148305460Y-100400000D01*
X148285674Y-100211744D01*
X148229499Y-100038855D01*
X148227179Y-100031715D01*
X148132533Y-99867783D01*
X148005870Y-99727110D01*
X147852730Y-99615848D01*
X147679802Y-99538855D01*
X147494648Y-99499500D01*
X147494646Y-99499500D01*
X147305354Y-99499500D01*
X147305352Y-99499500D01*
X147120197Y-99538855D01*
X146947269Y-99615848D01*
X146794129Y-99727110D01*
X146667466Y-99867783D01*
X146572820Y-100031715D01*
X146514326Y-100211742D01*
X146496679Y-100379650D01*
X146470094Y-100444264D01*
X146461039Y-100454369D01*
X145777228Y-101138181D01*
X145715905Y-101171666D01*
X145689547Y-101174500D01*
X142703747Y-101174500D01*
X142636708Y-101154815D01*
X142611599Y-101133473D01*
X142605871Y-101127112D01*
X142452730Y-101015849D01*
X142452729Y-101015848D01*
X142452727Y-101015847D01*
X142279802Y-100938855D01*
X142094648Y-100899500D01*
X142094646Y-100899500D01*
X141905354Y-100899500D01*
X141905352Y-100899500D01*
X141720197Y-100938855D01*
X141547272Y-101015847D01*
X141447611Y-101088255D01*
X141394129Y-101127112D01*
X141388401Y-101133472D01*
X141328916Y-101170121D01*
X141296253Y-101174500D01*
X138603747Y-101174500D01*
X138536708Y-101154815D01*
X138511599Y-101133473D01*
X138505871Y-101127112D01*
X138352730Y-101015849D01*
X138352729Y-101015848D01*
X138352727Y-101015847D01*
X138179802Y-100938855D01*
X137994648Y-100899500D01*
X137994646Y-100899500D01*
X137805354Y-100899500D01*
X137805352Y-100899500D01*
X137620197Y-100938855D01*
X137447269Y-101015848D01*
X137294129Y-101127110D01*
X137167466Y-101267783D01*
X137072820Y-101431715D01*
X137014326Y-101611742D01*
X136994540Y-101800000D01*
X120905499Y-101800000D01*
X120905499Y-98180000D01*
X129374837Y-98180000D01*
X129393450Y-98392744D01*
X129448724Y-98599031D01*
X129538979Y-98792582D01*
X129661471Y-98967520D01*
X129812479Y-99118528D01*
X129987417Y-99241020D01*
X129987418Y-99241020D01*
X129987419Y-99241021D01*
X130180970Y-99331276D01*
X130387253Y-99386549D01*
X130600000Y-99405162D01*
X130812747Y-99386549D01*
X131019030Y-99331276D01*
X131212581Y-99241021D01*
X131387519Y-99118529D01*
X131538529Y-98967519D01*
X131661021Y-98792581D01*
X131751276Y-98599030D01*
X131806549Y-98392747D01*
X131825162Y-98180000D01*
X131806549Y-97967253D01*
X131751276Y-97760970D01*
X131661021Y-97567419D01*
X131598210Y-97477714D01*
X131538528Y-97392479D01*
X131387520Y-97241471D01*
X131212582Y-97118979D01*
X131009198Y-97024139D01*
X131010195Y-97021999D01*
X130963294Y-96993413D01*
X130932762Y-96930567D01*
X130941055Y-96861191D01*
X130985539Y-96807312D01*
X131009446Y-96796393D01*
X131009198Y-96795861D01*
X131141077Y-96734364D01*
X131212581Y-96701021D01*
X131387519Y-96578529D01*
X131538529Y-96427519D01*
X131661021Y-96252581D01*
X131751276Y-96059030D01*
X131806549Y-95852747D01*
X131825162Y-95640000D01*
X131806549Y-95427253D01*
X131751276Y-95220970D01*
X131661021Y-95027419D01*
X131601779Y-94942811D01*
X131538528Y-94852479D01*
X131387520Y-94701471D01*
X131385419Y-94700000D01*
X136800000Y-94700000D01*
X136800000Y-99300000D01*
X147400000Y-99300000D01*
X147400000Y-98020000D01*
X159054531Y-98020000D01*
X159074364Y-98246689D01*
X159133261Y-98466497D01*
X159229432Y-98672735D01*
X159359953Y-98859140D01*
X159520859Y-99020046D01*
X159707264Y-99150567D01*
X159707265Y-99150567D01*
X159707266Y-99150568D01*
X159913504Y-99246739D01*
X160133308Y-99305635D01*
X160284436Y-99318856D01*
X160359999Y-99325468D01*
X160359999Y-99325467D01*
X160360000Y-99325468D01*
X160586692Y-99305635D01*
X160806496Y-99246739D01*
X161012734Y-99150568D01*
X161199139Y-99020047D01*
X161360047Y-98859139D01*
X161490568Y-98672734D01*
X161517618Y-98614724D01*
X161563790Y-98562285D01*
X161630983Y-98543133D01*
X161697865Y-98563348D01*
X161742381Y-98614724D01*
X161750310Y-98631727D01*
X161769431Y-98672733D01*
X161899953Y-98859140D01*
X162060859Y-99020046D01*
X162247264Y-99150567D01*
X162247265Y-99150567D01*
X162247266Y-99150568D01*
X162453504Y-99246739D01*
X162673308Y-99305635D01*
X162824436Y-99318856D01*
X162899999Y-99325468D01*
X162899999Y-99325467D01*
X162900000Y-99325468D01*
X163126692Y-99305635D01*
X163346496Y-99246739D01*
X163552734Y-99150568D01*
X163560367Y-99145223D01*
X163626570Y-99122894D01*
X163694338Y-99139902D01*
X163742153Y-99190848D01*
X163754834Y-99259557D01*
X163749423Y-99285113D01*
X163700319Y-99436239D01*
X163680533Y-99624499D01*
X163700319Y-99812755D01*
X163713717Y-99853991D01*
X163715711Y-99923832D01*
X163679629Y-99983664D01*
X163646221Y-100005586D01*
X163501460Y-100070038D01*
X163348320Y-100181300D01*
X163221657Y-100321973D01*
X163127011Y-100485905D01*
X163068517Y-100665932D01*
X163048731Y-100854190D01*
X163068517Y-101042447D01*
X163127011Y-101222474D01*
X163221655Y-101386403D01*
X163296841Y-101469904D01*
X163327071Y-101532896D01*
X163328691Y-101552877D01*
X163328691Y-102515628D01*
X163309006Y-102582667D01*
X163296841Y-102598601D01*
X163294131Y-102601610D01*
X163294129Y-102601612D01*
X163271169Y-102627112D01*
X163167464Y-102742286D01*
X163072820Y-102906215D01*
X163014326Y-103086242D01*
X162994540Y-103274500D01*
X163014326Y-103462757D01*
X163072820Y-103642784D01*
X163167466Y-103806716D01*
X163294129Y-103947389D01*
X163447269Y-104058651D01*
X163620197Y-104135644D01*
X163805352Y-104175000D01*
X163805354Y-104175000D01*
X163994648Y-104175000D01*
X164118084Y-104148762D01*
X164179803Y-104135644D01*
X164352730Y-104058651D01*
X164469873Y-103973542D01*
X164505870Y-103947389D01*
X164632533Y-103806716D01*
X164727179Y-103642784D01*
X164774559Y-103496963D01*
X164785674Y-103462756D01*
X164805460Y-103274500D01*
X164785674Y-103086244D01*
X164727179Y-102906216D01*
X164727179Y-102906215D01*
X164632533Y-102742283D01*
X164611541Y-102718969D01*
X164581311Y-102655977D01*
X164579691Y-102635997D01*
X164579691Y-101552877D01*
X164599376Y-101485838D01*
X164611541Y-101469904D01*
X164630249Y-101449127D01*
X164686724Y-101386406D01*
X164687302Y-101385406D01*
X164781370Y-101222474D01*
X164796958Y-101174500D01*
X164839865Y-101042446D01*
X164859651Y-100854190D01*
X164839865Y-100665934D01*
X164826466Y-100624699D01*
X164824472Y-100554859D01*
X164860552Y-100495026D01*
X164893959Y-100473103D01*
X165038723Y-100408650D01*
X165191864Y-100297387D01*
X165197591Y-100291026D01*
X165257077Y-100254378D01*
X165289740Y-100249999D01*
X167214047Y-100249999D01*
X167281086Y-100269684D01*
X167301728Y-100286318D01*
X167713181Y-100697771D01*
X167746666Y-100759094D01*
X167749500Y-100785452D01*
X167749500Y-101017561D01*
X167747235Y-101038071D01*
X167749439Y-101108177D01*
X167749500Y-101112072D01*
X167749500Y-101139655D01*
X167749988Y-101143524D01*
X167749989Y-101143530D01*
X167750004Y-101143648D01*
X167750918Y-101155272D01*
X167752290Y-101198931D01*
X167757879Y-101218165D01*
X167761825Y-101237221D01*
X167764335Y-101257097D01*
X167780414Y-101297709D01*
X167784197Y-101308756D01*
X167796382Y-101350696D01*
X167806580Y-101367940D01*
X167815136Y-101385405D01*
X167822514Y-101404037D01*
X167822515Y-101404038D01*
X167848180Y-101439364D01*
X167854593Y-101449127D01*
X167876826Y-101486721D01*
X167876829Y-101486724D01*
X167876830Y-101486725D01*
X167890995Y-101500890D01*
X167903627Y-101515680D01*
X167915406Y-101531892D01*
X167949058Y-101559731D01*
X167957699Y-101567594D01*
X168473892Y-102083787D01*
X168486793Y-102099889D01*
X168488907Y-102101874D01*
X168488909Y-102101877D01*
X168536256Y-102146339D01*
X168537935Y-102147916D01*
X168540731Y-102150626D01*
X168560225Y-102170120D01*
X168563310Y-102172513D01*
X168563396Y-102172580D01*
X168572268Y-102180158D01*
X168600448Y-102206620D01*
X168604113Y-102210062D01*
X168617276Y-102217298D01*
X168621667Y-102219712D01*
X168637931Y-102230396D01*
X168649667Y-102239499D01*
X168653759Y-102242673D01*
X168678604Y-102253424D01*
X168693847Y-102260021D01*
X168704326Y-102265154D01*
X168742603Y-102286197D01*
X168762001Y-102291177D01*
X168780403Y-102297477D01*
X168798799Y-102305438D01*
X168841956Y-102312273D01*
X168853359Y-102314634D01*
X168895676Y-102325500D01*
X168896252Y-102325500D01*
X168900257Y-102326676D01*
X168910850Y-102329396D01*
X168910756Y-102329759D01*
X168963291Y-102345185D01*
X168988399Y-102366525D01*
X168994129Y-102372888D01*
X169023994Y-102394586D01*
X169147269Y-102484151D01*
X169320197Y-102561144D01*
X169505352Y-102600500D01*
X169505354Y-102600500D01*
X169694648Y-102600500D01*
X169818084Y-102574262D01*
X169879803Y-102561144D01*
X170052730Y-102484151D01*
X170106362Y-102445185D01*
X170205870Y-102372889D01*
X170209890Y-102368425D01*
X170332533Y-102232216D01*
X170427179Y-102068284D01*
X170485674Y-101888256D01*
X170505460Y-101700000D01*
X170485674Y-101511744D01*
X170433346Y-101350695D01*
X170427179Y-101331715D01*
X170332533Y-101167783D01*
X170205870Y-101027110D01*
X170055420Y-100917803D01*
X170041691Y-100899999D01*
X180694540Y-100899999D01*
X180714326Y-101088256D01*
X180772820Y-101268283D01*
X180867466Y-101432215D01*
X180994129Y-101572888D01*
X181147269Y-101684150D01*
X181320197Y-101761143D01*
X181505352Y-101800499D01*
X181505354Y-101800499D01*
X181694648Y-101800499D01*
X181818083Y-101774261D01*
X181879803Y-101761143D01*
X182052730Y-101684150D01*
X182152389Y-101611744D01*
X182205870Y-101572888D01*
X182211597Y-101566528D01*
X182271084Y-101529879D01*
X182303747Y-101525500D01*
X182860753Y-101525500D01*
X182927792Y-101545185D01*
X182952900Y-101566526D01*
X182958629Y-101572888D01*
X183111770Y-101684151D01*
X183111771Y-101684151D01*
X183111772Y-101684152D01*
X183284697Y-101761144D01*
X183469852Y-101800500D01*
X183469854Y-101800500D01*
X183659148Y-101800500D01*
X183782584Y-101774262D01*
X183844303Y-101761144D01*
X184017230Y-101684151D01*
X184051261Y-101659426D01*
X184170370Y-101572889D01*
X184176098Y-101566528D01*
X184297033Y-101432216D01*
X184391679Y-101268284D01*
X184450174Y-101088256D01*
X184469960Y-100900000D01*
X184469907Y-100899500D01*
X184459925Y-100804522D01*
X184450174Y-100711744D01*
X184417681Y-100611742D01*
X184391679Y-100531715D01*
X184297033Y-100367783D01*
X184170370Y-100227110D01*
X184017230Y-100115848D01*
X183844302Y-100038855D01*
X183659148Y-99999500D01*
X183659146Y-99999500D01*
X183469854Y-99999500D01*
X183469852Y-99999500D01*
X183284697Y-100038855D01*
X183111772Y-100115847D01*
X183039599Y-100168284D01*
X182958629Y-100227112D01*
X182952901Y-100233472D01*
X182893416Y-100270121D01*
X182860753Y-100274500D01*
X182303749Y-100274500D01*
X182236710Y-100254815D01*
X182211600Y-100233473D01*
X182205870Y-100227110D01*
X182052730Y-100115847D01*
X181879802Y-100038854D01*
X181694648Y-99999499D01*
X181694646Y-99999499D01*
X181505354Y-99999499D01*
X181505352Y-99999499D01*
X181320197Y-100038854D01*
X181147269Y-100115847D01*
X180994129Y-100227109D01*
X180867466Y-100367782D01*
X180772820Y-100531714D01*
X180714326Y-100711741D01*
X180694540Y-100899999D01*
X170041691Y-100899999D01*
X170012754Y-100862473D01*
X170004984Y-100804524D01*
X170005460Y-100800000D01*
X169999787Y-100746032D01*
X170012356Y-100677307D01*
X170060087Y-100626283D01*
X170072662Y-100619799D01*
X170152730Y-100584151D01*
X170288315Y-100485643D01*
X170305870Y-100472889D01*
X170342943Y-100431716D01*
X170432533Y-100332216D01*
X170527179Y-100168284D01*
X170585674Y-99988256D01*
X170605460Y-99800000D01*
X170585674Y-99611744D01*
X170555332Y-99518363D01*
X170527179Y-99431715D01*
X170432533Y-99267783D01*
X170305870Y-99127110D01*
X170152730Y-99015848D01*
X169979802Y-98938855D01*
X169794648Y-98899500D01*
X169794646Y-98899500D01*
X169685633Y-98899500D01*
X169618594Y-98879815D01*
X169597952Y-98863181D01*
X169425982Y-98691211D01*
X169413086Y-98675113D01*
X169361955Y-98627098D01*
X169359158Y-98624387D01*
X169342407Y-98607636D01*
X169339651Y-98604880D01*
X169336470Y-98602412D01*
X169327602Y-98594837D01*
X169295762Y-98564938D01*
X169278204Y-98555285D01*
X169261944Y-98544604D01*
X169246116Y-98532327D01*
X169206031Y-98514980D01*
X169195541Y-98509841D01*
X169157271Y-98488802D01*
X169137871Y-98483821D01*
X169119464Y-98477519D01*
X169101077Y-98469562D01*
X169057938Y-98462729D01*
X169046504Y-98460361D01*
X169004199Y-98449500D01*
X168984164Y-98449500D01*
X168964766Y-98447973D01*
X168957342Y-98446797D01*
X168944985Y-98444840D01*
X168944984Y-98444840D01*
X168911931Y-98447964D01*
X168901505Y-98448950D01*
X168889836Y-98449500D01*
X168721849Y-98449500D01*
X168654810Y-98429815D01*
X168634168Y-98413181D01*
X168287198Y-98066211D01*
X168274302Y-98050113D01*
X168223171Y-98002098D01*
X168220374Y-97999387D01*
X168203623Y-97982636D01*
X168200867Y-97979880D01*
X168197686Y-97977412D01*
X168188818Y-97969837D01*
X168156978Y-97939938D01*
X168139420Y-97930285D01*
X168123160Y-97919604D01*
X168107332Y-97907327D01*
X168067247Y-97889980D01*
X168056757Y-97884841D01*
X168018487Y-97863802D01*
X167999087Y-97858821D01*
X167980680Y-97852519D01*
X167962293Y-97844562D01*
X167919154Y-97837729D01*
X167907720Y-97835361D01*
X167865415Y-97824500D01*
X167845375Y-97824499D01*
X167825988Y-97822973D01*
X167806201Y-97819839D01*
X167765099Y-97823724D01*
X167762722Y-97823949D01*
X167751056Y-97824499D01*
X166909176Y-97824499D01*
X166842137Y-97804814D01*
X166796382Y-97752010D01*
X166785856Y-97713463D01*
X166785675Y-97711747D01*
X166727179Y-97531715D01*
X166632533Y-97367783D01*
X166505870Y-97227110D01*
X166352730Y-97115848D01*
X166179802Y-97038855D01*
X165994648Y-96999500D01*
X165994646Y-96999500D01*
X165805354Y-96999500D01*
X165805352Y-96999500D01*
X165620197Y-97038855D01*
X165447269Y-97115848D01*
X165294129Y-97227110D01*
X165167466Y-97367783D01*
X165072820Y-97531715D01*
X165014326Y-97711742D01*
X164994540Y-97900000D01*
X165014326Y-98088257D01*
X165072820Y-98268284D01*
X165113071Y-98338000D01*
X165129544Y-98405900D01*
X165113071Y-98461999D01*
X165072822Y-98531712D01*
X165023462Y-98683628D01*
X164984024Y-98741304D01*
X164919666Y-98768502D01*
X164879338Y-98762324D01*
X164878544Y-98766064D01*
X164680641Y-98723999D01*
X164680639Y-98723999D01*
X164491347Y-98723999D01*
X164491345Y-98723999D01*
X164306192Y-98763353D01*
X164208002Y-98807071D01*
X164138752Y-98816355D01*
X164075476Y-98786727D01*
X164038263Y-98727592D01*
X164038928Y-98657725D01*
X164045178Y-98641401D01*
X164126739Y-98466496D01*
X164185635Y-98246692D01*
X164205468Y-98020000D01*
X164185635Y-97793308D01*
X164126739Y-97573504D01*
X164030568Y-97367266D01*
X163948459Y-97250000D01*
X163900046Y-97180859D01*
X163739140Y-97019953D01*
X163552735Y-96889432D01*
X163346497Y-96793261D01*
X163126689Y-96734364D01*
X162900000Y-96714531D01*
X162673310Y-96734364D01*
X162453502Y-96793261D01*
X162247264Y-96889432D01*
X162060859Y-97019953D01*
X161899953Y-97180859D01*
X161769433Y-97367263D01*
X161742382Y-97425275D01*
X161696209Y-97477714D01*
X161629015Y-97496865D01*
X161562134Y-97476649D01*
X161517618Y-97425275D01*
X161502325Y-97392479D01*
X161490568Y-97367266D01*
X161360047Y-97180861D01*
X161360046Y-97180859D01*
X161199140Y-97019953D01*
X161012735Y-96889432D01*
X160806497Y-96793261D01*
X160586689Y-96734364D01*
X160359999Y-96714531D01*
X160133310Y-96734364D01*
X159913502Y-96793261D01*
X159707264Y-96889432D01*
X159520859Y-97019953D01*
X159359953Y-97180859D01*
X159229432Y-97367264D01*
X159133261Y-97573502D01*
X159074364Y-97793310D01*
X159054531Y-98020000D01*
X147400000Y-98020000D01*
X147400000Y-95947229D01*
X152799500Y-95947229D01*
X152799501Y-95950523D01*
X152805909Y-96010134D01*
X152856204Y-96144982D01*
X152942454Y-96260197D01*
X153057669Y-96346447D01*
X153192517Y-96396742D01*
X153252127Y-96403151D01*
X154947872Y-96403150D01*
X155007483Y-96396742D01*
X155142331Y-96346447D01*
X155257546Y-96260197D01*
X155343796Y-96144982D01*
X155394091Y-96010134D01*
X155400500Y-95950524D01*
X155400499Y-94254779D01*
X155394091Y-94195168D01*
X155343796Y-94060320D01*
X155257546Y-93945105D01*
X155142331Y-93858855D01*
X155007483Y-93808560D01*
X154947873Y-93802151D01*
X154944550Y-93802151D01*
X153255439Y-93802151D01*
X153255420Y-93802151D01*
X153252128Y-93802152D01*
X153248848Y-93802504D01*
X153248840Y-93802505D01*
X153192515Y-93808560D01*
X153057669Y-93858855D01*
X152942454Y-93945105D01*
X152856204Y-94060319D01*
X152805910Y-94195166D01*
X152805909Y-94195168D01*
X152799500Y-94254778D01*
X152799500Y-94258099D01*
X152799500Y-94258100D01*
X152799500Y-95947211D01*
X152799500Y-95947229D01*
X147400000Y-95947229D01*
X147400000Y-94700000D01*
X136800000Y-94700000D01*
X131385419Y-94700000D01*
X131212582Y-94578979D01*
X131009198Y-94484139D01*
X131010075Y-94482257D01*
X130962317Y-94453142D01*
X130931793Y-94390293D01*
X130940094Y-94320918D01*
X130984584Y-94267044D01*
X131009216Y-94255797D01*
X131009026Y-94255389D01*
X131212325Y-94160589D01*
X131268030Y-94121583D01*
X130644401Y-93497953D01*
X130725148Y-93485165D01*
X130838045Y-93427641D01*
X130927641Y-93338045D01*
X130985165Y-93225148D01*
X130997953Y-93144400D01*
X131621583Y-93768030D01*
X131660589Y-93712325D01*
X131750802Y-93518861D01*
X131806055Y-93312657D01*
X131822517Y-93124499D01*
X170794541Y-93124499D01*
X170814327Y-93312756D01*
X170872821Y-93492783D01*
X170967467Y-93656715D01*
X171094130Y-93797388D01*
X171247270Y-93908650D01*
X171420198Y-93985643D01*
X171605353Y-94024999D01*
X171605355Y-94024999D01*
X171794649Y-94024999D01*
X171918084Y-93998761D01*
X171979804Y-93985643D01*
X172152731Y-93908650D01*
X172305872Y-93797387D01*
X172432534Y-93656715D01*
X172527180Y-93492783D01*
X172585675Y-93312755D01*
X172605461Y-93124499D01*
X172585675Y-92936243D01*
X172536257Y-92784151D01*
X172527180Y-92756214D01*
X172432534Y-92592282D01*
X172357351Y-92508783D01*
X172327121Y-92445792D01*
X172325501Y-92425811D01*
X172325501Y-92173560D01*
X172345186Y-92106521D01*
X172357351Y-92090587D01*
X172368312Y-92078414D01*
X172432534Y-92007089D01*
X172527180Y-91843157D01*
X172585675Y-91663129D01*
X172605461Y-91474873D01*
X172585675Y-91286617D01*
X172555333Y-91193236D01*
X172527180Y-91106588D01*
X172491379Y-91044578D01*
X173624500Y-91044578D01*
X173624501Y-91047872D01*
X173624853Y-91051152D01*
X173624854Y-91051159D01*
X173627530Y-91076048D01*
X173630909Y-91107483D01*
X173681204Y-91242331D01*
X173767454Y-91357546D01*
X173882669Y-91443796D01*
X174017517Y-91494091D01*
X174077127Y-91500500D01*
X175772872Y-91500499D01*
X175832483Y-91494091D01*
X175967331Y-91443796D01*
X176082546Y-91357546D01*
X176168796Y-91242331D01*
X176219091Y-91107483D01*
X176222943Y-91071646D01*
X176249681Y-91007098D01*
X176307073Y-90967249D01*
X176376898Y-90964754D01*
X176436987Y-91000406D01*
X176447808Y-91013780D01*
X176465338Y-91038816D01*
X176626180Y-91199658D01*
X176812519Y-91330134D01*
X177018673Y-91426266D01*
X177214999Y-91478871D01*
X177215000Y-91478871D01*
X177215000Y-90515685D01*
X177226955Y-90527641D01*
X177339852Y-90585165D01*
X177433519Y-90600000D01*
X177496481Y-90600000D01*
X177590148Y-90585165D01*
X177703045Y-90527641D01*
X177715000Y-90515685D01*
X177715000Y-91478871D01*
X177911326Y-91426266D01*
X178117480Y-91330134D01*
X178303819Y-91199658D01*
X178464658Y-91038819D01*
X178595134Y-90852480D01*
X178691266Y-90646326D01*
X178743872Y-90450000D01*
X177780686Y-90450000D01*
X177792641Y-90438045D01*
X177850165Y-90325148D01*
X177869986Y-90200000D01*
X177850165Y-90074852D01*
X177792641Y-89961955D01*
X177780686Y-89950000D01*
X178743872Y-89950000D01*
X178743871Y-89949999D01*
X178691266Y-89753673D01*
X178595134Y-89547519D01*
X178464658Y-89361180D01*
X178303819Y-89200341D01*
X178117480Y-89069865D01*
X177911326Y-88973733D01*
X177715000Y-88921126D01*
X177715000Y-89884314D01*
X177703045Y-89872359D01*
X177590148Y-89814835D01*
X177496481Y-89800000D01*
X177433519Y-89800000D01*
X177339852Y-89814835D01*
X177226955Y-89872359D01*
X177215000Y-89884314D01*
X177215000Y-88921126D01*
X177214999Y-88921126D01*
X177018673Y-88973733D01*
X176812519Y-89069865D01*
X176626180Y-89200341D01*
X176465340Y-89361181D01*
X176447805Y-89386223D01*
X176393226Y-89429846D01*
X176323728Y-89437037D01*
X176261374Y-89405512D01*
X176225962Y-89345281D01*
X176222943Y-89328358D01*
X176219091Y-89292517D01*
X176168796Y-89157669D01*
X176082546Y-89042454D01*
X175967331Y-88956204D01*
X175832483Y-88905909D01*
X175772873Y-88899500D01*
X175769550Y-88899500D01*
X174080439Y-88899500D01*
X174080420Y-88899500D01*
X174077128Y-88899501D01*
X174073848Y-88899853D01*
X174073840Y-88899854D01*
X174017515Y-88905909D01*
X173882669Y-88956204D01*
X173767454Y-89042454D01*
X173681204Y-89157668D01*
X173630909Y-89292516D01*
X173627057Y-89328348D01*
X173624500Y-89352127D01*
X173624500Y-89355448D01*
X173624500Y-89355449D01*
X173624500Y-91044560D01*
X173624500Y-91044578D01*
X172491379Y-91044578D01*
X172432534Y-90942656D01*
X172305871Y-90801983D01*
X172152731Y-90690721D01*
X171979803Y-90613728D01*
X171794649Y-90574373D01*
X171794647Y-90574373D01*
X171605355Y-90574373D01*
X171605353Y-90574373D01*
X171420198Y-90613728D01*
X171247270Y-90690721D01*
X171094130Y-90801983D01*
X170967467Y-90942656D01*
X170872821Y-91106588D01*
X170814327Y-91286615D01*
X170794541Y-91474872D01*
X170794541Y-91474873D01*
X170800256Y-91529253D01*
X170814327Y-91663130D01*
X170872821Y-91843157D01*
X170967465Y-92007086D01*
X171042651Y-92090587D01*
X171072881Y-92153579D01*
X171074501Y-92173560D01*
X171074501Y-92425811D01*
X171054816Y-92492850D01*
X171042651Y-92508783D01*
X170967467Y-92592282D01*
X170872821Y-92756214D01*
X170814327Y-92936241D01*
X170794541Y-93124499D01*
X131822517Y-93124499D01*
X131824660Y-93100000D01*
X131806055Y-92887342D01*
X131750802Y-92681138D01*
X131660587Y-92487670D01*
X131621583Y-92431967D01*
X130997953Y-93055598D01*
X130985165Y-92974852D01*
X130927641Y-92861955D01*
X130838045Y-92772359D01*
X130725148Y-92714835D01*
X130644399Y-92702046D01*
X131268031Y-92078415D01*
X131212326Y-92039410D01*
X131018861Y-91949197D01*
X130812657Y-91893944D01*
X130600000Y-91875339D01*
X130387342Y-91893944D01*
X130181138Y-91949197D01*
X129987672Y-92039411D01*
X129931967Y-92078414D01*
X129931967Y-92078415D01*
X130555597Y-92702046D01*
X130474852Y-92714835D01*
X130361955Y-92772359D01*
X130272359Y-92861955D01*
X130214835Y-92974852D01*
X130202046Y-93055598D01*
X129578414Y-92431967D01*
X129539411Y-92487672D01*
X129449197Y-92681138D01*
X129393944Y-92887342D01*
X129375339Y-93100000D01*
X129393944Y-93312657D01*
X129449197Y-93518861D01*
X129539410Y-93712326D01*
X129578415Y-93768030D01*
X129578416Y-93768031D01*
X130202046Y-93144400D01*
X130214835Y-93225148D01*
X130272359Y-93338045D01*
X130361955Y-93427641D01*
X130474852Y-93485165D01*
X130555599Y-93497953D01*
X129931967Y-94121583D01*
X129987670Y-94160587D01*
X130190974Y-94255389D01*
X130190074Y-94257317D01*
X130237668Y-94286322D01*
X130268202Y-94349166D01*
X130259914Y-94418543D01*
X130215433Y-94472424D01*
X130190624Y-94483757D01*
X130190802Y-94484139D01*
X129987417Y-94578979D01*
X129812479Y-94701471D01*
X129661471Y-94852479D01*
X129538979Y-95027417D01*
X129448724Y-95220968D01*
X129393450Y-95427255D01*
X129374837Y-95640000D01*
X129393450Y-95852744D01*
X129448724Y-96059031D01*
X129538979Y-96252582D01*
X129661471Y-96427520D01*
X129812479Y-96578528D01*
X129987417Y-96701020D01*
X130190802Y-96795861D01*
X130189804Y-96798000D01*
X130236709Y-96826591D01*
X130267237Y-96889438D01*
X130258942Y-96958814D01*
X130214456Y-97012691D01*
X130190554Y-97023607D01*
X130190802Y-97024139D01*
X129987417Y-97118979D01*
X129812479Y-97241471D01*
X129661471Y-97392479D01*
X129538979Y-97567417D01*
X129448724Y-97760968D01*
X129393450Y-97967255D01*
X129374837Y-98180000D01*
X120905499Y-98180000D01*
X120905498Y-91650937D01*
X137995630Y-91650937D01*
X138026443Y-91852071D01*
X138097113Y-92042886D01*
X138204745Y-92215568D01*
X138204748Y-92215571D01*
X138344941Y-92363053D01*
X138511951Y-92479295D01*
X138698942Y-92559540D01*
X138898259Y-92600500D01*
X138949241Y-92600500D01*
X139016280Y-92620185D01*
X139041390Y-92641527D01*
X139069628Y-92672888D01*
X139222769Y-92784151D01*
X139395697Y-92861144D01*
X139580852Y-92900500D01*
X139580854Y-92900500D01*
X139770148Y-92900500D01*
X139893583Y-92874262D01*
X139955303Y-92861144D01*
X140128230Y-92784151D01*
X140281371Y-92672888D01*
X140309610Y-92641527D01*
X140369097Y-92604879D01*
X140401759Y-92600500D01*
X143798241Y-92600500D01*
X143865280Y-92620185D01*
X143890390Y-92641527D01*
X143918628Y-92672888D01*
X144071769Y-92784151D01*
X144244697Y-92861144D01*
X144429852Y-92900500D01*
X144429854Y-92900500D01*
X144619148Y-92900500D01*
X144742583Y-92874262D01*
X144804303Y-92861144D01*
X144977230Y-92784151D01*
X145130371Y-92672888D01*
X145130370Y-92672888D01*
X145158610Y-92641527D01*
X145218097Y-92604879D01*
X145250759Y-92600500D01*
X149498241Y-92600500D01*
X149565280Y-92620185D01*
X149590390Y-92641527D01*
X149618628Y-92672888D01*
X149771769Y-92784151D01*
X149944697Y-92861144D01*
X150129852Y-92900500D01*
X150129854Y-92900500D01*
X150319148Y-92900500D01*
X150442584Y-92874262D01*
X150504303Y-92861144D01*
X150677230Y-92784151D01*
X150772636Y-92714835D01*
X150830370Y-92672889D01*
X150858609Y-92641527D01*
X150918096Y-92604878D01*
X150944482Y-92600658D01*
X150947597Y-92600500D01*
X150950742Y-92600500D01*
X151102438Y-92585074D01*
X151296588Y-92524159D01*
X151474502Y-92425409D01*
X151628895Y-92292866D01*
X151753448Y-92131958D01*
X151843060Y-91949271D01*
X151894063Y-91752285D01*
X151904369Y-91549064D01*
X151895947Y-91494091D01*
X151873556Y-91347928D01*
X151856787Y-91302651D01*
X152795033Y-91302651D01*
X152814858Y-91529253D01*
X152873733Y-91748977D01*
X152969866Y-91955135D01*
X153020972Y-92028122D01*
X153020973Y-92028123D01*
X153702045Y-91347050D01*
X153714835Y-91427799D01*
X153772359Y-91540696D01*
X153861955Y-91630292D01*
X153974852Y-91687816D01*
X154055599Y-91700604D01*
X153374526Y-92381676D01*
X153374526Y-92381677D01*
X153447515Y-92432784D01*
X153653673Y-92528917D01*
X153873397Y-92587792D01*
X154100000Y-92607617D01*
X154326602Y-92587792D01*
X154546326Y-92528917D01*
X154752480Y-92432785D01*
X154825472Y-92381676D01*
X154144401Y-91700604D01*
X154225148Y-91687816D01*
X154338045Y-91630292D01*
X154427641Y-91540696D01*
X154485165Y-91427799D01*
X154497953Y-91347051D01*
X155179025Y-92028123D01*
X155230134Y-91955131D01*
X155326266Y-91748977D01*
X155385141Y-91529253D01*
X155404966Y-91302651D01*
X155385141Y-91076048D01*
X155326266Y-90856324D01*
X155230133Y-90650166D01*
X155230017Y-90650000D01*
X159081128Y-90650000D01*
X159133733Y-90846326D01*
X159229865Y-91052480D01*
X159360341Y-91238819D01*
X159521180Y-91399658D01*
X159707519Y-91530134D01*
X159913673Y-91626266D01*
X160109999Y-91678871D01*
X160110000Y-91678871D01*
X160110000Y-90715686D01*
X160121955Y-90727641D01*
X160234852Y-90785165D01*
X160328519Y-90800000D01*
X160391481Y-90800000D01*
X160485148Y-90785165D01*
X160598045Y-90727641D01*
X160610000Y-90715685D01*
X160610000Y-91678871D01*
X160806326Y-91626266D01*
X161012480Y-91530134D01*
X161198819Y-91399658D01*
X161359661Y-91238816D01*
X161377192Y-91213780D01*
X161431769Y-91170155D01*
X161501267Y-91162961D01*
X161563622Y-91194484D01*
X161599036Y-91254713D01*
X161602057Y-91271649D01*
X161605909Y-91307484D01*
X161614357Y-91330134D01*
X161656204Y-91442331D01*
X161742454Y-91557546D01*
X161857669Y-91643796D01*
X161992517Y-91694091D01*
X162052127Y-91700500D01*
X163747872Y-91700499D01*
X163807483Y-91694091D01*
X163942331Y-91643796D01*
X164057546Y-91557546D01*
X164143796Y-91442331D01*
X164194091Y-91307483D01*
X164200500Y-91247873D01*
X164200499Y-89552128D01*
X164194091Y-89492517D01*
X164143796Y-89357669D01*
X164057546Y-89242454D01*
X163942331Y-89156204D01*
X163807483Y-89105909D01*
X163747873Y-89099500D01*
X163744550Y-89099500D01*
X162055439Y-89099500D01*
X162055420Y-89099500D01*
X162052128Y-89099501D01*
X162048848Y-89099853D01*
X162048840Y-89099854D01*
X161992515Y-89105909D01*
X161857669Y-89156204D01*
X161742454Y-89242454D01*
X161656204Y-89357668D01*
X161605907Y-89492520D01*
X161602055Y-89528352D01*
X161575317Y-89592903D01*
X161517924Y-89632751D01*
X161448099Y-89635244D01*
X161388010Y-89599591D01*
X161377191Y-89586219D01*
X161359660Y-89561182D01*
X161198819Y-89400341D01*
X161012480Y-89269865D01*
X160806326Y-89173733D01*
X160610000Y-89121126D01*
X160610000Y-90084314D01*
X160598045Y-90072359D01*
X160485148Y-90014835D01*
X160391481Y-90000000D01*
X160328519Y-90000000D01*
X160234852Y-90014835D01*
X160121955Y-90072359D01*
X160110000Y-90084313D01*
X160110000Y-89121126D01*
X160109999Y-89121126D01*
X159913673Y-89173733D01*
X159707519Y-89269865D01*
X159521180Y-89400341D01*
X159360341Y-89561180D01*
X159229865Y-89747519D01*
X159133733Y-89953673D01*
X159081128Y-90149999D01*
X159081128Y-90150000D01*
X160044314Y-90150000D01*
X160032359Y-90161955D01*
X159974835Y-90274852D01*
X159955014Y-90400000D01*
X159974835Y-90525148D01*
X160032359Y-90638045D01*
X160044314Y-90650000D01*
X159081128Y-90650000D01*
X155230017Y-90650000D01*
X155179025Y-90577177D01*
X154497953Y-91258249D01*
X154485165Y-91177503D01*
X154427641Y-91064606D01*
X154338045Y-90975010D01*
X154225148Y-90917486D01*
X154144400Y-90904697D01*
X154825472Y-90223625D01*
X154825471Y-90223623D01*
X154752484Y-90172517D01*
X154546326Y-90076384D01*
X154326602Y-90017509D01*
X154100000Y-89997684D01*
X153873397Y-90017509D01*
X153653672Y-90076384D01*
X153447516Y-90172516D01*
X153374527Y-90223624D01*
X153374526Y-90223624D01*
X154055600Y-90904697D01*
X153974852Y-90917486D01*
X153861955Y-90975010D01*
X153772359Y-91064606D01*
X153714835Y-91177503D01*
X153702046Y-91258249D01*
X153020973Y-90577178D01*
X152969865Y-90650167D01*
X152873733Y-90856323D01*
X152814858Y-91076048D01*
X152795033Y-91302651D01*
X151856787Y-91302651D01*
X151802886Y-91157113D01*
X151695254Y-90984431D01*
X151688803Y-90977644D01*
X151555059Y-90836947D01*
X151388049Y-90720705D01*
X151201058Y-90640460D01*
X151001741Y-90599500D01*
X151001739Y-90599500D01*
X150951066Y-90599500D01*
X150884027Y-90579815D01*
X150858917Y-90558474D01*
X150833450Y-90530191D01*
X150680312Y-90418930D01*
X150507384Y-90341937D01*
X150322230Y-90302582D01*
X150322228Y-90302582D01*
X150132936Y-90302582D01*
X150132934Y-90302582D01*
X149947779Y-90341937D01*
X149774851Y-90418930D01*
X149621713Y-90530191D01*
X149596247Y-90558474D01*
X149536759Y-90595121D01*
X149504098Y-90599500D01*
X145251066Y-90599500D01*
X145184027Y-90579815D01*
X145158917Y-90558474D01*
X145133450Y-90530191D01*
X144980312Y-90418930D01*
X144807384Y-90341937D01*
X144622230Y-90302582D01*
X144622228Y-90302582D01*
X144432936Y-90302582D01*
X144432934Y-90302582D01*
X144247779Y-90341937D01*
X144074851Y-90418930D01*
X143921713Y-90530191D01*
X143896247Y-90558474D01*
X143836759Y-90595121D01*
X143804098Y-90599500D01*
X140424718Y-90599500D01*
X140357679Y-90579815D01*
X140332568Y-90558472D01*
X140281370Y-90501610D01*
X140128230Y-90390348D01*
X139955302Y-90313355D01*
X139770148Y-90274000D01*
X139770146Y-90274000D01*
X139580854Y-90274000D01*
X139580852Y-90274000D01*
X139395697Y-90313355D01*
X139222769Y-90390348D01*
X139069628Y-90501611D01*
X139016748Y-90560340D01*
X138957261Y-90596988D01*
X138937145Y-90600731D01*
X138797559Y-90614926D01*
X138603412Y-90675841D01*
X138425500Y-90774589D01*
X138271104Y-90907135D01*
X138146551Y-91068042D01*
X138056940Y-91250727D01*
X138029283Y-91357546D01*
X138007332Y-91442330D01*
X138005937Y-91447716D01*
X137995630Y-91650937D01*
X120905498Y-91650937D01*
X120905498Y-91360744D01*
X120925184Y-91293706D01*
X120941818Y-91273064D01*
X122173064Y-90041819D01*
X122234387Y-90008334D01*
X122260745Y-90005500D01*
X131047985Y-90005500D01*
X131049532Y-90005500D01*
X131100472Y-90002927D01*
X131125332Y-90000409D01*
X131126876Y-90000173D01*
X131126903Y-90000170D01*
X131160728Y-89995008D01*
X131175735Y-89992719D01*
X131311154Y-89944107D01*
X131363786Y-89916205D01*
X131369810Y-89913626D01*
X131372886Y-89911381D01*
X131372889Y-89911381D01*
X131489127Y-89826585D01*
X135515595Y-85898323D01*
X135554236Y-85856097D01*
X135571959Y-85834379D01*
X135605567Y-85788074D01*
X135665338Y-85657197D01*
X135685023Y-85590158D01*
X135685024Y-85590154D01*
X135705500Y-85447738D01*
X135705500Y-85311878D01*
X137119500Y-85311878D01*
X137119501Y-85315008D01*
X137119820Y-85318140D01*
X137119821Y-85318141D01*
X137130000Y-85417796D01*
X137185186Y-85584334D01*
X137277288Y-85733657D01*
X137401342Y-85857711D01*
X137426420Y-85873179D01*
X137550666Y-85949814D01*
X137662016Y-85986712D01*
X137717202Y-86004999D01*
X137816858Y-86015180D01*
X137816859Y-86015180D01*
X137819991Y-86015500D01*
X139160008Y-86015499D01*
X139262797Y-86004999D01*
X139429334Y-85949814D01*
X139578656Y-85857712D01*
X139702712Y-85733656D01*
X139794814Y-85584334D01*
X139794814Y-85584333D01*
X139802422Y-85571999D01*
X139806003Y-85574208D01*
X139830736Y-85538475D01*
X139895247Y-85511642D01*
X139964025Y-85523946D01*
X139998206Y-85549111D01*
X140121272Y-85677516D01*
X140308839Y-85816240D01*
X140517153Y-85921270D01*
X140740220Y-85989583D01*
X140971624Y-86019216D01*
X141204707Y-86009314D01*
X141432765Y-85960164D01*
X141649235Y-85873179D01*
X141847891Y-85750862D01*
X142023018Y-85596731D01*
X142169578Y-85415220D01*
X142183121Y-85390975D01*
X142192103Y-85374899D01*
X142241982Y-85325972D01*
X142310395Y-85311779D01*
X142375621Y-85336826D01*
X142403092Y-85365935D01*
X142499847Y-85509088D01*
X142661272Y-85677516D01*
X142848839Y-85816240D01*
X143057153Y-85921270D01*
X143280220Y-85989583D01*
X143511624Y-86019216D01*
X143744707Y-86009314D01*
X143972765Y-85960164D01*
X144189235Y-85873179D01*
X144387891Y-85750862D01*
X144563018Y-85596731D01*
X144709578Y-85415220D01*
X144723121Y-85390975D01*
X144732103Y-85374899D01*
X144781982Y-85325972D01*
X144850395Y-85311779D01*
X144915621Y-85336826D01*
X144943092Y-85365935D01*
X145039847Y-85509088D01*
X145201272Y-85677516D01*
X145388839Y-85816240D01*
X145597153Y-85921270D01*
X145820220Y-85989583D01*
X146051624Y-86019216D01*
X146284707Y-86009314D01*
X146512765Y-85960164D01*
X146729235Y-85873179D01*
X146927891Y-85750862D01*
X147103018Y-85596731D01*
X147223322Y-85447738D01*
X147249576Y-85415223D01*
X147270467Y-85377827D01*
X147363354Y-85211552D01*
X147432136Y-85016878D01*
X151859500Y-85016878D01*
X151859501Y-85020008D01*
X151859820Y-85023140D01*
X151859821Y-85023141D01*
X151870000Y-85122796D01*
X151925186Y-85289334D01*
X152017288Y-85438657D01*
X152141342Y-85562711D01*
X152159982Y-85574208D01*
X152290666Y-85654814D01*
X152376073Y-85683115D01*
X152457202Y-85709999D01*
X152556858Y-85720180D01*
X152556859Y-85720180D01*
X152559991Y-85720500D01*
X153900008Y-85720499D01*
X154002797Y-85709999D01*
X154169334Y-85654814D01*
X154318656Y-85562712D01*
X154442712Y-85438656D01*
X154534814Y-85289334D01*
X154534814Y-85289333D01*
X154542422Y-85276999D01*
X154545748Y-85279050D01*
X154571074Y-85242464D01*
X154635587Y-85215634D01*
X154704364Y-85227941D01*
X154740245Y-85254919D01*
X154838604Y-85361765D01*
X155017839Y-85501269D01*
X155217590Y-85609369D01*
X155432409Y-85683116D01*
X155656437Y-85720500D01*
X155656438Y-85720500D01*
X155883562Y-85720500D01*
X155883563Y-85720500D01*
X156107591Y-85683116D01*
X156322410Y-85609369D01*
X156522161Y-85501269D01*
X156701396Y-85361765D01*
X156855224Y-85194663D01*
X156971377Y-85016878D01*
X160859500Y-85016878D01*
X160859501Y-85020008D01*
X160859820Y-85023140D01*
X160859821Y-85023141D01*
X160870000Y-85122796D01*
X160925186Y-85289334D01*
X161017288Y-85438657D01*
X161141342Y-85562711D01*
X161159982Y-85574208D01*
X161290666Y-85654814D01*
X161376073Y-85683115D01*
X161457202Y-85709999D01*
X161556858Y-85720180D01*
X161556859Y-85720180D01*
X161559991Y-85720500D01*
X162900008Y-85720499D01*
X163002797Y-85709999D01*
X163169334Y-85654814D01*
X163318656Y-85562712D01*
X163442712Y-85438656D01*
X163534814Y-85289334D01*
X163534814Y-85289333D01*
X163542422Y-85276999D01*
X163545748Y-85279050D01*
X163571074Y-85242464D01*
X163635587Y-85215634D01*
X163704364Y-85227941D01*
X163740245Y-85254919D01*
X163838604Y-85361765D01*
X164017839Y-85501269D01*
X164217590Y-85609369D01*
X164432409Y-85683116D01*
X164656437Y-85720500D01*
X164656438Y-85720500D01*
X164883562Y-85720500D01*
X164883563Y-85720500D01*
X165107591Y-85683116D01*
X165322410Y-85609369D01*
X165522161Y-85501269D01*
X165701396Y-85361765D01*
X165855224Y-85194663D01*
X165979450Y-85004521D01*
X166070685Y-84796526D01*
X166126441Y-84576350D01*
X166145197Y-84350000D01*
X166126441Y-84123650D01*
X166070685Y-83903474D01*
X165979450Y-83695479D01*
X165967284Y-83676858D01*
X165855226Y-83505340D01*
X165855225Y-83505339D01*
X165855224Y-83505337D01*
X165701396Y-83338235D01*
X165522161Y-83198731D01*
X165322410Y-83090631D01*
X165322409Y-83090630D01*
X165322406Y-83090629D01*
X165107593Y-83016884D01*
X164900270Y-82982288D01*
X164883563Y-82979500D01*
X164656437Y-82979500D01*
X164639730Y-82982288D01*
X164432406Y-83016884D01*
X164217593Y-83090629D01*
X164017837Y-83198732D01*
X163838603Y-83338235D01*
X163740248Y-83445078D01*
X163680360Y-83481069D01*
X163610522Y-83478968D01*
X163552906Y-83439444D01*
X163543512Y-83422328D01*
X163542422Y-83423001D01*
X163442711Y-83261342D01*
X163318657Y-83137288D01*
X163169334Y-83045186D01*
X163002797Y-82990000D01*
X162903141Y-82979819D01*
X162903122Y-82979818D01*
X162900009Y-82979500D01*
X162896860Y-82979500D01*
X161563140Y-82979500D01*
X161563120Y-82979500D01*
X161559992Y-82979501D01*
X161556860Y-82979820D01*
X161556858Y-82979821D01*
X161457203Y-82990000D01*
X161290665Y-83045186D01*
X161141342Y-83137288D01*
X161017288Y-83261342D01*
X160925186Y-83410665D01*
X160870000Y-83577202D01*
X160859819Y-83676858D01*
X160859817Y-83676878D01*
X160859500Y-83679991D01*
X160859500Y-83683138D01*
X160859500Y-83683139D01*
X160859500Y-85016859D01*
X160859500Y-85016878D01*
X156971377Y-85016878D01*
X156979450Y-85004521D01*
X157070685Y-84796526D01*
X157126441Y-84576350D01*
X157145197Y-84350000D01*
X157126441Y-84123650D01*
X157070685Y-83903474D01*
X156979450Y-83695479D01*
X156967284Y-83676858D01*
X156855226Y-83505340D01*
X156855225Y-83505339D01*
X156855224Y-83505337D01*
X156701396Y-83338235D01*
X156522161Y-83198731D01*
X156322410Y-83090631D01*
X156322409Y-83090630D01*
X156322406Y-83090629D01*
X156107593Y-83016884D01*
X155900270Y-82982288D01*
X155883563Y-82979500D01*
X155656437Y-82979500D01*
X155639730Y-82982288D01*
X155432406Y-83016884D01*
X155217593Y-83090629D01*
X155017837Y-83198732D01*
X154838603Y-83338235D01*
X154740248Y-83445078D01*
X154680360Y-83481069D01*
X154610522Y-83478968D01*
X154552906Y-83439444D01*
X154543512Y-83422328D01*
X154542422Y-83423001D01*
X154442711Y-83261342D01*
X154318657Y-83137288D01*
X154169334Y-83045186D01*
X154002797Y-82990000D01*
X153903141Y-82979819D01*
X153903122Y-82979818D01*
X153900009Y-82979500D01*
X153896860Y-82979500D01*
X152563140Y-82979500D01*
X152563120Y-82979500D01*
X152559992Y-82979501D01*
X152556860Y-82979820D01*
X152556858Y-82979821D01*
X152457203Y-82990000D01*
X152290665Y-83045186D01*
X152141342Y-83137288D01*
X152017288Y-83261342D01*
X151925186Y-83410665D01*
X151870000Y-83577202D01*
X151859819Y-83676858D01*
X151859817Y-83676878D01*
X151859500Y-83679991D01*
X151859500Y-83683138D01*
X151859500Y-83683139D01*
X151859500Y-85016859D01*
X151859500Y-85016878D01*
X147432136Y-85016878D01*
X147441073Y-84991584D01*
X147450706Y-84935408D01*
X147480500Y-84761649D01*
X147480500Y-84139415D01*
X147480500Y-84136784D01*
X147465670Y-83962547D01*
X147430793Y-83828599D01*
X147406885Y-83736779D01*
X147310792Y-83524198D01*
X147180153Y-83330912D01*
X147018727Y-83162483D01*
X146831161Y-83023760D01*
X146622847Y-82918730D01*
X146399780Y-82850417D01*
X146399779Y-82850416D01*
X146168376Y-82820784D01*
X146168372Y-82820784D01*
X145935295Y-82830685D01*
X145707232Y-82879836D01*
X145490768Y-82966819D01*
X145292107Y-83089139D01*
X145116980Y-83243270D01*
X144970423Y-83424777D01*
X144947895Y-83465103D01*
X144898014Y-83514028D01*
X144829601Y-83528220D01*
X144764376Y-83503171D01*
X144736907Y-83474064D01*
X144730850Y-83465103D01*
X144640153Y-83330912D01*
X144478728Y-83162484D01*
X144424375Y-83122285D01*
X144291161Y-83023760D01*
X144082847Y-82918730D01*
X143859780Y-82850417D01*
X143859779Y-82850416D01*
X143628376Y-82820784D01*
X143628372Y-82820784D01*
X143395295Y-82830685D01*
X143167232Y-82879836D01*
X142950768Y-82966819D01*
X142752107Y-83089139D01*
X142576980Y-83243270D01*
X142430423Y-83424777D01*
X142407895Y-83465103D01*
X142358014Y-83514028D01*
X142289601Y-83528220D01*
X142224376Y-83503171D01*
X142196907Y-83474064D01*
X142190850Y-83465103D01*
X142100153Y-83330912D01*
X141938728Y-83162484D01*
X141884375Y-83122285D01*
X141751161Y-83023760D01*
X141542847Y-82918730D01*
X141319780Y-82850417D01*
X141319780Y-82850416D01*
X141088376Y-82820784D01*
X141088372Y-82820784D01*
X140855295Y-82830685D01*
X140627232Y-82879836D01*
X140410768Y-82966819D01*
X140212107Y-83089139D01*
X140036981Y-83243269D01*
X140005086Y-83282770D01*
X139947655Y-83322562D01*
X139877827Y-83324987D01*
X139817773Y-83289276D01*
X139804449Y-83266750D01*
X139802422Y-83268001D01*
X139787167Y-83243269D01*
X139751508Y-83185456D01*
X139702711Y-83106342D01*
X139578657Y-82982288D01*
X139429334Y-82890186D01*
X139262797Y-82835000D01*
X139163141Y-82824819D01*
X139163122Y-82824818D01*
X139160009Y-82824500D01*
X139156860Y-82824500D01*
X137823140Y-82824500D01*
X137823120Y-82824500D01*
X137819992Y-82824501D01*
X137816860Y-82824820D01*
X137816858Y-82824821D01*
X137717203Y-82835000D01*
X137550665Y-82890186D01*
X137401342Y-82982288D01*
X137277288Y-83106342D01*
X137185186Y-83255665D01*
X137130000Y-83422202D01*
X137119819Y-83521858D01*
X137119817Y-83521878D01*
X137119500Y-83524991D01*
X137119500Y-83528138D01*
X137119500Y-83528139D01*
X137119500Y-85311859D01*
X137119500Y-85311878D01*
X135705500Y-85311878D01*
X135705500Y-81374499D01*
X135705500Y-81374498D01*
X135725185Y-81307460D01*
X135777989Y-81261705D01*
X135829500Y-81250499D01*
X160449500Y-81250499D01*
X174124283Y-81277848D01*
G37*
%TD.AperFunction*%
%TA.AperFunction,Conductor*%
G36*
X183940000Y-91884498D02*
G01*
X183832315Y-91835320D01*
X183725763Y-91820000D01*
X183654237Y-91820000D01*
X183547685Y-91835320D01*
X183440000Y-91884498D01*
X183440000Y-90215501D01*
X183547685Y-90264680D01*
X183654237Y-90280000D01*
X183725763Y-90280000D01*
X183832315Y-90264680D01*
X183940000Y-90215501D01*
X183940000Y-91884498D01*
G37*
%TD.AperFunction*%
%TA.AperFunction,Conductor*%
G36*
X183940000Y-89344498D02*
G01*
X183832315Y-89295320D01*
X183725763Y-89280000D01*
X183654237Y-89280000D01*
X183547685Y-89295320D01*
X183440000Y-89344498D01*
X183440000Y-87675501D01*
X183547685Y-87724680D01*
X183654237Y-87740000D01*
X183725763Y-87740000D01*
X183832315Y-87724680D01*
X183940000Y-87675501D01*
X183940000Y-89344498D01*
G37*
%TD.AperFunction*%
%TA.AperFunction,Conductor*%
G36*
X183940000Y-86804498D02*
G01*
X183832315Y-86755320D01*
X183725763Y-86740000D01*
X183654237Y-86740000D01*
X183547685Y-86755320D01*
X183440000Y-86804498D01*
X183440000Y-85135501D01*
X183547685Y-85184680D01*
X183654237Y-85200000D01*
X183725763Y-85200000D01*
X183832315Y-85184680D01*
X183940000Y-85135501D01*
X183940000Y-86804498D01*
G37*
%TD.AperFunction*%
%TD*%
%TA.AperFunction,Conductor*%
%TO.N,GND*%
G36*
X175795444Y-133524622D02*
G01*
X175825694Y-133573985D01*
X175881036Y-133744311D01*
X175975682Y-133908243D01*
X176102345Y-134048916D01*
X176255485Y-134160178D01*
X176428413Y-134237171D01*
X176566528Y-134266528D01*
X176600000Y-134300000D01*
X176600000Y-137749406D01*
X176599139Y-137749499D01*
X167600861Y-137749499D01*
X167600000Y-137749246D01*
X167600000Y-133000000D01*
X175270822Y-133000000D01*
X175795444Y-133524622D01*
G37*
%TD.AperFunction*%
%TD*%
%TA.AperFunction,Conductor*%
%TO.N,GND*%
G36*
X147400000Y-99300000D02*
G01*
X136800000Y-99300000D01*
X136800000Y-94700000D01*
X147400000Y-94700000D01*
X147400000Y-99300000D01*
G37*
%TD.AperFunction*%
%TD*%
M02*
