M48
; DRILL file {KiCad 7.0.5-7.0.5~ubuntu22.04.1} date wto, 6 cze 2023, 13:21:42
; FORMAT={-:-/ absolute / inch / decimal}
; #@! TF.CreationDate,2023-06-06T13:21:42+02:00
; #@! TF.GenerationSoftware,Kicad,Pcbnew,7.0.5-7.0.5~ubuntu22.04.1
; #@! TF.FileFunction,Plated,1,2,PTH
FMAT,2
INCH
; #@! TA.AperFunction,Plated,PTH,ComponentDrill
T1C0.0118
; #@! TA.AperFunction,Plated,PTH,ViaDrill
T2C0.0157
; #@! TA.AperFunction,Plated,PTH,ComponentDrill
T3C0.0197
; #@! TA.AperFunction,Plated,PTH,ComponentDrill
T4C0.0217
; #@! TA.AperFunction,Plated,PTH,ComponentDrill
T5C0.0315
; #@! TA.AperFunction,Plated,PTH,ComponentDrill
T6C0.0394
; #@! TA.AperFunction,Plated,PTH,ComponentDrill
T7C0.0429
; #@! TA.AperFunction,Plated,PTH,ComponentDrill
T8C0.0469
%
G90
G05
T1
X5.4193Y-3.7677
X5.4193Y-3.8189
X5.4193Y-3.8701
X5.4894Y-3.7677
X5.4894Y-3.8189
X5.4894Y-3.8701
X5.5594Y-3.7677
X5.5594Y-3.8189
X5.5594Y-3.8701
X5.6295Y-3.7677
X5.6295Y-3.8189
X5.6295Y-3.8701
X5.6996Y-3.7677
X5.6996Y-3.8189
X5.6996Y-3.8701
X5.7697Y-3.7677
X5.7697Y-3.8189
X5.7697Y-3.8701
T2
X4.0236Y-3.6929
X4.0551Y-5.1299
X4.0591Y-4.2126
X4.0591Y-4.2953
X4.1063Y-3.6929
X4.1368Y-4.9449
X4.1457Y-4.7598
X4.189Y-3.6929
X4.2165Y-5.1334
X4.2402Y-4.4685
X4.248Y-3.9606
X4.2677Y-3.248
X4.2677Y-3.2874
X4.2677Y-3.3307
X4.2677Y-3.3898
X4.2677Y-3.4331
X4.2677Y-3.4764
X4.2717Y-3.6929
X4.2874Y-3.9606
X4.3268Y-3.9606
X4.3398Y-5.0889
X4.3622Y-4.4724
X4.378Y-5.0984
X4.3976Y-4.4724
X4.4134Y-4.2126
X4.4331Y-4.437
X4.4331Y-4.4724
X4.4419Y-4.2406
X4.4685Y-4.437
X4.4685Y-4.4724
X4.5118Y-4.189
X4.7362Y-4.185
X4.8268Y-3.5945
X4.8268Y-3.6299
X4.8268Y-3.6654
X4.8622Y-3.5945
X4.8622Y-3.6299
X4.8622Y-3.6654
X4.997Y-4.2332
X5.0582Y-4.2944
X5.2677Y-4.1142
X5.2756Y-3.9567
X5.2835Y-4.4488
X5.3307Y-4.5354
X5.3307Y-4.5748
X5.3307Y-4.6142
X5.3425Y-4.4724
X5.3543Y-3.4724
X5.3543Y-3.5079
X5.3543Y-3.5433
X5.378Y-4.5354
X5.378Y-4.5748
X5.378Y-4.6142
X5.3819Y-5.2165
X5.4213Y-4.4449
X5.4213Y-5.2165
X5.4291Y-4.0079
X5.4685Y-4.4449
X5.4724Y-3.6063
X5.499Y-3.5895
X5.499Y-3.622
X5.5489Y-4.1732
X5.5906Y-4.0079
X5.6378Y-4.1732
X5.6378Y-4.2598
X5.6772Y-4.2775
X5.6772Y-4.1732
X5.6899Y-3.622
X5.6901Y-3.5907
X5.7165Y-3.6063
X5.7165Y-4.1732
X5.7165Y-4.2775
X5.7559Y-4.1319
X5.7559Y-4.2775
X5.7677Y-3.4459
X5.7835Y-3.4173
X5.7874Y-4.1555
X5.7953Y-4.2775
X5.7992Y-3.4449
X5.8031Y-3.9528
X5.8286Y-4.3131
X5.9016Y-3.6614
X5.9144Y-3.622
X5.9145Y-3.5907
X5.9409Y-3.6063
X6.0079Y-3.9685
X6.063Y-4.5906
X6.0866Y-4.3898
X6.0906Y-4.0669
X6.2544Y-4.473
X6.3445Y-4.6594
X6.3888Y-4.6585
X6.4094Y-5.1535
X6.4326Y-4.658
X6.437Y-4.5669
X6.4528Y-4.0659
X6.4549Y-3.9706
X6.4648Y-4.5948
X6.4693Y-4.3878
X6.4764Y-4.4843
X6.4798Y-3.9222
X6.4803Y-4.4449
X6.4927Y-4.6226
X6.5315Y-3.8543
X6.5315Y-3.8937
X6.5472Y-4.5984
X6.5472Y-4.9291
X6.5787Y-3.8071
X6.5827Y-4.6299
X6.6063Y-4.0197
X6.6102Y-4.3858
X6.6575Y-3.9685
X6.6699Y-4.5118
X6.6772Y-4.0039
X6.6811Y-3.9291
X6.686Y-3.5276
X6.748Y-4.5079
X6.7598Y-3.6014
X6.7598Y-3.6663
X6.8071Y-5.1614
X6.811Y-5.1102
X6.8504Y-4.1063
X6.8504Y-4.1614
X6.8504Y-4.2165
X6.8504Y-5.2402
X6.8583Y-4.9331
X6.8898Y-4.0669
X6.8898Y-4.2559
X6.8937Y-5.2402
X6.9085Y-4.6535
X6.9402Y-5.3043
X6.9449Y-4.0669
X6.9449Y-4.2559
X6.957Y-5.251
X6.9961Y-5.2559
X7.0Y-4.0669
X7.0Y-4.2559
X7.0235Y-4.6182
X7.0236Y-4.4941
X7.0315Y-5.3031
X7.0394Y-4.1063
X7.0394Y-4.1614
X7.0394Y-4.2165
X7.063Y-4.4764
X7.0945Y-3.8071
X7.126Y-4.9764
X7.126Y-5.0709
X7.1496Y-3.9724
X7.1496Y-5.3189
X7.1732Y-5.0236
X7.1932Y-4.4462
X7.1932Y-4.6181
X7.2205Y-4.9764
X7.2205Y-5.0709
X7.2269Y-3.9331
X7.2269Y-3.9724
X7.2405Y-4.6181
X7.2441Y-4.5039
X7.2717Y-5.126
T3
X4.7323Y-4.4331
X5.4685Y-4.1496
X6.1575Y-5.1063
X6.2756Y-4.5906
X6.8858Y-5.0315
X6.9685Y-5.0315
X6.9764Y-4.6693
X7.0906Y-4.8583
X7.2677Y-5.3465
T5
X4.1929Y-5.252
X4.3425Y-5.252
X5.1417Y-3.6654
X5.1417Y-3.7654
X5.1417Y-3.8654
X6.0669Y-3.5946
X6.0669Y-3.7442
X6.2165Y-4.0315
X6.2165Y-4.1102
X6.2165Y-4.189
X6.2165Y-4.2677
X6.2165Y-4.3465
X6.2402Y-4.7637
X6.2402Y-4.9133
X6.2953Y-4.0315
X6.2953Y-4.1102
X6.2953Y-4.189
X6.2953Y-4.2677
X6.2953Y-4.3465
X6.3134Y-3.5591
X6.3134Y-3.8591
X6.4134Y-3.5591
X6.4134Y-3.8591
X6.8868Y-3.2512
X6.8868Y-3.5512
X6.9868Y-3.2512
X6.9868Y-3.5512
T6
X4.4882Y-4.689
X4.685Y-4.689
X5.2126Y-4.9803
X5.4094Y-4.9803
X7.1319Y-3.3346
X7.1319Y-3.4346
X7.1319Y-3.5346
X7.1319Y-3.6346
X7.2319Y-3.3346
X7.2319Y-3.4346
X7.2319Y-3.5346
X7.2319Y-3.6346
T7
X3.9469Y-4.5366
X3.9469Y-4.6366
X5.0917Y-3.3366
X5.1917Y-3.3366
X6.0327Y-3.3209
X6.1327Y-3.3209
X6.387Y-3.3209
X6.487Y-3.3209
T8
X3.8819Y-3.3819
X3.9819Y-3.3819
X4.0819Y-3.3819
X4.1819Y-3.3819
X5.4524Y-3.3236
X5.5524Y-3.3236
X5.6524Y-3.3236
X5.7524Y-3.3236
X5.9547Y-5.2945
X6.0547Y-5.2945
X6.1547Y-5.2945
X6.2547Y-5.2945
X6.3547Y-5.2945
X6.4547Y-5.2945
T3
G00X6.6378Y-5.373
M15
G01X6.6378Y-5.3986
M16
G05
G00X6.9134Y-5.373
M15
G01X6.9134Y-5.3986
M16
G05
T4
G00X6.6713Y-5.2795
M15
G01X6.6831Y-5.2795
M16
G05
G00X6.8681Y-5.2795
M15
G01X6.8799Y-5.2795
M16
G05
T0
M30
